M48
;GenerationSoftware,Autodesk,EAGLE,9.7.0*%
;CreationDate,2020-10-19T02:57:00Z*%
FMAT,2
ICI,OFF
METRIC,TZ,000.000
T10C0.254
T9C0.350
T8C0.600
T7C1.000
T6C1.016
T5C1.200
T4C1.300
T3C1.600
T2C2.311
T1C3.200
%
G90
M71
T1
X72508Y29036
X72508Y40466
X77191Y4166
X3759Y45695
X77343Y45669
X4343Y4064
T2
X71218Y21984
X71218Y8852
T3
X69503Y27131
X69503Y42331
T4
X2517Y26784
X2517Y11084
X7417Y26184
X7417Y11684
T5
X2591Y36144
X2591Y39644
T6
X62408Y2604
X64948Y2604
X67488Y2604
X70028Y2604
T7
X66158Y35386
X66158Y32846
X66158Y30306
X63618Y39196
X76503Y28131
X76503Y41331
X76503Y38831
X76503Y30631
X66158Y37926
X63618Y36656
X63618Y34116
X63618Y31576
T8
X44015Y44715
X35015Y44715
T9
X47896Y37914
X49454Y37567
T10
X40005Y26619
X27051Y26314
X11963Y35458
X16010Y37345
X30175Y24652
X19992Y37363
X29566Y24652
X20003Y38213
X25597Y37358
X39205Y31432
X25565Y42190
X24282Y34165
X40005Y32258
X23982Y38226
X39243Y33096
X25603Y35535
X37186Y33096
X36719Y34740
X37186Y34315
X26365Y36525
X41679Y33094
X36652Y36144
X40843Y33096
X37109Y35687
X36246Y34061
X32942Y34308
X39243Y30658
X23223Y40335
X26441Y40488
X38405Y30658
X25070Y40335
X23833Y40373
X24765Y41390
X39243Y32258
X40093Y29046
X27661Y38368
X40005Y33096
X24752Y36512
X28403Y38182
X26975Y40030
X39243Y33858
X24765Y37363
X39169Y29894
X23165Y42135
X36271Y25933
X21604Y40051
X21733Y34665
X21167Y38370
X13335Y35916
X17597Y40488
X12776Y35916
X16850Y40505
X27457Y34646
X28081Y36297
X14783Y34696
X15926Y35306
X38067Y37033
X44044Y29896
X19964Y42164
X43219Y31508
X43256Y26670
X42418Y29032
X44793Y25844
X46405Y27532
X44805Y27432
X43967Y28270
X42380Y28257
X47274Y29863
X42399Y25838
X59792Y43713
X48034Y27423
X59512Y8077
X19888Y22235
X15570Y21844
X16510Y21819
X14308Y21416
X44755Y9931
X30658Y9855
X6604Y22174
X54923Y48364
X57455Y41504
X25781Y7366
X77343Y24917
X76606Y35509
X66142Y46990
X63551Y47625
X25756Y43358
X14605Y44018
X16739Y38506
X22200Y39624
X20803Y43078
X23571Y43434
X28321Y45263
X18364Y35662
X21692Y33782
X17579Y41349
X26492Y35611
X24765Y34976
X24003Y13056
X26340Y14427
X22911Y18517
X13818Y19126
X15697Y15672
X10185Y12497
X24184Y22377
X13640Y10846
X20980Y10236
X38049Y20549
X24282Y18263
X24206Y19329
X24308Y20498
X24257Y21412
X24155Y11684
X24536Y10211
X36170Y3073
X45491Y2540
X55728Y5690
X67742Y7391
X57201Y13462
X65634Y24867
X71501Y24917
X62332Y18517
X59334Y18237
X51613Y19685
X10058Y20726
X10897Y27432
X71476Y11811
X17399Y21844
X47117Y39268
X39076Y37948
X57429Y38417
X54686Y32334
X45645Y28226
X45624Y21913
X47993Y25863
X46450Y25844
X23881Y44319
X56134Y15189
X56286Y27407
X61009Y22025
X58661Y22021
X61034Y24417
X58662Y24418
X6604Y17678
X6604Y19177
X6604Y16205
X6604Y14681
X12192Y1473
X17551Y6350
X15088Y6375
X15926Y9030
X51885Y37230
X51611Y46939
X43753Y38241
X51689Y41466
X46489Y41869
X48024Y33913
X45167Y47549
X58753Y47083
X62687Y20422
X63246Y25425
X53315Y27965
X57099Y29032
X60554Y32461
X49263Y36576
X36288Y44177
X44017Y35865
X27916Y43435
X18745Y38303
X58496Y6375
X18114Y45861
X33071Y43967
X37951Y39318
X47473Y45136
X37262Y45136
X41237Y36183
X19506Y45914
X52476Y29007
X59690Y3810
X59690Y1918
X37605Y41000
X7485Y8761
X16433Y44652
X53489Y35830
X39938Y29863
X21579Y37359
X46406Y28286
X46406Y26695
X45622Y29951
X42443Y26695
X44044Y26695
X47193Y25857
X58572Y43527
X44770Y25066
X48774Y29063
X60728Y41961
X42520Y30658
X42456Y31481
X60703Y40615
X60706Y41275
X45644Y31496
X47244Y31496
X58073Y40894
X48049Y29863
X49624Y33862
X62103Y44806
X62103Y44094
X62103Y43307
X41605Y31496
X41605Y29896
X41605Y28296
X28277Y34627
X15392Y34392
X54284Y39929
X28413Y35535
X17551Y43231
X19955Y41345
X24765Y42135
X26365Y42135
X15966Y36536
X20117Y38887
X24816Y35687
X14300Y41707
X22355Y42145
X41593Y26695
X49911Y39548
X49911Y38710
X49936Y40335
X17592Y42163
X30251Y44882
X21029Y44218
X43442Y40851
X40005Y28296
X37533Y37705
X27737Y40030
X26365Y38811
X37567Y30582
X23165Y37299
X23997Y41332
X40842Y28231
X22519Y43347
X21555Y35764
X20549Y32664
X26899Y34359
X27165Y36499
X28550Y44094
X40843Y29896
X28423Y40411
X20625Y21742
X20422Y20828
X39243Y23437
X36750Y22388
X20726Y20320
X36486Y21862
X20117Y20269
X39992Y23444
X20117Y19558
X20472Y17780
X39167Y22657
X20472Y17221
X36416Y20549
X39992Y22657
X20422Y16337
X37059Y20549
X20422Y15779
X20503Y15220
X38608Y19774
X20980Y13360
X39224Y21844
X40005Y21844
X39167Y19660
X19964Y13360
X18491Y14856
X17678Y14834
X16916Y14881
X15646Y15037
X40085Y18741
X40780Y22657
X69571Y48565
X50394Y42037
X51079Y19304
X52832Y5867
X58592Y46336
X53023Y3079
X59579Y4791
X61316Y8077
X2692Y33198
X55270Y11379
X50559Y45872
X48692Y45826
X55931Y39954
X78334Y33680
X10947Y4039
X56464Y48514
X56744Y38303
X54415Y34095
X59131Y45915
X47049Y43610
X41898Y37982
X50313Y43078
X47422Y44028
X42324Y38369
X50419Y35687
X53489Y35168
X58532Y39574
X53068Y48432
X41624Y35729
X48696Y48063
X58522Y41681
X64262Y47981
X64734Y44962
X31420Y9144
X33630Y5512
X63830Y14148
X60152Y38943
X50419Y33871
X51213Y33902
X32512Y9576
X34163Y7137
X64667Y13867
X59391Y39009
X45644Y32258
X47244Y32258
X45644Y24257
X41553Y25017
X48844Y27457
X42479Y24268
X29159Y20422
X29159Y19355
X29108Y18288
X29108Y17221
X48843Y29894
X53848Y48298
X48855Y28244
X69520Y45466
X23698Y10363
X28245Y12344
X43028Y13995
X48819Y25857
X69418Y13513
X66116Y10001
X48844Y23470
X47219Y24244
X44792Y24244
X19812Y4064
X39980Y3289
X29108Y21171
X24212Y22978
X27635Y5715
X27661Y4445
X27661Y3150
X27737Y1829
X32766Y46101
X44869Y48984
X43205Y32258
X49593Y29044
X44844Y33093
X44798Y33876
X45644Y23470
X49657Y23470
X50419Y25070
X55575Y48514
X14173Y27280
X44044Y31496
X42392Y25044
X48862Y24271
X43206Y33095
X48848Y33063
X39243Y25857
X54118Y40491
X50651Y45314
X47974Y26663
X18397Y37331
X59944Y45339
X59944Y44348
X57353Y40411
X52121Y40208
X52095Y39472
X52146Y38837
X55143Y39954
X54508Y7112
X52159Y23444
X54026Y6071
X51256Y23445
X53021Y19239
X51206Y25070
X53378Y19674
X51250Y25839
X75438Y33096
X49625Y32249
X75971Y32588
X50428Y32309
X66497Y45212
X45209Y35890
X59284Y20015
X62103Y28219
X52603Y35814
X41461Y45703
X42915Y45328
X57047Y18287
X49454Y41808
X57887Y27051
X58649Y32309
X73812Y24587
X28245Y6655
X11786Y10744
X49936Y44679
X56591Y23368
X21285Y1778
X59100Y29119
X47447Y10935
X55470Y36060
X53415Y23059
X45517Y44526
X43490Y45941
X42424Y21813
X42920Y20648
X44074Y23463
X44024Y22613
X44672Y20480
X44121Y20614
X44874Y23463
X44874Y22663
X51765Y15265
X31852Y11735
X31394Y12243
X41262Y18466
X50462Y21882
X45010Y18516
X46912Y20029
X40386Y19964
X22287Y23889
X40805Y23432
X24079Y24282
X41586Y23451
X21870Y23496
X26772Y15972
X21641Y9309
X58087Y35090
X63271Y22631
X62814Y26086
X75540Y26289
X75413Y32131
X62992Y27508
X64948Y22657
X62941Y26873
X64465Y22022
X49612Y28283
X53454Y25781
X50449Y29063
X58572Y20041
X59348Y27141
X51262Y22652
X42901Y16383
X40234Y15189
X31217Y6248
X47420Y19747
X41758Y16526
X41910Y18034
X31764Y7505
X42412Y22625
X31598Y6782
X40234Y15799
X42469Y17374
X43485Y19202
X32385Y11227
X41574Y22663
X31826Y10770
X41516Y17348
X31445Y7976
X47701Y19253
X31572Y5817
X39903Y14732
X43612Y16510
X48666Y19992
X33172Y45415
X47812Y35931
X47452Y37173
X34087Y46342
X33604Y45949
X47828Y36500
X40005Y25857
X6579Y23038
X13716Y22184
X14046Y23952
X6985Y21463
X49441Y19685
X48461Y18641
X14095Y15318
X11125Y24740
X13919Y20574
X11506Y15799
X12421Y13843
X11608Y14910
X15265Y24638
X16407Y13333
X20052Y14881
X13388Y19837
X12954Y12903
X18387Y21641
X11868Y19145
X25058Y43705
X23991Y42961
X57125Y8447
X53264Y31039
X55677Y10109
X49653Y30684
X57150Y9005
X52906Y30607
X56921Y10185
X55660Y30239
X42240Y11074
X38202Y3835
X57162Y9564
X52426Y30289
X43485Y10922
X40742Y3226
X56337Y10414
X50474Y30663
X45674Y33063
X43187Y33876
X47179Y33058
X44029Y33082
X73279Y26568
X41910Y45263
X42621Y45974
X46253Y44323
X67742Y20066
X53746Y31471
X56794Y15189
X60096Y10516
X62230Y10516
X49098Y47219
X49098Y46380
X49837Y42764
X11633Y22509
X13462Y24790
X52883Y26238
X50463Y26652
X48812Y26702
X52870Y26899
X52603Y21565
X50374Y27463
X49625Y27414
X51702Y20295
X60071Y20066
X55829Y23625
X55651Y26111
X37821Y17526
X41478Y14326
X56121Y32464
X42596Y12370
X43205Y38125
X36664Y45136
X46203Y43663
X42013Y44603
X45628Y43612
X39019Y46342
X51232Y32283
X43561Y43205
X53086Y32563
X42470Y44146
X49241Y35944
X40157Y44831
X50025Y36424
X40978Y44242
X51283Y37262
X47236Y33896
X40538Y42062
X50438Y34658
X51232Y34646
X39980Y42062
X52417Y34653
X39421Y42062
X38623Y44173
X16438Y45987
X49643Y31432
X39040Y41173
X41233Y36850
X52197Y32182
X38586Y40338
X51257Y28270
X38176Y41986
X50063Y20142
X37567Y42037
X10592Y4826
X1905Y33274
X50622Y19812
X36957Y42266
X58598Y48362
X59944Y27153
X56083Y28524
X42596Y37148
X36055Y45136
X12725Y24359
X19198Y41321
X23851Y25705
X18361Y36538
X23393Y25019
X19197Y42158
X39243Y25095
X53010Y42647
X53010Y43434
X53010Y44221
X53010Y45009
X53010Y45796
X53797Y42647
X53797Y43434
X53797Y44221
X53797Y45009
X53797Y45796
X54585Y42647
X54585Y43434
X54585Y44221
X54585Y45009
X54585Y45796
X55372Y42647
X55372Y43434
X55372Y44221
X55372Y45009
X55372Y45796
X56159Y42647
X56159Y43434
X56159Y44221
X56159Y45009
X56159Y45796
X37414Y25324
X21953Y25788
X18216Y39507
X40005Y25095
X21597Y41358
X28994Y24600
X35763Y24044
X39243Y24257
X35585Y23266
X18975Y34962
X27661Y24270
X20778Y41377
X40005Y24257
X32004Y23800
X36473Y23598
X21946Y38278
X21417Y35184
X20752Y33807
X20955Y39306
X39243Y27457
X21438Y32131
X16789Y34620
X16755Y37345
X26441Y27153
X40005Y27445
X39244Y26633
X25222Y28219
X39700Y45695
M30