G04 EAGLE Gerber RS-274X export*
G75*
%MOMM*%
%FSLAX34Y34*%
%LPD*%
%INCopper Layer 15*%
%IPPOS*%
%AMOC8*
5,1,8,0,0,1.08239X$1,22.5*%
G01*
G04 Define Apertures*
%ADD10C,0.508000*%
%ADD11C,3.327400*%
%ADD12C,1.524000*%
%ADD13C,1.500000*%
%ADD14C,2.400000*%
%ADD15C,0.900000*%
%ADD16C,1.800000*%
%ADD17C,1.950000*%
%ADD18C,0.457200*%
%ADD19C,0.254000*%
%ADD20C,0.152400*%
%ADD21C,0.125000*%
%ADD22C,0.508000*%
%ADD23C,0.127000*%
%ADD24C,0.500000*%
%ADD25C,1.270000*%
%ADD26C,0.381000*%
%ADD27C,0.250000*%
%ADD28C,0.553200*%
%ADD29C,2.540000*%
G36*
X452561Y249996D02*
X452802Y250159D01*
X459056Y256413D01*
X460433Y256413D01*
X460730Y256473D01*
X460980Y256645D01*
X461144Y256900D01*
X461195Y257175D01*
X461195Y259813D01*
X463129Y261747D01*
X465865Y261747D01*
X467799Y259813D01*
X467799Y256921D01*
X467859Y256624D01*
X468031Y256374D01*
X468286Y256210D01*
X468561Y256159D01*
X473583Y256159D01*
X473880Y256219D01*
X474130Y256391D01*
X474294Y256646D01*
X474345Y256921D01*
X474345Y263574D01*
X476211Y265440D01*
X476379Y265693D01*
X476434Y265979D01*
X476434Y266383D01*
X476374Y266681D01*
X476211Y266922D01*
X472846Y270287D01*
X472594Y270454D01*
X472308Y270510D01*
X470978Y270510D01*
X470946Y270515D01*
X470854Y270572D01*
X467948Y273478D01*
X467695Y273646D01*
X467397Y273701D01*
X467101Y273636D01*
X466870Y273478D01*
X465414Y272022D01*
X462678Y272022D01*
X460744Y273956D01*
X460744Y276692D01*
X462678Y278626D01*
X465414Y278626D01*
X466567Y277472D01*
X466820Y277305D01*
X467118Y277249D01*
X467414Y277314D01*
X467662Y277490D01*
X467821Y277748D01*
X467868Y278011D01*
X467868Y291784D01*
X467808Y292082D01*
X467645Y292323D01*
X449549Y310419D01*
X449296Y310586D01*
X449010Y310642D01*
X430228Y310642D01*
X430169Y310652D01*
X430147Y310663D01*
X430142Y310668D01*
X423813Y317600D01*
X423568Y317778D01*
X423273Y317847D01*
X422974Y317796D01*
X422712Y317625D01*
X422625Y317538D01*
X422458Y317285D01*
X422402Y316999D01*
X422402Y313175D01*
X422462Y312877D01*
X422625Y312636D01*
X422910Y312351D01*
X422910Y303269D01*
X422970Y302971D01*
X423133Y302730D01*
X431038Y294825D01*
X431038Y277945D01*
X423603Y270510D01*
X423164Y270510D01*
X422867Y270450D01*
X422617Y270278D01*
X422453Y270023D01*
X422402Y269748D01*
X422402Y262443D01*
X422462Y262146D01*
X422634Y261896D01*
X422889Y261732D01*
X423164Y261681D01*
X425355Y261681D01*
X427289Y259747D01*
X427289Y257011D01*
X425530Y255252D01*
X425362Y254999D01*
X425307Y254701D01*
X425372Y254405D01*
X425530Y254174D01*
X429545Y250159D01*
X429798Y249992D01*
X430084Y249936D01*
X452264Y249936D01*
X452561Y249996D01*
G37*
%LPC*%
G36*
X439068Y295656D02*
X437134Y297590D01*
X437134Y300326D01*
X439068Y302260D01*
X441804Y302260D01*
X443738Y300326D01*
X443738Y297590D01*
X441804Y295656D01*
X439068Y295656D01*
G37*
G36*
X438301Y279395D02*
X436367Y281329D01*
X436367Y284065D01*
X438301Y285999D01*
X441037Y285999D01*
X442971Y284065D01*
X442971Y281329D01*
X441037Y279395D01*
X438301Y279395D01*
G37*
G36*
X455083Y278957D02*
X453149Y280891D01*
X453149Y283627D01*
X455083Y285561D01*
X457819Y285561D01*
X459753Y283627D01*
X459753Y280891D01*
X457819Y278957D01*
X455083Y278957D01*
G37*
G36*
X446683Y271013D02*
X444749Y272947D01*
X444749Y275683D01*
X446683Y277617D01*
X449419Y277617D01*
X451353Y275683D01*
X451353Y272947D01*
X449419Y271013D01*
X446683Y271013D01*
G37*
G36*
X431194Y263398D02*
X429260Y265332D01*
X429260Y268068D01*
X431194Y270002D01*
X433930Y270002D01*
X435864Y268068D01*
X435864Y265332D01*
X433930Y263398D01*
X431194Y263398D01*
G37*
G36*
X446557Y255139D02*
X444623Y257073D01*
X444623Y259809D01*
X446557Y261743D01*
X449293Y261743D01*
X451227Y259809D01*
X451227Y257073D01*
X449293Y255139D01*
X446557Y255139D01*
G37*
%LPD*%
G36*
X517395Y294650D02*
X517435Y294677D01*
X522530Y299772D01*
X522558Y299814D01*
X522567Y299864D01*
X522556Y299913D01*
X522530Y299951D01*
X520954Y301527D01*
X520954Y304263D01*
X522888Y306197D01*
X525629Y306197D01*
X525678Y306207D01*
X525720Y306236D01*
X525747Y306278D01*
X525756Y306324D01*
X525756Y307433D01*
X527690Y309368D01*
X529209Y309368D01*
X529259Y309378D01*
X529300Y309406D01*
X529327Y309449D01*
X529336Y309495D01*
X529336Y311756D01*
X531270Y313690D01*
X534035Y313690D01*
X534085Y313700D01*
X534126Y313729D01*
X534153Y313771D01*
X534162Y313817D01*
X534162Y316074D01*
X536096Y318008D01*
X538832Y318008D01*
X539709Y317131D01*
X539751Y317103D01*
X539801Y317094D01*
X539850Y317104D01*
X539889Y317131D01*
X544056Y321298D01*
X544084Y321341D01*
X544094Y321390D01*
X544083Y321440D01*
X544056Y321478D01*
X543560Y321974D01*
X543560Y324710D01*
X545494Y326644D01*
X548230Y326644D01*
X548726Y326148D01*
X548768Y326120D01*
X548818Y326111D01*
X548867Y326121D01*
X548906Y326148D01*
X571463Y348705D01*
X571491Y348747D01*
X571500Y348795D01*
X571500Y375089D01*
X571971Y375560D01*
X571999Y375602D01*
X572008Y375650D01*
X572008Y378434D01*
X572016Y378453D01*
X572033Y378460D01*
X574819Y378460D01*
X574868Y378470D01*
X574908Y378497D01*
X576141Y379730D01*
X609109Y379730D01*
X609158Y379740D01*
X609198Y379767D01*
X619692Y390261D01*
X619720Y390303D01*
X619729Y390350D01*
X619729Y421032D01*
X622009Y423312D01*
X622037Y423354D01*
X622046Y423402D01*
X622046Y427429D01*
X622036Y427479D01*
X622009Y427519D01*
X620813Y428715D01*
X620771Y428743D01*
X620723Y428752D01*
X604065Y428752D01*
X604015Y428742D01*
X603975Y428715D01*
X600239Y424979D01*
X600211Y424937D01*
X600202Y424889D01*
X600202Y412013D01*
X600184Y411970D01*
X587060Y398846D01*
X587032Y398804D01*
X587023Y398754D01*
X587034Y398705D01*
X587060Y398667D01*
X588623Y397103D01*
X588623Y394368D01*
X586689Y392434D01*
X583954Y392434D01*
X582019Y394368D01*
X582019Y394843D01*
X582009Y394893D01*
X581981Y394934D01*
X581938Y394961D01*
X581892Y394970D01*
X569775Y394970D01*
X569725Y394960D01*
X569685Y394933D01*
X559652Y384900D01*
X559624Y384858D01*
X559615Y384808D01*
X559626Y384759D01*
X559655Y384717D01*
X559698Y384691D01*
X559742Y384683D01*
X564365Y384683D01*
X564414Y384693D01*
X564454Y384720D01*
X566068Y386334D01*
X568804Y386334D01*
X570775Y384363D01*
X570817Y384335D01*
X570867Y384325D01*
X570916Y384336D01*
X570958Y384365D01*
X570984Y384408D01*
X570992Y384452D01*
X570992Y385534D01*
X572926Y387468D01*
X575662Y387468D01*
X577596Y385534D01*
X577596Y382798D01*
X575662Y380864D01*
X572926Y380864D01*
X570955Y382835D01*
X570913Y382863D01*
X570863Y382873D01*
X570814Y382862D01*
X570772Y382833D01*
X570746Y382790D01*
X570738Y382746D01*
X570738Y381664D01*
X568804Y379730D01*
X566068Y379730D01*
X564454Y381344D01*
X564412Y381372D01*
X564365Y381381D01*
X560412Y381381D01*
X560362Y381371D01*
X560320Y381342D01*
X560293Y381300D01*
X560285Y381254D01*
X560285Y357798D01*
X546216Y343729D01*
X546188Y343687D01*
X546179Y343637D01*
X546190Y343588D01*
X546216Y343550D01*
X547450Y342316D01*
X547450Y339580D01*
X545516Y337646D01*
X542780Y337646D01*
X541268Y339158D01*
X541226Y339186D01*
X541176Y339196D01*
X541127Y339185D01*
X541088Y339158D01*
X531077Y329147D01*
X531049Y329105D01*
X531040Y329055D01*
X531051Y329006D01*
X531080Y328964D01*
X531123Y328938D01*
X531167Y328930D01*
X532228Y328930D01*
X534162Y326996D01*
X534162Y324260D01*
X532228Y322326D01*
X529492Y322326D01*
X527558Y324260D01*
X527558Y325321D01*
X527548Y325371D01*
X527519Y325413D01*
X527477Y325440D01*
X527427Y325448D01*
X527378Y325437D01*
X527341Y325411D01*
X525284Y323354D01*
X525256Y323312D01*
X525247Y323262D01*
X525257Y323212D01*
X525272Y323191D01*
X525272Y320450D01*
X523338Y318516D01*
X520596Y318516D01*
X520572Y318532D01*
X520522Y318542D01*
X520473Y318531D01*
X520434Y318504D01*
X508079Y306149D01*
X508051Y306107D01*
X508042Y306059D01*
X508042Y305262D01*
X506108Y303328D01*
X503372Y303328D01*
X503230Y303471D01*
X503187Y303498D01*
X503138Y303508D01*
X503094Y303499D01*
X491810Y299159D01*
X491768Y299132D01*
X491739Y299091D01*
X491729Y299041D01*
X491729Y297561D01*
X491728Y297560D01*
X491719Y297510D01*
X491729Y297461D01*
X491756Y297422D01*
X494501Y294677D01*
X494543Y294649D01*
X494591Y294640D01*
X517345Y294640D01*
X517395Y294650D01*
G37*
%LPC*%
G36*
X592542Y386784D02*
X590608Y388718D01*
X590608Y391454D01*
X592542Y393388D01*
X595278Y393388D01*
X597212Y391454D01*
X597212Y388718D01*
X595278Y386784D01*
X592542Y386784D01*
G37*
G36*
X600151Y386129D02*
X598217Y388064D01*
X598217Y390799D01*
X600151Y392733D01*
X602886Y392733D01*
X604821Y390799D01*
X604821Y388064D01*
X602886Y386129D01*
X600151Y386129D01*
G37*
%LPD*%
G36*
X481892Y295706D02*
X482093Y295842D01*
X484446Y298195D01*
X484586Y298406D01*
X484632Y298644D01*
X484632Y306892D01*
X484582Y307140D01*
X484446Y307341D01*
X475751Y316036D01*
X475540Y316176D01*
X475295Y316222D01*
X452892Y315967D01*
X452645Y315914D01*
X452438Y315769D01*
X452305Y315555D01*
X452265Y315305D01*
X452326Y315060D01*
X452451Y314884D01*
X468354Y298980D01*
X468565Y298841D01*
X468813Y298794D01*
X469060Y298849D01*
X469266Y298995D01*
X469399Y299210D01*
X469438Y299429D01*
X469438Y299998D01*
X471372Y301932D01*
X474108Y301932D01*
X476042Y299998D01*
X476042Y297262D01*
X475520Y296740D01*
X475380Y296529D01*
X475334Y296281D01*
X475388Y296034D01*
X475534Y295828D01*
X475749Y295695D01*
X475969Y295656D01*
X481644Y295656D01*
X481892Y295706D01*
G37*
G36*
X530917Y334080D02*
X530957Y334107D01*
X553683Y356833D01*
X553711Y356875D01*
X553720Y356923D01*
X553720Y357171D01*
X553710Y357221D01*
X553681Y357262D01*
X553639Y357289D01*
X553593Y357298D01*
X553329Y357298D01*
X551395Y359232D01*
X551395Y361968D01*
X553329Y363902D01*
X553593Y363902D01*
X553643Y363912D01*
X553684Y363941D01*
X553711Y363983D01*
X553720Y364029D01*
X553720Y384023D01*
X553738Y384066D01*
X566910Y397238D01*
X566953Y397256D01*
X582119Y397256D01*
X582169Y397266D01*
X582209Y397293D01*
X583954Y399038D01*
X585167Y399038D01*
X585217Y399048D01*
X585257Y399075D01*
X598641Y412459D01*
X598669Y412501D01*
X598678Y412549D01*
X598678Y425679D01*
X598696Y425722D01*
X603232Y430258D01*
X603275Y430276D01*
X625221Y430276D01*
X625271Y430286D01*
X625312Y430315D01*
X625339Y430357D01*
X625348Y430403D01*
X625348Y452501D01*
X625338Y452551D01*
X625309Y452592D01*
X625267Y452619D01*
X625221Y452628D01*
X602869Y452628D01*
X602819Y452618D01*
X602778Y452589D01*
X602751Y452547D01*
X602742Y452501D01*
X602742Y452022D01*
X600808Y450088D01*
X598072Y450088D01*
X596138Y452022D01*
X596138Y452501D01*
X596128Y452551D01*
X596099Y452592D01*
X596057Y452619D01*
X596011Y452628D01*
X593651Y452628D01*
X593601Y452618D01*
X593561Y452591D01*
X592365Y451395D01*
X592337Y451353D01*
X592328Y451305D01*
X592328Y425729D01*
X592310Y425686D01*
X592111Y425487D01*
X592083Y425445D01*
X592074Y425397D01*
X592074Y421158D01*
X588555Y417639D01*
X588527Y417597D01*
X588518Y417549D01*
X588518Y415446D01*
X586584Y413512D01*
X583848Y413512D01*
X582082Y415278D01*
X582040Y415306D01*
X581990Y415316D01*
X581941Y415305D01*
X581902Y415278D01*
X574257Y407633D01*
X574229Y407591D01*
X574220Y407541D01*
X574231Y407492D01*
X574260Y407450D01*
X574303Y407424D01*
X574347Y407416D01*
X574900Y407416D01*
X576834Y405482D01*
X576834Y402746D01*
X574900Y400812D01*
X572164Y400812D01*
X570230Y402746D01*
X570230Y403299D01*
X570220Y403349D01*
X570191Y403391D01*
X570149Y403418D01*
X570099Y403426D01*
X570050Y403415D01*
X570013Y403389D01*
X568724Y402100D01*
X568681Y402082D01*
X566473Y402082D01*
X566423Y402072D01*
X566383Y402045D01*
X562647Y398309D01*
X562619Y398267D01*
X562610Y398219D01*
X562610Y398174D01*
X560676Y396240D01*
X560631Y396240D01*
X560581Y396230D01*
X560541Y396203D01*
X543343Y379005D01*
X543315Y378963D01*
X543306Y378915D01*
X543306Y357911D01*
X543288Y357868D01*
X538227Y352807D01*
X538199Y352765D01*
X538190Y352717D01*
X538190Y350314D01*
X536256Y348379D01*
X533852Y348379D01*
X533802Y348369D01*
X533762Y348342D01*
X532148Y346728D01*
X532105Y346710D01*
X527601Y346710D01*
X527551Y346700D01*
X527510Y346671D01*
X527483Y346629D01*
X527474Y346583D01*
X527474Y345164D01*
X525540Y343230D01*
X522804Y343230D01*
X520870Y345164D01*
X520870Y347900D01*
X521370Y348400D01*
X521398Y348442D01*
X521408Y348492D01*
X521397Y348541D01*
X521370Y348580D01*
X519128Y350822D01*
X519086Y350850D01*
X519040Y350859D01*
X492888Y351147D01*
X492839Y351137D01*
X492797Y351109D01*
X492769Y351067D01*
X492760Y351020D01*
X492760Y342925D01*
X492742Y342882D01*
X491397Y341537D01*
X491369Y341495D01*
X491360Y341447D01*
X491360Y339712D01*
X491370Y339662D01*
X491397Y339622D01*
X495574Y335445D01*
X495574Y335185D01*
X495584Y335135D01*
X495611Y335095D01*
X496599Y334107D01*
X496641Y334079D01*
X496689Y334070D01*
X530867Y334070D01*
X530917Y334080D01*
G37*
%LPC*%
G36*
X596548Y433832D02*
X594614Y435766D01*
X594614Y438502D01*
X596548Y440436D01*
X597512Y440436D01*
X597561Y440446D01*
X597603Y440475D01*
X597630Y440517D01*
X597639Y440567D01*
X597627Y440616D01*
X597601Y440653D01*
X596138Y442116D01*
X596138Y444852D01*
X598072Y446786D01*
X600808Y446786D01*
X602742Y444852D01*
X602742Y442116D01*
X600808Y440182D01*
X599844Y440182D01*
X599795Y440172D01*
X599753Y440143D01*
X599726Y440101D01*
X599717Y440051D01*
X599729Y440002D01*
X599755Y439965D01*
X601218Y438502D01*
X601218Y435766D01*
X599284Y433832D01*
X596548Y433832D01*
G37*
G36*
X503010Y343281D02*
X501076Y345215D01*
X501076Y347951D01*
X503010Y349885D01*
X505746Y349885D01*
X507680Y347951D01*
X507680Y345215D01*
X505746Y343281D01*
X503010Y343281D01*
G37*
G36*
X510950Y343154D02*
X509016Y345088D01*
X509016Y347824D01*
X510950Y349758D01*
X513686Y349758D01*
X515620Y347824D01*
X515620Y345088D01*
X513686Y343154D01*
X510950Y343154D01*
G37*
G36*
X510762Y335722D02*
X508828Y337656D01*
X508828Y340392D01*
X510762Y342326D01*
X513498Y342326D01*
X515432Y340392D01*
X515432Y337656D01*
X513498Y335722D01*
X510762Y335722D01*
G37*
G36*
X502822Y335407D02*
X500888Y337341D01*
X500888Y340077D01*
X502822Y342011D01*
X505558Y342011D01*
X507492Y340077D01*
X507492Y337341D01*
X505558Y335407D01*
X502822Y335407D01*
G37*
%LPD*%
G36*
X238307Y223640D02*
X238432Y223726D01*
X238514Y223854D01*
X238540Y223991D01*
X238540Y225135D01*
X240048Y226643D01*
X240131Y226770D01*
X240159Y226919D01*
X240127Y227067D01*
X240048Y227182D01*
X238818Y228412D01*
X238818Y231148D01*
X240752Y233082D01*
X243487Y233082D01*
X245422Y231148D01*
X245422Y228412D01*
X243914Y226904D01*
X243830Y226778D01*
X243802Y226629D01*
X243835Y226481D01*
X243914Y226365D01*
X245144Y225135D01*
X245144Y223991D01*
X245174Y223842D01*
X245260Y223717D01*
X245387Y223636D01*
X245525Y223610D01*
X363818Y223610D01*
X363967Y223640D01*
X364092Y223726D01*
X364174Y223854D01*
X364199Y223991D01*
X364199Y225252D01*
X366133Y227186D01*
X368869Y227186D01*
X370803Y225252D01*
X370803Y223991D01*
X370833Y223842D01*
X370919Y223717D01*
X371047Y223636D01*
X371184Y223610D01*
X380932Y223610D01*
X381081Y223640D01*
X381202Y223722D01*
X389535Y232055D01*
X389619Y232182D01*
X389647Y232331D01*
X389614Y232479D01*
X389535Y232594D01*
X389128Y233001D01*
X389128Y235737D01*
X391062Y237671D01*
X393798Y237671D01*
X394205Y237264D01*
X394331Y237180D01*
X394480Y237152D01*
X394629Y237185D01*
X394744Y237264D01*
X397446Y239966D01*
X397529Y240092D01*
X397557Y240241D01*
X397525Y240389D01*
X397446Y240505D01*
X396748Y241202D01*
X396748Y243938D01*
X398682Y245872D01*
X401418Y245872D01*
X402115Y245174D01*
X402242Y245091D01*
X402391Y245063D01*
X402539Y245095D01*
X402654Y245174D01*
X406034Y248554D01*
X406118Y248681D01*
X406146Y248824D01*
X406146Y251645D01*
X417464Y262963D01*
X417548Y263090D01*
X417576Y263233D01*
X417576Y264091D01*
X418099Y264614D01*
X418183Y264741D01*
X418211Y264884D01*
X418211Y270686D01*
X420258Y272733D01*
X420342Y272860D01*
X420370Y273003D01*
X420370Y298869D01*
X420340Y299018D01*
X420258Y299139D01*
X418338Y301059D01*
X418338Y312351D01*
X418861Y312874D01*
X418945Y313001D01*
X418973Y313144D01*
X418973Y317030D01*
X418943Y317179D01*
X418861Y317300D01*
X418338Y317823D01*
X418338Y319717D01*
X420258Y321637D01*
X420342Y321764D01*
X420370Y321907D01*
X420370Y328928D01*
X420340Y329077D01*
X420254Y329202D01*
X420126Y329284D01*
X419977Y329309D01*
X419829Y329274D01*
X419720Y329198D01*
X418158Y327637D01*
X415423Y327637D01*
X413489Y329571D01*
X413489Y332306D01*
X415423Y334241D01*
X418158Y334241D01*
X419720Y332679D01*
X419846Y332595D01*
X419995Y332568D01*
X420143Y332600D01*
X420267Y332688D01*
X420347Y332817D01*
X420370Y332949D01*
X420370Y350616D01*
X420340Y350765D01*
X420258Y350886D01*
X417266Y353878D01*
X417139Y353962D01*
X416996Y353990D01*
X414870Y353990D01*
X412936Y355924D01*
X412936Y358050D01*
X412906Y358199D01*
X412824Y358320D01*
X412725Y358419D01*
X412598Y358503D01*
X412455Y358531D01*
X411001Y358531D01*
X409067Y360465D01*
X409067Y361919D01*
X409037Y362068D01*
X408955Y362189D01*
X393816Y377328D01*
X393690Y377411D01*
X393541Y377439D01*
X393393Y377407D01*
X393277Y377328D01*
X392130Y376180D01*
X389394Y376180D01*
X387460Y378114D01*
X387460Y380850D01*
X388608Y381997D01*
X388691Y382124D01*
X388719Y382273D01*
X388687Y382421D01*
X388608Y382536D01*
X381343Y389801D01*
X381217Y389884D01*
X381068Y389912D01*
X380920Y389880D01*
X380915Y389876D01*
X378145Y389876D01*
X376210Y391810D01*
X376210Y394584D01*
X376219Y394597D01*
X376246Y394746D01*
X376214Y394894D01*
X376135Y395009D01*
X336581Y434563D01*
X336553Y434609D01*
X336550Y434625D01*
X336550Y443611D01*
X336520Y443760D01*
X336434Y443885D01*
X336306Y443966D01*
X336169Y443992D01*
X321633Y443992D01*
X304133Y461492D01*
X304006Y461576D01*
X303863Y461604D01*
X198181Y461604D01*
X198032Y461574D01*
X197907Y461488D01*
X197825Y461360D01*
X197800Y461211D01*
X197835Y461063D01*
X197911Y460954D01*
X198358Y460507D01*
X198358Y457771D01*
X196424Y455837D01*
X193688Y455837D01*
X191754Y457771D01*
X191754Y460507D01*
X192201Y460954D01*
X192285Y461080D01*
X192312Y461229D01*
X192280Y461377D01*
X192192Y461501D01*
X192063Y461581D01*
X191931Y461604D01*
X183731Y461604D01*
X183582Y461574D01*
X183457Y461488D01*
X183375Y461360D01*
X183350Y461211D01*
X183385Y461063D01*
X183461Y460954D01*
X184438Y459977D01*
X184438Y457241D01*
X182504Y455307D01*
X179768Y455307D01*
X177834Y457241D01*
X177834Y459977D01*
X178811Y460954D01*
X178895Y461080D01*
X178922Y461229D01*
X178890Y461377D01*
X178802Y461501D01*
X178673Y461581D01*
X178541Y461604D01*
X168063Y461604D01*
X167914Y461574D01*
X167789Y461488D01*
X167708Y461360D01*
X167682Y461223D01*
X167682Y458499D01*
X165748Y456565D01*
X163012Y456565D01*
X161078Y458499D01*
X161078Y461223D01*
X161048Y461372D01*
X160962Y461497D01*
X160834Y461578D01*
X160697Y461604D01*
X123984Y461604D01*
X123836Y461574D01*
X123715Y461492D01*
X95616Y433393D01*
X95532Y433267D01*
X95504Y433124D01*
X95504Y350678D01*
X95534Y350529D01*
X95616Y350408D01*
X222302Y223722D01*
X222429Y223638D01*
X222572Y223610D01*
X238159Y223610D01*
X238307Y223640D01*
G37*
%LPC*%
G36*
X281842Y449326D02*
X279908Y451260D01*
X279908Y453996D01*
X281842Y455930D01*
X284578Y455930D01*
X286512Y453996D01*
X286512Y451260D01*
X284578Y449326D01*
X281842Y449326D01*
G37*
G36*
X162958Y443218D02*
X161024Y445152D01*
X161024Y447888D01*
X162958Y449822D01*
X165694Y449822D01*
X167628Y447888D01*
X167628Y445152D01*
X165694Y443218D01*
X162958Y443218D01*
G37*
G36*
X237438Y439890D02*
X235504Y441824D01*
X235504Y444560D01*
X237438Y446494D01*
X240174Y446494D01*
X242108Y444560D01*
X242108Y441824D01*
X240174Y439890D01*
X237438Y439890D01*
G37*
G36*
X270278Y361687D02*
X268344Y363622D01*
X268344Y366357D01*
X269883Y367897D01*
X269967Y368023D01*
X269995Y368166D01*
X269995Y387138D01*
X281510Y398653D01*
X284908Y398653D01*
X285057Y398683D01*
X285178Y398765D01*
X293131Y406718D01*
X293215Y406845D01*
X293243Y406988D01*
X293243Y430704D01*
X293213Y430853D01*
X293131Y430974D01*
X286575Y437530D01*
X286448Y437614D01*
X286305Y437642D01*
X284128Y437642D01*
X282194Y439576D01*
X282194Y442312D01*
X284128Y444246D01*
X286864Y444246D01*
X288798Y442312D01*
X288798Y440135D01*
X288828Y439986D01*
X288910Y439865D01*
X296545Y432230D01*
X296545Y405462D01*
X286434Y395351D01*
X283036Y395351D01*
X282887Y395321D01*
X282766Y395239D01*
X275156Y387629D01*
X275073Y387503D01*
X275045Y387354D01*
X275077Y387206D01*
X275165Y387082D01*
X275294Y387002D01*
X275426Y386979D01*
X277974Y386979D01*
X279908Y385045D01*
X279908Y382309D01*
X277974Y380375D01*
X275238Y380375D01*
X273947Y381666D01*
X273821Y381750D01*
X273672Y381777D01*
X273524Y381745D01*
X273400Y381657D01*
X273320Y381528D01*
X273297Y381396D01*
X273297Y368166D01*
X273327Y368017D01*
X273409Y367897D01*
X274948Y366357D01*
X274948Y363622D01*
X273014Y361687D01*
X270278Y361687D01*
G37*
G36*
X144682Y436880D02*
X142748Y438814D01*
X142748Y441550D01*
X144682Y443484D01*
X147418Y443484D01*
X149352Y441550D01*
X149352Y438814D01*
X147418Y436880D01*
X144682Y436880D01*
G37*
G36*
X329340Y436372D02*
X327406Y438306D01*
X327406Y441042D01*
X329340Y442976D01*
X332076Y442976D01*
X334010Y441042D01*
X334010Y438306D01*
X332076Y436372D01*
X329340Y436372D01*
G37*
G36*
X249214Y433749D02*
X247280Y435683D01*
X247280Y438419D01*
X249214Y440353D01*
X251950Y440353D01*
X253884Y438419D01*
X253884Y435683D01*
X251950Y433749D01*
X249214Y433749D01*
G37*
G36*
X277789Y431049D02*
X275855Y432983D01*
X275855Y435719D01*
X277789Y437653D01*
X280525Y437653D01*
X282459Y435719D01*
X282459Y432983D01*
X280525Y431049D01*
X277789Y431049D01*
G37*
G36*
X398682Y271145D02*
X396748Y273079D01*
X396748Y275815D01*
X397016Y276083D01*
X397100Y276209D01*
X397127Y276358D01*
X397095Y276506D01*
X397007Y276630D01*
X396878Y276710D01*
X396746Y276733D01*
X395861Y276733D01*
X395712Y276703D01*
X395587Y276617D01*
X395505Y276489D01*
X395480Y276340D01*
X395515Y276192D01*
X395591Y276083D01*
X395732Y275942D01*
X395732Y273206D01*
X393798Y271272D01*
X391062Y271272D01*
X389128Y273206D01*
X389128Y275942D01*
X391062Y277876D01*
X393747Y277876D01*
X393896Y277906D01*
X394021Y277992D01*
X394103Y278120D01*
X394128Y278269D01*
X394093Y278417D01*
X394017Y278526D01*
X393001Y279542D01*
X392874Y279626D01*
X392731Y279654D01*
X296832Y279654D01*
X295673Y280812D01*
X295547Y280896D01*
X295404Y280924D01*
X290137Y280924D01*
X218127Y352934D01*
X218001Y353018D01*
X217852Y353046D01*
X217703Y353013D01*
X217580Y352925D01*
X217500Y352796D01*
X217477Y352665D01*
X217477Y350333D01*
X217507Y350184D01*
X217593Y350059D01*
X217720Y349978D01*
X217858Y349952D01*
X218702Y349952D01*
X220636Y348018D01*
X220636Y345282D01*
X218702Y343348D01*
X215966Y343348D01*
X214032Y345282D01*
X214032Y348160D01*
X214002Y348308D01*
X213916Y348433D01*
X213788Y348515D01*
X213651Y348541D01*
X212807Y348541D01*
X210873Y350475D01*
X210873Y350911D01*
X210842Y351060D01*
X210757Y351185D01*
X210629Y351267D01*
X210479Y351292D01*
X210332Y351257D01*
X210222Y351181D01*
X202931Y343889D01*
X202847Y343763D01*
X202819Y343620D01*
X202819Y331804D01*
X202849Y331655D01*
X202931Y331534D01*
X204407Y330058D01*
X204534Y329974D01*
X204677Y329946D01*
X206854Y329946D01*
X208788Y328012D01*
X208788Y325276D01*
X206854Y323342D01*
X204118Y323342D01*
X202184Y325276D01*
X202184Y327453D01*
X202154Y327602D01*
X202072Y327723D01*
X199517Y330278D01*
X199517Y345145D01*
X212140Y357768D01*
X212223Y357894D01*
X212251Y358037D01*
X212251Y359004D01*
X213103Y359855D01*
X213187Y359982D01*
X213214Y360125D01*
X213214Y365837D01*
X217014Y369636D01*
X217098Y369763D01*
X217126Y369912D01*
X217093Y370060D01*
X217005Y370184D01*
X216876Y370263D01*
X216745Y370287D01*
X214418Y370287D01*
X212484Y372221D01*
X212484Y374956D01*
X214418Y376891D01*
X217154Y376891D01*
X219088Y374956D01*
X219088Y372630D01*
X219118Y372481D01*
X219204Y372356D01*
X219332Y372275D01*
X219481Y372249D01*
X219629Y372284D01*
X219738Y372361D01*
X229975Y382598D01*
X230059Y382724D01*
X230087Y382867D01*
X230087Y391954D01*
X237914Y399781D01*
X237997Y399907D01*
X238025Y400056D01*
X237993Y400204D01*
X237905Y400328D01*
X237776Y400408D01*
X237644Y400431D01*
X236958Y400431D01*
X235736Y401653D01*
X235609Y401737D01*
X235460Y401765D01*
X235312Y401732D01*
X235197Y401653D01*
X233594Y400050D01*
X230858Y400050D01*
X228924Y401984D01*
X228924Y404720D01*
X230858Y406654D01*
X233594Y406654D01*
X234816Y405432D01*
X234942Y405348D01*
X235091Y405320D01*
X235239Y405353D01*
X235355Y405432D01*
X236958Y407035D01*
X237390Y407035D01*
X237539Y407065D01*
X237664Y407151D01*
X237746Y407279D01*
X237771Y407428D01*
X237736Y407576D01*
X237660Y407685D01*
X236456Y408889D01*
X236456Y411645D01*
X236426Y411794D01*
X236416Y411808D01*
X236416Y419654D01*
X236386Y419802D01*
X236305Y419923D01*
X235598Y420629D01*
X235472Y420713D01*
X235323Y420741D01*
X235175Y420708D01*
X235051Y420621D01*
X234971Y420491D01*
X234948Y420360D01*
X234948Y419981D01*
X233014Y418047D01*
X230278Y418047D01*
X228344Y419981D01*
X228344Y422716D01*
X230278Y424651D01*
X230657Y424651D01*
X230806Y424681D01*
X230931Y424767D01*
X231013Y424894D01*
X231038Y425044D01*
X231003Y425191D01*
X230927Y425301D01*
X227079Y429148D01*
X226953Y429232D01*
X226810Y429260D01*
X224371Y429260D01*
X221634Y431997D01*
X221634Y434943D01*
X223717Y437026D01*
X226663Y437026D01*
X227205Y436484D01*
X227332Y436400D01*
X227475Y436372D01*
X229914Y436372D01*
X231760Y434526D01*
X231886Y434442D01*
X232035Y434414D01*
X232183Y434447D01*
X232307Y434535D01*
X232387Y434664D01*
X232410Y434795D01*
X232410Y435708D01*
X234344Y437642D01*
X237080Y437642D01*
X239014Y435708D01*
X239014Y433294D01*
X239044Y433145D01*
X239130Y433020D01*
X239258Y432938D01*
X239395Y432913D01*
X241276Y432913D01*
X243210Y430978D01*
X243210Y428243D01*
X241276Y426309D01*
X240897Y426309D01*
X240748Y426278D01*
X240623Y426193D01*
X240541Y426065D01*
X240516Y425915D01*
X240551Y425768D01*
X240627Y425658D01*
X243528Y422757D01*
X243528Y411919D01*
X243558Y411771D01*
X243640Y411650D01*
X247824Y407466D01*
X247824Y406068D01*
X247854Y405919D01*
X247940Y405794D01*
X248068Y405712D01*
X248217Y405687D01*
X248365Y405722D01*
X248474Y405798D01*
X249330Y406654D01*
X252066Y406654D01*
X254000Y404720D01*
X254000Y401984D01*
X252066Y400050D01*
X249330Y400050D01*
X248474Y400906D01*
X248348Y400990D01*
X248199Y401017D01*
X248051Y400985D01*
X247927Y400897D01*
X247847Y400768D01*
X247824Y400636D01*
X247824Y399746D01*
X237231Y389153D01*
X237147Y389027D01*
X237119Y388884D01*
X237119Y385146D01*
X237149Y384997D01*
X237235Y384872D01*
X237363Y384790D01*
X237512Y384765D01*
X237660Y384800D01*
X237769Y384876D01*
X238453Y385560D01*
X241189Y385560D01*
X243123Y383626D01*
X243123Y380890D01*
X241189Y378956D01*
X238453Y378956D01*
X236435Y380975D01*
X236308Y381058D01*
X236159Y381086D01*
X236011Y381054D01*
X235896Y380975D01*
X235059Y380138D01*
X234140Y380138D01*
X233991Y380108D01*
X233870Y380027D01*
X230786Y376942D01*
X230702Y376815D01*
X230674Y376666D01*
X230707Y376518D01*
X230794Y376395D01*
X230923Y376315D01*
X231055Y376291D01*
X233014Y376291D01*
X234948Y374357D01*
X234948Y371622D01*
X233014Y369687D01*
X230278Y369687D01*
X228344Y371622D01*
X228344Y373581D01*
X228314Y373729D01*
X228228Y373854D01*
X228100Y373936D01*
X227951Y373961D01*
X227803Y373926D01*
X227694Y373850D01*
X217898Y364054D01*
X217814Y363928D01*
X217786Y363785D01*
X217786Y360406D01*
X217817Y360258D01*
X217839Y360224D01*
X217839Y360178D01*
X217869Y360029D01*
X217951Y359908D01*
X218855Y359004D01*
X218855Y358829D01*
X218885Y358681D01*
X218967Y358560D01*
X291919Y285608D01*
X292046Y285524D01*
X292189Y285496D01*
X295404Y285496D01*
X295552Y285526D01*
X295673Y285608D01*
X296832Y286766D01*
X392633Y286766D01*
X394716Y284683D01*
X394716Y282655D01*
X394746Y282506D01*
X394828Y282385D01*
X397066Y280147D01*
X397193Y280063D01*
X397336Y280035D01*
X397381Y280035D01*
X397530Y280065D01*
X397655Y280151D01*
X397737Y280279D01*
X397762Y280428D01*
X397727Y280576D01*
X397651Y280685D01*
X396748Y281588D01*
X396748Y284324D01*
X398682Y286258D01*
X401418Y286258D01*
X403352Y284324D01*
X403352Y283006D01*
X403382Y282858D01*
X403468Y282733D01*
X403596Y282651D01*
X403745Y282625D01*
X403893Y282660D01*
X404002Y282737D01*
X406878Y285613D01*
X406895Y285613D01*
X406913Y285616D01*
X409792Y285616D01*
X411828Y283580D01*
X411838Y283566D01*
X411851Y283553D01*
X411851Y280640D01*
X407308Y276098D01*
X404396Y276098D01*
X403872Y276621D01*
X403746Y276705D01*
X403603Y276733D01*
X403354Y276733D01*
X403205Y276703D01*
X403080Y276617D01*
X402998Y276489D01*
X402973Y276340D01*
X403008Y276192D01*
X403084Y276083D01*
X403352Y275815D01*
X403352Y273079D01*
X401418Y271145D01*
X398682Y271145D01*
G37*
G36*
X256188Y430276D02*
X254254Y432210D01*
X254254Y434946D01*
X256188Y436880D01*
X258924Y436880D01*
X260858Y434946D01*
X260858Y432210D01*
X258924Y430276D01*
X256188Y430276D01*
G37*
G36*
X206658Y427482D02*
X204724Y429416D01*
X204724Y432152D01*
X206658Y434086D01*
X209394Y434086D01*
X211328Y432152D01*
X211328Y429416D01*
X209394Y427482D01*
X206658Y427482D01*
G37*
G36*
X254278Y418601D02*
X252344Y420535D01*
X252344Y423270D01*
X254278Y425205D01*
X257014Y425205D01*
X258948Y423270D01*
X258948Y420535D01*
X257014Y418601D01*
X254278Y418601D01*
G37*
G36*
X198276Y418338D02*
X196342Y420272D01*
X196342Y423008D01*
X198276Y424942D01*
X201012Y424942D01*
X202946Y423008D01*
X202946Y420272D01*
X201012Y418338D01*
X198276Y418338D01*
G37*
G36*
X190599Y418280D02*
X188664Y420215D01*
X188664Y422950D01*
X190599Y424884D01*
X193334Y424884D01*
X195268Y422950D01*
X195268Y420215D01*
X193334Y418280D01*
X190599Y418280D01*
G37*
G36*
X246278Y410601D02*
X244344Y412535D01*
X244344Y415270D01*
X246278Y417205D01*
X249014Y417205D01*
X250948Y415270D01*
X250948Y412535D01*
X249014Y410601D01*
X246278Y410601D01*
G37*
G36*
X206410Y410469D02*
X204475Y412404D01*
X204475Y415139D01*
X206410Y417073D01*
X209145Y417073D01*
X211079Y415139D01*
X211079Y412404D01*
X209145Y410469D01*
X206410Y410469D01*
G37*
G36*
X214601Y410278D02*
X212666Y412213D01*
X212666Y414948D01*
X214601Y416882D01*
X217336Y416882D01*
X219270Y414948D01*
X219270Y412213D01*
X217336Y410278D01*
X214601Y410278D01*
G37*
G36*
X174421Y410189D02*
X172487Y412124D01*
X172487Y414859D01*
X174421Y416793D01*
X177156Y416793D01*
X179091Y414859D01*
X179091Y412124D01*
X177156Y410189D01*
X174421Y410189D01*
G37*
G36*
X190610Y409910D02*
X188676Y411844D01*
X188676Y414579D01*
X190610Y416514D01*
X193345Y416514D01*
X195280Y414579D01*
X195280Y411844D01*
X193345Y409910D01*
X190610Y409910D01*
G37*
G36*
X167130Y401748D02*
X165196Y403683D01*
X165196Y406418D01*
X167130Y408352D01*
X169866Y408352D01*
X171800Y406418D01*
X171800Y403683D01*
X169866Y401748D01*
X167130Y401748D01*
G37*
G36*
X268380Y397002D02*
X266446Y398936D01*
X266446Y401318D01*
X266416Y401467D01*
X266330Y401592D01*
X266202Y401674D01*
X266053Y401699D01*
X265905Y401664D01*
X265796Y401588D01*
X265782Y401574D01*
X263046Y401574D01*
X261112Y403508D01*
X261112Y406244D01*
X263046Y408178D01*
X265782Y408178D01*
X267716Y406244D01*
X267716Y403862D01*
X267746Y403713D01*
X267832Y403588D01*
X267960Y403506D01*
X268109Y403481D01*
X268257Y403516D01*
X268366Y403592D01*
X268380Y403606D01*
X271116Y403606D01*
X273050Y401672D01*
X273050Y398936D01*
X271116Y397002D01*
X268380Y397002D01*
G37*
G36*
X174605Y401574D02*
X172671Y403508D01*
X172671Y406244D01*
X174605Y408178D01*
X177341Y408178D01*
X179275Y406244D01*
X179275Y403508D01*
X177341Y401574D01*
X174605Y401574D01*
G37*
G36*
X282858Y400812D02*
X280924Y402746D01*
X280924Y405482D01*
X282858Y407416D01*
X285594Y407416D01*
X287528Y405482D01*
X287528Y402746D01*
X285594Y400812D01*
X282858Y400812D01*
G37*
G36*
X220628Y392938D02*
X218694Y394872D01*
X218694Y397572D01*
X218664Y397721D01*
X218578Y397846D01*
X218450Y397928D01*
X218301Y397953D01*
X218153Y397918D01*
X218044Y397842D01*
X217413Y397211D01*
X214677Y397211D01*
X212743Y399145D01*
X212743Y401881D01*
X214677Y403815D01*
X217413Y403815D01*
X219347Y401881D01*
X219347Y399180D01*
X219377Y399032D01*
X219463Y398907D01*
X219591Y398825D01*
X219740Y398800D01*
X219888Y398835D01*
X219997Y398911D01*
X220628Y399542D01*
X223364Y399542D01*
X225298Y397608D01*
X225298Y394872D01*
X223364Y392938D01*
X220628Y392938D01*
G37*
G36*
X276000Y397002D02*
X274066Y398936D01*
X274066Y401672D01*
X276000Y403606D01*
X278736Y403606D01*
X280670Y401672D01*
X280670Y398936D01*
X278736Y397002D01*
X276000Y397002D01*
G37*
G36*
X180793Y391765D02*
X178859Y393699D01*
X178859Y396435D01*
X180793Y398369D01*
X183528Y398369D01*
X185463Y396435D01*
X185463Y393699D01*
X183528Y391765D01*
X180793Y391765D01*
G37*
G36*
X208182Y389753D02*
X206248Y391687D01*
X206248Y394423D01*
X208182Y396357D01*
X210918Y396357D01*
X212852Y394423D01*
X212852Y391687D01*
X210918Y389753D01*
X208182Y389753D01*
G37*
G36*
X262284Y384810D02*
X260350Y386744D01*
X260350Y389480D01*
X262284Y391414D01*
X265020Y391414D01*
X266954Y389480D01*
X266954Y386744D01*
X265020Y384810D01*
X262284Y384810D01*
G37*
G36*
X166018Y381762D02*
X164084Y383696D01*
X164084Y386432D01*
X166018Y388366D01*
X168754Y388366D01*
X170688Y386432D01*
X170688Y383696D01*
X168754Y381762D01*
X166018Y381762D01*
G37*
G36*
X210304Y380402D02*
X208370Y382336D01*
X208370Y385072D01*
X210304Y387006D01*
X213040Y387006D01*
X214974Y385072D01*
X214974Y382336D01*
X213040Y380402D01*
X210304Y380402D01*
G37*
G36*
X186078Y379732D02*
X184144Y381666D01*
X184144Y384402D01*
X186078Y386336D01*
X188814Y386336D01*
X190748Y384402D01*
X190748Y381666D01*
X188814Y379732D01*
X186078Y379732D01*
G37*
G36*
X218088Y379478D02*
X216154Y381412D01*
X216154Y384148D01*
X218088Y386082D01*
X220824Y386082D01*
X222758Y384148D01*
X222758Y381412D01*
X220824Y379478D01*
X218088Y379478D01*
G37*
G36*
X198660Y378831D02*
X196726Y380766D01*
X196726Y383501D01*
X198660Y385435D01*
X201396Y385435D01*
X203330Y383501D01*
X203330Y380766D01*
X201396Y378831D01*
X198660Y378831D01*
G37*
G36*
X282661Y378517D02*
X280727Y380451D01*
X280727Y383187D01*
X282661Y385121D01*
X285397Y385121D01*
X287331Y383187D01*
X287331Y380451D01*
X285397Y378517D01*
X282661Y378517D01*
G37*
G36*
X373962Y373748D02*
X372028Y375682D01*
X372028Y378418D01*
X373962Y380352D01*
X376698Y380352D01*
X378632Y378418D01*
X378632Y375682D01*
X376698Y373748D01*
X373962Y373748D01*
G37*
G36*
X246282Y370332D02*
X244348Y372266D01*
X244348Y375002D01*
X246282Y376936D01*
X249018Y376936D01*
X250952Y375002D01*
X250952Y372266D01*
X249018Y370332D01*
X246282Y370332D01*
G37*
G36*
X198550Y370329D02*
X196616Y372263D01*
X196616Y374998D01*
X198550Y376933D01*
X201286Y376933D01*
X203220Y374998D01*
X203220Y372263D01*
X201286Y370329D01*
X198550Y370329D01*
G37*
G36*
X254606Y370273D02*
X252671Y372208D01*
X252671Y374943D01*
X254606Y376877D01*
X257341Y376877D01*
X259275Y374943D01*
X259275Y372208D01*
X257341Y370273D01*
X254606Y370273D01*
G37*
G36*
X158735Y370144D02*
X156801Y372078D01*
X156801Y374814D01*
X158735Y376748D01*
X161470Y376748D01*
X163405Y374814D01*
X163405Y372078D01*
X161470Y370144D01*
X158735Y370144D01*
G37*
G36*
X166181Y370144D02*
X164247Y372078D01*
X164247Y374814D01*
X166181Y376748D01*
X168916Y376748D01*
X170851Y374814D01*
X170851Y372078D01*
X168916Y370144D01*
X166181Y370144D01*
G37*
G36*
X182599Y370008D02*
X180664Y371942D01*
X180664Y374677D01*
X182599Y376612D01*
X185334Y376612D01*
X187268Y374677D01*
X187268Y371942D01*
X185334Y370008D01*
X182599Y370008D01*
G37*
G36*
X379298Y367030D02*
X377364Y368964D01*
X377364Y371700D01*
X379298Y373634D01*
X382034Y373634D01*
X383968Y371700D01*
X383968Y368964D01*
X382034Y367030D01*
X379298Y367030D01*
G37*
G36*
X182244Y362081D02*
X180310Y364015D01*
X180310Y366751D01*
X182244Y368685D01*
X184979Y368685D01*
X186914Y366751D01*
X186914Y364015D01*
X184979Y362081D01*
X182244Y362081D01*
G37*
G36*
X262284Y361950D02*
X260350Y363884D01*
X260350Y366620D01*
X262284Y368554D01*
X265020Y368554D01*
X266954Y366620D01*
X266954Y363884D01*
X265020Y361950D01*
X262284Y361950D01*
G37*
G36*
X246149Y361817D02*
X244215Y363751D01*
X244215Y366486D01*
X246149Y368421D01*
X248884Y368421D01*
X250819Y366486D01*
X250819Y363751D01*
X248884Y361817D01*
X246149Y361817D01*
G37*
G36*
X279447Y359664D02*
X277513Y361598D01*
X277513Y364334D01*
X279447Y366268D01*
X282183Y366268D01*
X284117Y364334D01*
X284117Y361598D01*
X282183Y359664D01*
X279447Y359664D01*
G37*
G36*
X369726Y353568D02*
X367792Y355502D01*
X367792Y357759D01*
X367762Y357908D01*
X367676Y358033D01*
X367548Y358114D01*
X367411Y358140D01*
X365154Y358140D01*
X363220Y360074D01*
X363220Y362810D01*
X365154Y364744D01*
X367890Y364744D01*
X369824Y362810D01*
X369824Y360553D01*
X369854Y360404D01*
X369940Y360279D01*
X370068Y360198D01*
X370205Y360172D01*
X372462Y360172D01*
X374396Y358238D01*
X374396Y355502D01*
X372462Y353568D01*
X369726Y353568D01*
G37*
G36*
X126394Y355854D02*
X124460Y357788D01*
X124460Y360524D01*
X126394Y362458D01*
X129130Y362458D01*
X130287Y361301D01*
X130413Y361217D01*
X130562Y361190D01*
X130710Y361222D01*
X130825Y361301D01*
X131982Y362458D01*
X134718Y362458D01*
X136652Y360524D01*
X136652Y357788D01*
X134718Y355854D01*
X131982Y355854D01*
X130825Y357011D01*
X130699Y357095D01*
X130550Y357122D01*
X130402Y357090D01*
X130287Y357011D01*
X129130Y355854D01*
X126394Y355854D01*
G37*
G36*
X182274Y353314D02*
X180340Y355248D01*
X180340Y357984D01*
X182274Y359918D01*
X185010Y359918D01*
X186944Y357984D01*
X186944Y355248D01*
X185010Y353314D01*
X182274Y353314D01*
G37*
G36*
X263554Y352806D02*
X261620Y354740D01*
X261620Y357476D01*
X263554Y359410D01*
X266290Y359410D01*
X268224Y357476D01*
X268224Y354740D01*
X266290Y352806D01*
X263554Y352806D01*
G37*
G36*
X254664Y352044D02*
X252730Y353978D01*
X252730Y356714D01*
X254664Y358648D01*
X257400Y358648D01*
X259334Y356714D01*
X259334Y353978D01*
X257400Y352044D01*
X254664Y352044D01*
G37*
G36*
X118266Y351282D02*
X116332Y353216D01*
X116332Y355952D01*
X118266Y357886D01*
X121002Y357886D01*
X122936Y355952D01*
X122936Y353216D01*
X121002Y351282D01*
X118266Y351282D01*
G37*
G36*
X157890Y349758D02*
X155956Y351692D01*
X155956Y354428D01*
X157890Y356362D01*
X160626Y356362D01*
X162560Y354428D01*
X162560Y351692D01*
X160626Y349758D01*
X157890Y349758D01*
G37*
G36*
X246282Y346456D02*
X244348Y348390D01*
X244348Y351126D01*
X246282Y353060D01*
X249018Y353060D01*
X250952Y351126D01*
X250952Y348390D01*
X249018Y346456D01*
X246282Y346456D01*
G37*
G36*
X188380Y346320D02*
X186446Y348254D01*
X186446Y350990D01*
X188380Y352924D01*
X191116Y352924D01*
X193050Y350990D01*
X193050Y348254D01*
X191116Y346320D01*
X188380Y346320D01*
G37*
G36*
X370488Y339852D02*
X368554Y341786D01*
X368554Y343719D01*
X368524Y343868D01*
X368438Y343993D01*
X368310Y344074D01*
X368173Y344100D01*
X365826Y344100D01*
X363892Y346034D01*
X363892Y348770D01*
X365826Y350704D01*
X368562Y350704D01*
X370496Y348770D01*
X370496Y346837D01*
X370526Y346688D01*
X370612Y346563D01*
X370740Y346482D01*
X370877Y346456D01*
X373224Y346456D01*
X375158Y344522D01*
X375158Y341786D01*
X373224Y339852D01*
X370488Y339852D01*
G37*
G36*
X146460Y343662D02*
X144526Y345596D01*
X144526Y348332D01*
X146460Y350266D01*
X149196Y350266D01*
X151130Y348332D01*
X151130Y345596D01*
X149196Y343662D01*
X146460Y343662D01*
G37*
G36*
X267618Y340288D02*
X265684Y342222D01*
X265684Y344958D01*
X267618Y346892D01*
X270354Y346892D01*
X270622Y346624D01*
X270748Y346540D01*
X270897Y346512D01*
X271045Y346545D01*
X271169Y346633D01*
X271249Y346762D01*
X271272Y346893D01*
X271272Y347824D01*
X273206Y349758D01*
X275942Y349758D01*
X277876Y347824D01*
X277876Y345088D01*
X275942Y343154D01*
X273206Y343154D01*
X272938Y343422D01*
X272812Y343506D01*
X272663Y343533D01*
X272515Y343501D01*
X272391Y343413D01*
X272311Y343284D01*
X272288Y343152D01*
X272288Y342222D01*
X270354Y340288D01*
X267618Y340288D01*
G37*
G36*
X166526Y342900D02*
X164592Y344834D01*
X164592Y347570D01*
X166526Y349504D01*
X169262Y349504D01*
X171196Y347570D01*
X171196Y344834D01*
X169262Y342900D01*
X166526Y342900D01*
G37*
G36*
X328048Y339778D02*
X326114Y341712D01*
X326114Y344448D01*
X328048Y346382D01*
X330784Y346382D01*
X332718Y344448D01*
X332718Y341712D01*
X330784Y339778D01*
X328048Y339778D01*
G37*
G36*
X241456Y338348D02*
X239522Y340282D01*
X239522Y343018D01*
X241456Y344952D01*
X244192Y344952D01*
X246126Y343018D01*
X246126Y340282D01*
X244192Y338348D01*
X241456Y338348D01*
G37*
G36*
X361090Y337312D02*
X359156Y339246D01*
X359156Y341982D01*
X361090Y343916D01*
X363826Y343916D01*
X365760Y341982D01*
X365760Y339246D01*
X363826Y337312D01*
X361090Y337312D01*
G37*
G36*
X391062Y335280D02*
X389128Y337214D01*
X389128Y339950D01*
X391062Y341884D01*
X393798Y341884D01*
X395732Y339950D01*
X395732Y337214D01*
X393798Y335280D01*
X391062Y335280D01*
G37*
G36*
X206150Y334772D02*
X204216Y336706D01*
X204216Y339442D01*
X206150Y341376D01*
X208886Y341376D01*
X210820Y339442D01*
X210820Y336706D01*
X208886Y334772D01*
X206150Y334772D01*
G37*
G36*
X215548Y334518D02*
X213614Y336452D01*
X213614Y339188D01*
X215548Y341122D01*
X218284Y341122D01*
X220218Y339188D01*
X220218Y336452D01*
X218284Y334518D01*
X215548Y334518D01*
G37*
G36*
X398682Y327660D02*
X396748Y329594D01*
X396748Y332330D01*
X398682Y334264D01*
X401418Y334264D01*
X403352Y332330D01*
X403352Y329594D01*
X401418Y327660D01*
X398682Y327660D01*
G37*
G36*
X407064Y327660D02*
X405130Y329594D01*
X405130Y332330D01*
X407064Y334264D01*
X409800Y334264D01*
X411734Y332330D01*
X411734Y329594D01*
X409800Y327660D01*
X407064Y327660D01*
G37*
G36*
X391062Y327660D02*
X389128Y329594D01*
X389128Y332330D01*
X391062Y334264D01*
X393798Y334264D01*
X395732Y332330D01*
X395732Y329594D01*
X393798Y327660D01*
X391062Y327660D01*
G37*
G36*
X370488Y327655D02*
X368554Y329589D01*
X368554Y332325D01*
X370488Y334259D01*
X373224Y334259D01*
X375158Y332325D01*
X375158Y329589D01*
X373224Y327655D01*
X370488Y327655D01*
G37*
G36*
X391062Y319278D02*
X389128Y321212D01*
X389128Y323948D01*
X391062Y325882D01*
X393798Y325882D01*
X395732Y323948D01*
X395732Y321212D01*
X393798Y319278D01*
X391062Y319278D01*
G37*
G36*
X398682Y319278D02*
X396748Y321212D01*
X396748Y323948D01*
X398682Y325882D01*
X401418Y325882D01*
X403352Y323948D01*
X403352Y321212D01*
X401418Y319278D01*
X398682Y319278D01*
G37*
G36*
X213008Y318008D02*
X211074Y319942D01*
X211074Y322678D01*
X213008Y324612D01*
X215744Y324612D01*
X217678Y322678D01*
X217678Y319942D01*
X215744Y318008D01*
X213008Y318008D01*
G37*
G36*
X390681Y311023D02*
X388747Y312957D01*
X388747Y315693D01*
X390681Y317627D01*
X393417Y317627D01*
X395351Y315693D01*
X395351Y312957D01*
X393417Y311023D01*
X390681Y311023D01*
G37*
G36*
X391062Y303276D02*
X389128Y305210D01*
X389128Y307946D01*
X391062Y309880D01*
X393798Y309880D01*
X395732Y307946D01*
X395732Y305210D01*
X393798Y303276D01*
X391062Y303276D01*
G37*
G36*
X382680Y303276D02*
X380746Y305210D01*
X380746Y307946D01*
X382680Y309880D01*
X385416Y309880D01*
X387350Y307946D01*
X387350Y305210D01*
X385416Y303276D01*
X382680Y303276D01*
G37*
G36*
X374298Y302514D02*
X372364Y304448D01*
X372364Y307184D01*
X374298Y309118D01*
X377034Y309118D01*
X378968Y307184D01*
X378968Y304448D01*
X377034Y302514D01*
X374298Y302514D01*
G37*
G36*
X407064Y295656D02*
X405130Y297590D01*
X405130Y300326D01*
X407064Y302260D01*
X409800Y302260D01*
X411734Y300326D01*
X411734Y297590D01*
X409800Y295656D01*
X407064Y295656D01*
G37*
G36*
X390319Y295638D02*
X388384Y297572D01*
X388384Y300307D01*
X390319Y302242D01*
X393054Y302242D01*
X394988Y300307D01*
X394988Y297572D01*
X393054Y295638D01*
X390319Y295638D01*
G37*
G36*
X398009Y295328D02*
X396075Y297262D01*
X396075Y299998D01*
X398009Y301932D01*
X400745Y301932D01*
X402679Y299998D01*
X402679Y297262D01*
X400745Y295328D01*
X398009Y295328D01*
G37*
G36*
X399561Y287157D02*
X397627Y289092D01*
X397627Y291827D01*
X399561Y293761D01*
X402296Y293761D01*
X404231Y291827D01*
X404231Y289092D01*
X402296Y287157D01*
X399561Y287157D01*
G37*
G36*
X250854Y278892D02*
X248920Y280826D01*
X248920Y283562D01*
X250854Y285496D01*
X253590Y285496D01*
X255524Y283562D01*
X255524Y280826D01*
X253590Y278892D01*
X250854Y278892D01*
G37*
G36*
X263046Y268224D02*
X261112Y270158D01*
X261112Y272894D01*
X263046Y274828D01*
X265782Y274828D01*
X267716Y272894D01*
X267716Y270158D01*
X265782Y268224D01*
X263046Y268224D01*
G37*
G36*
X391072Y263027D02*
X389138Y264961D01*
X389138Y267697D01*
X391072Y269631D01*
X393808Y269631D01*
X395742Y267697D01*
X395742Y264961D01*
X393808Y263027D01*
X391072Y263027D01*
G37*
G36*
X398682Y262890D02*
X396748Y264824D01*
X396748Y267560D01*
X398682Y269494D01*
X401418Y269494D01*
X403352Y267560D01*
X403352Y264824D01*
X401418Y262890D01*
X398682Y262890D01*
G37*
G36*
X269142Y259842D02*
X267208Y261776D01*
X267208Y264512D01*
X269142Y266446D01*
X271878Y266446D01*
X273812Y264512D01*
X273812Y261776D01*
X271878Y259842D01*
X269142Y259842D01*
G37*
G36*
X361344Y256032D02*
X359410Y257966D01*
X359410Y260702D01*
X361344Y262636D01*
X364080Y262636D01*
X366014Y260702D01*
X366014Y257966D01*
X364080Y256032D01*
X361344Y256032D01*
G37*
G36*
X398682Y255270D02*
X396748Y257204D01*
X396748Y259940D01*
X398682Y261874D01*
X401418Y261874D01*
X403352Y259940D01*
X403352Y257204D01*
X401418Y255270D01*
X398682Y255270D01*
G37*
G36*
X391062Y255270D02*
X389128Y257204D01*
X389128Y259940D01*
X391062Y261874D01*
X393798Y261874D01*
X395732Y259940D01*
X395732Y257204D01*
X393798Y255270D01*
X391062Y255270D01*
G37*
G36*
X218158Y254578D02*
X216224Y256512D01*
X216224Y259248D01*
X218158Y261182D01*
X220894Y261182D01*
X222828Y259248D01*
X222828Y256512D01*
X220894Y254578D01*
X218158Y254578D01*
G37*
G36*
X237138Y253746D02*
X235204Y255680D01*
X235204Y258416D01*
X237138Y260350D01*
X239874Y260350D01*
X241808Y258416D01*
X241808Y255680D01*
X239874Y253746D01*
X237138Y253746D01*
G37*
G36*
X372774Y249936D02*
X370840Y251870D01*
X370840Y254606D01*
X372774Y256540D01*
X375510Y256540D01*
X377444Y254606D01*
X377444Y251870D01*
X375510Y249936D01*
X372774Y249936D01*
G37*
G36*
X398682Y247650D02*
X396748Y249584D01*
X396748Y252320D01*
X398682Y254254D01*
X401418Y254254D01*
X403352Y252320D01*
X403352Y249584D01*
X401418Y247650D01*
X398682Y247650D01*
G37*
G36*
X391062Y247650D02*
X389128Y249584D01*
X389128Y252320D01*
X391062Y254254D01*
X393798Y254254D01*
X395732Y252320D01*
X395732Y249584D01*
X393798Y247650D01*
X391062Y247650D01*
G37*
G36*
X232566Y246888D02*
X230632Y248822D01*
X230632Y251558D01*
X232566Y253492D01*
X235302Y253492D01*
X237236Y251558D01*
X237236Y248822D01*
X235302Y246888D01*
X232566Y246888D01*
G37*
G36*
X288573Y242697D02*
X286639Y244631D01*
X286639Y247367D01*
X288573Y249301D01*
X291309Y249301D01*
X292270Y248340D01*
X292397Y248256D01*
X292546Y248228D01*
X292694Y248261D01*
X292809Y248340D01*
X294288Y249819D01*
X297024Y249819D01*
X298435Y248408D01*
X298561Y248324D01*
X298710Y248297D01*
X298858Y248329D01*
X298973Y248408D01*
X300384Y249819D01*
X303120Y249819D01*
X305054Y247885D01*
X305054Y245149D01*
X303120Y243215D01*
X300384Y243215D01*
X298973Y244626D01*
X298847Y244710D01*
X298698Y244737D01*
X298550Y244705D01*
X298435Y244626D01*
X297024Y243215D01*
X294288Y243215D01*
X293327Y244176D01*
X293201Y244260D01*
X293051Y244288D01*
X292903Y244255D01*
X292788Y244176D01*
X291309Y242697D01*
X288573Y242697D01*
G37*
G36*
X239424Y239522D02*
X237490Y241456D01*
X237490Y244192D01*
X239424Y246126D01*
X242160Y246126D01*
X244094Y244192D01*
X244094Y241456D01*
X242160Y239522D01*
X239424Y239522D01*
G37*
G36*
X275238Y239395D02*
X273304Y241329D01*
X273304Y244065D01*
X275238Y245999D01*
X277974Y245999D01*
X279908Y244065D01*
X279908Y241329D01*
X277974Y239395D01*
X275238Y239395D01*
G37*
G36*
X391062Y239268D02*
X389128Y241202D01*
X389128Y243938D01*
X391062Y245872D01*
X393798Y245872D01*
X395732Y243938D01*
X395732Y241202D01*
X393798Y239268D01*
X391062Y239268D01*
G37*
G36*
X356264Y237135D02*
X354330Y239069D01*
X354330Y241805D01*
X356264Y243739D01*
X359000Y243739D01*
X360934Y241805D01*
X360934Y239069D01*
X359000Y237135D01*
X356264Y237135D01*
G37*
G36*
X217336Y231658D02*
X215402Y233592D01*
X215402Y236328D01*
X217336Y238262D01*
X219192Y238262D01*
X219341Y238292D01*
X219466Y238378D01*
X219547Y238506D01*
X219573Y238643D01*
X219573Y240255D01*
X221507Y242189D01*
X224243Y242189D01*
X226177Y240255D01*
X226177Y237519D01*
X224243Y235585D01*
X222387Y235585D01*
X222238Y235555D01*
X222113Y235469D01*
X222032Y235341D01*
X222006Y235204D01*
X222006Y233592D01*
X220072Y231658D01*
X217336Y231658D01*
G37*
G36*
X318672Y234696D02*
X316738Y236630D01*
X316738Y239366D01*
X318672Y241300D01*
X321408Y241300D01*
X323342Y239366D01*
X323342Y236630D01*
X321408Y234696D01*
X318672Y234696D01*
G37*
G36*
X363359Y232681D02*
X361425Y234615D01*
X361425Y237351D01*
X363359Y239285D01*
X366095Y239285D01*
X368029Y237351D01*
X368029Y234615D01*
X366095Y232681D01*
X363359Y232681D01*
G37*
G36*
X354486Y229362D02*
X352552Y231296D01*
X352552Y234032D01*
X354486Y235966D01*
X357222Y235966D01*
X359156Y234032D01*
X359156Y231296D01*
X357222Y229362D01*
X354486Y229362D01*
G37*
%LPD*%
G36*
X510001Y377291D02*
X510404Y377562D01*
X512454Y379612D01*
X512733Y380033D01*
X512826Y380510D01*
X512826Y399970D01*
X512835Y400041D01*
X512890Y400114D01*
X516325Y403549D01*
X516382Y403593D01*
X516472Y403606D01*
X517536Y403606D01*
X518032Y403707D01*
X518434Y403978D01*
X519840Y405384D01*
X522576Y405384D01*
X524510Y403450D01*
X524510Y402354D01*
X524611Y401859D01*
X524882Y401456D01*
X534552Y391786D01*
X534973Y391507D01*
X535450Y391414D01*
X545066Y391414D01*
X545561Y391515D01*
X545964Y391786D01*
X546744Y392566D01*
X547023Y392987D01*
X547116Y393464D01*
X547116Y398508D01*
X547015Y399003D01*
X546744Y399406D01*
X544440Y401710D01*
X544019Y401989D01*
X543522Y402082D01*
X543028Y401973D01*
X542644Y401710D01*
X542544Y401610D01*
X539809Y401610D01*
X537875Y403544D01*
X537875Y403711D01*
X537774Y404206D01*
X537503Y404609D01*
X533036Y409076D01*
X532614Y409355D01*
X532137Y409448D01*
X496842Y409448D01*
X496347Y409347D01*
X495944Y409076D01*
X492370Y405502D01*
X492091Y405081D01*
X491998Y404604D01*
X491998Y381965D01*
X492099Y381470D01*
X492370Y381067D01*
X493617Y379820D01*
X494038Y379541D01*
X494515Y379448D01*
X496105Y379448D01*
X497991Y377562D01*
X498412Y377283D01*
X498889Y377190D01*
X509506Y377190D01*
X510001Y377291D01*
G37*
G36*
X546143Y3225D02*
X546351Y3368D01*
X546487Y3581D01*
X546530Y3830D01*
X546471Y4076D01*
X546344Y4259D01*
X523985Y26617D01*
X522864Y29325D01*
X522864Y32255D01*
X523985Y34963D01*
X526057Y37035D01*
X528765Y38156D01*
X531695Y38156D01*
X534403Y37035D01*
X554360Y17077D01*
X554571Y16937D01*
X554809Y16891D01*
X592983Y16891D01*
X593231Y16941D01*
X593439Y17084D01*
X593576Y17297D01*
X593618Y17546D01*
X593598Y17631D01*
X593598Y20545D01*
X595532Y22479D01*
X598268Y22479D01*
X600202Y20545D01*
X600202Y17624D01*
X600182Y17516D01*
X600236Y17269D01*
X600382Y17063D01*
X600597Y16930D01*
X600817Y16891D01*
X620394Y16891D01*
X620642Y16941D01*
X620850Y17084D01*
X620987Y17297D01*
X621029Y17546D01*
X620971Y17792D01*
X620821Y17996D01*
X620637Y18113D01*
X619186Y18714D01*
X616757Y21143D01*
X615442Y24317D01*
X615442Y27753D01*
X616757Y30927D01*
X619186Y33356D01*
X622360Y34671D01*
X625796Y34671D01*
X628970Y33356D01*
X631399Y30927D01*
X632714Y27753D01*
X632714Y24317D01*
X631399Y21143D01*
X628970Y18714D01*
X627519Y18113D01*
X627309Y17971D01*
X627171Y17760D01*
X627127Y17511D01*
X627183Y17264D01*
X627331Y17059D01*
X627547Y16928D01*
X627762Y16891D01*
X645794Y16891D01*
X646042Y16941D01*
X646250Y17084D01*
X646387Y17297D01*
X646429Y17546D01*
X646371Y17792D01*
X646221Y17996D01*
X646037Y18113D01*
X644586Y18714D01*
X642157Y21143D01*
X640842Y24317D01*
X640842Y27753D01*
X642157Y30927D01*
X644586Y33356D01*
X647760Y34671D01*
X651196Y34671D01*
X654370Y33356D01*
X656799Y30927D01*
X658114Y27753D01*
X658114Y24317D01*
X656799Y21143D01*
X654370Y18714D01*
X652919Y18113D01*
X652709Y17971D01*
X652571Y17760D01*
X652527Y17511D01*
X652583Y17264D01*
X652731Y17059D01*
X652947Y16928D01*
X653162Y16891D01*
X671194Y16891D01*
X671442Y16941D01*
X671650Y17084D01*
X671787Y17297D01*
X671829Y17546D01*
X671771Y17792D01*
X671621Y17996D01*
X671437Y18113D01*
X669986Y18714D01*
X667557Y21143D01*
X666242Y24317D01*
X666242Y27753D01*
X667557Y30927D01*
X669986Y33356D01*
X673160Y34671D01*
X676596Y34671D01*
X679770Y33356D01*
X682199Y30927D01*
X683514Y27753D01*
X683514Y24317D01*
X682199Y21143D01*
X679770Y18714D01*
X678319Y18113D01*
X678109Y17971D01*
X677971Y17760D01*
X677927Y17511D01*
X677983Y17264D01*
X678131Y17059D01*
X678347Y16928D01*
X678562Y16891D01*
X696594Y16891D01*
X696842Y16941D01*
X697050Y17084D01*
X697187Y17297D01*
X697229Y17546D01*
X697171Y17792D01*
X697021Y17996D01*
X696837Y18113D01*
X695386Y18714D01*
X692957Y21143D01*
X691642Y24317D01*
X691642Y27753D01*
X692957Y30927D01*
X695386Y33356D01*
X698560Y34671D01*
X701996Y34671D01*
X705170Y33356D01*
X707599Y30927D01*
X708914Y27753D01*
X708914Y24317D01*
X707599Y21143D01*
X705170Y18714D01*
X703719Y18113D01*
X703509Y17971D01*
X703371Y17760D01*
X703327Y17511D01*
X703383Y17264D01*
X703531Y17059D01*
X703747Y16928D01*
X703962Y16891D01*
X775577Y16891D01*
X775825Y16941D01*
X776026Y17077D01*
X794834Y35885D01*
X794974Y36096D01*
X795020Y36334D01*
X795020Y159690D01*
X794970Y159938D01*
X794827Y160146D01*
X794614Y160282D01*
X794365Y160325D01*
X794119Y160267D01*
X793936Y160139D01*
X758892Y125095D01*
X689813Y125095D01*
X689565Y125045D01*
X689364Y124909D01*
X664650Y100195D01*
X664510Y99984D01*
X664464Y99746D01*
X664464Y98643D01*
X662530Y96709D01*
X659794Y96709D01*
X657860Y98643D01*
X657860Y101379D01*
X658055Y101574D01*
X658195Y101784D01*
X658241Y102023D01*
X658241Y102048D01*
X690694Y134501D01*
X690834Y134712D01*
X690880Y134950D01*
X690880Y136496D01*
X692814Y138430D01*
X695550Y138430D01*
X697484Y136496D01*
X697484Y133760D01*
X697289Y133565D01*
X697149Y133355D01*
X697103Y133116D01*
X697103Y132648D01*
X696476Y132021D01*
X696336Y131810D01*
X696290Y131562D01*
X696344Y131315D01*
X696490Y131109D01*
X696706Y130976D01*
X696925Y130937D01*
X756209Y130937D01*
X756457Y130987D01*
X756658Y131123D01*
X788103Y162568D01*
X788243Y162779D01*
X788289Y163017D01*
X788289Y423215D01*
X788239Y423463D01*
X788103Y423664D01*
X780026Y431741D01*
X779815Y431881D01*
X779577Y431927D01*
X750706Y431927D01*
X750458Y431877D01*
X750250Y431734D01*
X750114Y431521D01*
X750071Y431272D01*
X750129Y431026D01*
X750257Y430843D01*
X751400Y429700D01*
X751611Y429560D01*
X751849Y429514D01*
X778961Y429514D01*
X778999Y429507D01*
X779018Y429433D01*
X779018Y247707D01*
X779011Y247669D01*
X778872Y247633D01*
X778581Y247467D01*
X761786Y230672D01*
X761752Y230648D01*
X761677Y230632D01*
X741045Y230632D01*
X740797Y230582D01*
X740589Y230439D01*
X740453Y230226D01*
X740410Y229997D01*
X740410Y207333D01*
X725863Y192786D01*
X668029Y192786D01*
X667781Y192736D01*
X667580Y192600D01*
X665012Y190032D01*
X664978Y190008D01*
X664903Y189992D01*
X600719Y189992D01*
X600471Y189942D01*
X600270Y189806D01*
X595874Y185410D01*
X595734Y185199D01*
X595688Y184951D01*
X595742Y184704D01*
X595874Y184512D01*
X596646Y183740D01*
X596646Y181004D01*
X594712Y179070D01*
X591976Y179070D01*
X591204Y179842D01*
X590993Y179982D01*
X590745Y180028D01*
X590498Y179974D01*
X590306Y179842D01*
X569146Y158682D01*
X569006Y158471D01*
X568960Y158233D01*
X568960Y155809D01*
X569010Y155561D01*
X569146Y155360D01*
X571246Y153260D01*
X571246Y151188D01*
X571296Y150940D01*
X571432Y150739D01*
X602615Y119556D01*
X602615Y108438D01*
X602665Y108190D01*
X602801Y107989D01*
X604266Y106524D01*
X604266Y103788D01*
X602332Y101854D01*
X599596Y101854D01*
X597662Y103788D01*
X597662Y106524D01*
X599127Y107989D01*
X599267Y108199D01*
X599313Y108438D01*
X599313Y117925D01*
X599263Y118173D01*
X599127Y118374D01*
X570035Y147466D01*
X569825Y147606D01*
X569576Y147652D01*
X569329Y147598D01*
X569123Y147451D01*
X568961Y147129D01*
X568953Y147082D01*
X568912Y147018D01*
X549950Y128056D01*
X549916Y128032D01*
X549841Y128016D01*
X503691Y128016D01*
X503443Y127966D01*
X503242Y127830D01*
X498788Y123376D01*
X498648Y123165D01*
X498602Y122927D01*
X498602Y58683D01*
X498652Y58435D01*
X498788Y58234D01*
X502880Y54142D01*
X502904Y54108D01*
X502920Y54033D01*
X502920Y3810D01*
X502970Y3562D01*
X503113Y3354D01*
X503326Y3218D01*
X503555Y3175D01*
X545895Y3175D01*
X546143Y3225D01*
G37*
%LPC*%
G36*
X621948Y181864D02*
X620014Y183798D01*
X620014Y186534D01*
X621948Y188468D01*
X624684Y188468D01*
X626618Y186534D01*
X626618Y183798D01*
X624684Y181864D01*
X621948Y181864D01*
G37*
G36*
X636934Y138176D02*
X635000Y140110D01*
X635000Y142846D01*
X636934Y144780D01*
X639670Y144780D01*
X641604Y142846D01*
X641604Y140110D01*
X639670Y138176D01*
X636934Y138176D01*
G37*
G36*
X645306Y135372D02*
X643372Y137306D01*
X643372Y140042D01*
X645306Y141976D01*
X648042Y141976D01*
X649976Y140042D01*
X649976Y137306D01*
X648042Y135372D01*
X645306Y135372D01*
G37*
G36*
X570640Y131318D02*
X568706Y133252D01*
X568706Y135988D01*
X570640Y137922D01*
X573376Y137922D01*
X575310Y135988D01*
X575310Y133252D01*
X573376Y131318D01*
X570640Y131318D01*
G37*
G36*
X713388Y114808D02*
X711454Y116742D01*
X711454Y119478D01*
X713388Y121412D01*
X716124Y121412D01*
X718058Y119478D01*
X718058Y116742D01*
X716124Y114808D01*
X713388Y114808D01*
G37*
G36*
X620932Y101854D02*
X618998Y103788D01*
X618998Y106524D01*
X620932Y108458D01*
X623668Y108458D01*
X625602Y106524D01*
X625602Y103788D01*
X623668Y101854D01*
X620932Y101854D01*
G37*
G36*
X569878Y81163D02*
X567944Y83097D01*
X567944Y85833D01*
X569048Y86937D01*
X569188Y87148D01*
X569234Y87396D01*
X569180Y87643D01*
X569048Y87835D01*
X568198Y88685D01*
X568198Y91421D01*
X569234Y92457D01*
X569373Y92667D01*
X569420Y92916D01*
X569365Y93163D01*
X569234Y93355D01*
X568315Y94273D01*
X568315Y97009D01*
X568774Y97468D01*
X568914Y97679D01*
X568960Y97927D01*
X568906Y98174D01*
X568760Y98380D01*
X568545Y98513D01*
X568325Y98552D01*
X567846Y98552D01*
X565910Y100489D01*
X565862Y100725D01*
X565719Y100933D01*
X565506Y101070D01*
X565257Y101112D01*
X565011Y101054D01*
X564828Y100926D01*
X564740Y100838D01*
X562004Y100838D01*
X561154Y101688D01*
X560943Y101828D01*
X560695Y101874D01*
X560448Y101820D01*
X560242Y101674D01*
X560109Y101459D01*
X560070Y101239D01*
X560070Y99724D01*
X558136Y97790D01*
X555400Y97790D01*
X553466Y99724D01*
X553466Y102460D01*
X555400Y104394D01*
X558136Y104394D01*
X558986Y103544D01*
X559197Y103404D01*
X559445Y103358D01*
X559692Y103412D01*
X559898Y103558D01*
X560031Y103773D01*
X560070Y103993D01*
X560070Y105508D01*
X562004Y107442D01*
X564740Y107442D01*
X566676Y105505D01*
X566724Y105269D01*
X566867Y105061D01*
X567080Y104924D01*
X567329Y104882D01*
X567575Y104940D01*
X567758Y105068D01*
X567846Y105156D01*
X570582Y105156D01*
X572516Y103222D01*
X572516Y100486D01*
X572057Y100027D01*
X571917Y99816D01*
X571871Y99568D01*
X571925Y99321D01*
X572071Y99115D01*
X572286Y98982D01*
X572506Y98943D01*
X572985Y98943D01*
X574919Y97009D01*
X574919Y94273D01*
X573883Y93238D01*
X573744Y93027D01*
X573697Y92778D01*
X573752Y92532D01*
X573883Y92340D01*
X574802Y91421D01*
X574802Y88685D01*
X573698Y87581D01*
X573558Y87370D01*
X573512Y87122D01*
X573566Y86875D01*
X573698Y86683D01*
X574548Y85833D01*
X574548Y83097D01*
X572614Y81163D01*
X569878Y81163D01*
G37*
G36*
X708668Y70866D02*
X702179Y73554D01*
X697214Y78519D01*
X694526Y85008D01*
X694526Y92030D01*
X697214Y98519D01*
X702179Y103484D01*
X708668Y106172D01*
X715690Y106172D01*
X722179Y103484D01*
X727144Y98519D01*
X729832Y92030D01*
X729832Y85008D01*
X727144Y78519D01*
X722179Y73554D01*
X715690Y70866D01*
X708668Y70866D01*
G37*
G36*
X593754Y77470D02*
X591820Y79404D01*
X591820Y82140D01*
X593754Y84074D01*
X596490Y84074D01*
X598424Y82140D01*
X598424Y79404D01*
X596490Y77470D01*
X593754Y77470D01*
G37*
G36*
X676050Y70612D02*
X674116Y72546D01*
X674116Y75282D01*
X676050Y77216D01*
X678786Y77216D01*
X680720Y75282D01*
X680720Y72546D01*
X678786Y70612D01*
X676050Y70612D01*
G37*
G36*
X543716Y67818D02*
X541782Y69752D01*
X541782Y72488D01*
X543716Y74422D01*
X546452Y74422D01*
X548386Y72488D01*
X548386Y69752D01*
X546452Y67818D01*
X543716Y67818D01*
G37*
G36*
X583594Y60452D02*
X581660Y62386D01*
X581660Y65122D01*
X583594Y67056D01*
X586330Y67056D01*
X588264Y65122D01*
X588264Y62386D01*
X586330Y60452D01*
X583594Y60452D01*
G37*
G36*
X538890Y57404D02*
X536956Y59338D01*
X536956Y62074D01*
X538890Y64008D01*
X541626Y64008D01*
X543560Y62074D01*
X543560Y59338D01*
X541626Y57404D01*
X538890Y57404D01*
G37*
G36*
X526952Y55372D02*
X525018Y57306D01*
X525018Y60042D01*
X526952Y61976D01*
X529688Y61976D01*
X531622Y60042D01*
X531622Y57306D01*
X529688Y55372D01*
X526952Y55372D01*
G37*
G36*
X555908Y53594D02*
X553974Y55528D01*
X553974Y58264D01*
X555908Y60198D01*
X558644Y60198D01*
X560578Y58264D01*
X560578Y55528D01*
X558644Y53594D01*
X555908Y53594D01*
G37*
G36*
X768218Y23116D02*
X761404Y25939D01*
X756189Y31154D01*
X753366Y37968D01*
X753366Y45344D01*
X756189Y52158D01*
X761404Y57373D01*
X768218Y60196D01*
X775594Y60196D01*
X782408Y57373D01*
X787623Y52158D01*
X790446Y45344D01*
X790446Y37968D01*
X787623Y31154D01*
X782408Y25939D01*
X775594Y23116D01*
X768218Y23116D01*
G37*
G36*
X594422Y44608D02*
X592488Y46542D01*
X592488Y49278D01*
X594422Y51212D01*
X597158Y51212D01*
X599092Y49278D01*
X599092Y46542D01*
X597158Y44608D01*
X594422Y44608D01*
G37*
G36*
X595532Y34798D02*
X593598Y36732D01*
X593598Y39468D01*
X595532Y41402D01*
X598268Y41402D01*
X600202Y39468D01*
X600202Y36732D01*
X598268Y34798D01*
X595532Y34798D01*
G37*
%LPD*%
G36*
X421766Y228701D02*
X422168Y228972D01*
X422748Y229552D01*
X425484Y229552D01*
X426064Y228972D01*
X426485Y228693D01*
X426962Y228600D01*
X437514Y228600D01*
X438009Y228701D01*
X438412Y228972D01*
X439172Y229732D01*
X439451Y230153D01*
X439544Y230650D01*
X439435Y231144D01*
X439172Y231528D01*
X437438Y233262D01*
X437438Y235998D01*
X439372Y237932D01*
X442108Y237932D01*
X443842Y236198D01*
X444263Y235919D01*
X444760Y235826D01*
X445254Y235934D01*
X445638Y236198D01*
X447372Y237932D01*
X450108Y237932D01*
X451658Y236382D01*
X452079Y236103D01*
X452576Y236010D01*
X453070Y236118D01*
X453454Y236382D01*
X455070Y237998D01*
X457806Y237998D01*
X459740Y236064D01*
X459740Y235153D01*
X459841Y234658D01*
X460112Y234255D01*
X461585Y232782D01*
X462006Y232503D01*
X462483Y232410D01*
X489186Y232410D01*
X489681Y232511D01*
X490084Y232782D01*
X491118Y233816D01*
X491397Y234237D01*
X491490Y234714D01*
X491490Y237472D01*
X491389Y237967D01*
X491118Y238370D01*
X490450Y239038D01*
X490029Y239317D01*
X489552Y239410D01*
X487253Y239410D01*
X485319Y241344D01*
X485319Y243643D01*
X485218Y244138D01*
X484947Y244541D01*
X481194Y248294D01*
X480773Y248573D01*
X480296Y248666D01*
X456505Y248666D01*
X456010Y248565D01*
X455607Y248294D01*
X452042Y244729D01*
X427302Y244729D01*
X425263Y246768D01*
X424842Y247047D01*
X424365Y247140D01*
X422556Y247140D01*
X420622Y249074D01*
X420622Y251206D01*
X420522Y251701D01*
X420236Y252118D01*
X419810Y252391D01*
X419352Y252476D01*
X413969Y252476D01*
X413474Y252375D01*
X413071Y252104D01*
X411852Y250885D01*
X411573Y250464D01*
X411480Y249987D01*
X411480Y237866D01*
X411581Y237371D01*
X411866Y236954D01*
X412292Y236681D01*
X412790Y236597D01*
X413282Y236713D01*
X413648Y236968D01*
X414490Y237810D01*
X417226Y237810D01*
X419160Y235876D01*
X419160Y233140D01*
X418266Y232246D01*
X417987Y231825D01*
X417894Y231328D01*
X418002Y230834D01*
X418266Y230450D01*
X419744Y228972D01*
X420165Y228693D01*
X420642Y228600D01*
X421270Y228600D01*
X421766Y228701D01*
G37*
G36*
X430668Y318363D02*
X430698Y318383D01*
X433683Y318383D01*
X433725Y318355D01*
X434202Y318262D01*
X434281Y318262D01*
X434777Y318363D01*
X435288Y318758D01*
X435416Y318924D01*
X435638Y319378D01*
X435666Y319883D01*
X435495Y320358D01*
X435307Y320597D01*
X428047Y327857D01*
X428003Y327914D01*
X427990Y328004D01*
X427990Y333930D01*
X427999Y334001D01*
X428054Y334074D01*
X429075Y335095D01*
X429354Y335517D01*
X429447Y336013D01*
X429338Y336507D01*
X429075Y336891D01*
X428569Y337397D01*
X428569Y340133D01*
X430503Y342067D01*
X433239Y342067D01*
X435173Y340133D01*
X435173Y337397D01*
X434088Y336312D01*
X433809Y335891D01*
X433716Y335394D01*
X433825Y334900D01*
X434088Y334516D01*
X435806Y332798D01*
X436228Y332519D01*
X436724Y332426D01*
X437218Y332535D01*
X437602Y332798D01*
X438927Y334123D01*
X441663Y334123D01*
X443597Y332189D01*
X443597Y328930D01*
X443697Y328435D01*
X443983Y328018D01*
X444409Y327745D01*
X444867Y327660D01*
X448546Y327660D01*
X449041Y327761D01*
X449444Y328032D01*
X456828Y335416D01*
X457107Y335837D01*
X457200Y336314D01*
X457200Y350756D01*
X457099Y351251D01*
X456828Y351654D01*
X454270Y354212D01*
X453849Y354491D01*
X453372Y354584D01*
X426212Y354584D01*
X425717Y354483D01*
X425300Y354198D01*
X425027Y353772D01*
X424942Y353314D01*
X424942Y319532D01*
X425043Y319037D01*
X425328Y318620D01*
X425754Y318347D01*
X426212Y318262D01*
X430172Y318262D01*
X430668Y318363D01*
G37*
G36*
X445507Y312958D02*
X445628Y313040D01*
X453199Y320611D01*
X453282Y320737D01*
X453310Y320886D01*
X453278Y321034D01*
X453199Y321150D01*
X453136Y321212D01*
X453136Y323948D01*
X455070Y325882D01*
X457806Y325882D01*
X457868Y325819D01*
X457995Y325736D01*
X458144Y325708D01*
X458292Y325740D01*
X458407Y325819D01*
X459963Y327375D01*
X460009Y327403D01*
X460025Y327406D01*
X469371Y327406D01*
X469519Y327436D01*
X469644Y327522D01*
X469726Y327650D01*
X469751Y327799D01*
X469717Y327947D01*
X469640Y328056D01*
X468483Y329213D01*
X468483Y331949D01*
X470417Y333883D01*
X473153Y333883D01*
X475087Y331949D01*
X475087Y329213D01*
X473930Y328056D01*
X473847Y327930D01*
X473819Y327781D01*
X473851Y327633D01*
X473939Y327509D01*
X474068Y327429D01*
X474200Y327406D01*
X488802Y327406D01*
X488951Y327436D01*
X489071Y327518D01*
X490890Y329337D01*
X490974Y329463D01*
X491002Y329606D01*
X491002Y333393D01*
X490972Y333542D01*
X490890Y333663D01*
X489884Y334669D01*
X489763Y334751D01*
X489746Y334758D01*
X489686Y334798D01*
X484190Y340294D01*
X484064Y340377D01*
X483915Y340405D01*
X483767Y340373D01*
X483643Y340285D01*
X483563Y340156D01*
X483540Y340024D01*
X483540Y337764D01*
X481606Y335830D01*
X478870Y335830D01*
X476936Y337764D01*
X476936Y340500D01*
X478870Y342434D01*
X481130Y342434D01*
X481279Y342464D01*
X481404Y342550D01*
X481486Y342677D01*
X481511Y342827D01*
X481476Y342975D01*
X481400Y343084D01*
X470266Y354218D01*
X470139Y354302D01*
X469996Y354330D01*
X463962Y354330D01*
X463813Y354300D01*
X463692Y354218D01*
X459598Y350124D01*
X459514Y349997D01*
X459486Y349854D01*
X459486Y336086D01*
X459474Y336034D01*
X459464Y336020D01*
X458011Y334567D01*
X457927Y334441D01*
X457900Y334292D01*
X457932Y334144D01*
X458011Y334028D01*
X460042Y331998D01*
X460042Y329262D01*
X458108Y327328D01*
X455372Y327328D01*
X453341Y329359D01*
X453215Y329442D01*
X453066Y329470D01*
X452918Y329438D01*
X452803Y329359D01*
X449611Y326167D01*
X449565Y326139D01*
X449549Y326136D01*
X440480Y326136D01*
X440428Y326148D01*
X440414Y326158D01*
X439165Y327407D01*
X439038Y327491D01*
X438935Y327511D01*
X436985Y329461D01*
X436963Y329570D01*
X436881Y329691D01*
X432928Y333644D01*
X432801Y333728D01*
X432658Y333756D01*
X429895Y333756D01*
X429746Y333726D01*
X429621Y333640D01*
X429540Y333512D01*
X429514Y333375D01*
X429514Y329088D01*
X429544Y328939D01*
X429626Y328818D01*
X432450Y325994D01*
X432577Y325910D01*
X432720Y325882D01*
X433422Y325882D01*
X435356Y323948D01*
X435356Y323246D01*
X435386Y323097D01*
X435468Y322976D01*
X437611Y320833D01*
X437639Y320787D01*
X437642Y320771D01*
X437642Y313848D01*
X437672Y313699D01*
X437754Y313578D01*
X438292Y313040D01*
X438419Y312956D01*
X438562Y312928D01*
X445358Y312928D01*
X445507Y312958D01*
G37*
%LPC*%
G36*
X470996Y335661D02*
X469062Y337595D01*
X469062Y340331D01*
X470996Y342265D01*
X473732Y342265D01*
X475666Y340331D01*
X475666Y337595D01*
X473732Y335661D01*
X470996Y335661D01*
G37*
%LPD*%
G36*
X538703Y376275D02*
X539106Y376546D01*
X556904Y394344D01*
X557183Y394765D01*
X557276Y395242D01*
X557276Y396378D01*
X557175Y396874D01*
X556904Y397276D01*
X556006Y398174D01*
X556006Y400032D01*
X555905Y400527D01*
X555634Y400930D01*
X554092Y402472D01*
X553671Y402751D01*
X553194Y402844D01*
X549674Y402844D01*
X549179Y402743D01*
X548776Y402472D01*
X548758Y402454D01*
X548479Y402033D01*
X548386Y401556D01*
X548386Y392256D01*
X548377Y392185D01*
X548322Y392112D01*
X546157Y389947D01*
X546100Y389903D01*
X546010Y389890D01*
X534242Y389890D01*
X534171Y389899D01*
X534098Y389954D01*
X522342Y401710D01*
X521921Y401989D01*
X521444Y402082D01*
X517162Y402082D01*
X516667Y401981D01*
X516264Y401710D01*
X514722Y400168D01*
X514443Y399747D01*
X514350Y399270D01*
X514350Y380510D01*
X514451Y380015D01*
X514722Y379612D01*
X517788Y376546D01*
X518209Y376267D01*
X518686Y376174D01*
X538208Y376174D01*
X538703Y376275D01*
G37*
G36*
X493250Y4632D02*
X493491Y4795D01*
X499141Y10445D01*
X499308Y10698D01*
X499364Y10984D01*
X499364Y52262D01*
X499304Y52560D01*
X499141Y52801D01*
X495852Y56090D01*
X495833Y56117D01*
X495808Y56222D01*
X495808Y125414D01*
X495813Y125446D01*
X495870Y125538D01*
X501606Y131274D01*
X501633Y131293D01*
X501738Y131318D01*
X547816Y131318D01*
X548114Y131378D01*
X548355Y131541D01*
X565435Y148621D01*
X565602Y148874D01*
X565658Y149160D01*
X565658Y149193D01*
X565598Y149490D01*
X565435Y149731D01*
X565181Y149985D01*
X564928Y150153D01*
X564630Y150209D01*
X564334Y150143D01*
X564103Y149985D01*
X562708Y148590D01*
X559972Y148590D01*
X558038Y150524D01*
X558038Y153260D01*
X559972Y155194D01*
X562708Y155194D01*
X564103Y153799D01*
X564356Y153631D01*
X564654Y153575D01*
X564950Y153641D01*
X565181Y153799D01*
X565435Y154053D01*
X565602Y154305D01*
X565658Y154591D01*
X565658Y159958D01*
X565663Y159990D01*
X565720Y160082D01*
X601695Y196057D01*
X601863Y196310D01*
X601918Y196608D01*
X601853Y196904D01*
X601678Y197152D01*
X601420Y197311D01*
X601156Y197358D01*
X599342Y197358D01*
X597439Y199261D01*
X597186Y199429D01*
X596888Y199485D01*
X596592Y199419D01*
X596344Y199244D01*
X596185Y198986D01*
X596151Y198798D01*
X594204Y196850D01*
X591468Y196850D01*
X589692Y198626D01*
X589439Y198794D01*
X589141Y198850D01*
X588845Y198784D01*
X588614Y198626D01*
X587092Y197104D01*
X584356Y197104D01*
X582422Y199038D01*
X582422Y201774D01*
X584356Y203708D01*
X587092Y203708D01*
X588868Y201932D01*
X589121Y201764D01*
X589419Y201708D01*
X589715Y201774D01*
X589946Y201932D01*
X591468Y203454D01*
X594204Y203454D01*
X596107Y201551D01*
X596360Y201383D01*
X596658Y201327D01*
X596954Y201393D01*
X597202Y201568D01*
X597361Y201826D01*
X597395Y202014D01*
X599342Y203962D01*
X602234Y203962D01*
X602531Y204022D01*
X602781Y204194D01*
X602945Y204449D01*
X602996Y204724D01*
X602996Y262828D01*
X603001Y262860D01*
X603058Y262952D01*
X616743Y276637D01*
X616910Y276890D01*
X616966Y277176D01*
X616966Y306770D01*
X616906Y307068D01*
X616743Y307309D01*
X610331Y313721D01*
X610078Y313888D01*
X609792Y313944D01*
X556858Y313944D01*
X556561Y313884D01*
X556320Y313721D01*
X531083Y288485D01*
X530916Y288232D01*
X530860Y287946D01*
X530860Y283718D01*
X530920Y283421D01*
X531092Y283171D01*
X531347Y283007D01*
X531622Y282956D01*
X534514Y282956D01*
X536448Y281022D01*
X536448Y278286D01*
X534514Y276352D01*
X531622Y276352D01*
X531325Y276292D01*
X531075Y276120D01*
X530911Y275865D01*
X530860Y275590D01*
X530860Y271812D01*
X530920Y271515D01*
X531083Y271274D01*
X532003Y270354D01*
X532003Y267618D01*
X531083Y266698D01*
X530916Y266446D01*
X530860Y266160D01*
X530860Y265335D01*
X530920Y265038D01*
X531083Y264797D01*
X532130Y263750D01*
X532130Y261874D01*
X532190Y261577D01*
X532362Y261327D01*
X532617Y261163D01*
X532892Y261112D01*
X535911Y261112D01*
X537845Y259178D01*
X537845Y256442D01*
X535911Y254508D01*
X533175Y254508D01*
X532161Y255522D01*
X531908Y255690D01*
X531610Y255746D01*
X531314Y255680D01*
X531066Y255505D01*
X530907Y255247D01*
X530860Y254984D01*
X530860Y254619D01*
X530920Y254321D01*
X531083Y254080D01*
X531517Y253646D01*
X531517Y227965D01*
X531577Y227668D01*
X531749Y227418D01*
X532004Y227254D01*
X532279Y227203D01*
X532306Y227203D01*
X537083Y222426D01*
X537083Y210644D01*
X536116Y209677D01*
X535670Y209677D01*
X535372Y209617D01*
X535131Y209454D01*
X523590Y197913D01*
X523423Y197660D01*
X523367Y197375D01*
X523367Y194896D01*
X497254Y168783D01*
X491133Y168783D01*
X490836Y168723D01*
X490773Y168687D01*
X490640Y168656D01*
X468487Y168656D01*
X468189Y168596D01*
X467948Y168433D01*
X433246Y133731D01*
X427560Y133731D01*
X419909Y141382D01*
X419656Y141549D01*
X419371Y141605D01*
X418116Y141605D01*
X417819Y141545D01*
X417578Y141382D01*
X416150Y139954D01*
X413414Y139954D01*
X411480Y141888D01*
X411480Y144624D01*
X413414Y146558D01*
X416150Y146558D01*
X417578Y145130D01*
X417830Y144963D01*
X418116Y144907D01*
X421054Y144907D01*
X425673Y140288D01*
X425926Y140120D01*
X426224Y140065D01*
X426520Y140130D01*
X426768Y140305D01*
X426927Y140563D01*
X426974Y140827D01*
X426974Y141322D01*
X428908Y143256D01*
X430029Y143256D01*
X430327Y143316D01*
X430568Y143479D01*
X440975Y153886D01*
X441142Y154139D01*
X441198Y154425D01*
X441198Y167894D01*
X441138Y168191D01*
X440966Y168441D01*
X440711Y168605D01*
X440436Y168656D01*
X439071Y168656D01*
X438774Y168596D01*
X438524Y168424D01*
X438361Y168169D01*
X438310Y167870D01*
X438380Y167575D01*
X438533Y167355D01*
X439420Y166468D01*
X439420Y163732D01*
X437486Y161798D01*
X434750Y161798D01*
X433609Y162939D01*
X433356Y163107D01*
X433058Y163163D01*
X432762Y163097D01*
X432514Y162922D01*
X432355Y162664D01*
X432321Y162476D01*
X430374Y160528D01*
X427638Y160528D01*
X425704Y162462D01*
X425704Y165198D01*
X427861Y167355D01*
X428029Y167608D01*
X428085Y167906D01*
X428019Y168202D01*
X427844Y168450D01*
X427586Y168609D01*
X427323Y168656D01*
X420692Y168656D01*
X420395Y168596D01*
X420145Y168424D01*
X419982Y168169D01*
X419931Y167870D01*
X420001Y167575D01*
X420154Y167355D01*
X420878Y166631D01*
X420878Y163895D01*
X418944Y161961D01*
X416208Y161961D01*
X414274Y163895D01*
X414274Y166631D01*
X414998Y167355D01*
X415166Y167608D01*
X415222Y167906D01*
X415156Y168202D01*
X414981Y168450D01*
X414723Y168609D01*
X414460Y168656D01*
X375220Y168656D01*
X375188Y168661D01*
X375096Y168718D01*
X334614Y209200D01*
X334361Y209367D01*
X334075Y209423D01*
X293783Y209423D01*
X293486Y209363D01*
X293245Y209200D01*
X292800Y208755D01*
X292633Y208502D01*
X292577Y208204D01*
X292642Y207908D01*
X292800Y207678D01*
X294894Y205584D01*
X294894Y202848D01*
X292960Y200914D01*
X290224Y200914D01*
X288290Y202848D01*
X288290Y205584D01*
X289876Y207170D01*
X290043Y207423D01*
X290099Y207721D01*
X290034Y208017D01*
X289876Y208247D01*
X287782Y210341D01*
X287782Y213077D01*
X289558Y214853D01*
X289726Y215106D01*
X289782Y215404D01*
X289716Y215700D01*
X289541Y215948D01*
X289283Y216107D01*
X289020Y216154D01*
X251268Y216154D01*
X250970Y216094D01*
X250729Y215931D01*
X244825Y210027D01*
X244658Y209774D01*
X244602Y209488D01*
X244602Y208439D01*
X244662Y208142D01*
X244825Y207901D01*
X246380Y206346D01*
X246380Y203610D01*
X244825Y202055D01*
X244658Y201803D01*
X244602Y201517D01*
X244602Y195739D01*
X244662Y195442D01*
X244825Y195201D01*
X245364Y194662D01*
X245364Y191926D01*
X244825Y191387D01*
X244658Y191135D01*
X244602Y190849D01*
X244602Y185833D01*
X244662Y185536D01*
X244825Y185295D01*
X246126Y183994D01*
X246126Y181258D01*
X244825Y179957D01*
X244658Y179705D01*
X244602Y179419D01*
X244602Y134174D01*
X244597Y134142D01*
X244540Y134050D01*
X243412Y132922D01*
X243244Y132669D01*
X243189Y132371D01*
X243254Y132075D01*
X243332Y131960D01*
X243332Y129188D01*
X241398Y127254D01*
X238622Y127254D01*
X238489Y127342D01*
X238191Y127397D01*
X237895Y127332D01*
X237664Y127174D01*
X226358Y115868D01*
X226331Y115849D01*
X226226Y115824D01*
X94042Y115824D01*
X93744Y115764D01*
X93503Y115601D01*
X71672Y93770D01*
X71645Y93751D01*
X71540Y93726D01*
X55873Y93726D01*
X55575Y93666D01*
X55325Y93494D01*
X55162Y93239D01*
X55111Y92940D01*
X55181Y92645D01*
X55334Y92425D01*
X88100Y59659D01*
X88353Y59492D01*
X88639Y59436D01*
X97975Y59436D01*
X105626Y51785D01*
X105879Y51618D01*
X106165Y51562D01*
X107286Y51562D01*
X109220Y49628D01*
X109220Y46892D01*
X107317Y44989D01*
X107296Y44958D01*
X104550Y44958D01*
X102616Y46892D01*
X102616Y48013D01*
X102556Y48311D01*
X102393Y48552D01*
X96304Y54641D01*
X96051Y54808D01*
X95765Y54864D01*
X86429Y54864D01*
X51854Y89439D01*
X51601Y89606D01*
X51315Y89662D01*
X14928Y89662D01*
X11087Y93503D01*
X10834Y93670D01*
X10548Y93726D01*
X6920Y93726D01*
X6622Y93666D01*
X6381Y93503D01*
X5811Y92933D01*
X5644Y92680D01*
X5588Y92394D01*
X5588Y29272D01*
X5648Y28974D01*
X5811Y28733D01*
X29749Y4795D01*
X30002Y4628D01*
X30288Y4572D01*
X492952Y4572D01*
X493250Y4632D01*
G37*
%LPC*%
G36*
X555228Y299085D02*
X553294Y301019D01*
X553294Y303755D01*
X555228Y305689D01*
X557964Y305689D01*
X559898Y303755D01*
X559898Y301019D01*
X557964Y299085D01*
X555228Y299085D01*
G37*
G36*
X569624Y287020D02*
X567690Y288954D01*
X567690Y291690D01*
X569624Y293624D01*
X572360Y293624D01*
X574294Y291690D01*
X574294Y288954D01*
X572360Y287020D01*
X569624Y287020D01*
G37*
G36*
X559464Y281940D02*
X557530Y283874D01*
X557530Y286610D01*
X559464Y288544D01*
X562200Y288544D01*
X564134Y286610D01*
X564134Y283874D01*
X562200Y281940D01*
X559464Y281940D01*
G37*
G36*
X561496Y270764D02*
X559562Y272698D01*
X559562Y275434D01*
X561496Y277368D01*
X564232Y277368D01*
X566166Y275434D01*
X566166Y272698D01*
X564232Y270764D01*
X561496Y270764D01*
G37*
G36*
X592113Y268107D02*
X590179Y270041D01*
X590179Y272777D01*
X592113Y274711D01*
X594849Y274711D01*
X595863Y273697D01*
X596116Y273529D01*
X596414Y273474D01*
X596710Y273539D01*
X596941Y273697D01*
X598072Y274828D01*
X600808Y274828D01*
X602742Y272894D01*
X602742Y270158D01*
X600808Y268224D01*
X598072Y268224D01*
X597058Y269238D01*
X596805Y269406D01*
X596507Y269462D01*
X596211Y269396D01*
X595980Y269238D01*
X594849Y268107D01*
X592113Y268107D01*
G37*
G36*
X555146Y257810D02*
X553212Y259744D01*
X553212Y262480D01*
X555146Y264414D01*
X557882Y264414D01*
X559816Y262480D01*
X559816Y259744D01*
X557882Y257810D01*
X555146Y257810D01*
G37*
G36*
X585256Y240879D02*
X583321Y242813D01*
X583321Y245549D01*
X585256Y247483D01*
X587991Y247483D01*
X589925Y245549D01*
X589925Y242813D01*
X587991Y240879D01*
X585256Y240879D01*
G37*
G36*
X556924Y232951D02*
X554990Y234885D01*
X554990Y237621D01*
X556924Y239555D01*
X559660Y239555D01*
X561594Y237621D01*
X561594Y234885D01*
X559660Y232951D01*
X556924Y232951D01*
G37*
G36*
X585244Y216910D02*
X583310Y218844D01*
X583310Y221580D01*
X585244Y223514D01*
X587979Y223514D01*
X589914Y221580D01*
X589914Y218844D01*
X587979Y216910D01*
X585244Y216910D01*
G37*
G36*
X528847Y189093D02*
X526913Y191027D01*
X526913Y193763D01*
X528847Y195697D01*
X529714Y195697D01*
X530011Y195757D01*
X530261Y195929D01*
X530424Y196184D01*
X530476Y196459D01*
X530476Y198103D01*
X532410Y200037D01*
X535145Y200037D01*
X537080Y198103D01*
X537080Y195367D01*
X535145Y193433D01*
X534279Y193433D01*
X533982Y193373D01*
X533732Y193201D01*
X533568Y192946D01*
X533517Y192671D01*
X533517Y191027D01*
X531583Y189093D01*
X528847Y189093D01*
G37*
G36*
X290224Y190246D02*
X288290Y192180D01*
X288290Y194916D01*
X290224Y196850D01*
X292960Y196850D01*
X294894Y194916D01*
X294894Y192180D01*
X292960Y190246D01*
X290224Y190246D01*
G37*
G36*
X289716Y179578D02*
X287782Y181512D01*
X287782Y184248D01*
X289716Y186182D01*
X292452Y186182D01*
X294386Y184248D01*
X294386Y181512D01*
X292452Y179578D01*
X289716Y179578D01*
G37*
G36*
X289716Y168910D02*
X287782Y170844D01*
X287782Y173580D01*
X289716Y175514D01*
X292452Y175514D01*
X294386Y173580D01*
X294386Y170844D01*
X292452Y168910D01*
X289716Y168910D01*
G37*
G36*
X266348Y156419D02*
X264414Y158353D01*
X264414Y161089D01*
X266348Y163023D01*
X269084Y163023D01*
X271018Y161089D01*
X271018Y158353D01*
X269084Y156419D01*
X266348Y156419D01*
G37*
G36*
X397666Y144018D02*
X395732Y145952D01*
X395732Y148688D01*
X397666Y150622D01*
X398272Y150622D01*
X398569Y150682D01*
X398819Y150854D01*
X398983Y151109D01*
X399034Y151384D01*
X399034Y153260D01*
X400175Y154401D01*
X400343Y154654D01*
X400399Y154952D01*
X400333Y155248D01*
X400175Y155479D01*
X399034Y156620D01*
X399034Y159356D01*
X400968Y161290D01*
X403704Y161290D01*
X405638Y159356D01*
X405638Y156620D01*
X404497Y155479D01*
X404329Y155226D01*
X404273Y154928D01*
X404339Y154632D01*
X404497Y154401D01*
X405638Y153260D01*
X405638Y150524D01*
X403704Y148590D01*
X403098Y148590D01*
X402801Y148530D01*
X402551Y148358D01*
X402387Y148103D01*
X402336Y147828D01*
X402336Y145952D01*
X400402Y144018D01*
X397666Y144018D01*
G37*
G36*
X516284Y149352D02*
X514350Y151286D01*
X514350Y154022D01*
X516284Y155956D01*
X519020Y155956D01*
X520954Y154022D01*
X520954Y151286D01*
X519020Y149352D01*
X516284Y149352D01*
G37*
G36*
X262030Y140970D02*
X260096Y142904D01*
X260096Y145640D01*
X262030Y147574D01*
X264766Y147574D01*
X266700Y145640D01*
X266700Y142904D01*
X264766Y140970D01*
X262030Y140970D01*
G37*
G36*
X424590Y120396D02*
X422656Y122330D01*
X422656Y125066D01*
X424590Y127000D01*
X427326Y127000D01*
X429260Y125066D01*
X429260Y122330D01*
X427326Y120396D01*
X424590Y120396D01*
G37*
G36*
X281080Y120142D02*
X279146Y122076D01*
X279146Y124812D01*
X281080Y126746D01*
X283816Y126746D01*
X285750Y124812D01*
X285750Y122076D01*
X283816Y120142D01*
X281080Y120142D01*
G37*
G36*
X316894Y104394D02*
X314960Y106328D01*
X314960Y109064D01*
X316894Y110998D01*
X319786Y110998D01*
X320083Y111058D01*
X320333Y111230D01*
X320497Y111485D01*
X320548Y111760D01*
X320548Y113284D01*
X320488Y113581D01*
X320316Y113831D01*
X320061Y113995D01*
X319786Y114046D01*
X317148Y114046D01*
X315214Y115980D01*
X315214Y118364D01*
X315154Y118661D01*
X314982Y118911D01*
X314727Y119075D01*
X314452Y119126D01*
X312576Y119126D01*
X310642Y121060D01*
X310642Y123796D01*
X312576Y125730D01*
X315312Y125730D01*
X317246Y123796D01*
X317246Y121412D01*
X317306Y121115D01*
X317478Y120865D01*
X317733Y120701D01*
X318008Y120650D01*
X319884Y120650D01*
X321818Y118716D01*
X321818Y116332D01*
X321878Y116035D01*
X322050Y115785D01*
X322305Y115621D01*
X322580Y115570D01*
X325218Y115570D01*
X327152Y113636D01*
X327152Y110900D01*
X325218Y108966D01*
X322326Y108966D01*
X322029Y108906D01*
X321779Y108734D01*
X321615Y108479D01*
X321564Y108204D01*
X321564Y106328D01*
X319630Y104394D01*
X316894Y104394D01*
G37*
G36*
X240186Y113538D02*
X238252Y115472D01*
X238252Y118208D01*
X240186Y120142D01*
X242922Y120142D01*
X244856Y118208D01*
X244856Y115472D01*
X242922Y113538D01*
X240186Y113538D01*
G37*
G36*
X421034Y107442D02*
X419100Y109376D01*
X419100Y112112D01*
X421034Y114046D01*
X423770Y114046D01*
X425704Y112112D01*
X425704Y109376D01*
X423770Y107442D01*
X421034Y107442D01*
G37*
G36*
X433480Y105918D02*
X431546Y107852D01*
X431546Y110588D01*
X433480Y112522D01*
X436216Y112522D01*
X438150Y110588D01*
X438150Y107852D01*
X436216Y105918D01*
X433480Y105918D01*
G37*
G36*
X135030Y105156D02*
X133096Y107090D01*
X133096Y109826D01*
X135030Y111760D01*
X137766Y111760D01*
X139700Y109826D01*
X139700Y107090D01*
X137766Y105156D01*
X135030Y105156D01*
G37*
G36*
X235614Y100330D02*
X233680Y102264D01*
X233680Y105000D01*
X235614Y106934D01*
X238350Y106934D01*
X240284Y105000D01*
X240284Y102264D01*
X238350Y100330D01*
X235614Y100330D01*
G37*
G36*
X208436Y99060D02*
X206502Y100994D01*
X206502Y103730D01*
X208436Y105664D01*
X211172Y105664D01*
X213106Y103730D01*
X213106Y100994D01*
X211172Y99060D01*
X208436Y99060D01*
G37*
G36*
X243996Y98806D02*
X242062Y100740D01*
X242062Y103476D01*
X243996Y105410D01*
X246732Y105410D01*
X248666Y103476D01*
X248666Y100740D01*
X246732Y98806D01*
X243996Y98806D01*
G37*
G36*
X446180Y96012D02*
X444246Y97946D01*
X444246Y100682D01*
X446180Y102616D01*
X448916Y102616D01*
X450850Y100682D01*
X450850Y97946D01*
X448916Y96012D01*
X446180Y96012D01*
G37*
G36*
X305210Y95250D02*
X303276Y97184D01*
X303276Y99920D01*
X305210Y101854D01*
X307946Y101854D01*
X309880Y99920D01*
X309880Y97184D01*
X307946Y95250D01*
X305210Y95250D01*
G37*
G36*
X323752Y92456D02*
X321818Y94390D01*
X321818Y97126D01*
X323752Y99060D01*
X326488Y99060D01*
X328422Y97126D01*
X328422Y94390D01*
X326488Y92456D01*
X323752Y92456D01*
G37*
G36*
X215040Y89789D02*
X213106Y91723D01*
X213106Y94459D01*
X215040Y96393D01*
X217776Y96393D01*
X219710Y94459D01*
X219710Y91723D01*
X217776Y89789D01*
X215040Y89789D01*
G37*
G36*
X312830Y88138D02*
X310896Y90072D01*
X310896Y92808D01*
X312830Y94742D01*
X315566Y94742D01*
X317500Y92808D01*
X317500Y90072D01*
X315566Y88138D01*
X312830Y88138D01*
G37*
G36*
X157890Y86995D02*
X155956Y88929D01*
X155956Y91665D01*
X157890Y93599D01*
X160626Y93599D01*
X162560Y91665D01*
X162560Y88929D01*
X160626Y86995D01*
X157890Y86995D01*
G37*
G36*
X73482Y84308D02*
X71548Y86242D01*
X71548Y88978D01*
X73482Y90912D01*
X76218Y90912D01*
X78152Y88978D01*
X78152Y86242D01*
X76218Y84308D01*
X73482Y84308D01*
G37*
G36*
X314354Y54864D02*
X312420Y56798D01*
X312420Y58420D01*
X312360Y58717D01*
X312188Y58967D01*
X311933Y59131D01*
X311658Y59182D01*
X310798Y59182D01*
X308864Y61116D01*
X308864Y63852D01*
X310798Y65786D01*
X311912Y65786D01*
X312209Y65846D01*
X312459Y66018D01*
X312623Y66273D01*
X312674Y66548D01*
X312674Y69186D01*
X314608Y71120D01*
X315055Y71120D01*
X315352Y71180D01*
X315602Y71352D01*
X315765Y71607D01*
X315816Y71906D01*
X315746Y72201D01*
X315593Y72421D01*
X314335Y73679D01*
X314335Y75696D01*
X314275Y75994D01*
X314103Y76244D01*
X313848Y76407D01*
X313573Y76458D01*
X313080Y76458D01*
X311146Y78393D01*
X311146Y81128D01*
X313080Y83062D01*
X315815Y83062D01*
X317750Y81128D01*
X317750Y79111D01*
X317810Y78814D01*
X317982Y78564D01*
X318237Y78400D01*
X318512Y78349D01*
X319005Y78349D01*
X320939Y76415D01*
X320939Y73679D01*
X319005Y71745D01*
X318558Y71745D01*
X318261Y71685D01*
X318011Y71513D01*
X317848Y71258D01*
X317797Y70959D01*
X317867Y70664D01*
X318020Y70444D01*
X319278Y69186D01*
X319278Y66450D01*
X317344Y64516D01*
X316230Y64516D01*
X315933Y64456D01*
X315683Y64284D01*
X315519Y64029D01*
X315468Y63754D01*
X315468Y62230D01*
X315528Y61933D01*
X315700Y61683D01*
X315955Y61519D01*
X316230Y61468D01*
X317090Y61468D01*
X319024Y59534D01*
X319024Y56798D01*
X317090Y54864D01*
X314354Y54864D01*
G37*
G36*
X256442Y70358D02*
X254508Y72292D01*
X254508Y75028D01*
X256442Y76962D01*
X259178Y76962D01*
X261112Y75028D01*
X261112Y72292D01*
X259178Y70358D01*
X256442Y70358D01*
G37*
G36*
X340262Y68072D02*
X338328Y70006D01*
X338328Y72742D01*
X340262Y74676D01*
X342998Y74676D01*
X344932Y72742D01*
X344932Y70006D01*
X342998Y68072D01*
X340262Y68072D01*
G37*
G36*
X149508Y60452D02*
X147574Y62386D01*
X147574Y65122D01*
X149508Y67056D01*
X152244Y67056D01*
X154178Y65122D01*
X154178Y62386D01*
X152244Y60452D01*
X149508Y60452D01*
G37*
G36*
X174146Y60198D02*
X172212Y62132D01*
X172212Y64868D01*
X174146Y66802D01*
X176882Y66802D01*
X178816Y64868D01*
X178816Y62132D01*
X176882Y60198D01*
X174146Y60198D01*
G37*
G36*
X276000Y14986D02*
X274066Y16920D01*
X274066Y19656D01*
X275367Y20957D01*
X275534Y21209D01*
X275590Y21495D01*
X275590Y27527D01*
X275530Y27824D01*
X275367Y28065D01*
X273304Y30128D01*
X273304Y32864D01*
X274605Y34165D01*
X274772Y34417D01*
X274828Y34703D01*
X274828Y41243D01*
X274768Y41540D01*
X274605Y41781D01*
X273304Y43082D01*
X273304Y45818D01*
X274605Y47119D01*
X274772Y47371D01*
X274828Y47657D01*
X274828Y53689D01*
X274768Y53986D01*
X274605Y54227D01*
X273050Y55782D01*
X273050Y58518D01*
X274984Y60452D01*
X277720Y60452D01*
X279654Y58518D01*
X279654Y55782D01*
X278607Y54735D01*
X278440Y54483D01*
X278384Y54197D01*
X278384Y47657D01*
X278444Y47360D01*
X278607Y47119D01*
X279908Y45818D01*
X279908Y43082D01*
X278607Y41781D01*
X278440Y41529D01*
X278384Y41243D01*
X278384Y34703D01*
X278444Y34406D01*
X278607Y34165D01*
X279908Y32864D01*
X279908Y30128D01*
X279369Y29589D01*
X279202Y29337D01*
X279146Y29051D01*
X279146Y21495D01*
X279206Y21198D01*
X279369Y20957D01*
X280670Y19656D01*
X280670Y16920D01*
X278736Y14986D01*
X276000Y14986D01*
G37*
G36*
X39746Y22100D02*
X32932Y24923D01*
X27717Y30138D01*
X24894Y36952D01*
X24894Y44328D01*
X27717Y51142D01*
X32932Y56357D01*
X39746Y59180D01*
X47122Y59180D01*
X53936Y56357D01*
X59151Y51142D01*
X61974Y44328D01*
X61974Y36952D01*
X59151Y30138D01*
X53936Y24923D01*
X47122Y22100D01*
X39746Y22100D01*
G37*
G36*
X334928Y51816D02*
X332994Y53750D01*
X332994Y56486D01*
X334928Y58420D01*
X337664Y58420D01*
X339598Y56486D01*
X339598Y53750D01*
X337664Y51816D01*
X334928Y51816D01*
G37*
G36*
X196752Y37338D02*
X194818Y39272D01*
X194818Y42008D01*
X196752Y43942D01*
X199488Y43942D01*
X201422Y42008D01*
X201422Y39272D01*
X199488Y37338D01*
X196752Y37338D01*
G37*
G36*
X108106Y37084D02*
X106172Y39018D01*
X106172Y41754D01*
X108075Y43657D01*
X108096Y43688D01*
X110842Y43688D01*
X112776Y41754D01*
X112776Y39018D01*
X110842Y37084D01*
X108106Y37084D01*
G37*
G36*
X380648Y35052D02*
X378714Y36986D01*
X378714Y39722D01*
X380648Y41656D01*
X383384Y41656D01*
X385318Y39722D01*
X385318Y36986D01*
X383384Y35052D01*
X380648Y35052D01*
G37*
G36*
X406048Y28956D02*
X404066Y30938D01*
X404054Y30999D01*
X403882Y31249D01*
X403627Y31412D01*
X403328Y31463D01*
X403033Y31393D01*
X402813Y31240D01*
X401164Y29591D01*
X398428Y29591D01*
X396494Y31525D01*
X396494Y34261D01*
X398428Y36195D01*
X401164Y36195D01*
X403146Y34213D01*
X403158Y34152D01*
X403330Y33902D01*
X403585Y33739D01*
X403884Y33688D01*
X404179Y33758D01*
X404399Y33911D01*
X406048Y35560D01*
X408784Y35560D01*
X410718Y33626D01*
X410718Y30890D01*
X408784Y28956D01*
X406048Y28956D01*
G37*
G36*
X360328Y27432D02*
X358394Y29366D01*
X358394Y32102D01*
X360328Y34036D01*
X363064Y34036D01*
X364998Y32102D01*
X364998Y29366D01*
X363064Y27432D01*
X360328Y27432D01*
G37*
G36*
X453546Y22098D02*
X451612Y24032D01*
X451612Y26768D01*
X453546Y28702D01*
X456282Y28702D01*
X458216Y26768D01*
X458216Y24032D01*
X456282Y22098D01*
X453546Y22098D01*
G37*
G36*
X120552Y11430D02*
X118618Y13364D01*
X118618Y16100D01*
X120552Y18034D01*
X123288Y18034D01*
X125222Y16100D01*
X125222Y13364D01*
X123288Y11430D01*
X120552Y11430D01*
G37*
%LPD*%
G36*
X662922Y198434D02*
X663163Y198597D01*
X704806Y240240D01*
X704833Y240259D01*
X704938Y240284D01*
X735076Y240284D01*
X735373Y240344D01*
X735623Y240516D01*
X735787Y240771D01*
X735838Y241046D01*
X735838Y243173D01*
X735778Y243470D01*
X735615Y243711D01*
X734822Y244504D01*
X734822Y247240D01*
X736756Y249174D01*
X739492Y249174D01*
X741426Y247240D01*
X741426Y244504D01*
X740633Y243711D01*
X740466Y243459D01*
X740410Y243173D01*
X740410Y241046D01*
X740470Y240749D01*
X740642Y240499D01*
X740897Y240335D01*
X741172Y240284D01*
X758382Y240284D01*
X758680Y240344D01*
X758921Y240507D01*
X769397Y250983D01*
X769564Y251236D01*
X769620Y251522D01*
X769620Y272847D01*
X769560Y273144D01*
X769388Y273394D01*
X769133Y273558D01*
X768834Y273608D01*
X768566Y273551D01*
X766728Y272789D01*
X763340Y272789D01*
X760210Y274086D01*
X757815Y276481D01*
X756518Y279611D01*
X756518Y282999D01*
X757815Y286129D01*
X760210Y288525D01*
X763340Y289821D01*
X766728Y289821D01*
X768566Y289060D01*
X768864Y289002D01*
X769161Y289065D01*
X769410Y289238D01*
X769571Y289495D01*
X769620Y289764D01*
X769620Y297847D01*
X769560Y298144D01*
X769388Y298394D01*
X769133Y298558D01*
X768834Y298608D01*
X768566Y298551D01*
X766728Y297789D01*
X763340Y297789D01*
X760210Y299086D01*
X757815Y301481D01*
X756518Y304611D01*
X756518Y307999D01*
X757815Y311129D01*
X760210Y313525D01*
X763340Y314821D01*
X766728Y314821D01*
X768566Y314060D01*
X768864Y314002D01*
X769161Y314065D01*
X769410Y314238D01*
X769571Y314495D01*
X769620Y314764D01*
X769620Y352139D01*
X769560Y352436D01*
X769388Y352686D01*
X769133Y352849D01*
X768834Y352900D01*
X768539Y352830D01*
X768319Y352677D01*
X767432Y351790D01*
X764696Y351790D01*
X762762Y353724D01*
X762762Y356460D01*
X764696Y358394D01*
X767432Y358394D01*
X768319Y357507D01*
X768572Y357339D01*
X768870Y357283D01*
X769166Y357349D01*
X769414Y357524D01*
X769573Y357782D01*
X769620Y358045D01*
X769620Y379847D01*
X769560Y380144D01*
X769388Y380394D01*
X769133Y380558D01*
X768834Y380608D01*
X768566Y380551D01*
X766728Y379789D01*
X763340Y379789D01*
X760210Y381086D01*
X757815Y383481D01*
X756518Y386611D01*
X756518Y389999D01*
X757815Y393129D01*
X760210Y395525D01*
X763340Y396821D01*
X766728Y396821D01*
X768566Y396060D01*
X768864Y396002D01*
X769161Y396065D01*
X769410Y396238D01*
X769571Y396495D01*
X769620Y396764D01*
X769620Y404847D01*
X769560Y405144D01*
X769388Y405394D01*
X769133Y405558D01*
X768834Y405608D01*
X768566Y405551D01*
X766728Y404789D01*
X763340Y404789D01*
X760210Y406086D01*
X757815Y408481D01*
X756518Y411611D01*
X756518Y414999D01*
X757815Y418129D01*
X758755Y419069D01*
X758922Y419322D01*
X758978Y419620D01*
X758913Y419916D01*
X758737Y420164D01*
X758479Y420323D01*
X758216Y420370D01*
X745044Y420370D01*
X745012Y420375D01*
X744920Y420432D01*
X740633Y424719D01*
X740380Y424886D01*
X740094Y424942D01*
X708812Y424942D01*
X708515Y424882D01*
X708265Y424710D01*
X708101Y424455D01*
X708050Y424180D01*
X708050Y420716D01*
X706069Y415932D01*
X702407Y412271D01*
X697623Y410289D01*
X692445Y410289D01*
X687661Y412271D01*
X684000Y415932D01*
X682018Y420716D01*
X682018Y424180D01*
X681958Y424477D01*
X681786Y424727D01*
X681531Y424891D01*
X681256Y424942D01*
X630421Y424942D01*
X630123Y424882D01*
X629882Y424719D01*
X624555Y419392D01*
X624388Y419139D01*
X624332Y418853D01*
X624332Y388428D01*
X624327Y388396D01*
X624270Y388304D01*
X612438Y376472D01*
X612288Y376364D01*
X612300Y376349D01*
X612177Y376280D01*
X611055Y375158D01*
X578351Y375158D01*
X578053Y375098D01*
X577812Y374935D01*
X576295Y373418D01*
X576128Y373165D01*
X576072Y372879D01*
X576072Y342853D01*
X573501Y340282D01*
X573334Y340030D01*
X573278Y339744D01*
X573278Y335534D01*
X573338Y335237D01*
X573510Y334987D01*
X573765Y334823D01*
X574040Y334772D01*
X609538Y334772D01*
X609570Y334767D01*
X609662Y334710D01*
X622510Y321862D01*
X622529Y321835D01*
X622554Y321730D01*
X622554Y285655D01*
X622614Y285358D01*
X622777Y285117D01*
X624332Y283562D01*
X624332Y280826D01*
X622777Y279271D01*
X622610Y279019D01*
X622554Y278733D01*
X622554Y272858D01*
X622549Y272826D01*
X622492Y272734D01*
X613887Y264129D01*
X613720Y263876D01*
X613664Y263590D01*
X613664Y203516D01*
X613724Y203218D01*
X613887Y202977D01*
X618267Y198597D01*
X618520Y198430D01*
X618806Y198374D01*
X662624Y198374D01*
X662922Y198434D01*
G37*
%LPC*%
G36*
X721396Y386115D02*
X714582Y388938D01*
X709367Y394153D01*
X706544Y400968D01*
X706544Y408343D01*
X709367Y415157D01*
X714582Y420373D01*
X721396Y423195D01*
X728772Y423195D01*
X735586Y420373D01*
X740802Y415157D01*
X743624Y408343D01*
X743624Y400968D01*
X740802Y394153D01*
X735586Y388938D01*
X728772Y386115D01*
X721396Y386115D01*
G37*
G36*
X634490Y383439D02*
X631360Y384736D01*
X628965Y387131D01*
X627668Y390261D01*
X627668Y393649D01*
X628965Y396779D01*
X631360Y399175D01*
X634490Y400471D01*
X637878Y400471D01*
X641008Y399175D01*
X643404Y396779D01*
X644700Y393649D01*
X644700Y390261D01*
X643404Y387131D01*
X641008Y384736D01*
X637878Y383439D01*
X634490Y383439D01*
G37*
G36*
X659890Y370739D02*
X656760Y372036D01*
X654365Y374431D01*
X653068Y377561D01*
X653068Y380949D01*
X654365Y384079D01*
X656760Y386475D01*
X659890Y387771D01*
X663278Y387771D01*
X666408Y386475D01*
X668804Y384079D01*
X670100Y380949D01*
X670100Y377561D01*
X668804Y374431D01*
X666408Y372036D01*
X663278Y370739D01*
X659890Y370739D01*
G37*
G36*
X634490Y358039D02*
X631360Y359336D01*
X628965Y361731D01*
X627668Y364861D01*
X627668Y368249D01*
X628965Y371379D01*
X631360Y373775D01*
X634490Y375071D01*
X637878Y375071D01*
X641008Y373775D01*
X643404Y371379D01*
X644700Y368249D01*
X644700Y364861D01*
X643404Y361731D01*
X641008Y359336D01*
X637878Y358039D01*
X634490Y358039D01*
G37*
G36*
X659890Y345339D02*
X656760Y346636D01*
X654365Y349031D01*
X653068Y352161D01*
X653068Y355549D01*
X654365Y358679D01*
X656760Y361075D01*
X659890Y362371D01*
X663278Y362371D01*
X666408Y361075D01*
X668804Y358679D01*
X670100Y355549D01*
X670100Y352161D01*
X668804Y349031D01*
X666408Y346636D01*
X663278Y345339D01*
X659890Y345339D01*
G37*
G36*
X634490Y332639D02*
X631360Y333936D01*
X628965Y336331D01*
X627668Y339461D01*
X627668Y342849D01*
X628965Y345979D01*
X631360Y348375D01*
X634490Y349671D01*
X637878Y349671D01*
X641008Y348375D01*
X643404Y345979D01*
X644700Y342849D01*
X644700Y339461D01*
X643404Y336331D01*
X641008Y333936D01*
X637878Y332639D01*
X634490Y332639D01*
G37*
G36*
X659890Y319939D02*
X656760Y321236D01*
X654365Y323631D01*
X653068Y326761D01*
X653068Y330149D01*
X654365Y333279D01*
X656760Y335675D01*
X659890Y336971D01*
X663278Y336971D01*
X666408Y335675D01*
X668804Y333279D01*
X670100Y330149D01*
X670100Y326761D01*
X668804Y323631D01*
X666408Y321236D01*
X663278Y319939D01*
X659890Y319939D01*
G37*
G36*
X752758Y318008D02*
X750824Y319942D01*
X750824Y322678D01*
X752758Y324612D01*
X755650Y324612D01*
X755947Y324672D01*
X756197Y324844D01*
X756361Y325099D01*
X756412Y325374D01*
X756412Y326898D01*
X756352Y327195D01*
X756180Y327445D01*
X755925Y327609D01*
X755650Y327660D01*
X753012Y327660D01*
X751078Y329594D01*
X751078Y332330D01*
X753012Y334264D01*
X755748Y334264D01*
X757682Y332330D01*
X757682Y329946D01*
X757742Y329649D01*
X757914Y329399D01*
X758169Y329235D01*
X758444Y329184D01*
X761082Y329184D01*
X763016Y327250D01*
X763016Y324514D01*
X761082Y322580D01*
X758190Y322580D01*
X757893Y322520D01*
X757643Y322348D01*
X757479Y322093D01*
X757428Y321818D01*
X757428Y319942D01*
X755494Y318008D01*
X752758Y318008D01*
G37*
G36*
X634490Y307239D02*
X631360Y308536D01*
X628965Y310931D01*
X627668Y314061D01*
X627668Y317449D01*
X628965Y320579D01*
X631360Y322975D01*
X634490Y324271D01*
X637878Y324271D01*
X641008Y322975D01*
X643404Y320579D01*
X644700Y317449D01*
X644700Y314061D01*
X643404Y310931D01*
X641008Y308536D01*
X637878Y307239D01*
X634490Y307239D01*
G37*
G36*
X659890Y294539D02*
X656760Y295836D01*
X654365Y298231D01*
X653068Y301361D01*
X653068Y304749D01*
X654365Y307879D01*
X656760Y310275D01*
X659890Y311571D01*
X663278Y311571D01*
X666408Y310275D01*
X668804Y307879D01*
X670100Y304749D01*
X670100Y301361D01*
X668804Y298231D01*
X666408Y295836D01*
X663278Y294539D01*
X659890Y294539D01*
G37*
G36*
X721396Y271815D02*
X714582Y274638D01*
X709367Y279853D01*
X706544Y286668D01*
X706544Y294043D01*
X709367Y300857D01*
X714582Y306073D01*
X721396Y308895D01*
X728772Y308895D01*
X735586Y306073D01*
X740802Y300857D01*
X743624Y294043D01*
X743624Y286668D01*
X740802Y279853D01*
X735586Y274638D01*
X728772Y271815D01*
X721396Y271815D01*
G37*
G36*
X692445Y258289D02*
X687661Y260271D01*
X684000Y263932D01*
X682018Y268716D01*
X682018Y273894D01*
X684000Y278678D01*
X687661Y282340D01*
X692445Y284321D01*
X697623Y284321D01*
X702407Y282340D01*
X706069Y278678D01*
X708050Y273894D01*
X708050Y268716D01*
X706069Y263932D01*
X702407Y260271D01*
X697623Y258289D01*
X692445Y258289D01*
G37*
G36*
X628044Y265430D02*
X626110Y267364D01*
X626110Y270100D01*
X627632Y271622D01*
X627800Y271875D01*
X627856Y272173D01*
X627790Y272469D01*
X627632Y272700D01*
X626618Y273714D01*
X626618Y276450D01*
X628552Y278384D01*
X631288Y278384D01*
X633222Y276450D01*
X633222Y273714D01*
X631700Y272192D01*
X631532Y271939D01*
X631476Y271641D01*
X631542Y271345D01*
X631700Y271114D01*
X632714Y270100D01*
X632714Y267364D01*
X630780Y265430D01*
X628044Y265430D01*
G37*
G36*
X731422Y262382D02*
X729488Y264316D01*
X729488Y267052D01*
X731422Y268986D01*
X734158Y268986D01*
X736092Y267052D01*
X736092Y264316D01*
X734158Y262382D01*
X731422Y262382D01*
G37*
G36*
X754028Y259588D02*
X752094Y261522D01*
X752094Y264258D01*
X754028Y266192D01*
X756764Y266192D01*
X758698Y264258D01*
X758698Y261522D01*
X756764Y259588D01*
X754028Y259588D01*
G37*
G36*
X631092Y250952D02*
X629158Y252886D01*
X629158Y255622D01*
X631092Y257556D01*
X633828Y257556D01*
X635762Y255622D01*
X635762Y252886D01*
X633828Y250952D01*
X631092Y250952D01*
G37*
G36*
X713642Y245872D02*
X711708Y247806D01*
X711708Y250542D01*
X713642Y252476D01*
X716378Y252476D01*
X718312Y250542D01*
X718312Y247806D01*
X716378Y245872D01*
X713642Y245872D01*
G37*
G36*
X654968Y245364D02*
X653034Y247298D01*
X653034Y250034D01*
X654968Y251968D01*
X657704Y251968D01*
X659638Y250034D01*
X659638Y247298D01*
X657704Y245364D01*
X654968Y245364D01*
G37*
G36*
X643284Y216916D02*
X641350Y218850D01*
X641350Y221586D01*
X643284Y223520D01*
X646017Y223520D01*
X646314Y223580D01*
X646564Y223752D01*
X646727Y224007D01*
X646778Y224306D01*
X646708Y224601D01*
X646555Y224821D01*
X646176Y225200D01*
X646176Y227936D01*
X648110Y229870D01*
X650846Y229870D01*
X652780Y227936D01*
X652780Y225200D01*
X650846Y223266D01*
X648113Y223266D01*
X647816Y223206D01*
X647566Y223034D01*
X647403Y222779D01*
X647352Y222480D01*
X647422Y222185D01*
X647575Y221965D01*
X647954Y221586D01*
X647954Y218850D01*
X646020Y216916D01*
X643284Y216916D01*
G37*
G36*
X625504Y200914D02*
X623570Y202848D01*
X623570Y205584D01*
X625504Y207518D01*
X628240Y207518D01*
X630174Y205584D01*
X630174Y202848D01*
X628240Y200914D01*
X625504Y200914D01*
G37*
%LPD*%
G36*
X98087Y123758D02*
X98337Y123930D01*
X98501Y124185D01*
X98552Y124460D01*
X98552Y126336D01*
X100486Y128270D01*
X103222Y128270D01*
X105156Y126336D01*
X105156Y124460D01*
X105216Y124163D01*
X105388Y123913D01*
X105643Y123749D01*
X105918Y123698D01*
X228538Y123698D01*
X228836Y123758D01*
X229077Y123921D01*
X236505Y131349D01*
X236672Y131602D01*
X236728Y131888D01*
X236728Y131924D01*
X237267Y132463D01*
X237434Y132715D01*
X237490Y133001D01*
X237490Y209488D01*
X237430Y209786D01*
X237267Y210027D01*
X233141Y214153D01*
X232888Y214320D01*
X232602Y214376D01*
X222820Y214376D01*
X222788Y214381D01*
X222696Y214438D01*
X176066Y261068D01*
X176006Y261152D01*
X175936Y261305D01*
X175711Y261509D01*
X175317Y261617D01*
X85693Y261244D01*
X85396Y261182D01*
X85146Y261010D01*
X84984Y260753D01*
X84934Y260482D01*
X84934Y259701D01*
X83295Y255744D01*
X80266Y252715D01*
X76310Y251076D01*
X72027Y251076D01*
X68070Y252715D01*
X65041Y255744D01*
X63402Y259701D01*
X63402Y260386D01*
X63342Y260683D01*
X63170Y260933D01*
X62915Y261096D01*
X62637Y261148D01*
X51559Y261101D01*
X51262Y261040D01*
X51012Y260867D01*
X50850Y260611D01*
X50800Y260339D01*
X50800Y143064D01*
X50860Y142766D01*
X51023Y142525D01*
X67363Y126185D01*
X67616Y126018D01*
X67914Y125962D01*
X68193Y126020D01*
X72027Y127608D01*
X76310Y127608D01*
X80266Y125969D01*
X82314Y123921D01*
X82567Y123754D01*
X82853Y123698D01*
X97790Y123698D01*
X98087Y123758D01*
G37*
%LPC*%
G36*
X133252Y244602D02*
X131318Y246536D01*
X131318Y249272D01*
X133252Y251206D01*
X135988Y251206D01*
X137922Y249272D01*
X137922Y246536D01*
X135988Y244602D01*
X133252Y244602D01*
G37*
G36*
X109884Y244094D02*
X107950Y246028D01*
X107950Y248764D01*
X109884Y250698D01*
X112620Y250698D01*
X114554Y248764D01*
X114554Y246028D01*
X112620Y244094D01*
X109884Y244094D01*
G37*
G36*
X125886Y240284D02*
X123952Y242218D01*
X123952Y244954D01*
X125886Y246888D01*
X128622Y246888D01*
X130556Y244954D01*
X130556Y242218D01*
X128622Y240284D01*
X125886Y240284D01*
G37*
G36*
X139094Y236220D02*
X137160Y238154D01*
X137160Y240890D01*
X139094Y242824D01*
X141830Y242824D01*
X143764Y240890D01*
X143764Y238154D01*
X141830Y236220D01*
X139094Y236220D01*
G37*
G36*
X64418Y227076D02*
X62484Y229010D01*
X62484Y231746D01*
X64418Y233680D01*
X67154Y233680D01*
X69088Y231746D01*
X69088Y229010D01*
X67154Y227076D01*
X64418Y227076D01*
G37*
G36*
X114964Y221786D02*
X113030Y223720D01*
X113030Y226456D01*
X114964Y228390D01*
X117700Y228390D01*
X119634Y226456D01*
X119634Y223720D01*
X117700Y221786D01*
X114964Y221786D01*
G37*
G36*
X197514Y219046D02*
X195580Y220980D01*
X195580Y223715D01*
X197514Y225650D01*
X200250Y225650D01*
X202184Y223715D01*
X202184Y220980D01*
X200250Y219046D01*
X197514Y219046D01*
G37*
G36*
X135792Y218538D02*
X133858Y220472D01*
X133858Y223207D01*
X135792Y225142D01*
X138528Y225142D01*
X140462Y223207D01*
X140462Y220472D01*
X138528Y218538D01*
X135792Y218538D01*
G37*
G36*
X68482Y211328D02*
X66548Y213262D01*
X66548Y215998D01*
X67689Y217139D01*
X67857Y217392D01*
X67913Y217690D01*
X67847Y217986D01*
X67672Y218234D01*
X67414Y218393D01*
X67151Y218440D01*
X64672Y218440D01*
X62738Y220374D01*
X62738Y223110D01*
X64672Y225044D01*
X67408Y225044D01*
X69342Y223110D01*
X69342Y220374D01*
X68201Y219233D01*
X68033Y218980D01*
X67977Y218682D01*
X68043Y218386D01*
X68218Y218138D01*
X68476Y217979D01*
X68739Y217932D01*
X71218Y217932D01*
X73152Y215998D01*
X73152Y213262D01*
X71218Y211328D01*
X68482Y211328D01*
G37*
G36*
X172622Y215138D02*
X170688Y217072D01*
X170688Y219808D01*
X172622Y221742D01*
X175358Y221742D01*
X177292Y219808D01*
X177292Y217072D01*
X175358Y215138D01*
X172622Y215138D01*
G37*
G36*
X154334Y215138D02*
X152400Y217072D01*
X152400Y219808D01*
X154334Y221742D01*
X157070Y221742D01*
X159004Y219808D01*
X159004Y217072D01*
X157070Y215138D01*
X154334Y215138D01*
G37*
G36*
X163732Y214884D02*
X161798Y216818D01*
X161798Y219554D01*
X163732Y221488D01*
X166468Y221488D01*
X168402Y219554D01*
X168402Y216818D01*
X166468Y214884D01*
X163732Y214884D01*
G37*
G36*
X204880Y214122D02*
X202946Y216056D01*
X202946Y218792D01*
X204880Y220726D01*
X207616Y220726D01*
X209550Y218792D01*
X209550Y216056D01*
X207616Y214122D01*
X204880Y214122D01*
G37*
G36*
X141712Y210854D02*
X139778Y212788D01*
X139778Y215524D01*
X141712Y217458D01*
X144448Y217458D01*
X146382Y215524D01*
X146382Y212788D01*
X144448Y210854D01*
X141712Y210854D01*
G37*
G36*
X199800Y192278D02*
X197866Y194212D01*
X197866Y196948D01*
X199515Y198597D01*
X199683Y198850D01*
X199739Y199148D01*
X199673Y199444D01*
X199515Y199675D01*
X197866Y201324D01*
X197866Y204060D01*
X199800Y205994D01*
X200152Y205994D01*
X200449Y206054D01*
X200699Y206226D01*
X200863Y206481D01*
X200914Y206756D01*
X200914Y209648D01*
X202848Y211582D01*
X205584Y211582D01*
X207518Y209648D01*
X207518Y207264D01*
X207578Y206967D01*
X207750Y206717D01*
X208005Y206553D01*
X208280Y206502D01*
X208632Y206502D01*
X210566Y204568D01*
X210566Y201832D01*
X208632Y199898D01*
X205896Y199898D01*
X205009Y200785D01*
X204756Y200953D01*
X204458Y201009D01*
X204162Y200943D01*
X203931Y200785D01*
X202821Y199675D01*
X202653Y199422D01*
X202597Y199124D01*
X202663Y198828D01*
X202821Y198597D01*
X204470Y196948D01*
X204470Y194212D01*
X202536Y192278D01*
X199800Y192278D01*
G37*
G36*
X99216Y203962D02*
X97282Y205896D01*
X97282Y208632D01*
X99216Y210566D01*
X101952Y210566D01*
X103886Y208632D01*
X103886Y205896D01*
X101952Y203962D01*
X99216Y203962D01*
G37*
G36*
X137824Y202438D02*
X135890Y204372D01*
X135890Y207108D01*
X137824Y209042D01*
X140560Y209042D01*
X142494Y207108D01*
X142494Y204372D01*
X140560Y202438D01*
X137824Y202438D01*
G37*
G36*
X64672Y188468D02*
X62738Y190402D01*
X62738Y193138D01*
X64672Y195072D01*
X67408Y195072D01*
X69342Y193138D01*
X69342Y190402D01*
X67408Y188468D01*
X64672Y188468D01*
G37*
G36*
X136808Y187960D02*
X134874Y189894D01*
X134874Y192630D01*
X136808Y194564D01*
X139544Y194564D01*
X141478Y192630D01*
X141478Y189894D01*
X139544Y187960D01*
X136808Y187960D01*
G37*
G36*
X227740Y181864D02*
X225806Y183798D01*
X225806Y186534D01*
X227740Y188468D01*
X230476Y188468D01*
X232410Y186534D01*
X232410Y183798D01*
X230476Y181864D01*
X227740Y181864D01*
G37*
G36*
X203356Y168910D02*
X201422Y170844D01*
X201422Y173580D01*
X202309Y174467D01*
X202477Y174720D01*
X202533Y175018D01*
X202467Y175314D01*
X202309Y175545D01*
X201422Y176432D01*
X201422Y179168D01*
X203356Y181102D01*
X206092Y181102D01*
X208026Y179168D01*
X208026Y176432D01*
X207139Y175545D01*
X206971Y175292D01*
X206915Y174994D01*
X206981Y174698D01*
X207139Y174467D01*
X208026Y173580D01*
X208026Y170844D01*
X206092Y168910D01*
X203356Y168910D01*
G37*
G36*
X64672Y173482D02*
X62738Y175416D01*
X62738Y178152D01*
X64672Y180086D01*
X67408Y180086D01*
X69342Y178152D01*
X69342Y175416D01*
X67408Y173482D01*
X64672Y173482D01*
G37*
G36*
X203662Y148896D02*
X201728Y150830D01*
X201728Y153565D01*
X202208Y154046D01*
X202376Y154299D01*
X202431Y154597D01*
X202366Y154893D01*
X202208Y155124D01*
X200914Y156418D01*
X200914Y159153D01*
X201801Y160041D01*
X201969Y160294D01*
X202025Y160592D01*
X201959Y160888D01*
X201801Y161118D01*
X200914Y162006D01*
X200914Y164741D01*
X202848Y166676D01*
X205584Y166676D01*
X207518Y164741D01*
X207518Y162006D01*
X206631Y161118D01*
X206463Y160865D01*
X206407Y160567D01*
X206473Y160271D01*
X206631Y160041D01*
X207518Y159153D01*
X207518Y156418D01*
X207037Y155937D01*
X206870Y155684D01*
X206814Y155386D01*
X206879Y155090D01*
X207037Y154859D01*
X208332Y153565D01*
X208332Y150830D01*
X206397Y148896D01*
X203662Y148896D01*
G37*
G36*
X64672Y158750D02*
X62738Y160684D01*
X62738Y163420D01*
X64672Y165354D01*
X67408Y165354D01*
X69342Y163420D01*
X69342Y160684D01*
X67408Y158750D01*
X64672Y158750D01*
G37*
G36*
X155096Y147066D02*
X153162Y149000D01*
X153162Y151736D01*
X154684Y153258D01*
X154852Y153511D01*
X154908Y153809D01*
X154842Y154105D01*
X154684Y154336D01*
X153670Y155350D01*
X153670Y158086D01*
X155604Y160020D01*
X158340Y160020D01*
X160274Y158086D01*
X160274Y155350D01*
X158752Y153828D01*
X158584Y153575D01*
X158528Y153277D01*
X158594Y152981D01*
X158752Y152750D01*
X159766Y151736D01*
X159766Y149000D01*
X157832Y147066D01*
X155096Y147066D01*
G37*
G36*
X139586Y149876D02*
X137652Y151811D01*
X137652Y154546D01*
X139586Y156480D01*
X142321Y156480D01*
X144256Y154546D01*
X144256Y151811D01*
X142321Y149876D01*
X139586Y149876D01*
G37*
G36*
X175416Y145034D02*
X173277Y147173D01*
X173024Y147341D01*
X172726Y147397D01*
X172430Y147331D01*
X172199Y147173D01*
X170532Y145506D01*
X167796Y145506D01*
X165862Y147440D01*
X165862Y150176D01*
X167796Y152110D01*
X170532Y152110D01*
X172671Y149971D01*
X172924Y149803D01*
X173222Y149747D01*
X173518Y149813D01*
X173749Y149971D01*
X175416Y151638D01*
X178152Y151638D01*
X180309Y149481D01*
X180562Y149313D01*
X180860Y149257D01*
X181156Y149323D01*
X181404Y149498D01*
X181563Y149756D01*
X181591Y149913D01*
X183544Y151866D01*
X186280Y151866D01*
X188214Y149932D01*
X188214Y147196D01*
X186280Y145262D01*
X183544Y145262D01*
X181387Y147419D01*
X181134Y147587D01*
X180836Y147643D01*
X180540Y147577D01*
X180292Y147402D01*
X180133Y147144D01*
X180105Y146987D01*
X178152Y145034D01*
X175416Y145034D01*
G37*
G36*
X64672Y143510D02*
X62738Y145444D01*
X62738Y148180D01*
X64672Y150114D01*
X67408Y150114D01*
X69342Y148180D01*
X69342Y145444D01*
X67408Y143510D01*
X64672Y143510D01*
G37*
G36*
X208436Y130302D02*
X206502Y132236D01*
X206502Y134972D01*
X208436Y136906D01*
X211172Y136906D01*
X213106Y134972D01*
X213106Y132236D01*
X211172Y130302D01*
X208436Y130302D01*
G37*
G36*
X198276Y130302D02*
X196342Y132236D01*
X196342Y134972D01*
X198276Y136906D01*
X201012Y136906D01*
X202946Y134972D01*
X202946Y132236D01*
X201012Y130302D01*
X198276Y130302D01*
G37*
%LPD*%
G36*
X491178Y459362D02*
X491408Y459520D01*
X494569Y462680D01*
X494736Y462933D01*
X494792Y463219D01*
X494792Y481522D01*
X494732Y481820D01*
X494569Y482061D01*
X485871Y490759D01*
X485618Y490926D01*
X485332Y490982D01*
X452755Y490982D01*
X452458Y490922D01*
X452208Y490750D01*
X452044Y490495D01*
X451993Y490220D01*
X451993Y488471D01*
X450059Y486537D01*
X447323Y486537D01*
X445389Y488471D01*
X445389Y490220D01*
X445329Y490517D01*
X445157Y490767D01*
X444902Y490931D01*
X444627Y490982D01*
X441204Y490982D01*
X441192Y490982D01*
X434365Y491210D01*
X434066Y491159D01*
X433811Y490996D01*
X433639Y490746D01*
X433578Y490448D01*
X433578Y468438D01*
X433638Y468140D01*
X433801Y467899D01*
X434879Y466821D01*
X435132Y466654D01*
X435418Y466598D01*
X437415Y466598D01*
X443241Y460772D01*
X443494Y460604D01*
X443780Y460549D01*
X484219Y460549D01*
X484516Y460609D01*
X484757Y460772D01*
X485550Y461565D01*
X488286Y461565D01*
X490331Y459520D01*
X490583Y459352D01*
X490882Y459297D01*
X491178Y459362D01*
G37*
%LPC*%
G36*
X485594Y477327D02*
X483660Y479262D01*
X483660Y481997D01*
X485594Y483931D01*
X488329Y483931D01*
X490264Y481997D01*
X490264Y479262D01*
X488329Y477327D01*
X485594Y477327D01*
G37*
G36*
X450305Y472186D02*
X448371Y474120D01*
X448371Y476856D01*
X450305Y478790D01*
X453041Y478790D01*
X454975Y476856D01*
X454975Y474120D01*
X453041Y472186D01*
X450305Y472186D01*
G37*
%LPD*%
D10*
X530098Y426466D03*
X530098Y434340D03*
X530098Y442214D03*
X530098Y450088D03*
X530098Y457962D03*
X537972Y426466D03*
X537972Y434340D03*
X537972Y442214D03*
X537972Y450088D03*
X537972Y457962D03*
X545846Y426466D03*
X545846Y434340D03*
X545846Y442214D03*
X545846Y450088D03*
X545846Y457962D03*
X553720Y426466D03*
X553720Y434340D03*
X553720Y442214D03*
X553720Y450088D03*
X553720Y457962D03*
X561594Y426466D03*
X561594Y434340D03*
X561594Y442214D03*
X561594Y450088D03*
X561594Y457962D03*
D11*
X712179Y219837D03*
X712179Y88519D03*
D12*
X624078Y26035D03*
X649478Y26035D03*
X674878Y26035D03*
X700278Y26035D03*
D13*
X636184Y391955D03*
X661584Y379255D03*
X636184Y366555D03*
X636184Y341155D03*
X636184Y315755D03*
X661584Y353855D03*
X661584Y328455D03*
X661584Y303055D03*
D14*
X695034Y271305D03*
X695034Y423305D03*
D13*
X765034Y281305D03*
X765034Y413305D03*
X765034Y388305D03*
X765034Y306305D03*
D15*
X440152Y447150D03*
X350152Y447150D03*
D16*
X25908Y361442D03*
X25908Y396442D03*
D17*
X74168Y261842D03*
X74168Y116842D03*
X25168Y267842D03*
X25168Y110842D03*
D18*
X392430Y258572D03*
X183966Y373310D03*
X400050Y258572D03*
X191978Y413212D03*
X238506Y257048D03*
X183612Y365383D03*
X233934Y250190D03*
X191966Y421582D03*
X392430Y250952D03*
X374142Y253238D03*
X219526Y257880D03*
X182161Y395067D03*
X400050Y250952D03*
X215968Y413580D03*
X289941Y245999D03*
X357632Y240437D03*
X392430Y242570D03*
X355854Y232664D03*
X189748Y349622D03*
X276606Y242697D03*
X207777Y413771D03*
X400050Y242570D03*
X320040Y237998D03*
X364727Y235983D03*
X219456Y382780D03*
X214175Y351843D03*
X207518Y338074D03*
X209550Y393055D03*
X392430Y274574D03*
X214376Y321310D03*
X167894Y346202D03*
X167549Y373446D03*
X264414Y271526D03*
X400050Y274447D03*
X392440Y266329D03*
X252222Y282194D03*
X400050Y266192D03*
X270510Y263144D03*
X119634Y354584D03*
X160103Y373446D03*
X301752Y246517D03*
X199918Y373631D03*
X295656Y246517D03*
X200028Y382133D03*
X255973Y373575D03*
X392049Y314325D03*
X255646Y421903D03*
X242824Y341650D03*
X400050Y322580D03*
X239821Y382258D03*
X392430Y330962D03*
X256032Y355346D03*
X371856Y330957D03*
X367194Y347402D03*
X371856Y343154D03*
X263652Y365252D03*
X416791Y330939D03*
X366522Y361442D03*
X408432Y330962D03*
X371094Y356870D03*
X362458Y340614D03*
X329416Y343080D03*
X392430Y306578D03*
X232226Y403352D03*
X264414Y404876D03*
X384048Y306578D03*
X250698Y403352D03*
X238326Y403733D03*
X247646Y413903D03*
X392430Y322580D03*
X400929Y290459D03*
X276606Y383677D03*
X400050Y330962D03*
X247517Y365119D03*
X284029Y381819D03*
X269748Y400304D03*
X392430Y338582D03*
X247650Y373634D03*
X391686Y298940D03*
X231646Y421349D03*
X362712Y259334D03*
X216045Y400513D03*
X217334Y346650D03*
X211672Y383704D03*
X133350Y359156D03*
X175973Y404876D03*
X127762Y359156D03*
X168498Y405050D03*
X274574Y346456D03*
X280815Y362966D03*
X147828Y346964D03*
X159258Y353060D03*
X380666Y370332D03*
X440436Y298958D03*
X199644Y421640D03*
X432187Y315081D03*
X432562Y266700D03*
X424180Y290322D03*
X447925Y258441D03*
X464046Y275324D03*
X448051Y274315D03*
X439669Y282697D03*
X423795Y282571D03*
X472740Y298630D03*
X423987Y258379D03*
X597916Y437134D03*
X480343Y274234D03*
X595122Y80772D03*
X198882Y222348D03*
X155702Y218440D03*
X165100Y218186D03*
X143080Y214156D03*
X447548Y99314D03*
X306578Y98552D03*
X66040Y221742D03*
X549226Y483642D03*
X574548Y415036D03*
X257810Y73660D03*
X773430Y249174D03*
X766064Y355092D03*
X661416Y469900D03*
X635508Y476250D03*
X257556Y433578D03*
X146050Y440182D03*
X167386Y385064D03*
X221996Y396240D03*
X208026Y430784D03*
X235712Y434340D03*
X283210Y452628D03*
X183642Y356616D03*
X216916Y337820D03*
X175789Y413491D03*
X264922Y356108D03*
X247650Y349758D03*
X240030Y130556D03*
X263398Y144272D03*
X229108Y185166D03*
X138176Y191262D03*
X156972Y156718D03*
X101854Y124968D03*
X241842Y223768D03*
X136398Y108458D03*
X209804Y102362D03*
X380492Y205486D03*
X242824Y182626D03*
X242062Y193294D03*
X243078Y204978D03*
X242570Y214122D03*
X241554Y116840D03*
X245364Y102108D03*
X361696Y30734D03*
X454914Y25400D03*
X557276Y56896D03*
X677418Y73914D03*
X572008Y134620D03*
X656336Y248666D03*
X715010Y249174D03*
X623316Y185166D03*
X593344Y182372D03*
X516128Y196850D03*
X100584Y207264D03*
X108966Y274320D03*
X714756Y118110D03*
X173990Y218440D03*
X471170Y392684D03*
X390762Y379482D03*
X574294Y384166D03*
X546862Y323342D03*
X456451Y282259D03*
X456238Y219132D03*
X479933Y258630D03*
X464497Y258445D03*
X238806Y443192D03*
X561340Y151892D03*
X562864Y274066D03*
X610095Y220253D03*
X586612Y220212D03*
X610339Y244169D03*
X586623Y244181D03*
X66040Y176784D03*
X66040Y191770D03*
X66040Y162052D03*
X66040Y146812D03*
X121920Y14732D03*
X175514Y63500D03*
X150876Y63754D03*
X159258Y90297D03*
X518854Y372296D03*
X516114Y469392D03*
X437525Y382407D03*
X516890Y414655D03*
X464891Y418693D03*
X480238Y339132D03*
X451673Y475488D03*
X587526Y470834D03*
X626872Y204216D03*
X632460Y254254D03*
X533146Y279654D03*
X570992Y290322D03*
X605536Y324612D03*
X492633Y365760D03*
X362882Y441770D03*
X440175Y358648D03*
X279157Y434351D03*
X187446Y383034D03*
X584962Y63754D03*
X181136Y458609D03*
X330708Y439674D03*
X379512Y393178D03*
X474726Y451358D03*
X372618Y451358D03*
X412369Y361833D03*
X195056Y459139D03*
X524764Y290068D03*
X596900Y38100D03*
X596900Y19177D03*
X376055Y410005D03*
X74850Y87610D03*
X164326Y446520D03*
X534888Y358295D03*
X399377Y298630D03*
X215786Y373589D03*
X464058Y282859D03*
X464058Y266954D03*
X456224Y299506D03*
X424434Y266954D03*
X440436Y266954D03*
X471932Y258572D03*
X585724Y435267D03*
X447704Y250662D03*
X487736Y290630D03*
D19*
X496064Y298958D01*
D18*
X607283Y419608D03*
X425196Y306578D03*
X424561Y314809D03*
X607029Y406146D03*
X607060Y412750D03*
X456438Y314960D03*
D20*
X455676Y314198D01*
D18*
X472440Y314960D03*
X580735Y408944D03*
X480486Y298630D03*
X496238Y338624D03*
X621030Y448056D03*
X621030Y440944D03*
X621030Y433070D03*
X416052Y314960D03*
X416052Y298958D03*
X416052Y282956D03*
D21*
X214846Y332448D02*
X214122Y331724D01*
D18*
X282772Y346272D03*
D21*
X282772Y348418D01*
X281940Y349250D01*
D18*
X153924Y343916D03*
X542838Y399288D03*
X284127Y355346D03*
D21*
X285750Y353723D01*
X285750Y348488D01*
X159777Y358913D02*
X159258Y358394D01*
D18*
X175514Y432308D03*
X199549Y413446D03*
X247646Y421349D03*
X263646Y421349D03*
X159658Y365360D03*
X201168Y388874D03*
X248158Y356870D03*
X143002Y417068D03*
X223549Y421446D03*
X415925Y266954D03*
X499110Y395478D03*
X499110Y387096D03*
D22*
X411988Y386080D02*
X366776Y386080D01*
D18*
X499364Y403352D03*
D19*
X275560Y421349D02*
X263646Y421349D01*
X345821Y407035D02*
X366776Y386080D01*
X345821Y407035D02*
X311598Y407035D01*
X297815Y393252D01*
X297815Y378266D01*
X287468Y367919D01*
X279086Y367919D01*
X279086Y368119D01*
X289112Y407797D02*
X275560Y421349D01*
X297815Y386848D02*
X279086Y368119D01*
X283602Y445516D02*
X287390Y445516D01*
X283602Y445516D02*
X280924Y442838D01*
X280924Y439050D01*
X289112Y430862D02*
X289112Y407797D01*
X289112Y430862D02*
X280924Y439050D01*
X297815Y435091D02*
X297815Y386848D01*
X297815Y435091D02*
X287390Y445516D01*
D18*
X175923Y421626D03*
D23*
X175923Y431899D02*
X175514Y432308D01*
X175923Y431899D02*
X175923Y421626D01*
D18*
X302514Y448818D03*
X210287Y442176D03*
X434419Y408511D03*
D22*
X411988Y386080D01*
D18*
X400050Y282956D03*
X375330Y377050D03*
X277368Y400304D03*
X263652Y388112D03*
X375666Y305816D03*
X231646Y372989D03*
X239972Y413316D03*
D24*
X244308Y406009D02*
X244308Y401203D01*
X239972Y410345D02*
X239972Y413316D01*
X239972Y410345D02*
X244308Y406009D01*
X233603Y390498D02*
X233603Y383654D01*
X233603Y390498D02*
X244308Y401203D01*
X405852Y279614D02*
X408335Y282097D01*
D18*
X408424Y282314D03*
D23*
X408424Y282186D02*
X408335Y282097D01*
X408424Y282186D02*
X408424Y282314D01*
D22*
X391160Y283210D02*
X298305Y283210D01*
D23*
X391160Y283210D02*
X391668Y283210D01*
X396494Y278384D01*
X404622Y278384D01*
X405852Y279614D01*
D22*
X239972Y413316D02*
X239972Y421284D01*
X228441Y432816D01*
D18*
X225190Y433470D03*
D22*
X225844Y432816D02*
X228441Y432816D01*
X225844Y432816D02*
X225190Y433470D01*
D18*
X215553Y357636D03*
D19*
X215500Y364890D02*
X233603Y382992D01*
X233603Y383654D01*
X215500Y358794D02*
X291084Y283210D01*
X215500Y358794D02*
X215500Y359302D01*
X215500Y364890D01*
X291084Y283210D02*
X298305Y283210D01*
X215553Y359249D02*
X215500Y359302D01*
X215553Y359249D02*
X215553Y357636D01*
D18*
X205486Y326644D03*
D23*
X201168Y330962D01*
X201168Y344461D01*
X215500Y358794D01*
D18*
X268986Y343590D03*
X271646Y364989D03*
X285496Y440944D03*
D23*
X271646Y386454D02*
X271646Y364989D01*
X271646Y386454D02*
X282194Y397002D01*
X285750Y397002D01*
X294894Y406146D01*
X294894Y431546D01*
X285496Y440944D01*
D18*
X408432Y298958D03*
X284226Y404114D03*
X206248Y217424D03*
X204216Y208280D03*
X392430Y234369D03*
X367501Y223884D03*
X207264Y203200D03*
X364859Y218624D03*
X201168Y202692D03*
X399923Y234443D03*
X201168Y195580D03*
X204724Y177800D03*
X391668Y226568D03*
X204724Y172212D03*
X364158Y205486D03*
X399923Y226568D03*
X204216Y163374D03*
X370586Y205486D03*
X204216Y157786D03*
X205030Y152198D03*
X386080Y197739D03*
X209804Y133604D03*
X392238Y218440D03*
X400051Y218441D03*
X391668Y196596D03*
X199644Y133604D03*
X184912Y148564D03*
X176784Y148336D03*
X169164Y148808D03*
X156464Y150368D03*
X400853Y187411D03*
X407797Y226569D03*
D25*
X802386Y33020D02*
X802386Y463860D01*
X801552Y466973D01*
X801125Y467889D01*
X785389Y483625D01*
D18*
X695706Y485648D03*
D25*
X784473Y484052D02*
X785389Y483625D01*
X784473Y484052D02*
X779662Y485341D01*
X776152Y485648D01*
X695706Y485648D01*
D26*
X527310Y464693D02*
X520446Y457829D01*
D18*
X503936Y420370D03*
X510794Y193040D03*
X528320Y58674D03*
D26*
X520446Y435989D02*
X520446Y457829D01*
X520446Y435989D02*
X504827Y420370D01*
X503936Y420370D01*
D18*
X585918Y463356D03*
D26*
X584349Y462325D02*
X580035Y462325D01*
X577667Y464693D01*
X527310Y464693D01*
X585379Y463356D02*
X585918Y463356D01*
X585379Y463356D02*
X584349Y462325D01*
D25*
X551495Y9525D02*
X778891Y9525D01*
X802386Y33020D01*
D18*
X530230Y30790D03*
D25*
X551495Y9525D01*
D18*
X595790Y47910D03*
X613156Y80772D03*
X26924Y331978D03*
D19*
X83820Y388874D01*
X322580Y446278D02*
X338213Y446278D01*
D18*
X552704Y113792D03*
X505587Y458724D03*
X486918Y458263D03*
X559308Y399542D03*
X783336Y336804D03*
D19*
X322580Y446278D02*
X304419Y464439D01*
X83820Y424831D02*
X83820Y388874D01*
X83820Y424831D02*
X123428Y464439D01*
D18*
X109474Y40386D03*
D19*
X338213Y446278D02*
X350786Y458851D01*
X392085Y458851D01*
D18*
X564642Y485140D03*
X567436Y383032D03*
D23*
X559054Y383032D01*
X558634Y382612D01*
X558634Y358482D01*
D18*
X544148Y340948D03*
D23*
X544148Y343996D02*
X558634Y358482D01*
X544148Y343996D02*
X544148Y340948D01*
D18*
X591312Y459150D03*
D19*
X397546Y464312D02*
X392085Y458851D01*
X397546Y464312D02*
X436468Y464312D01*
X442517Y458263D01*
X486918Y458263D01*
X304419Y464439D02*
X123428Y464439D01*
D18*
X470488Y436104D03*
X418983Y379819D03*
X503130Y430784D03*
X474218Y440277D03*
X423238Y383690D03*
X504190Y356870D03*
X534888Y351681D03*
X585321Y395736D03*
X530675Y484320D03*
X416238Y357292D03*
X486962Y480629D03*
X585216Y416814D03*
X642620Y479806D03*
D20*
X590296Y421894D02*
X585216Y416814D01*
X590296Y421894D02*
X590296Y452374D01*
X608838Y470916D01*
D18*
X647337Y449620D03*
D20*
X626041Y470916D02*
X608838Y470916D01*
X626041Y470916D02*
X647337Y449620D01*
D18*
X314198Y91440D03*
X336296Y55118D03*
X638302Y141478D03*
X601519Y389431D03*
X504190Y338709D03*
X512130Y339024D03*
X325120Y95758D03*
X341630Y71374D03*
X646674Y138674D03*
X593910Y390086D03*
X456438Y322580D03*
X472440Y322580D03*
X456438Y242570D03*
X415530Y250171D03*
X488442Y274574D03*
X424786Y242676D03*
X291592Y204216D03*
X291592Y193548D03*
X291084Y182880D03*
X291084Y172212D03*
X488427Y298943D03*
D19*
X488427Y306593D01*
X472440Y322580D01*
X456438Y322580D01*
X488442Y274574D02*
X493014Y270002D01*
X493014Y263144D01*
X476504Y246634D01*
D27*
X488427Y306593D02*
X488427Y323668D01*
D18*
X538480Y482981D03*
D27*
X493288Y328530D02*
X488427Y323668D01*
D18*
X488547Y282437D03*
D19*
X488442Y281490D02*
X488442Y274574D01*
X488442Y281490D02*
X488547Y281595D01*
X488547Y282437D01*
X493288Y328530D02*
X493288Y334498D01*
X486410Y341376D01*
D27*
X532807Y477308D02*
X538480Y482981D01*
D20*
X544957Y476504D01*
X628396Y476504D01*
X660654Y444246D01*
X657098Y444246D01*
X660654Y444246D02*
X684784Y444246D01*
X695198Y454660D01*
D18*
X695198Y454660D03*
X236982Y103632D03*
D19*
X347980Y210058D02*
X386334Y210058D01*
X386588Y210312D01*
X403098Y210312D01*
X414528Y198882D01*
X454152Y198882D01*
X455676Y198882D01*
X464312Y207518D01*
X526288Y207518D01*
X532384Y213614D01*
X573786Y374142D02*
X577088Y377444D01*
X610108Y377444D01*
X646176Y444246D02*
X657098Y444246D01*
D18*
X282448Y123444D03*
X430276Y139954D03*
D19*
X443484Y153162D01*
X443484Y191516D01*
D18*
X488187Y258573D03*
D26*
X661162Y100838D02*
X688340Y128016D01*
X757682Y128016D01*
X791210Y161544D01*
X791210Y424688D01*
X781050Y434848D01*
X715010Y434848D01*
X695198Y454660D01*
D18*
X694182Y135128D03*
D26*
X694182Y133858D01*
X688340Y128016D01*
D18*
X661162Y100011D03*
D26*
X661162Y100838D01*
D19*
X486410Y341376D02*
X486410Y373177D01*
X486156Y373431D01*
X622015Y420085D02*
X646176Y444246D01*
X622015Y389351D02*
X610108Y377444D01*
X622015Y389351D02*
X622015Y420085D01*
D18*
X488442Y234696D03*
D19*
X482346Y292862D02*
X488427Y298943D01*
X482346Y292862D02*
X482346Y288036D01*
X487945Y282437D01*
X488547Y282437D01*
D18*
X472186Y242443D03*
X447923Y242443D03*
D19*
X532384Y220151D02*
X532384Y213614D01*
D18*
X198120Y40640D03*
X399796Y32893D03*
D19*
X519998Y477308D02*
X519786Y477520D01*
X519998Y477308D02*
X532807Y477308D01*
X486156Y445900D02*
X486156Y373431D01*
X486156Y445900D02*
X517776Y477520D01*
X519786Y477520D01*
D18*
X291084Y211709D03*
D19*
X346329Y211709D01*
X347980Y210058D01*
D18*
X242120Y229780D03*
D19*
X443484Y191516D02*
X450850Y198882D01*
D23*
X454152Y198882D01*
D18*
X276352Y57150D03*
X276606Y44450D03*
X276606Y31496D03*
X277368Y18288D03*
D20*
X276606Y56896D02*
X276352Y57150D01*
X276606Y56896D02*
X276606Y44450D01*
X276606Y31496D01*
X277368Y30734D01*
X277368Y18288D01*
D18*
X327660Y461010D03*
X448691Y489839D03*
D19*
X522870Y294640D02*
X520192Y291962D01*
X522870Y294640D02*
X524626Y294640D01*
X573786Y343800D01*
X573786Y374142D01*
X520192Y291962D02*
X520192Y258505D01*
X526945Y251752D01*
X526945Y225590D02*
X532384Y220151D01*
X526945Y225590D02*
X526945Y251752D01*
D18*
X432054Y322580D03*
X495926Y290440D03*
X448437Y330933D03*
X447978Y338756D03*
X456438Y234696D03*
X496570Y234696D03*
X504190Y250698D03*
D19*
X447675Y338453D02*
X447978Y338756D01*
X456438Y234696D02*
X461010Y230124D01*
X491998Y230124D01*
X496570Y234696D01*
X504190Y242316D01*
X504190Y250698D01*
X504190Y259334D01*
X510794Y265938D01*
X510794Y276098D01*
X496452Y290440D01*
D20*
X495926Y290440D01*
D18*
X555752Y485140D03*
X141732Y272796D03*
D19*
X167894Y272796D01*
X221742Y218948D01*
X347472Y218948D01*
X406908Y212598D02*
X442468Y212598D01*
X456438Y226568D01*
X456438Y234696D01*
D23*
X407162Y212852D02*
X406908Y212598D01*
X407162Y212852D02*
X407162Y220472D01*
X404622Y223012D01*
X403860Y223012D01*
X403860Y237744D01*
D19*
X403860Y238506D01*
X408432Y243078D01*
X408432Y250698D01*
X419862Y262128D01*
X419862Y263144D01*
D23*
X419862Y270002D01*
X422656Y272796D01*
D19*
X428752Y278892D01*
X428752Y293878D01*
X420624Y302006D01*
X420624Y311404D01*
D23*
X420624Y318770D01*
D19*
X423672Y321818D01*
X426466Y321818D01*
X347472Y218948D02*
X352552Y213868D01*
X404571Y213868D02*
X405841Y212598D01*
X406908Y212598D01*
X404571Y213868D02*
X352552Y213868D01*
X555752Y485140D02*
X552000Y488892D01*
X524013Y488892D01*
X482600Y447479D01*
X426974Y356754D02*
X426974Y350520D01*
X482600Y412380D02*
X482600Y447479D01*
X482600Y412380D02*
X426974Y356754D01*
D18*
X440436Y314960D03*
X423924Y250442D03*
X488621Y242712D03*
X432061Y330955D03*
X488482Y330630D03*
D27*
X488482Y330888D02*
X487470Y331900D01*
X488482Y330888D02*
X488482Y330630D01*
D19*
X489712Y380492D02*
X489712Y444108D01*
X489712Y380492D02*
X494538Y375666D01*
D28*
X494538Y375666D03*
D19*
X482854Y354838D02*
X472440Y344424D01*
X482854Y354838D02*
X482854Y371704D01*
D20*
X508544Y429296D02*
X508544Y454758D01*
X508544Y429296D02*
X504190Y424942D01*
X502158Y424942D01*
X499618Y422402D01*
X499618Y417068D01*
D18*
X541177Y404912D03*
D20*
X539911Y406178D02*
X538448Y406178D01*
X539911Y406178D02*
X541177Y404912D01*
D18*
X506509Y453136D03*
D19*
X506923Y453136D02*
X508544Y454758D01*
X506923Y453136D02*
X506509Y453136D01*
X498486Y452882D02*
X489712Y444108D01*
X498486Y452882D02*
X506669Y452882D01*
X506923Y453136D01*
D18*
X479736Y266630D03*
D19*
X448564Y314960D02*
X440436Y314960D01*
X448564Y314960D02*
X471170Y292354D01*
X471170Y275196D01*
X479736Y266630D01*
D23*
X475996Y262890D01*
X475996Y254762D01*
X475742Y254508D01*
X459994Y254508D01*
X459740Y254762D01*
X451358Y246380D01*
X427986Y246380D01*
X423924Y250442D01*
D20*
X500380Y416306D02*
X499618Y417068D01*
D28*
X478959Y379137D03*
D19*
X478959Y375599D01*
X482854Y371704D01*
D20*
X500380Y416306D02*
X511524Y416306D01*
X513937Y418719D01*
X525907Y418719D01*
X538448Y406178D01*
D18*
X599440Y453390D03*
X599440Y443484D03*
X573532Y404114D03*
X521208Y402082D03*
X520954Y394716D03*
X521462Y388366D03*
X551434Y399542D03*
X545084Y71120D03*
X521589Y234442D03*
X540258Y60706D03*
X512562Y234452D03*
X530215Y192395D03*
X512064Y250698D03*
X533778Y196735D03*
X512500Y258390D03*
X754380Y330962D03*
X496250Y322486D03*
X759714Y325882D03*
X504277Y323093D03*
X664972Y452120D03*
X452094Y358902D03*
X592836Y200152D03*
X621030Y282194D03*
X526034Y358140D03*
X414608Y457026D03*
X429150Y453280D03*
X570474Y182870D03*
X494538Y418084D03*
X578866Y270510D03*
D19*
X586486Y278130D01*
X586486Y323088D01*
D18*
X586486Y323088D03*
X738124Y245872D03*
D19*
X738124Y208280D01*
X724916Y195072D01*
X582676Y195072D01*
X570474Y182870D01*
D18*
X282448Y66548D03*
X117856Y107442D03*
X499364Y446786D03*
D19*
X493798Y429536D02*
X493798Y425748D01*
X494538Y425008D01*
X494538Y418084D01*
X493798Y429536D02*
X499364Y435102D01*
X499364Y446786D01*
D18*
X565912Y233680D03*
X212852Y17780D03*
X591002Y291188D03*
X474472Y109347D03*
X554697Y360600D03*
X534147Y230588D03*
X455168Y445262D03*
X434901Y459412D03*
X424238Y218128D03*
X429196Y206476D03*
X440740Y234630D03*
X440238Y226128D03*
X446716Y204801D03*
X441212Y206135D03*
X448740Y234630D03*
X448740Y226630D03*
X517652Y152654D03*
X318516Y117348D03*
X313944Y122428D03*
X412623Y184658D03*
X504624Y218821D03*
X450098Y185156D03*
X469124Y200293D03*
X403860Y199644D03*
X222875Y238887D03*
X408051Y234315D03*
X240792Y242824D03*
X415858Y234508D03*
X218704Y234960D03*
X267716Y159721D03*
X216408Y93091D03*
X580869Y350901D03*
X632714Y226314D03*
X628142Y260858D03*
X755396Y262890D03*
X754126Y321310D03*
X629920Y275082D03*
X649478Y226568D03*
X629412Y268732D03*
X644652Y220218D03*
X496117Y282829D03*
X534543Y257810D03*
X504486Y290630D03*
X585724Y200406D03*
X593481Y271409D03*
X512625Y226515D03*
X429006Y163830D03*
X402336Y151892D03*
X312166Y62484D03*
X474202Y197469D03*
X417576Y165263D03*
X419100Y180340D03*
X317637Y75047D03*
X424116Y226250D03*
X315976Y67818D03*
X402336Y157988D03*
X424688Y173736D03*
X434848Y192024D03*
X323850Y112268D03*
X415736Y226630D03*
X318262Y107696D03*
X415163Y173482D03*
X314448Y79760D03*
X477012Y192532D03*
X315722Y58166D03*
X399034Y147320D03*
X436118Y165100D03*
X486664Y199924D03*
X331724Y454152D03*
X478122Y359313D03*
X474519Y371729D03*
X340868Y463423D03*
X336042Y459486D03*
X478282Y364998D03*
X472364Y338963D03*
X65786Y230378D03*
X137160Y221840D03*
X140462Y239522D03*
X69850Y214630D03*
X494411Y196850D03*
X484606Y186410D03*
X140954Y153178D03*
X111252Y247396D03*
X139192Y205740D03*
X115062Y157988D03*
X124206Y138430D03*
X116078Y149098D03*
X152654Y246380D03*
X164068Y133334D03*
X200516Y148808D03*
X133884Y198374D03*
X129540Y129032D03*
X183870Y216408D03*
X118680Y191452D03*
X250582Y437051D03*
X239908Y429611D03*
X571246Y84465D03*
X532638Y310388D03*
X556768Y101092D03*
X496534Y306836D03*
X571500Y90053D03*
X529058Y306066D03*
X569214Y101854D03*
X556596Y302387D03*
X422402Y110744D03*
X382016Y38354D03*
X571617Y95641D03*
X524256Y302895D03*
X434848Y109220D03*
X407416Y32258D03*
X563372Y104140D03*
X504740Y306630D03*
X456740Y330630D03*
X431871Y338765D03*
X471785Y330581D03*
X440295Y330821D03*
X732790Y265684D03*
X419100Y452628D03*
X426212Y459740D03*
X462534Y443230D03*
X677418Y200660D03*
X537464Y314706D03*
X567944Y151892D03*
D23*
X600964Y118872D01*
X600964Y105156D01*
D18*
X600964Y105156D03*
X622300Y105156D03*
D29*
X61976Y397510D02*
X25908Y361442D01*
X61976Y397510D02*
X61976Y424180D01*
X117221Y479425D01*
D18*
X490982Y472186D03*
D19*
X490982Y463804D01*
D18*
X490982Y463804D03*
X498370Y427642D03*
D29*
X435671Y479425D02*
X117221Y479425D01*
D18*
X116332Y225088D03*
X134620Y247904D03*
X528828Y262382D03*
X504627Y266517D03*
X488124Y267018D03*
X528701Y268986D03*
X526034Y215646D03*
X503736Y274630D03*
X496246Y274136D03*
X517017Y202946D03*
X600710Y200660D03*
X558292Y236253D03*
X556514Y261112D03*
X378206Y175260D03*
X414782Y143256D03*
D23*
X420370Y143256D01*
X428244Y135382D01*
X432562Y135382D01*
X521716Y195580D02*
X521716Y198374D01*
X534670Y211328D01*
X535432Y211328D01*
X535432Y221742D01*
X531622Y225552D01*
X531114Y225552D01*
D18*
X561213Y324641D03*
D23*
X561086Y324514D01*
X521716Y195580D02*
X496570Y170434D01*
D18*
X425958Y123698D03*
D23*
X467614Y170434D02*
X496570Y170434D01*
X467614Y170434D02*
X432562Y135382D01*
X524764Y258064D02*
X524764Y284500D01*
X561086Y320822D01*
X561086Y324514D01*
X524764Y258064D02*
X529866Y252962D01*
X529866Y226800D02*
X531114Y225552D01*
X529866Y226800D02*
X529866Y252962D01*
D18*
X432054Y381254D03*
X366643Y451358D03*
X462026Y436626D03*
X420126Y446034D03*
X456282Y436118D03*
X390191Y463423D03*
X512318Y322834D03*
X435610Y432054D03*
X530860Y325628D03*
X424698Y441462D03*
X492414Y359436D03*
X401574Y448310D03*
X500253Y364236D03*
X409783Y442422D03*
X512826Y372618D03*
X397002Y456946D03*
X405384Y420624D03*
X504378Y346583D03*
X512318Y346456D03*
X399796Y420624D03*
X524172Y346532D03*
X394208Y420624D03*
X386230Y441730D03*
X164380Y459867D03*
X496435Y314325D03*
X390398Y411734D03*
X412329Y368502D03*
X521970Y321818D03*
X385860Y403378D03*
X512572Y282702D03*
X381762Y419862D03*
X500634Y201422D03*
X375666Y420370D03*
X105918Y48260D03*
D19*
X97028Y57150D01*
X87376Y57150D01*
X52578Y91948D01*
X15875Y91948D01*
X6765Y101058D01*
X6765Y320455D01*
X19050Y332740D01*
D18*
X19050Y332740D03*
X506222Y198120D03*
X369570Y422656D03*
X585978Y483616D03*
X599440Y271526D03*
X560832Y285242D03*
X425958Y371475D03*
X360547Y451358D03*
X127254Y243586D03*
M02*
