G04 EAGLE Gerber RS-274X export*
G75*
%MOMM*%
%FSLAX34Y34*%
%LPD*%
%INCopper Layer 2*%
%IPPOS*%
%AMOC8*
5,1,8,0,0,1.08239X$1,22.5*%
G01*
G04 Define Apertures*
%ADD10C,0.508000*%
%ADD11C,3.327400*%
%ADD12C,1.524000*%
%ADD13C,1.500000*%
%ADD14C,2.400000*%
%ADD15C,0.900000*%
%ADD16C,1.800000*%
%ADD17C,1.950000*%
%ADD18C,0.457200*%
%ADD19C,0.125000*%
%ADD20C,0.127000*%
%ADD21C,0.152400*%
%ADD22C,0.553200*%
%ADD23C,0.150000*%
G36*
X794545Y4584D02*
X795788Y4831D01*
X796013Y4925D01*
X803021Y9607D01*
X803193Y9779D01*
X807869Y16777D01*
X807974Y17124D01*
X807974Y478176D01*
X807869Y478523D01*
X803193Y485521D01*
X803021Y485693D01*
X796013Y490375D01*
X795788Y490469D01*
X791991Y491224D01*
X791869Y491236D01*
X452618Y491236D01*
X452374Y491187D01*
X452169Y491046D01*
X452035Y490836D01*
X451993Y490611D01*
X451993Y488471D01*
X450059Y486537D01*
X447323Y486537D01*
X445389Y488471D01*
X445389Y490611D01*
X445340Y490855D01*
X445199Y491060D01*
X444989Y491194D01*
X444764Y491236D01*
X20931Y491236D01*
X20809Y491224D01*
X17012Y490469D01*
X16787Y490375D01*
X9779Y485693D01*
X9607Y485521D01*
X4925Y478513D01*
X4831Y478288D01*
X3187Y470022D01*
X3175Y469900D01*
X3175Y25400D01*
X3187Y25278D01*
X4831Y17012D01*
X4925Y16787D01*
X9607Y9779D01*
X9779Y9607D01*
X16787Y4925D01*
X17012Y4831D01*
X18255Y4584D01*
X18377Y4572D01*
X794423Y4572D01*
X794545Y4584D01*
G37*
%LPC*%
G36*
X583954Y392434D02*
X582019Y394368D01*
X582019Y397104D01*
X583954Y399038D01*
X585850Y399038D01*
X586094Y399087D01*
X586292Y399221D01*
X601035Y413964D01*
X601172Y414171D01*
X601218Y414406D01*
X601218Y421805D01*
X601543Y422130D01*
X601680Y422337D01*
X601726Y422572D01*
X601726Y439591D01*
X601677Y439835D01*
X601536Y440040D01*
X601326Y440174D01*
X601081Y440216D01*
X600937Y440182D01*
X598072Y440182D01*
X596138Y442116D01*
X596138Y444852D01*
X598072Y446786D01*
X600927Y446786D01*
X601111Y446752D01*
X601354Y446805D01*
X601557Y446949D01*
X601688Y447161D01*
X601726Y447377D01*
X601726Y449497D01*
X601677Y449741D01*
X601536Y449946D01*
X601326Y450080D01*
X601081Y450122D01*
X600937Y450088D01*
X598072Y450088D01*
X596138Y452022D01*
X596138Y454758D01*
X598072Y456692D01*
X600927Y456692D01*
X601111Y456658D01*
X601354Y456711D01*
X601557Y456855D01*
X601688Y457067D01*
X601726Y457283D01*
X601726Y470842D01*
X601677Y471086D01*
X601543Y471284D01*
X590347Y482480D01*
X590140Y482617D01*
X589895Y482663D01*
X589652Y482610D01*
X589449Y482466D01*
X589371Y482340D01*
X587346Y480314D01*
X584610Y480314D01*
X582676Y482248D01*
X582676Y485103D01*
X582710Y485287D01*
X582657Y485530D01*
X582513Y485733D01*
X582301Y485864D01*
X582085Y485902D01*
X573925Y485902D01*
X573681Y485853D01*
X573483Y485719D01*
X559696Y471932D01*
X532664Y471932D01*
X528066Y476530D01*
X528066Y482001D01*
X528017Y482244D01*
X527883Y482442D01*
X527373Y482952D01*
X527373Y485688D01*
X529307Y487622D01*
X532043Y487622D01*
X533977Y485688D01*
X533977Y484657D01*
X534027Y484413D01*
X534167Y484208D01*
X534377Y484074D01*
X534622Y484032D01*
X534864Y484089D01*
X535044Y484215D01*
X537112Y486283D01*
X539848Y486283D01*
X541782Y484349D01*
X541782Y481613D01*
X539848Y479679D01*
X537112Y479679D01*
X535178Y481613D01*
X535178Y482644D01*
X535129Y482888D01*
X534988Y483093D01*
X534778Y483227D01*
X534533Y483269D01*
X534291Y483212D01*
X534111Y483086D01*
X531972Y480947D01*
X531798Y480828D01*
X531664Y480618D01*
X531622Y480393D01*
X531622Y478261D01*
X531672Y478018D01*
X531805Y477819D01*
X533953Y475671D01*
X534161Y475534D01*
X534395Y475488D01*
X557964Y475488D01*
X558208Y475538D01*
X558406Y475671D01*
X563506Y480771D01*
X563643Y480978D01*
X563689Y481223D01*
X563636Y481466D01*
X563492Y481669D01*
X563366Y481747D01*
X561340Y483772D01*
X561340Y486508D01*
X563274Y488442D01*
X566010Y488442D01*
X568028Y486424D01*
X568134Y486269D01*
X568344Y486135D01*
X568589Y486093D01*
X568831Y486151D01*
X569011Y486276D01*
X572193Y489458D01*
X588398Y489458D01*
X605282Y472574D01*
X605282Y423535D01*
X605332Y423291D01*
X605472Y423086D01*
X605682Y422952D01*
X605907Y422910D01*
X608651Y422910D01*
X610585Y420976D01*
X610585Y418240D01*
X608854Y416509D01*
X608717Y416302D01*
X608671Y416058D01*
X608725Y415815D01*
X608854Y415626D01*
X610362Y414118D01*
X610362Y411382D01*
X608854Y409874D01*
X608717Y409667D01*
X608671Y409423D01*
X608725Y409180D01*
X608854Y408991D01*
X610331Y407514D01*
X610331Y404778D01*
X608397Y402844D01*
X605661Y402844D01*
X603727Y404778D01*
X603727Y407514D01*
X605235Y409022D01*
X605372Y409229D01*
X605418Y409474D01*
X605364Y409716D01*
X605235Y409905D01*
X604062Y411078D01*
X603855Y411216D01*
X603610Y411261D01*
X603367Y411208D01*
X603178Y411078D01*
X588806Y396706D01*
X588669Y396499D01*
X588623Y396264D01*
X588623Y394368D01*
X586689Y392434D01*
X583954Y392434D01*
G37*
G36*
X694338Y482346D02*
X692404Y484280D01*
X692404Y487016D01*
X694338Y488950D01*
X697074Y488950D01*
X699008Y487016D01*
X699008Y484280D01*
X697074Y482346D01*
X694338Y482346D01*
G37*
G36*
X554384Y481838D02*
X552450Y483772D01*
X552450Y486508D01*
X554384Y488442D01*
X557120Y488442D01*
X559054Y486508D01*
X559054Y483772D01*
X557120Y481838D01*
X554384Y481838D01*
G37*
G36*
X485594Y477327D02*
X483660Y479262D01*
X483660Y481997D01*
X485594Y483931D01*
X488329Y483931D01*
X490264Y481997D01*
X490264Y479262D01*
X488329Y477327D01*
X485594Y477327D01*
G37*
G36*
X641252Y476504D02*
X639318Y478438D01*
X639318Y481174D01*
X641252Y483108D01*
X643988Y483108D01*
X645922Y481174D01*
X645922Y478438D01*
X643988Y476504D01*
X641252Y476504D01*
G37*
G36*
X489614Y468884D02*
X487680Y470818D01*
X487680Y473554D01*
X489614Y475488D01*
X492350Y475488D01*
X494284Y473554D01*
X494284Y470818D01*
X492350Y468884D01*
X489614Y468884D01*
G37*
G36*
X33904Y438406D02*
X27090Y441229D01*
X21875Y446444D01*
X19052Y453258D01*
X19052Y460634D01*
X21875Y467448D01*
X27090Y472663D01*
X33904Y475486D01*
X41280Y475486D01*
X48094Y472663D01*
X53309Y467448D01*
X56132Y460634D01*
X56132Y453258D01*
X53309Y446444D01*
X48094Y441229D01*
X41280Y438406D01*
X33904Y438406D01*
G37*
G36*
X769742Y438152D02*
X762928Y440975D01*
X757713Y446190D01*
X754890Y453004D01*
X754890Y460380D01*
X757713Y467194D01*
X762928Y472409D01*
X769742Y475232D01*
X777118Y475232D01*
X783932Y472409D01*
X789147Y467194D01*
X791970Y460380D01*
X791970Y453004D01*
X789147Y446190D01*
X783932Y440975D01*
X777118Y438152D01*
X769742Y438152D01*
G37*
G36*
X275238Y28194D02*
X273304Y30128D01*
X273304Y32864D01*
X274552Y34112D01*
X274690Y34319D01*
X274735Y34564D01*
X274682Y34807D01*
X274538Y35010D01*
X274326Y35141D01*
X274110Y35179D01*
X221820Y35179D01*
X164599Y92400D01*
X164392Y92537D01*
X164157Y92583D01*
X65610Y92583D01*
X48895Y109298D01*
X48895Y392352D01*
X129571Y473028D01*
X309595Y473028D01*
X323291Y459332D01*
X323498Y459194D01*
X323743Y459149D01*
X323986Y459202D01*
X324189Y459346D01*
X324320Y459558D01*
X324358Y459774D01*
X324358Y462378D01*
X326292Y464312D01*
X329028Y464312D01*
X330962Y462378D01*
X330962Y459642D01*
X329841Y458521D01*
X329703Y458314D01*
X329658Y458069D01*
X329711Y457826D01*
X329855Y457623D01*
X330067Y457493D01*
X330283Y457454D01*
X332115Y457454D01*
X332359Y457504D01*
X332564Y457644D01*
X332698Y457854D01*
X332740Y458079D01*
X332740Y460854D01*
X334674Y462788D01*
X336941Y462788D01*
X337185Y462838D01*
X337390Y462978D01*
X337524Y463188D01*
X337566Y463413D01*
X337566Y464791D01*
X339500Y466725D01*
X342236Y466725D01*
X343704Y465257D01*
X343911Y465120D01*
X344146Y465074D01*
X379875Y465074D01*
X397205Y447744D01*
X397412Y447606D01*
X397657Y447561D01*
X397900Y447614D01*
X398103Y447758D01*
X398234Y447969D01*
X398272Y448185D01*
X398272Y449678D01*
X400206Y451612D01*
X402942Y451612D01*
X404876Y449678D01*
X404876Y446942D01*
X403894Y445961D01*
X403757Y445753D01*
X403712Y445509D01*
X403765Y445266D01*
X403894Y445077D01*
X405414Y443558D01*
X405621Y443420D01*
X405866Y443375D01*
X406109Y443428D01*
X406311Y443572D01*
X406389Y443698D01*
X408415Y445724D01*
X411165Y445724D01*
X411329Y445615D01*
X411574Y445569D01*
X411817Y445622D01*
X412020Y445766D01*
X412151Y445978D01*
X412189Y446194D01*
X412189Y446277D01*
X412140Y446521D01*
X412006Y446719D01*
X404629Y454096D01*
X404422Y454233D01*
X404187Y454279D01*
X399264Y454279D01*
X399020Y454230D01*
X398822Y454096D01*
X398370Y453644D01*
X395634Y453644D01*
X393700Y455578D01*
X393700Y458314D01*
X395634Y460248D01*
X398370Y460248D01*
X400304Y458314D01*
X400304Y458206D01*
X400354Y457962D01*
X400494Y457757D01*
X400704Y457623D01*
X400929Y457581D01*
X405814Y457581D01*
X415491Y447904D01*
X415491Y442067D01*
X415541Y441823D01*
X415674Y441625D01*
X470909Y386390D01*
X471116Y386253D01*
X471351Y386207D01*
X472005Y386207D01*
X472249Y386257D01*
X472447Y386390D01*
X475566Y389509D01*
X482268Y389509D01*
X489197Y382580D01*
X489404Y382443D01*
X489639Y382397D01*
X498270Y382397D01*
X506215Y374452D01*
X506422Y374315D01*
X506657Y374269D01*
X509548Y374269D01*
X509792Y374319D01*
X509990Y374452D01*
X511458Y375920D01*
X514194Y375920D01*
X516128Y373986D01*
X516128Y371250D01*
X514194Y369316D01*
X511458Y369316D01*
X509990Y370784D01*
X509783Y370921D01*
X509548Y370967D01*
X505030Y370967D01*
X499387Y376610D01*
X499180Y376748D01*
X498935Y376793D01*
X498692Y376740D01*
X498489Y376596D01*
X498359Y376384D01*
X498320Y376168D01*
X498320Y374099D01*
X496536Y372315D01*
X496398Y372108D01*
X496353Y371863D01*
X496406Y371620D01*
X496536Y371431D01*
X500246Y367721D01*
X500453Y367584D01*
X500688Y367538D01*
X501621Y367538D01*
X503555Y365604D01*
X503555Y362868D01*
X501621Y360934D01*
X498885Y360934D01*
X496951Y362868D01*
X496951Y365640D01*
X497018Y365740D01*
X497063Y365985D01*
X497010Y366228D01*
X496880Y366417D01*
X495307Y367990D01*
X495100Y368127D01*
X494865Y368173D01*
X487521Y368173D01*
X487277Y368124D01*
X487072Y367983D01*
X486938Y367773D01*
X486896Y367528D01*
X486954Y367286D01*
X487079Y367106D01*
X491264Y362921D01*
X491471Y362784D01*
X491706Y362738D01*
X493782Y362738D01*
X495716Y360804D01*
X495716Y358068D01*
X493782Y356134D01*
X491047Y356134D01*
X489112Y358068D01*
X489112Y360144D01*
X489063Y360388D01*
X488929Y360586D01*
X482651Y366864D01*
X482444Y367002D01*
X482199Y367047D01*
X481956Y366994D01*
X481753Y366850D01*
X481623Y366638D01*
X481584Y366423D01*
X481584Y363630D01*
X480471Y362517D01*
X480334Y362310D01*
X480288Y362066D01*
X480342Y361823D01*
X480471Y361634D01*
X481424Y360681D01*
X481424Y357945D01*
X479713Y356234D01*
X479575Y356027D01*
X479530Y355782D01*
X479583Y355539D01*
X479713Y355350D01*
X486646Y348417D01*
X486853Y348280D01*
X487088Y348234D01*
X501100Y348234D01*
X501344Y348284D01*
X501542Y348417D01*
X503010Y349885D01*
X505746Y349885D01*
X507680Y347951D01*
X507680Y345662D01*
X507729Y345418D01*
X507870Y345213D01*
X508080Y345079D01*
X508325Y345037D01*
X508567Y345094D01*
X508747Y345220D01*
X508833Y345306D01*
X508970Y345513D01*
X509016Y345748D01*
X509016Y347824D01*
X510950Y349758D01*
X513686Y349758D01*
X515620Y347824D01*
X515620Y345088D01*
X513620Y343088D01*
X513482Y342881D01*
X513437Y342636D01*
X513490Y342393D01*
X513620Y342204D01*
X515432Y340392D01*
X515432Y338936D01*
X515482Y338692D01*
X515622Y338487D01*
X515832Y338353D01*
X516077Y338311D01*
X516319Y338368D01*
X516499Y338494D01*
X521578Y343573D01*
X521715Y343780D01*
X521761Y344025D01*
X521707Y344267D01*
X521578Y344457D01*
X520870Y345164D01*
X520870Y347900D01*
X522804Y349834D01*
X525540Y349834D01*
X527474Y347900D01*
X527474Y345164D01*
X526006Y343696D01*
X525869Y343489D01*
X525823Y343254D01*
X525823Y343148D01*
X515542Y332867D01*
X492409Y332867D01*
X492165Y332818D01*
X491960Y332677D01*
X491826Y332467D01*
X491784Y332242D01*
X491784Y329262D01*
X489850Y327328D01*
X487114Y327328D01*
X485180Y329262D01*
X485180Y331998D01*
X487114Y333932D01*
X487978Y333932D01*
X488222Y333982D01*
X488427Y334122D01*
X488561Y334332D01*
X488603Y334577D01*
X488546Y334819D01*
X488420Y334999D01*
X474479Y348940D01*
X474272Y349077D01*
X474037Y349123D01*
X473943Y349123D01*
X467921Y355145D01*
X467912Y355188D01*
X467779Y355386D01*
X438655Y384510D01*
X438448Y384647D01*
X438213Y384693D01*
X434794Y384693D01*
X434550Y384644D01*
X434345Y384503D01*
X434211Y384293D01*
X434169Y384048D01*
X434226Y383806D01*
X434352Y383626D01*
X435356Y382622D01*
X435356Y379886D01*
X433422Y377952D01*
X430686Y377952D01*
X428752Y379886D01*
X428752Y382622D01*
X429756Y383626D01*
X429894Y383834D01*
X429939Y384078D01*
X429886Y384321D01*
X429742Y384524D01*
X429530Y384655D01*
X429314Y384693D01*
X427165Y384693D01*
X426922Y384644D01*
X426716Y384503D01*
X426582Y384293D01*
X426540Y384068D01*
X426540Y382322D01*
X424606Y380388D01*
X422910Y380388D01*
X422666Y380338D01*
X422461Y380197D01*
X422327Y379988D01*
X422285Y379763D01*
X422285Y378451D01*
X420350Y376517D01*
X417615Y376517D01*
X415681Y378451D01*
X415681Y381187D01*
X417615Y383121D01*
X419311Y383121D01*
X419555Y383171D01*
X419760Y383311D01*
X419894Y383521D01*
X419936Y383746D01*
X419936Y385057D01*
X421871Y386992D01*
X423235Y386992D01*
X423478Y387041D01*
X423684Y387182D01*
X423818Y387391D01*
X423859Y387637D01*
X423802Y387879D01*
X423677Y388059D01*
X394596Y417139D01*
X394389Y417276D01*
X394154Y417322D01*
X392840Y417322D01*
X390906Y419256D01*
X390906Y421992D01*
X392840Y423926D01*
X395576Y423926D01*
X396560Y422942D01*
X396767Y422804D01*
X397012Y422759D01*
X397255Y422812D01*
X397444Y422942D01*
X398428Y423926D01*
X401164Y423926D01*
X402148Y422942D01*
X402355Y422804D01*
X402600Y422759D01*
X402843Y422812D01*
X403032Y422942D01*
X404016Y423926D01*
X406752Y423926D01*
X408686Y421992D01*
X408686Y421159D01*
X408736Y420915D01*
X408869Y420717D01*
X409143Y420443D01*
X409350Y420306D01*
X409595Y420260D01*
X409838Y420314D01*
X410041Y420458D01*
X410172Y420669D01*
X410210Y420885D01*
X410210Y423344D01*
X410161Y423588D01*
X410027Y423786D01*
X390599Y443214D01*
X390392Y443351D01*
X390147Y443397D01*
X389904Y443344D01*
X389701Y443200D01*
X389571Y442988D01*
X389532Y442772D01*
X389532Y440362D01*
X387598Y438428D01*
X384862Y438428D01*
X382928Y440362D01*
X382928Y443098D01*
X384862Y445032D01*
X387272Y445032D01*
X387516Y445082D01*
X387721Y445222D01*
X387855Y445432D01*
X387897Y445677D01*
X387840Y445919D01*
X387714Y446099D01*
X379590Y454223D01*
X379383Y454360D01*
X379148Y454406D01*
X369774Y454406D01*
X369530Y454357D01*
X369325Y454216D01*
X369191Y454006D01*
X369149Y453761D01*
X369206Y453519D01*
X369332Y453339D01*
X369945Y452726D01*
X369945Y449990D01*
X368011Y448056D01*
X365275Y448056D01*
X364037Y449294D01*
X363830Y449432D01*
X363585Y449477D01*
X363342Y449424D01*
X363153Y449294D01*
X361915Y448056D01*
X359179Y448056D01*
X357245Y449990D01*
X357245Y451876D01*
X357196Y452120D01*
X357055Y452325D01*
X356845Y452459D01*
X356620Y452501D01*
X354110Y452501D01*
X353866Y452452D01*
X353661Y452311D01*
X353527Y452101D01*
X353486Y451856D01*
X353543Y451614D01*
X353668Y451434D01*
X354828Y450274D01*
X355668Y448247D01*
X355668Y446052D01*
X354828Y444025D01*
X353277Y442473D01*
X351249Y441634D01*
X349055Y441634D01*
X347027Y442473D01*
X345476Y444025D01*
X344636Y446052D01*
X344636Y448247D01*
X345476Y450274D01*
X346636Y451434D01*
X346773Y451641D01*
X346819Y451886D01*
X346765Y452129D01*
X346621Y452332D01*
X346410Y452463D01*
X346194Y452501D01*
X335002Y452501D01*
X334758Y452452D01*
X334560Y452318D01*
X333143Y450901D01*
X333005Y450694D01*
X332960Y450449D01*
X333013Y450206D01*
X333157Y450003D01*
X333369Y449873D01*
X333585Y449834D01*
X334917Y449834D01*
X356197Y428554D01*
X356404Y428417D01*
X356638Y428371D01*
X375588Y428371D01*
X380612Y423347D01*
X380819Y423210D01*
X381054Y423164D01*
X383130Y423164D01*
X385064Y421230D01*
X385064Y418494D01*
X383130Y416560D01*
X380394Y416560D01*
X378902Y418052D01*
X378695Y418190D01*
X378450Y418235D01*
X378207Y418182D01*
X378018Y418052D01*
X377034Y417068D01*
X374298Y417068D01*
X373533Y417833D01*
X373326Y417970D01*
X373082Y418016D01*
X372839Y417962D01*
X372650Y417833D01*
X371885Y417068D01*
X356547Y417068D01*
X331838Y441777D01*
X331631Y441914D01*
X331396Y441960D01*
X328442Y441960D01*
X308432Y461970D01*
X308225Y462107D01*
X307990Y462153D01*
X168273Y462153D01*
X168029Y462104D01*
X167824Y461963D01*
X167690Y461753D01*
X167648Y461508D01*
X167682Y461364D01*
X167682Y458499D01*
X165748Y456565D01*
X163012Y456565D01*
X161078Y458499D01*
X161078Y461354D01*
X161112Y461538D01*
X161059Y461781D01*
X160915Y461984D01*
X160703Y462115D01*
X160487Y462153D01*
X132007Y462153D01*
X131763Y462104D01*
X131565Y461970D01*
X58222Y388627D01*
X58085Y388420D01*
X58039Y388185D01*
X58039Y113719D01*
X58089Y113475D01*
X58222Y113277D01*
X70605Y100894D01*
X70812Y100757D01*
X71047Y100711D01*
X169017Y100711D01*
X219507Y50221D01*
X219714Y50084D01*
X219949Y50038D01*
X452066Y50038D01*
X452310Y50088D01*
X452508Y50221D01*
X498800Y96513D01*
X498937Y96720D01*
X498983Y96955D01*
X498983Y198144D01*
X498934Y198388D01*
X498800Y198586D01*
X498780Y198606D01*
X498573Y198744D01*
X498328Y198789D01*
X498085Y198736D01*
X497882Y198592D01*
X497752Y198380D01*
X497713Y198164D01*
X497713Y195482D01*
X495779Y193548D01*
X493043Y193548D01*
X491109Y195482D01*
X491109Y198190D01*
X491104Y198213D01*
X493043Y200152D01*
X495779Y200152D01*
X496265Y199666D01*
X496472Y199528D01*
X496717Y199483D01*
X496960Y199536D01*
X497163Y199680D01*
X497294Y199892D01*
X497332Y200108D01*
X497332Y202790D01*
X499266Y204724D01*
X502002Y204724D01*
X503936Y202790D01*
X503936Y202013D01*
X503986Y201769D01*
X504126Y201564D01*
X504336Y201430D01*
X504581Y201388D01*
X504725Y201422D01*
X507590Y201422D01*
X509524Y199488D01*
X509524Y196967D01*
X509574Y196723D01*
X509714Y196518D01*
X509924Y196384D01*
X510149Y196342D01*
X512162Y196342D01*
X514096Y194408D01*
X514096Y191550D01*
X514146Y191306D01*
X514286Y191101D01*
X514496Y190967D01*
X514741Y190925D01*
X514983Y190982D01*
X515163Y191108D01*
X520136Y196081D01*
X520273Y196288D01*
X520319Y196523D01*
X520319Y200069D01*
X520270Y200313D01*
X520129Y200518D01*
X519919Y200652D01*
X519674Y200694D01*
X519432Y200637D01*
X519252Y200511D01*
X518385Y199644D01*
X515649Y199644D01*
X513715Y201578D01*
X513715Y204314D01*
X515649Y206248D01*
X518385Y206248D01*
X519252Y205381D01*
X519459Y205243D01*
X519704Y205198D01*
X519947Y205251D01*
X520150Y205395D01*
X520281Y205607D01*
X520319Y205823D01*
X520319Y220394D01*
X525724Y225799D01*
X525861Y226006D01*
X525907Y226241D01*
X525907Y232581D01*
X525858Y232825D01*
X525717Y233030D01*
X525507Y233164D01*
X525262Y233206D01*
X525020Y233149D01*
X524840Y233023D01*
X522957Y231140D01*
X520221Y231140D01*
X518287Y233074D01*
X518287Y235810D01*
X520221Y237744D01*
X522957Y237744D01*
X524840Y235861D01*
X525047Y235723D01*
X525292Y235678D01*
X525535Y235731D01*
X525738Y235875D01*
X525869Y236087D01*
X525907Y236303D01*
X525907Y250771D01*
X525858Y251015D01*
X525724Y251213D01*
X516869Y260068D01*
X516661Y260206D01*
X516417Y260251D01*
X516174Y260198D01*
X515971Y260054D01*
X515840Y259842D01*
X515802Y259626D01*
X515802Y257022D01*
X513868Y255088D01*
X513853Y255088D01*
X513609Y255039D01*
X513404Y254898D01*
X513270Y254688D01*
X513228Y254443D01*
X513285Y254201D01*
X513411Y254021D01*
X515366Y252066D01*
X515366Y249330D01*
X513432Y247396D01*
X510696Y247396D01*
X508762Y249330D01*
X508762Y252066D01*
X510696Y254000D01*
X510711Y254000D01*
X510955Y254050D01*
X511160Y254190D01*
X511294Y254400D01*
X511336Y254645D01*
X511279Y254887D01*
X511153Y255067D01*
X509198Y257022D01*
X509198Y259758D01*
X511132Y261692D01*
X513736Y261692D01*
X513980Y261742D01*
X514185Y261882D01*
X514319Y262092D01*
X514361Y262337D01*
X514304Y262579D01*
X514178Y262759D01*
X510921Y266016D01*
X510921Y279424D01*
X510872Y279668D01*
X510738Y279866D01*
X509270Y281334D01*
X509270Y284070D01*
X511204Y286004D01*
X513940Y286004D01*
X515874Y284070D01*
X515874Y281334D01*
X514406Y279866D01*
X514269Y279659D01*
X514223Y279424D01*
X514223Y267643D01*
X514273Y267399D01*
X514406Y267201D01*
X529209Y252398D01*
X529209Y224614D01*
X524610Y220015D01*
X524472Y219808D01*
X524427Y219563D01*
X524480Y219320D01*
X524624Y219117D01*
X524836Y218987D01*
X525052Y218948D01*
X527402Y218948D01*
X529336Y217014D01*
X529336Y214278D01*
X527402Y212344D01*
X524655Y212344D01*
X524481Y212460D01*
X524236Y212505D01*
X523993Y212452D01*
X523790Y212308D01*
X523660Y212096D01*
X523621Y211880D01*
X523621Y194896D01*
X507548Y178823D01*
X507411Y178616D01*
X507365Y178381D01*
X507365Y93042D01*
X449502Y35179D01*
X410674Y35179D01*
X410430Y35130D01*
X410225Y34989D01*
X410091Y34779D01*
X410049Y34534D01*
X410106Y34292D01*
X410232Y34112D01*
X410718Y33626D01*
X410718Y30890D01*
X408784Y28956D01*
X406048Y28956D01*
X404114Y30890D01*
X404114Y31032D01*
X404065Y31276D01*
X403924Y31481D01*
X403714Y31615D01*
X403469Y31657D01*
X403227Y31600D01*
X403047Y31474D01*
X401164Y29591D01*
X398428Y29591D01*
X396494Y31525D01*
X396494Y34380D01*
X396528Y34564D01*
X396475Y34807D01*
X396331Y35010D01*
X396119Y35141D01*
X395903Y35179D01*
X387003Y35179D01*
X386759Y35130D01*
X386561Y34996D01*
X384331Y32766D01*
X379701Y32766D01*
X377471Y34996D01*
X377264Y35133D01*
X377029Y35179D01*
X279102Y35179D01*
X278858Y35130D01*
X278653Y34989D01*
X278519Y34779D01*
X278477Y34534D01*
X278534Y34292D01*
X278660Y34112D01*
X279908Y32864D01*
X279908Y30128D01*
X277974Y28194D01*
X275238Y28194D01*
G37*
G36*
X485550Y454961D02*
X483616Y456895D01*
X483616Y459630D01*
X485550Y461565D01*
X487055Y461565D01*
X487299Y461614D01*
X487504Y461755D01*
X487638Y461964D01*
X487680Y462190D01*
X487680Y465172D01*
X489614Y467106D01*
X492350Y467106D01*
X494284Y465172D01*
X494284Y462436D01*
X492350Y460502D01*
X490845Y460502D01*
X490601Y460453D01*
X490396Y460312D01*
X490262Y460102D01*
X490220Y459877D01*
X490220Y456895D01*
X488286Y454961D01*
X485550Y454961D01*
G37*
G36*
X388824Y460121D02*
X386889Y462055D01*
X386889Y464791D01*
X388824Y466725D01*
X391559Y466725D01*
X393493Y464791D01*
X393493Y462055D01*
X391559Y460121D01*
X388824Y460121D01*
G37*
G36*
X589944Y455848D02*
X588010Y457782D01*
X588010Y459429D01*
X587961Y459672D01*
X587820Y459878D01*
X587610Y460012D01*
X587385Y460054D01*
X584551Y460054D01*
X582616Y461988D01*
X582616Y464723D01*
X584551Y466658D01*
X587286Y466658D01*
X589220Y464723D01*
X589220Y463077D01*
X589270Y462833D01*
X589410Y462628D01*
X589620Y462494D01*
X589845Y462452D01*
X592680Y462452D01*
X594614Y460518D01*
X594614Y457782D01*
X592680Y455848D01*
X589944Y455848D01*
G37*
G36*
X427782Y449978D02*
X425848Y451912D01*
X425848Y454648D01*
X426571Y455371D01*
X426709Y455578D01*
X426754Y455823D01*
X426701Y456066D01*
X426557Y456269D01*
X426345Y456400D01*
X426129Y456438D01*
X424844Y456438D01*
X422910Y458372D01*
X422910Y461108D01*
X424844Y463042D01*
X427580Y463042D01*
X429514Y461108D01*
X429514Y458372D01*
X428791Y457649D01*
X428653Y457442D01*
X428608Y457197D01*
X428661Y456954D01*
X428805Y456751D01*
X429017Y456621D01*
X429233Y456582D01*
X430518Y456582D01*
X432452Y454648D01*
X432452Y451912D01*
X430518Y449978D01*
X427782Y449978D01*
G37*
G36*
X433534Y456110D02*
X431599Y458045D01*
X431599Y460780D01*
X433534Y462714D01*
X436269Y462714D01*
X438203Y460780D01*
X438203Y458045D01*
X436269Y456110D01*
X433534Y456110D01*
G37*
G36*
X505141Y449834D02*
X503207Y451768D01*
X503207Y454504D01*
X503730Y455027D01*
X503868Y455235D01*
X503913Y455479D01*
X503860Y455722D01*
X503730Y455911D01*
X502285Y457356D01*
X502285Y460092D01*
X504219Y462026D01*
X506955Y462026D01*
X508889Y460092D01*
X508889Y457356D01*
X508366Y456833D01*
X508228Y456625D01*
X508183Y456381D01*
X508236Y456138D01*
X508366Y455949D01*
X509811Y454504D01*
X509811Y451768D01*
X507877Y449834D01*
X505141Y449834D01*
G37*
G36*
X528625Y422910D02*
X526542Y424993D01*
X526542Y427939D01*
X528564Y429961D01*
X528702Y430168D01*
X528747Y430413D01*
X528694Y430656D01*
X528564Y430845D01*
X526542Y432867D01*
X526542Y435813D01*
X528564Y437835D01*
X528702Y438042D01*
X528747Y438287D01*
X528694Y438530D01*
X528564Y438719D01*
X526542Y440741D01*
X526542Y443687D01*
X528564Y445709D01*
X528702Y445916D01*
X528747Y446161D01*
X528694Y446404D01*
X528564Y446593D01*
X526542Y448615D01*
X526542Y451561D01*
X528564Y453583D01*
X528702Y453790D01*
X528747Y454035D01*
X528694Y454278D01*
X528564Y454467D01*
X526542Y456489D01*
X526542Y459435D01*
X528625Y461518D01*
X531571Y461518D01*
X533593Y459496D01*
X533800Y459359D01*
X534045Y459313D01*
X534288Y459366D01*
X534477Y459496D01*
X536499Y461518D01*
X539445Y461518D01*
X541467Y459496D01*
X541674Y459359D01*
X541919Y459313D01*
X542162Y459366D01*
X542351Y459496D01*
X544373Y461518D01*
X547319Y461518D01*
X549341Y459496D01*
X549548Y459359D01*
X549793Y459313D01*
X550036Y459366D01*
X550225Y459496D01*
X552247Y461518D01*
X555193Y461518D01*
X557215Y459496D01*
X557422Y459359D01*
X557667Y459313D01*
X557910Y459366D01*
X558099Y459496D01*
X560121Y461518D01*
X563067Y461518D01*
X565150Y459435D01*
X565150Y456489D01*
X563128Y454467D01*
X562991Y454260D01*
X562945Y454015D01*
X562998Y453772D01*
X563128Y453583D01*
X565150Y451561D01*
X565150Y448615D01*
X563128Y446593D01*
X562991Y446386D01*
X562945Y446141D01*
X562998Y445898D01*
X563128Y445709D01*
X565150Y443687D01*
X565150Y440741D01*
X563128Y438719D01*
X562991Y438512D01*
X562945Y438267D01*
X562998Y438024D01*
X563128Y437835D01*
X565150Y435813D01*
X565150Y432867D01*
X563128Y430845D01*
X562991Y430638D01*
X562945Y430393D01*
X562998Y430150D01*
X563128Y429961D01*
X565150Y427939D01*
X565150Y424993D01*
X563067Y422910D01*
X560121Y422910D01*
X558099Y424932D01*
X557892Y425070D01*
X557647Y425115D01*
X557404Y425062D01*
X557215Y424932D01*
X555193Y422910D01*
X552247Y422910D01*
X550225Y424932D01*
X550018Y425070D01*
X549773Y425115D01*
X549530Y425062D01*
X549341Y424932D01*
X547319Y422910D01*
X544373Y422910D01*
X542351Y424932D01*
X542144Y425070D01*
X541899Y425115D01*
X541656Y425062D01*
X541467Y424932D01*
X539445Y422910D01*
X536499Y422910D01*
X534477Y424932D01*
X534270Y425070D01*
X534025Y425115D01*
X533782Y425062D01*
X533593Y424932D01*
X531571Y422910D01*
X528625Y422910D01*
G37*
G36*
X495166Y303534D02*
X493232Y305468D01*
X493232Y308204D01*
X495117Y310089D01*
X495255Y310296D01*
X495300Y310541D01*
X495247Y310784D01*
X495117Y310973D01*
X493599Y312491D01*
X493392Y312628D01*
X493157Y312674D01*
X489155Y312674D01*
X477019Y324810D01*
X476812Y324947D01*
X476577Y324993D01*
X476206Y324993D01*
X475962Y324944D01*
X475757Y324803D01*
X475623Y324593D01*
X475581Y324348D01*
X475638Y324106D01*
X475742Y323957D01*
X475742Y321212D01*
X473742Y319212D01*
X473604Y319005D01*
X473559Y318760D01*
X473612Y318517D01*
X473742Y318328D01*
X475742Y316328D01*
X475742Y313592D01*
X473808Y311658D01*
X471072Y311658D01*
X469138Y313592D01*
X469138Y316328D01*
X471138Y318328D01*
X471276Y318535D01*
X471321Y318780D01*
X471268Y319023D01*
X471138Y319212D01*
X469138Y321212D01*
X469138Y323959D01*
X469254Y324133D01*
X469299Y324378D01*
X469246Y324621D01*
X469102Y324824D01*
X468890Y324955D01*
X468674Y324993D01*
X467438Y324993D01*
X461109Y331322D01*
X460901Y331460D01*
X460657Y331505D01*
X460414Y331452D01*
X460211Y331308D01*
X460080Y331096D01*
X460042Y330880D01*
X460042Y329262D01*
X458108Y327328D01*
X455372Y327328D01*
X453438Y329262D01*
X453438Y331998D01*
X455372Y333932D01*
X456990Y333932D01*
X457234Y333982D01*
X457439Y334122D01*
X457573Y334332D01*
X457615Y334577D01*
X457558Y334819D01*
X457432Y334999D01*
X452347Y340084D01*
X452139Y340222D01*
X451895Y340267D01*
X451652Y340214D01*
X451449Y340070D01*
X451318Y339858D01*
X451280Y339642D01*
X451280Y337388D01*
X449193Y335302D01*
X449056Y335094D01*
X449010Y334850D01*
X449064Y334607D01*
X449208Y334404D01*
X449419Y334273D01*
X449635Y334235D01*
X449805Y334235D01*
X451739Y332301D01*
X451739Y329565D01*
X449805Y327631D01*
X447069Y327631D01*
X445135Y329565D01*
X445135Y332301D01*
X447222Y334387D01*
X447359Y334594D01*
X447404Y334839D01*
X447351Y335082D01*
X447207Y335285D01*
X446996Y335416D01*
X446780Y335454D01*
X446610Y335454D01*
X444676Y337388D01*
X444676Y340124D01*
X446610Y342058D01*
X448864Y342058D01*
X449108Y342108D01*
X449313Y342248D01*
X449447Y342458D01*
X449489Y342703D01*
X449432Y342945D01*
X449306Y343125D01*
X443102Y349329D01*
X443054Y349567D01*
X442920Y349765D01*
X441205Y351480D01*
X440998Y351617D01*
X440763Y351663D01*
X425782Y351663D01*
X420607Y356838D01*
X420400Y356976D01*
X420155Y357021D01*
X419912Y356968D01*
X419709Y356824D01*
X419579Y356612D01*
X419540Y356396D01*
X419540Y355924D01*
X417606Y353990D01*
X414870Y353990D01*
X412936Y355924D01*
X412936Y358660D01*
X414870Y360594D01*
X415342Y360594D01*
X415586Y360643D01*
X415791Y360784D01*
X415925Y360994D01*
X415967Y361239D01*
X415910Y361481D01*
X415784Y361661D01*
X412428Y365017D01*
X412221Y365154D01*
X411986Y365200D01*
X410961Y365200D01*
X409027Y367134D01*
X409027Y369870D01*
X410961Y371804D01*
X413697Y371804D01*
X415631Y369870D01*
X415631Y367075D01*
X415610Y367044D01*
X415565Y366799D01*
X415618Y366556D01*
X415748Y366367D01*
X426967Y355148D01*
X427174Y355011D01*
X427409Y354965D01*
X442478Y354965D01*
X442722Y355015D01*
X442927Y355155D01*
X443061Y355365D01*
X443103Y355590D01*
X443103Y362023D01*
X443054Y362267D01*
X442920Y362465D01*
X440844Y364541D01*
X440637Y364678D01*
X440402Y364724D01*
X422894Y364724D01*
X387725Y399893D01*
X387518Y400030D01*
X387283Y400076D01*
X384492Y400076D01*
X382558Y402010D01*
X382558Y404746D01*
X384492Y406680D01*
X387228Y406680D01*
X389162Y404746D01*
X389162Y403385D01*
X389212Y403141D01*
X389345Y402943D01*
X421589Y370699D01*
X421796Y370561D01*
X422041Y370516D01*
X422284Y370569D01*
X422487Y370713D01*
X422618Y370925D01*
X422656Y371141D01*
X422656Y372843D01*
X424590Y374777D01*
X427326Y374777D01*
X429260Y372843D01*
X429260Y370107D01*
X428246Y369093D01*
X428108Y368886D01*
X428063Y368641D01*
X428116Y368398D01*
X428260Y368195D01*
X428472Y368065D01*
X428688Y368026D01*
X442029Y368026D01*
X446405Y363650D01*
X446405Y357305D01*
X446455Y357061D01*
X446588Y356863D01*
X467099Y336352D01*
X467306Y336215D01*
X467541Y336169D01*
X468979Y336169D01*
X469223Y336219D01*
X469428Y336359D01*
X469562Y336569D01*
X469604Y336814D01*
X469547Y337056D01*
X469421Y337236D01*
X469062Y337595D01*
X469062Y340331D01*
X470996Y342265D01*
X473732Y342265D01*
X475666Y340331D01*
X475666Y337595D01*
X475267Y337196D01*
X475129Y336989D01*
X475084Y336744D01*
X475137Y336501D01*
X475267Y336312D01*
X491483Y320096D01*
X491690Y319959D01*
X491925Y319913D01*
X492644Y319913D01*
X492888Y319963D01*
X493093Y320103D01*
X493227Y320313D01*
X493269Y320558D01*
X493212Y320800D01*
X493086Y320980D01*
X492948Y321118D01*
X492948Y323854D01*
X494882Y325788D01*
X497618Y325788D01*
X499552Y323854D01*
X499552Y321118D01*
X499414Y320980D01*
X499277Y320773D01*
X499231Y320528D01*
X499284Y320285D01*
X499428Y320082D01*
X499640Y319952D01*
X499856Y319913D01*
X501278Y319913D01*
X501522Y319963D01*
X501727Y320103D01*
X501861Y320313D01*
X501903Y320558D01*
X501846Y320800D01*
X501720Y320980D01*
X500975Y321725D01*
X500975Y324461D01*
X502909Y326395D01*
X505645Y326395D01*
X507579Y324461D01*
X507579Y321725D01*
X506833Y320980D01*
X506696Y320773D01*
X506650Y320528D01*
X506704Y320285D01*
X506848Y320082D01*
X507059Y319952D01*
X507275Y319913D01*
X509060Y319913D01*
X509304Y319963D01*
X509509Y320103D01*
X509643Y320313D01*
X509685Y320558D01*
X509628Y320800D01*
X509502Y320980D01*
X509016Y321466D01*
X509016Y324202D01*
X510950Y326136D01*
X513686Y326136D01*
X514185Y325636D01*
X514393Y325499D01*
X514637Y325453D01*
X514880Y325507D01*
X515069Y325636D01*
X529117Y339684D01*
X529254Y339891D01*
X529300Y340126D01*
X529300Y355227D01*
X529251Y355471D01*
X529110Y355676D01*
X528900Y355810D01*
X528655Y355852D01*
X528413Y355795D01*
X528233Y355669D01*
X527402Y354838D01*
X524666Y354838D01*
X522732Y356772D01*
X522732Y359508D01*
X524666Y361442D01*
X527402Y361442D01*
X528233Y360611D01*
X528440Y360473D01*
X528685Y360428D01*
X528928Y360481D01*
X529131Y360625D01*
X529262Y360837D01*
X529300Y361053D01*
X529300Y396964D01*
X529251Y397208D01*
X529117Y397406D01*
X525577Y400946D01*
X525370Y401083D01*
X525125Y401129D01*
X524882Y401076D01*
X524679Y400932D01*
X524601Y400806D01*
X522510Y398714D01*
X522372Y398507D01*
X522327Y398262D01*
X522380Y398019D01*
X522510Y397830D01*
X524256Y396084D01*
X524256Y393348D01*
X523145Y392237D01*
X523007Y392030D01*
X522962Y391785D01*
X523015Y391542D01*
X523145Y391353D01*
X524764Y389734D01*
X524764Y386998D01*
X522830Y385064D01*
X520094Y385064D01*
X518160Y386998D01*
X518160Y389734D01*
X519271Y390845D01*
X519409Y391052D01*
X519454Y391297D01*
X519401Y391540D01*
X519271Y391729D01*
X517652Y393348D01*
X517652Y396084D01*
X519652Y398084D01*
X519790Y398291D01*
X519835Y398536D01*
X519782Y398779D01*
X519652Y398968D01*
X517906Y400714D01*
X517906Y403450D01*
X519916Y405460D01*
X520054Y405667D01*
X520099Y405912D01*
X520046Y406155D01*
X519902Y406358D01*
X519690Y406489D01*
X519474Y406527D01*
X502368Y406527D01*
X502124Y406478D01*
X501919Y406337D01*
X501785Y406127D01*
X501743Y405882D01*
X501800Y405640D01*
X501926Y405460D01*
X502666Y404720D01*
X502666Y401984D01*
X500732Y400050D01*
X497996Y400050D01*
X496062Y401984D01*
X496062Y404720D01*
X496802Y405460D01*
X496940Y405667D01*
X496985Y405912D01*
X496932Y406155D01*
X496788Y406358D01*
X496576Y406489D01*
X496360Y406527D01*
X465660Y406527D01*
X441967Y430220D01*
X441760Y430357D01*
X441525Y430403D01*
X438888Y430403D01*
X438644Y430354D01*
X438446Y430220D01*
X436978Y428752D01*
X434242Y428752D01*
X432308Y430686D01*
X432308Y433422D01*
X434242Y435356D01*
X436978Y435356D01*
X438446Y433888D01*
X438653Y433751D01*
X438888Y433705D01*
X440467Y433705D01*
X440711Y433755D01*
X440916Y433895D01*
X441050Y434105D01*
X441092Y434350D01*
X441035Y434592D01*
X440909Y434772D01*
X437557Y438125D01*
X437349Y438262D01*
X437115Y438308D01*
X436490Y438308D01*
X435169Y439628D01*
X434962Y439765D01*
X434727Y439811D01*
X427976Y439811D01*
X427732Y439762D01*
X427534Y439628D01*
X426066Y438160D01*
X423330Y438160D01*
X421396Y440094D01*
X421396Y442107D01*
X421347Y442351D01*
X421206Y442556D01*
X420996Y442690D01*
X420771Y442732D01*
X418758Y442732D01*
X416824Y444666D01*
X416824Y447402D01*
X417798Y448376D01*
X417936Y448583D01*
X417981Y448828D01*
X417928Y449071D01*
X417798Y449260D01*
X415798Y451260D01*
X415798Y453099D01*
X415749Y453343D01*
X415608Y453548D01*
X415398Y453682D01*
X415173Y453724D01*
X413240Y453724D01*
X411306Y455658D01*
X411306Y458394D01*
X413240Y460328D01*
X415976Y460328D01*
X417910Y458394D01*
X417910Y456555D01*
X417959Y456311D01*
X418100Y456106D01*
X418309Y455972D01*
X418535Y455930D01*
X420468Y455930D01*
X422402Y453996D01*
X422402Y451260D01*
X421428Y450286D01*
X421290Y450079D01*
X421245Y449834D01*
X421298Y449591D01*
X421428Y449402D01*
X423428Y447402D01*
X423428Y445389D01*
X423478Y445145D01*
X423618Y444940D01*
X423828Y444806D01*
X424053Y444764D01*
X426066Y444764D01*
X427534Y443296D01*
X427741Y443159D01*
X427976Y443113D01*
X434918Y443113D01*
X435162Y443163D01*
X435367Y443303D01*
X435501Y443513D01*
X435543Y443758D01*
X435496Y443977D01*
X434636Y446052D01*
X434636Y448247D01*
X435476Y450274D01*
X437027Y451826D01*
X439055Y452666D01*
X441249Y452666D01*
X443277Y451826D01*
X444828Y450274D01*
X445668Y448247D01*
X445668Y446052D01*
X444828Y444025D01*
X443277Y442473D01*
X441249Y441634D01*
X440226Y441634D01*
X439982Y441584D01*
X439777Y441443D01*
X439643Y441234D01*
X439602Y440989D01*
X439659Y440747D01*
X439784Y440567D01*
X468053Y412298D01*
X468260Y412161D01*
X468495Y412115D01*
X522654Y412115D01*
X543894Y390875D01*
X543894Y346068D01*
X543143Y345317D01*
X543005Y345110D01*
X542960Y344865D01*
X543013Y344622D01*
X543157Y344419D01*
X543369Y344289D01*
X543585Y344250D01*
X545516Y344250D01*
X547450Y342316D01*
X547450Y339580D01*
X545516Y337646D01*
X542780Y337646D01*
X542238Y338188D01*
X542031Y338326D01*
X541786Y338371D01*
X541543Y338318D01*
X541340Y338174D01*
X541210Y337962D01*
X541171Y337746D01*
X541171Y333604D01*
X534345Y326778D01*
X534208Y326571D01*
X534162Y326336D01*
X534162Y324260D01*
X532228Y322326D01*
X529492Y322326D01*
X527558Y324260D01*
X527558Y326996D01*
X529492Y328930D01*
X531568Y328930D01*
X531812Y328980D01*
X532010Y329113D01*
X537686Y334789D01*
X537823Y334996D01*
X537869Y335231D01*
X537869Y344713D01*
X540409Y347253D01*
X540546Y347460D01*
X540592Y347695D01*
X540592Y389248D01*
X540543Y389492D01*
X540409Y389690D01*
X533669Y396430D01*
X533462Y396568D01*
X533217Y396613D01*
X532974Y396560D01*
X532771Y396416D01*
X532641Y396204D01*
X532602Y395988D01*
X532602Y355574D01*
X532652Y355330D01*
X532792Y355125D01*
X533002Y354991D01*
X533247Y354949D01*
X533391Y354983D01*
X536256Y354983D01*
X538190Y353049D01*
X538190Y350314D01*
X536256Y348379D01*
X533401Y348379D01*
X533217Y348414D01*
X532974Y348360D01*
X532771Y348216D01*
X532641Y348005D01*
X532602Y347789D01*
X532602Y338499D01*
X520290Y326187D01*
X520152Y325980D01*
X520107Y325735D01*
X520160Y325492D01*
X520304Y325289D01*
X520516Y325159D01*
X520732Y325120D01*
X523338Y325120D01*
X525272Y323186D01*
X525272Y320450D01*
X523338Y318516D01*
X521262Y318516D01*
X521018Y318467D01*
X520820Y318333D01*
X519098Y316611D01*
X500327Y316611D01*
X500084Y316562D01*
X499879Y316421D01*
X499744Y316211D01*
X499703Y315966D01*
X499737Y315822D01*
X499737Y312957D01*
X497852Y311072D01*
X497714Y310865D01*
X497669Y310620D01*
X497722Y310377D01*
X497852Y310188D01*
X499836Y308204D01*
X499836Y305468D01*
X497902Y303534D01*
X495166Y303534D01*
G37*
G36*
X693830Y451358D02*
X691896Y453292D01*
X691896Y456028D01*
X693830Y457962D01*
X696566Y457962D01*
X698500Y456028D01*
X698500Y453292D01*
X696566Y451358D01*
X693830Y451358D01*
G37*
G36*
X663604Y448818D02*
X661670Y450752D01*
X661670Y453488D01*
X663604Y455422D01*
X666340Y455422D01*
X668274Y453488D01*
X668274Y450752D01*
X666340Y448818D01*
X663604Y448818D01*
G37*
G36*
X645969Y446318D02*
X644035Y448252D01*
X644035Y450987D01*
X645969Y452922D01*
X648705Y452922D01*
X650639Y450987D01*
X650639Y448252D01*
X648705Y446318D01*
X645969Y446318D01*
G37*
G36*
X301146Y445516D02*
X299212Y447450D01*
X299212Y450186D01*
X301146Y452120D01*
X303882Y452120D01*
X305816Y450186D01*
X305816Y447450D01*
X303882Y445516D01*
X301146Y445516D01*
G37*
G36*
X619662Y437642D02*
X617728Y439576D01*
X617728Y442312D01*
X619474Y444058D01*
X619612Y444265D01*
X619657Y444510D01*
X619604Y444753D01*
X619474Y444942D01*
X617728Y446688D01*
X617728Y449424D01*
X619662Y451358D01*
X622398Y451358D01*
X624332Y449424D01*
X624332Y446688D01*
X622586Y444942D01*
X622448Y444735D01*
X622403Y444490D01*
X622456Y444247D01*
X622586Y444058D01*
X624332Y442312D01*
X624332Y439576D01*
X622398Y437642D01*
X619662Y437642D01*
G37*
G36*
X497996Y443484D02*
X496062Y445418D01*
X496062Y448154D01*
X497996Y450088D01*
X500732Y450088D01*
X502666Y448154D01*
X502666Y445418D01*
X500732Y443484D01*
X497996Y443484D01*
G37*
G36*
X454914Y432816D02*
X452980Y434750D01*
X452980Y437486D01*
X454914Y439420D01*
X457649Y439420D01*
X458458Y438611D01*
X458665Y438474D01*
X458910Y438428D01*
X459153Y438482D01*
X459342Y438611D01*
X460470Y439740D01*
X460608Y439947D01*
X460653Y440192D01*
X460600Y440435D01*
X460470Y440624D01*
X459232Y441862D01*
X459232Y443147D01*
X459183Y443391D01*
X459042Y443596D01*
X458832Y443730D01*
X458587Y443772D01*
X458345Y443715D01*
X458165Y443589D01*
X456536Y441960D01*
X453800Y441960D01*
X451866Y443894D01*
X451866Y446630D01*
X453800Y448564D01*
X456536Y448564D01*
X458470Y446630D01*
X458470Y445345D01*
X458520Y445101D01*
X458660Y444896D01*
X458870Y444762D01*
X459115Y444720D01*
X459357Y444777D01*
X459537Y444903D01*
X461166Y446532D01*
X463902Y446532D01*
X465836Y444598D01*
X465836Y441862D01*
X464090Y440116D01*
X463952Y439909D01*
X463907Y439664D01*
X463960Y439421D01*
X464090Y439232D01*
X465328Y437994D01*
X465328Y435258D01*
X463394Y433324D01*
X460658Y433324D01*
X459850Y434133D01*
X459642Y434270D01*
X459398Y434316D01*
X459155Y434262D01*
X458966Y434133D01*
X457649Y432816D01*
X454914Y432816D01*
G37*
G36*
X208920Y438874D02*
X206985Y440808D01*
X206985Y443544D01*
X208920Y445478D01*
X211655Y445478D01*
X213589Y443544D01*
X213589Y440808D01*
X211655Y438874D01*
X208920Y438874D01*
G37*
G36*
X284128Y437642D02*
X282194Y439576D01*
X282194Y442312D01*
X284128Y444246D01*
X286864Y444246D01*
X288798Y442312D01*
X288798Y439576D01*
X286864Y437642D01*
X284128Y437642D01*
G37*
G36*
X497002Y424340D02*
X495068Y426274D01*
X495068Y429010D01*
X497002Y430944D01*
X499127Y430944D01*
X499371Y430993D01*
X499576Y431134D01*
X499710Y431344D01*
X499751Y431589D01*
X499694Y431831D01*
X499569Y432011D01*
X493137Y438443D01*
X492930Y438580D01*
X492695Y438626D01*
X477496Y438626D01*
X477252Y438576D01*
X477054Y438443D01*
X475586Y436975D01*
X474415Y436975D01*
X474171Y436925D01*
X473966Y436784D01*
X473832Y436575D01*
X473790Y436350D01*
X473790Y434736D01*
X471856Y432802D01*
X469120Y432802D01*
X467186Y434736D01*
X467186Y437471D01*
X469120Y439406D01*
X470291Y439406D01*
X470535Y439455D01*
X470740Y439596D01*
X470874Y439805D01*
X470916Y440031D01*
X470916Y441644D01*
X472850Y443579D01*
X475586Y443579D01*
X477054Y442111D01*
X477261Y441973D01*
X477496Y441928D01*
X494322Y441928D01*
X501980Y434269D01*
X502188Y434132D01*
X502422Y434086D01*
X504498Y434086D01*
X506432Y432152D01*
X506432Y429416D01*
X504498Y427482D01*
X502297Y427482D01*
X502053Y427433D01*
X501848Y427292D01*
X501714Y427082D01*
X501672Y426857D01*
X501672Y426274D01*
X499738Y424340D01*
X497002Y424340D01*
G37*
G36*
X249214Y433749D02*
X247280Y435683D01*
X247280Y438419D01*
X249214Y440353D01*
X251950Y440353D01*
X253884Y438419D01*
X253884Y435683D01*
X251950Y433749D01*
X249214Y433749D01*
G37*
G36*
X584356Y431965D02*
X582422Y433899D01*
X582422Y436634D01*
X584356Y438569D01*
X587092Y438569D01*
X589026Y436634D01*
X589026Y433899D01*
X587092Y431965D01*
X584356Y431965D01*
G37*
G36*
X695415Y423686D02*
X695415Y437845D01*
X697926Y437845D01*
X703271Y435632D01*
X707361Y431542D01*
X709574Y426198D01*
X709574Y423686D01*
X695415Y423686D01*
G37*
G36*
X680494Y423686D02*
X680494Y426198D01*
X682708Y431542D01*
X686798Y435632D01*
X692142Y437845D01*
X694653Y437845D01*
X694653Y423686D01*
X680494Y423686D01*
G37*
G36*
X223822Y430168D02*
X221888Y432102D01*
X221888Y434838D01*
X223822Y436772D01*
X226558Y436772D01*
X228492Y434838D01*
X228492Y432102D01*
X226558Y430168D01*
X223822Y430168D01*
G37*
G36*
X619662Y429768D02*
X617728Y431702D01*
X617728Y434438D01*
X619662Y436372D01*
X622398Y436372D01*
X624332Y434438D01*
X624332Y431702D01*
X622398Y429768D01*
X619662Y429768D01*
G37*
G36*
X174146Y429006D02*
X172212Y430940D01*
X172212Y433676D01*
X174146Y435610D01*
X176882Y435610D01*
X178816Y433676D01*
X178816Y430940D01*
X176882Y429006D01*
X174146Y429006D01*
G37*
G36*
X238540Y426309D02*
X236606Y428243D01*
X236606Y430978D01*
X238540Y432913D01*
X241276Y432913D01*
X243210Y430978D01*
X243210Y428243D01*
X241276Y426309D01*
X238540Y426309D01*
G37*
G36*
X254278Y418601D02*
X252344Y420535D01*
X252344Y423270D01*
X254278Y425205D01*
X257014Y425205D01*
X258948Y423270D01*
X258948Y420535D01*
X257014Y418601D01*
X254278Y418601D01*
G37*
G36*
X174555Y418324D02*
X172621Y420258D01*
X172621Y422993D01*
X174555Y424928D01*
X177291Y424928D01*
X179225Y422993D01*
X179225Y420258D01*
X177291Y418324D01*
X174555Y418324D01*
G37*
G36*
X190599Y418280D02*
X188664Y420215D01*
X188664Y422950D01*
X190599Y424884D01*
X193334Y424884D01*
X195268Y422950D01*
X195268Y420215D01*
X193334Y418280D01*
X190599Y418280D01*
G37*
G36*
X222181Y418144D02*
X220247Y420078D01*
X220247Y422814D01*
X222181Y424748D01*
X224916Y424748D01*
X226851Y422814D01*
X226851Y420078D01*
X224916Y418144D01*
X222181Y418144D01*
G37*
G36*
X230278Y418047D02*
X228344Y419981D01*
X228344Y422716D01*
X230278Y424651D01*
X233014Y424651D01*
X234948Y422716D01*
X234948Y419981D01*
X233014Y418047D01*
X230278Y418047D01*
G37*
G36*
X238605Y410014D02*
X236670Y411948D01*
X236670Y414683D01*
X238605Y416618D01*
X241340Y416618D01*
X243277Y414681D01*
X243484Y414543D01*
X243729Y414498D01*
X243972Y414551D01*
X244175Y414695D01*
X244306Y414907D01*
X244344Y415123D01*
X244344Y415270D01*
X246257Y417184D01*
X246395Y417391D01*
X246440Y417636D01*
X246387Y417879D01*
X246257Y418068D01*
X244344Y419981D01*
X244344Y422716D01*
X246278Y424651D01*
X249014Y424651D01*
X250948Y422716D01*
X250948Y419981D01*
X249035Y418068D01*
X248897Y417860D01*
X248852Y417616D01*
X248905Y417373D01*
X249035Y417184D01*
X250948Y415270D01*
X250948Y412535D01*
X249014Y410601D01*
X246278Y410601D01*
X244341Y412538D01*
X244134Y412675D01*
X243889Y412721D01*
X243646Y412667D01*
X243443Y412523D01*
X243313Y412312D01*
X243274Y412096D01*
X243274Y411948D01*
X241340Y410014D01*
X238605Y410014D01*
G37*
G36*
X262278Y418047D02*
X260344Y419981D01*
X260344Y422716D01*
X262278Y424651D01*
X265014Y424651D01*
X266948Y422716D01*
X266948Y419981D01*
X265014Y418047D01*
X262278Y418047D01*
G37*
G36*
X502568Y417068D02*
X500634Y419002D01*
X500634Y421738D01*
X502568Y423672D01*
X505304Y423672D01*
X507238Y421738D01*
X507238Y419002D01*
X505304Y417068D01*
X502568Y417068D01*
G37*
G36*
X721396Y386115D02*
X714582Y388938D01*
X709367Y394153D01*
X706544Y400968D01*
X706544Y408343D01*
X709367Y415157D01*
X714582Y420373D01*
X721396Y423195D01*
X728772Y423195D01*
X735586Y420373D01*
X740802Y415157D01*
X743624Y408343D01*
X743624Y400968D01*
X740802Y394153D01*
X735586Y388938D01*
X728772Y386115D01*
X721396Y386115D01*
G37*
G36*
X695415Y408765D02*
X695415Y422924D01*
X709574Y422924D01*
X709574Y420413D01*
X707361Y415069D01*
X703271Y410979D01*
X697926Y408765D01*
X695415Y408765D01*
G37*
G36*
X692142Y408765D02*
X686798Y410979D01*
X682708Y415069D01*
X680494Y420413D01*
X680494Y422924D01*
X694653Y422924D01*
X694653Y408765D01*
X692142Y408765D01*
G37*
G36*
X763340Y404789D02*
X760210Y406086D01*
X757815Y408481D01*
X756518Y411612D01*
X756518Y414999D01*
X757815Y418129D01*
X760210Y420525D01*
X763340Y421821D01*
X766728Y421821D01*
X769858Y420525D01*
X772254Y418129D01*
X773550Y414999D01*
X773550Y411612D01*
X772254Y408481D01*
X769858Y406086D01*
X766728Y404789D01*
X763340Y404789D01*
G37*
G36*
X493170Y414782D02*
X491236Y416716D01*
X491236Y419452D01*
X493170Y421386D01*
X495906Y421386D01*
X497840Y419452D01*
X497840Y416716D01*
X495906Y414782D01*
X493170Y414782D01*
G37*
G36*
X141634Y413766D02*
X139700Y415700D01*
X139700Y418436D01*
X141634Y420370D01*
X144370Y420370D01*
X146304Y418436D01*
X146304Y415700D01*
X144370Y413766D01*
X141634Y413766D01*
G37*
G36*
X583848Y413512D02*
X581914Y415446D01*
X581914Y418182D01*
X583848Y420116D01*
X586584Y420116D01*
X588518Y418182D01*
X588518Y415446D01*
X586584Y413512D01*
X583848Y413512D01*
G37*
G36*
X206410Y410469D02*
X204475Y412404D01*
X204475Y415139D01*
X206410Y417073D01*
X209145Y417073D01*
X211079Y415139D01*
X211079Y412404D01*
X209145Y410469D01*
X206410Y410469D01*
G37*
G36*
X214601Y410278D02*
X212666Y412213D01*
X212666Y414948D01*
X214601Y416882D01*
X217336Y416882D01*
X219270Y414948D01*
X219270Y412213D01*
X217336Y410278D01*
X214601Y410278D01*
G37*
G36*
X190610Y409910D02*
X188676Y411844D01*
X188676Y414579D01*
X190610Y416514D01*
X193345Y416514D01*
X195204Y414655D01*
X195411Y414518D01*
X195656Y414472D01*
X195899Y414525D01*
X196088Y414655D01*
X198181Y416748D01*
X200916Y416748D01*
X202851Y414814D01*
X202851Y412078D01*
X200916Y410144D01*
X198181Y410144D01*
X196322Y412003D01*
X196115Y412140D01*
X195870Y412186D01*
X195627Y412132D01*
X195438Y412003D01*
X193345Y409910D01*
X190610Y409910D01*
G37*
G36*
X389030Y408432D02*
X387096Y410366D01*
X387096Y413102D01*
X389030Y415036D01*
X391766Y415036D01*
X393700Y413102D01*
X393700Y410366D01*
X391766Y408432D01*
X389030Y408432D01*
G37*
G36*
X579367Y405642D02*
X577433Y407576D01*
X577433Y410312D01*
X579367Y412246D01*
X582103Y412246D01*
X584037Y410312D01*
X584037Y407576D01*
X582103Y405642D01*
X579367Y405642D01*
G37*
G36*
X174605Y401574D02*
X172590Y403589D01*
X172383Y403726D01*
X172138Y403772D01*
X171895Y403719D01*
X171706Y403589D01*
X169866Y401748D01*
X167130Y401748D01*
X165196Y403683D01*
X165196Y406418D01*
X167130Y408352D01*
X169866Y408352D01*
X171881Y406337D01*
X172088Y406200D01*
X172333Y406155D01*
X172576Y406208D01*
X172765Y406337D01*
X174605Y408178D01*
X177341Y408178D01*
X179275Y406244D01*
X179275Y403508D01*
X177341Y401574D01*
X174605Y401574D01*
G37*
G36*
X541470Y395986D02*
X539536Y397920D01*
X539536Y400656D01*
X539707Y400828D01*
X539845Y401035D01*
X539890Y401279D01*
X539837Y401522D01*
X539707Y401711D01*
X537875Y403544D01*
X537875Y406280D01*
X539809Y408214D01*
X542544Y408214D01*
X544479Y406280D01*
X544479Y403544D01*
X544307Y403372D01*
X544169Y403165D01*
X544124Y402921D01*
X544177Y402678D01*
X544307Y402489D01*
X546140Y400656D01*
X546140Y397920D01*
X544205Y395986D01*
X541470Y395986D01*
G37*
G36*
X268380Y397002D02*
X266446Y398936D01*
X266446Y400949D01*
X266397Y401193D01*
X266256Y401398D01*
X266046Y401532D01*
X265821Y401574D01*
X263046Y401574D01*
X261112Y403508D01*
X261112Y406244D01*
X263046Y408178D01*
X265782Y408178D01*
X267716Y406244D01*
X267716Y404231D01*
X267766Y403987D01*
X267906Y403782D01*
X268116Y403648D01*
X268341Y403606D01*
X271116Y403606D01*
X273116Y401606D01*
X273323Y401468D01*
X273568Y401423D01*
X273811Y401476D01*
X274000Y401606D01*
X276000Y403606D01*
X278736Y403606D01*
X279857Y402485D01*
X280064Y402347D01*
X280309Y402302D01*
X280552Y402355D01*
X280755Y402499D01*
X280886Y402711D01*
X280924Y402927D01*
X280924Y405482D01*
X282858Y407416D01*
X285594Y407416D01*
X287528Y405482D01*
X287528Y402746D01*
X285594Y400812D01*
X282858Y400812D01*
X281737Y401933D01*
X281530Y402071D01*
X281285Y402116D01*
X281042Y402063D01*
X280839Y401919D01*
X280709Y401707D01*
X280670Y401491D01*
X280670Y398936D01*
X278736Y397002D01*
X276000Y397002D01*
X274000Y399002D01*
X273793Y399140D01*
X273548Y399185D01*
X273305Y399132D01*
X273116Y399002D01*
X271116Y397002D01*
X268380Y397002D01*
G37*
G36*
X14368Y396823D02*
X14368Y398737D01*
X16125Y402979D01*
X19371Y406225D01*
X23613Y407982D01*
X25527Y407982D01*
X25527Y396823D01*
X14368Y396823D01*
G37*
G36*
X26289Y396823D02*
X26289Y407982D01*
X28203Y407982D01*
X32445Y406225D01*
X35691Y402979D01*
X37448Y398737D01*
X37448Y396823D01*
X26289Y396823D01*
G37*
G36*
X572164Y400812D02*
X570230Y402746D01*
X570230Y405482D01*
X572164Y407416D01*
X574900Y407416D01*
X576834Y405482D01*
X576834Y402746D01*
X574900Y400812D01*
X572164Y400812D01*
G37*
G36*
X230858Y400050D02*
X228924Y401984D01*
X228924Y404720D01*
X230858Y406654D01*
X233594Y406654D01*
X234643Y405604D01*
X234851Y405467D01*
X235095Y405421D01*
X235338Y405475D01*
X235527Y405604D01*
X236958Y407035D01*
X239694Y407035D01*
X241628Y405101D01*
X241628Y402365D01*
X239694Y400431D01*
X236958Y400431D01*
X235908Y401481D01*
X235701Y401618D01*
X235456Y401664D01*
X235213Y401610D01*
X235024Y401481D01*
X233594Y400050D01*
X230858Y400050D01*
G37*
G36*
X249330Y400050D02*
X247396Y401984D01*
X247396Y404720D01*
X249330Y406654D01*
X252066Y406654D01*
X254000Y404720D01*
X254000Y401984D01*
X252066Y400050D01*
X249330Y400050D01*
G37*
G36*
X214677Y397211D02*
X212743Y399145D01*
X212743Y401881D01*
X214677Y403815D01*
X217413Y403815D01*
X219347Y401881D01*
X219347Y399145D01*
X217413Y397211D01*
X214677Y397211D01*
G37*
G36*
X550066Y396240D02*
X548132Y398174D01*
X548132Y400910D01*
X550066Y402844D01*
X552802Y402844D01*
X554736Y400910D01*
X554736Y398174D01*
X552802Y396240D01*
X550066Y396240D01*
G37*
G36*
X557940Y396240D02*
X556006Y398174D01*
X556006Y400910D01*
X557940Y402844D01*
X560676Y402844D01*
X562610Y400910D01*
X562610Y398174D01*
X560676Y396240D01*
X557940Y396240D01*
G37*
G36*
X634490Y383439D02*
X631360Y384736D01*
X628965Y387131D01*
X627668Y390262D01*
X627668Y393649D01*
X628965Y396779D01*
X631360Y399175D01*
X634490Y400471D01*
X637878Y400471D01*
X641008Y399175D01*
X643404Y396779D01*
X644700Y393649D01*
X644700Y390262D01*
X643404Y387131D01*
X641008Y384736D01*
X637878Y383439D01*
X634490Y383439D01*
G37*
G36*
X497742Y392176D02*
X495808Y394110D01*
X495808Y396846D01*
X497742Y398780D01*
X500478Y398780D01*
X502412Y396846D01*
X502412Y394110D01*
X500478Y392176D01*
X497742Y392176D01*
G37*
G36*
X180793Y391765D02*
X178859Y393699D01*
X178859Y396435D01*
X180793Y398369D01*
X183528Y398369D01*
X185463Y396435D01*
X185463Y393699D01*
X183528Y391765D01*
X180793Y391765D01*
G37*
G36*
X763340Y379789D02*
X760210Y381086D01*
X757815Y383481D01*
X756518Y386612D01*
X756518Y389999D01*
X757815Y393129D01*
X760210Y395525D01*
X763340Y396821D01*
X766728Y396821D01*
X769858Y395525D01*
X772254Y393129D01*
X773550Y389999D01*
X773550Y386612D01*
X772254Y383481D01*
X769858Y381086D01*
X766728Y379789D01*
X763340Y379789D01*
G37*
G36*
X208182Y389753D02*
X206248Y391687D01*
X206248Y394423D01*
X208182Y396357D01*
X210918Y396357D01*
X212852Y394423D01*
X212852Y391687D01*
X210918Y389753D01*
X208182Y389753D01*
G37*
G36*
X23613Y384902D02*
X19371Y386659D01*
X16125Y389905D01*
X14368Y394147D01*
X14368Y396061D01*
X25527Y396061D01*
X25527Y384902D01*
X23613Y384902D01*
G37*
G36*
X26289Y384902D02*
X26289Y396061D01*
X37448Y396061D01*
X37448Y394147D01*
X35691Y389905D01*
X32445Y386659D01*
X28203Y384902D01*
X26289Y384902D01*
G37*
G36*
X600151Y386129D02*
X598217Y388064D01*
X598217Y388214D01*
X598167Y388458D01*
X598027Y388663D01*
X597817Y388797D01*
X597572Y388839D01*
X597330Y388782D01*
X597150Y388656D01*
X595278Y386784D01*
X592542Y386784D01*
X590608Y388718D01*
X590608Y391454D01*
X592542Y393388D01*
X595278Y393388D01*
X597212Y391454D01*
X597212Y391303D01*
X597261Y391059D01*
X597402Y390854D01*
X597612Y390720D01*
X597857Y390678D01*
X598099Y390736D01*
X598279Y390861D01*
X600151Y392733D01*
X602887Y392733D01*
X604821Y390799D01*
X604821Y388064D01*
X602887Y386129D01*
X600151Y386129D01*
G37*
G36*
X198660Y378831D02*
X196726Y380766D01*
X196726Y383501D01*
X198793Y385568D01*
X198877Y385626D01*
X199011Y385835D01*
X199053Y386080D01*
X198995Y386322D01*
X198870Y386502D01*
X197866Y387506D01*
X197866Y390242D01*
X199800Y392176D01*
X202536Y392176D01*
X204470Y390242D01*
X204470Y387506D01*
X202403Y385440D01*
X202319Y385382D01*
X202185Y385172D01*
X202143Y384927D01*
X202201Y384685D01*
X202326Y384505D01*
X203330Y383501D01*
X203330Y380766D01*
X201396Y378831D01*
X198660Y378831D01*
G37*
G36*
X262284Y384810D02*
X260350Y386744D01*
X260350Y389480D01*
X262284Y391414D01*
X265020Y391414D01*
X266954Y389480D01*
X266954Y386744D01*
X265020Y384810D01*
X262284Y384810D01*
G37*
G36*
X497742Y383794D02*
X495808Y385728D01*
X495808Y388464D01*
X497742Y390398D01*
X500478Y390398D01*
X502412Y388464D01*
X502412Y385728D01*
X500478Y383794D01*
X497742Y383794D01*
G37*
G36*
X659890Y370739D02*
X656760Y372036D01*
X654365Y374431D01*
X653068Y377562D01*
X653068Y380949D01*
X654365Y384079D01*
X656760Y386475D01*
X659890Y387771D01*
X663278Y387771D01*
X666408Y386475D01*
X668804Y384079D01*
X670100Y380949D01*
X670100Y377562D01*
X668804Y374431D01*
X666408Y372036D01*
X663278Y370739D01*
X659890Y370739D01*
G37*
G36*
X218088Y379478D02*
X216154Y381412D01*
X216154Y382008D01*
X216105Y382251D01*
X215964Y382457D01*
X215754Y382591D01*
X215509Y382632D01*
X215267Y382575D01*
X215087Y382450D01*
X213040Y380402D01*
X210304Y380402D01*
X208370Y382336D01*
X208370Y385072D01*
X210304Y387006D01*
X213040Y387006D01*
X214974Y385072D01*
X214974Y384477D01*
X215023Y384233D01*
X215164Y384028D01*
X215374Y383894D01*
X215619Y383852D01*
X215861Y383909D01*
X216041Y384035D01*
X218088Y386082D01*
X220824Y386082D01*
X222758Y384148D01*
X222758Y381412D01*
X220824Y379478D01*
X218088Y379478D01*
G37*
G36*
X282661Y378517D02*
X280727Y380451D01*
X280727Y381619D01*
X280677Y381863D01*
X280537Y382068D01*
X280327Y382202D01*
X280082Y382244D01*
X279840Y382187D01*
X279660Y382061D01*
X277974Y380375D01*
X275238Y380375D01*
X273304Y382309D01*
X273304Y385045D01*
X275238Y386979D01*
X277974Y386979D01*
X279908Y385045D01*
X279908Y383877D01*
X279958Y383633D01*
X280098Y383428D01*
X280308Y383294D01*
X280553Y383252D01*
X280795Y383309D01*
X280975Y383435D01*
X282661Y385121D01*
X285397Y385121D01*
X287331Y383187D01*
X287331Y380451D01*
X285397Y378517D01*
X282661Y378517D01*
G37*
G36*
X566068Y379730D02*
X564134Y381664D01*
X564134Y384400D01*
X566068Y386334D01*
X568804Y386334D01*
X570738Y384400D01*
X570738Y381664D01*
X568804Y379730D01*
X566068Y379730D01*
G37*
G36*
X238453Y378956D02*
X236519Y380890D01*
X236519Y383626D01*
X238453Y385560D01*
X241189Y385560D01*
X243123Y383626D01*
X243123Y380890D01*
X241189Y378956D01*
X238453Y378956D01*
G37*
G36*
X398682Y279654D02*
X396748Y281588D01*
X396748Y284324D01*
X398682Y286258D01*
X398951Y286258D01*
X399195Y286308D01*
X399400Y286448D01*
X399534Y286658D01*
X399576Y286903D01*
X399519Y287145D01*
X399393Y287325D01*
X397627Y289092D01*
X397627Y291827D01*
X399561Y293761D01*
X401874Y293761D01*
X402118Y293811D01*
X402323Y293952D01*
X402457Y294161D01*
X402499Y294386D01*
X402499Y295573D01*
X402450Y295817D01*
X402309Y296022D01*
X402099Y296156D01*
X401854Y296198D01*
X401612Y296141D01*
X401432Y296015D01*
X400745Y295328D01*
X398009Y295328D01*
X396046Y297291D01*
X396025Y297393D01*
X395885Y297598D01*
X395675Y297732D01*
X395430Y297774D01*
X395188Y297717D01*
X395008Y297591D01*
X393054Y295638D01*
X390319Y295638D01*
X388384Y297572D01*
X388384Y300307D01*
X390319Y302242D01*
X390588Y302242D01*
X390832Y302291D01*
X391037Y302432D01*
X391171Y302641D01*
X391213Y302886D01*
X391155Y303129D01*
X391030Y303308D01*
X389128Y305210D01*
X389128Y307946D01*
X391138Y309956D01*
X391276Y310163D01*
X391321Y310408D01*
X391268Y310651D01*
X391124Y310854D01*
X390912Y310985D01*
X390696Y311023D01*
X390681Y311023D01*
X388747Y312957D01*
X388747Y315693D01*
X390681Y317627D01*
X393417Y317627D01*
X395351Y315693D01*
X395351Y312957D01*
X393341Y310947D01*
X393203Y310740D01*
X393158Y310495D01*
X393211Y310252D01*
X393355Y310049D01*
X393567Y309919D01*
X393783Y309880D01*
X393798Y309880D01*
X395732Y307946D01*
X395732Y305210D01*
X393798Y303276D01*
X393529Y303276D01*
X393285Y303227D01*
X393080Y303086D01*
X392946Y302876D01*
X392904Y302631D01*
X392961Y302389D01*
X393087Y302209D01*
X395017Y300279D01*
X395038Y300176D01*
X395179Y299971D01*
X395388Y299837D01*
X395633Y299795D01*
X395875Y299853D01*
X396055Y299978D01*
X398009Y301932D01*
X400745Y301932D01*
X401432Y301245D01*
X401639Y301107D01*
X401884Y301062D01*
X402127Y301115D01*
X402330Y301259D01*
X402461Y301471D01*
X402499Y301687D01*
X402499Y314344D01*
X404496Y316341D01*
X404633Y316548D01*
X404679Y316783D01*
X404679Y323877D01*
X404630Y324121D01*
X404496Y324319D01*
X404419Y324396D01*
X404212Y324534D01*
X403967Y324579D01*
X403724Y324526D01*
X403521Y324382D01*
X403391Y324170D01*
X403352Y323954D01*
X403352Y321212D01*
X401418Y319278D01*
X398682Y319278D01*
X396682Y321278D01*
X396475Y321416D01*
X396230Y321461D01*
X395987Y321408D01*
X395798Y321278D01*
X393798Y319278D01*
X391062Y319278D01*
X389128Y321212D01*
X389128Y323948D01*
X391062Y325882D01*
X393798Y325882D01*
X395798Y323882D01*
X396005Y323744D01*
X396250Y323699D01*
X396493Y323752D01*
X396682Y323882D01*
X398682Y325882D01*
X401418Y325882D01*
X401432Y325868D01*
X401639Y325730D01*
X401884Y325685D01*
X402127Y325738D01*
X402330Y325882D01*
X402461Y326094D01*
X402499Y326310D01*
X402499Y327232D01*
X402450Y327476D01*
X402309Y327681D01*
X402099Y327815D01*
X401854Y327857D01*
X401612Y327800D01*
X401432Y327674D01*
X401418Y327660D01*
X398682Y327660D01*
X396682Y329660D01*
X396475Y329798D01*
X396230Y329843D01*
X395987Y329790D01*
X395798Y329660D01*
X393798Y327660D01*
X391062Y327660D01*
X389128Y329594D01*
X389128Y332330D01*
X391128Y334330D01*
X391266Y334537D01*
X391311Y334782D01*
X391258Y335025D01*
X391128Y335214D01*
X389128Y337214D01*
X389128Y339950D01*
X391062Y341884D01*
X393798Y341884D01*
X395732Y339950D01*
X395732Y337214D01*
X393732Y335214D01*
X393594Y335007D01*
X393549Y334762D01*
X393602Y334519D01*
X393732Y334330D01*
X395798Y332264D01*
X396005Y332126D01*
X396250Y332081D01*
X396493Y332134D01*
X396682Y332264D01*
X398682Y334264D01*
X401418Y334264D01*
X401432Y334250D01*
X401639Y334112D01*
X401884Y334067D01*
X402127Y334120D01*
X402330Y334264D01*
X402461Y334476D01*
X402499Y334692D01*
X402499Y357477D01*
X402450Y357721D01*
X402316Y357919D01*
X385019Y375216D01*
X384812Y375353D01*
X384577Y375399D01*
X378608Y375399D01*
X378364Y375350D01*
X378166Y375216D01*
X376698Y373748D01*
X373962Y373748D01*
X372028Y375682D01*
X372028Y378418D01*
X373962Y380352D01*
X376698Y380352D01*
X378166Y378884D01*
X378373Y378747D01*
X378608Y378701D01*
X386204Y378701D01*
X405801Y359104D01*
X405801Y334510D01*
X405851Y334266D01*
X405991Y334061D01*
X406201Y333927D01*
X406446Y333885D01*
X406688Y333942D01*
X406868Y334068D01*
X407064Y334264D01*
X409800Y334264D01*
X411734Y332330D01*
X411734Y329594D01*
X409800Y327660D01*
X407334Y327660D01*
X407090Y327611D01*
X406885Y327470D01*
X406751Y327260D01*
X406709Y327015D01*
X406766Y326773D01*
X406892Y326593D01*
X407981Y325504D01*
X407981Y315156D01*
X405984Y313159D01*
X405847Y312952D01*
X405801Y312717D01*
X405801Y302506D01*
X405851Y302262D01*
X405991Y302057D01*
X406201Y301923D01*
X406446Y301881D01*
X406688Y301938D01*
X406868Y302064D01*
X407064Y302260D01*
X409800Y302260D01*
X411800Y300260D01*
X412007Y300122D01*
X412252Y300077D01*
X412495Y300130D01*
X412684Y300260D01*
X414684Y302260D01*
X417420Y302260D01*
X419354Y300326D01*
X419354Y297590D01*
X417420Y295656D01*
X414684Y295656D01*
X412684Y297656D01*
X412477Y297794D01*
X412232Y297839D01*
X411989Y297786D01*
X411800Y297656D01*
X409800Y295656D01*
X407268Y295656D01*
X407024Y295607D01*
X406819Y295466D01*
X406685Y295256D01*
X406643Y295011D01*
X406700Y294769D01*
X406826Y294589D01*
X407091Y294324D01*
X407091Y287662D01*
X403535Y284106D01*
X403398Y283899D01*
X403352Y283664D01*
X403352Y281588D01*
X401418Y279654D01*
X398682Y279654D01*
G37*
G36*
X246282Y370332D02*
X244348Y372266D01*
X244348Y375002D01*
X246282Y376936D01*
X249018Y376936D01*
X250952Y375002D01*
X250952Y372266D01*
X249018Y370332D01*
X246282Y370332D01*
G37*
G36*
X198550Y370329D02*
X196616Y372263D01*
X196616Y374998D01*
X198550Y376933D01*
X201286Y376933D01*
X203220Y374998D01*
X203220Y372263D01*
X201286Y370329D01*
X198550Y370329D01*
G37*
G36*
X214418Y370287D02*
X212484Y372221D01*
X212484Y374956D01*
X214418Y376891D01*
X217154Y376891D01*
X219088Y374956D01*
X219088Y372221D01*
X217154Y370287D01*
X214418Y370287D01*
G37*
G36*
X254606Y370273D02*
X252671Y372208D01*
X252671Y374943D01*
X254606Y376877D01*
X257341Y376877D01*
X259275Y374943D01*
X259275Y372208D01*
X257341Y370273D01*
X254606Y370273D01*
G37*
G36*
X158735Y370144D02*
X156801Y372078D01*
X156801Y374814D01*
X158735Y376748D01*
X161470Y376748D01*
X163384Y374835D01*
X163591Y374697D01*
X163836Y374652D01*
X164079Y374705D01*
X164268Y374835D01*
X166181Y376748D01*
X168916Y376748D01*
X170851Y374814D01*
X170851Y372078D01*
X168916Y370144D01*
X166181Y370144D01*
X164268Y372057D01*
X164060Y372195D01*
X163816Y372240D01*
X163573Y372187D01*
X163384Y372057D01*
X161470Y370144D01*
X158735Y370144D01*
G37*
G36*
X182599Y370008D02*
X180664Y371942D01*
X180664Y374677D01*
X182599Y376612D01*
X185334Y376612D01*
X187268Y374677D01*
X187268Y371942D01*
X185334Y370008D01*
X182599Y370008D01*
G37*
G36*
X230278Y369687D02*
X228344Y371622D01*
X228344Y374357D01*
X230278Y376291D01*
X233014Y376291D01*
X234948Y374357D01*
X234948Y371622D01*
X233014Y369687D01*
X230278Y369687D01*
G37*
G36*
X634490Y358039D02*
X631360Y359336D01*
X628965Y361731D01*
X627668Y364862D01*
X627668Y368249D01*
X628965Y371379D01*
X631360Y373775D01*
X634490Y375071D01*
X637878Y375071D01*
X641008Y373775D01*
X643404Y371379D01*
X644700Y368249D01*
X644700Y364862D01*
X643404Y361731D01*
X641008Y359336D01*
X637878Y358039D01*
X634490Y358039D01*
G37*
G36*
X23916Y351426D02*
X20234Y352951D01*
X17417Y355768D01*
X15892Y359450D01*
X15892Y363434D01*
X17417Y367116D01*
X20234Y369933D01*
X23916Y371458D01*
X27900Y371458D01*
X31582Y369933D01*
X34399Y367116D01*
X35924Y363434D01*
X35924Y359450D01*
X34399Y355768D01*
X31582Y352951D01*
X27900Y351426D01*
X23916Y351426D01*
G37*
G36*
X182244Y362081D02*
X180310Y364015D01*
X180310Y366751D01*
X182244Y368685D01*
X184979Y368685D01*
X186914Y366751D01*
X186914Y364015D01*
X184979Y362081D01*
X182244Y362081D01*
G37*
G36*
X158290Y362058D02*
X156356Y363993D01*
X156356Y366728D01*
X158290Y368662D01*
X161025Y368662D01*
X162960Y366728D01*
X162960Y363993D01*
X161025Y362058D01*
X158290Y362058D01*
G37*
G36*
X262284Y361950D02*
X260350Y363884D01*
X260350Y366620D01*
X262284Y368554D01*
X265020Y368554D01*
X266954Y366620D01*
X266954Y363884D01*
X265020Y361950D01*
X262284Y361950D01*
G37*
G36*
X246149Y361817D02*
X244215Y363751D01*
X244215Y366486D01*
X246149Y368421D01*
X248884Y368421D01*
X250819Y366486D01*
X250819Y363751D01*
X248884Y361817D01*
X246149Y361817D01*
G37*
G36*
X270278Y361687D02*
X268344Y363622D01*
X268344Y366357D01*
X270278Y368291D01*
X273014Y368291D01*
X274948Y366357D01*
X274948Y363622D01*
X273014Y361687D01*
X270278Y361687D01*
G37*
G36*
X369726Y353568D02*
X367792Y355502D01*
X367792Y357515D01*
X367743Y357759D01*
X367602Y357964D01*
X367392Y358098D01*
X367167Y358140D01*
X365154Y358140D01*
X363220Y360074D01*
X363220Y362810D01*
X365154Y364744D01*
X367890Y364744D01*
X369824Y362810D01*
X369824Y360797D01*
X369874Y360553D01*
X370014Y360348D01*
X370224Y360214D01*
X370449Y360172D01*
X372462Y360172D01*
X374396Y358238D01*
X374396Y355502D01*
X372462Y353568D01*
X369726Y353568D01*
G37*
G36*
X553329Y357298D02*
X551395Y359232D01*
X551395Y361968D01*
X553329Y363902D01*
X556064Y363902D01*
X557999Y361968D01*
X557999Y359232D01*
X556064Y357298D01*
X553329Y357298D01*
G37*
G36*
X126394Y355854D02*
X124460Y357788D01*
X124460Y360524D01*
X126394Y362458D01*
X129130Y362458D01*
X130114Y361474D01*
X130321Y361336D01*
X130566Y361291D01*
X130809Y361344D01*
X130998Y361474D01*
X131982Y362458D01*
X134718Y362458D01*
X136652Y360524D01*
X136652Y357788D01*
X134718Y355854D01*
X131982Y355854D01*
X130998Y356838D01*
X130791Y356976D01*
X130546Y357021D01*
X130303Y356968D01*
X130114Y356838D01*
X129130Y355854D01*
X126394Y355854D01*
G37*
G36*
X659890Y345339D02*
X656760Y346636D01*
X654365Y349031D01*
X653068Y352162D01*
X653068Y355549D01*
X654365Y358679D01*
X656760Y361075D01*
X659890Y362371D01*
X663278Y362371D01*
X666408Y361075D01*
X668804Y358679D01*
X670100Y355549D01*
X670100Y352162D01*
X668804Y349031D01*
X666408Y346636D01*
X663278Y345339D01*
X659890Y345339D01*
G37*
G36*
X450726Y355600D02*
X448792Y357534D01*
X448792Y360270D01*
X450726Y362204D01*
X453462Y362204D01*
X455396Y360270D01*
X455396Y357534D01*
X453462Y355600D01*
X450726Y355600D01*
G37*
G36*
X215966Y343348D02*
X214032Y345282D01*
X214032Y347916D01*
X213983Y348159D01*
X213842Y348365D01*
X213632Y348499D01*
X213407Y348541D01*
X212807Y348541D01*
X210873Y350475D01*
X210873Y353210D01*
X212649Y354987D01*
X212786Y355194D01*
X212832Y355439D01*
X212779Y355682D01*
X212649Y355871D01*
X212251Y356268D01*
X212251Y359004D01*
X214186Y360938D01*
X216921Y360938D01*
X218855Y359004D01*
X218855Y356268D01*
X217079Y354492D01*
X216942Y354285D01*
X216896Y354040D01*
X216949Y353797D01*
X217079Y353608D01*
X217477Y353210D01*
X217477Y350577D01*
X217526Y350333D01*
X217667Y350128D01*
X217876Y349994D01*
X218102Y349952D01*
X218702Y349952D01*
X220636Y348018D01*
X220636Y345282D01*
X218702Y343348D01*
X215966Y343348D01*
G37*
G36*
X246790Y353568D02*
X244856Y355502D01*
X244856Y358238D01*
X246790Y360172D01*
X249526Y360172D01*
X251460Y358238D01*
X251460Y355502D01*
X249526Y353568D01*
X246790Y353568D01*
G37*
G36*
X502822Y353568D02*
X500888Y355502D01*
X500888Y358238D01*
X502822Y360172D01*
X505558Y360172D01*
X507492Y358238D01*
X507492Y355502D01*
X505558Y353568D01*
X502822Y353568D01*
G37*
G36*
X282760Y352044D02*
X280825Y353978D01*
X280825Y356714D01*
X282760Y358648D01*
X285495Y358648D01*
X287429Y356714D01*
X287429Y353978D01*
X285495Y352044D01*
X282760Y352044D01*
G37*
G36*
X254664Y352044D02*
X252730Y353978D01*
X252730Y356714D01*
X254664Y358648D01*
X257400Y358648D01*
X259334Y356714D01*
X259334Y353978D01*
X257400Y352044D01*
X254664Y352044D01*
G37*
G36*
X118266Y351282D02*
X116332Y353216D01*
X116332Y355952D01*
X118266Y357886D01*
X121002Y357886D01*
X122936Y355952D01*
X122936Y353216D01*
X121002Y351282D01*
X118266Y351282D01*
G37*
G36*
X579501Y347599D02*
X577567Y349533D01*
X577567Y352269D01*
X579501Y354203D01*
X582237Y354203D01*
X584171Y352269D01*
X584171Y349533D01*
X582237Y347599D01*
X579501Y347599D01*
G37*
G36*
X188380Y346320D02*
X186446Y348254D01*
X186446Y350990D01*
X188380Y352924D01*
X191116Y352924D01*
X193050Y350990D01*
X193050Y348254D01*
X191116Y346320D01*
X188380Y346320D01*
G37*
G36*
X370488Y339852D02*
X368554Y341786D01*
X368554Y343475D01*
X368505Y343719D01*
X368364Y343924D01*
X368154Y344058D01*
X367929Y344100D01*
X365826Y344100D01*
X363892Y346034D01*
X363892Y348770D01*
X365826Y350704D01*
X368562Y350704D01*
X370496Y348770D01*
X370496Y347081D01*
X370546Y346837D01*
X370686Y346632D01*
X370896Y346498D01*
X371121Y346456D01*
X373224Y346456D01*
X375158Y344522D01*
X375158Y341786D01*
X373224Y339852D01*
X370488Y339852D01*
G37*
G36*
X634490Y332639D02*
X631360Y333936D01*
X628965Y336331D01*
X627668Y339462D01*
X627668Y342849D01*
X628965Y345979D01*
X631360Y348375D01*
X634490Y349671D01*
X637878Y349671D01*
X641008Y348375D01*
X643404Y345979D01*
X644700Y342849D01*
X644700Y339462D01*
X643404Y336331D01*
X641008Y333936D01*
X637878Y332639D01*
X634490Y332639D01*
G37*
G36*
X281404Y342970D02*
X279470Y344904D01*
X279470Y347640D01*
X281404Y349574D01*
X284140Y349574D01*
X286074Y347640D01*
X286074Y344904D01*
X284140Y342970D01*
X281404Y342970D01*
G37*
G36*
X166526Y342900D02*
X164592Y344834D01*
X164592Y347570D01*
X166526Y349504D01*
X169262Y349504D01*
X171196Y347570D01*
X171196Y344834D01*
X169262Y342900D01*
X166526Y342900D01*
G37*
G36*
X152556Y340614D02*
X150622Y342548D01*
X150622Y345284D01*
X152556Y347218D01*
X155292Y347218D01*
X157226Y345284D01*
X157226Y342548D01*
X155292Y340614D01*
X152556Y340614D01*
G37*
G36*
X267618Y340288D02*
X265684Y342222D01*
X265684Y344958D01*
X267618Y346892D01*
X270354Y346892D01*
X272288Y344958D01*
X272288Y342222D01*
X270354Y340288D01*
X267618Y340288D01*
G37*
G36*
X328048Y339778D02*
X326114Y341712D01*
X326114Y344448D01*
X328048Y346382D01*
X330784Y346382D01*
X332718Y344448D01*
X332718Y341712D01*
X330784Y339778D01*
X328048Y339778D01*
G37*
G36*
X241456Y338348D02*
X239522Y340282D01*
X239522Y343018D01*
X241456Y344952D01*
X244192Y344952D01*
X246126Y343018D01*
X246126Y340282D01*
X244192Y338348D01*
X241456Y338348D01*
G37*
G36*
X361090Y337312D02*
X359156Y339246D01*
X359156Y341982D01*
X361090Y343916D01*
X363826Y343916D01*
X365760Y341982D01*
X365760Y339246D01*
X363826Y337312D01*
X361090Y337312D01*
G37*
G36*
X430693Y327653D02*
X428759Y329587D01*
X428759Y332323D01*
X430832Y334396D01*
X430970Y334603D01*
X431015Y334848D01*
X430962Y335091D01*
X430818Y335294D01*
X430606Y335424D01*
X430528Y335438D01*
X428569Y337397D01*
X428569Y340133D01*
X430503Y342067D01*
X433239Y342067D01*
X435173Y340133D01*
X435173Y337397D01*
X433100Y335324D01*
X432962Y335116D01*
X432917Y334872D01*
X432970Y334629D01*
X433114Y334426D01*
X433326Y334295D01*
X433404Y334281D01*
X435363Y332323D01*
X435363Y329587D01*
X433429Y327653D01*
X430693Y327653D01*
G37*
G36*
X206150Y334772D02*
X204216Y336706D01*
X204216Y339442D01*
X206150Y341376D01*
X208886Y341376D01*
X210820Y339442D01*
X210820Y336706D01*
X208886Y334772D01*
X206150Y334772D01*
G37*
G36*
X781968Y333502D02*
X780034Y335436D01*
X780034Y338172D01*
X781968Y340106D01*
X784704Y340106D01*
X786638Y338172D01*
X786638Y335436D01*
X784704Y333502D01*
X781968Y333502D01*
G37*
G36*
X659890Y319939D02*
X656760Y321236D01*
X654365Y323631D01*
X653068Y326762D01*
X653068Y330149D01*
X654365Y333279D01*
X656760Y335675D01*
X659890Y336971D01*
X663278Y336971D01*
X666408Y335675D01*
X668804Y333279D01*
X670100Y330149D01*
X670100Y326762D01*
X668804Y323631D01*
X666408Y321236D01*
X663278Y319939D01*
X659890Y319939D01*
G37*
G36*
X17682Y329438D02*
X15748Y331372D01*
X15748Y334108D01*
X17682Y336042D01*
X20418Y336042D01*
X22352Y334108D01*
X22352Y331372D01*
X20418Y329438D01*
X17682Y329438D01*
G37*
G36*
X25556Y328676D02*
X23622Y330610D01*
X23622Y333346D01*
X25556Y335280D01*
X28292Y335280D01*
X30226Y333346D01*
X30226Y330610D01*
X28292Y328676D01*
X25556Y328676D01*
G37*
G36*
X752758Y318008D02*
X750824Y319942D01*
X750824Y322678D01*
X752758Y324612D01*
X755613Y324612D01*
X755797Y324578D01*
X756040Y324631D01*
X756243Y324775D01*
X756374Y324987D01*
X756412Y325203D01*
X756412Y327035D01*
X756363Y327279D01*
X756222Y327484D01*
X756012Y327618D01*
X755787Y327660D01*
X753012Y327660D01*
X751078Y329594D01*
X751078Y332330D01*
X753012Y334264D01*
X755748Y334264D01*
X757682Y332330D01*
X757682Y329809D01*
X757732Y329565D01*
X757872Y329360D01*
X758082Y329226D01*
X758307Y329184D01*
X761082Y329184D01*
X763016Y327250D01*
X763016Y324514D01*
X761082Y322580D01*
X758227Y322580D01*
X758043Y322614D01*
X757800Y322561D01*
X757597Y322417D01*
X757467Y322205D01*
X757428Y321989D01*
X757428Y319942D01*
X755494Y318008D01*
X752758Y318008D01*
G37*
G36*
X370488Y327655D02*
X368554Y329589D01*
X368554Y332325D01*
X370488Y334259D01*
X373224Y334259D01*
X375158Y332325D01*
X375158Y329589D01*
X373224Y327655D01*
X370488Y327655D01*
G37*
G36*
X415423Y327637D02*
X413489Y329571D01*
X413489Y332306D01*
X415423Y334241D01*
X418158Y334241D01*
X420093Y332306D01*
X420093Y329571D01*
X418158Y327637D01*
X415423Y327637D01*
G37*
G36*
X438927Y327519D02*
X436993Y329453D01*
X436993Y332189D01*
X438927Y334123D01*
X441663Y334123D01*
X443597Y332189D01*
X443597Y329453D01*
X441663Y327519D01*
X438927Y327519D01*
G37*
G36*
X204118Y323342D02*
X202184Y325276D01*
X202184Y328012D01*
X204118Y329946D01*
X206854Y329946D01*
X208788Y328012D01*
X208788Y325276D01*
X206854Y323342D01*
X204118Y323342D01*
G37*
G36*
X559845Y321339D02*
X557911Y323274D01*
X557911Y326009D01*
X559845Y327943D01*
X562581Y327943D01*
X564515Y326009D01*
X564515Y323274D01*
X562581Y321339D01*
X559845Y321339D01*
G37*
G36*
X585118Y319786D02*
X583184Y321720D01*
X583184Y324456D01*
X585118Y326390D01*
X587854Y326390D01*
X589788Y324456D01*
X589788Y321720D01*
X587854Y319786D01*
X585118Y319786D01*
G37*
G36*
X430686Y319278D02*
X428752Y321212D01*
X428752Y323948D01*
X430686Y325882D01*
X433422Y325882D01*
X435356Y323948D01*
X435356Y321212D01*
X433422Y319278D01*
X430686Y319278D01*
G37*
G36*
X455070Y311658D02*
X453136Y313592D01*
X453136Y316328D01*
X455136Y318328D01*
X455274Y318535D01*
X455319Y318780D01*
X455266Y319023D01*
X455136Y319212D01*
X453136Y321212D01*
X453136Y323948D01*
X455070Y325882D01*
X457806Y325882D01*
X459740Y323948D01*
X459740Y321212D01*
X457740Y319212D01*
X457602Y319005D01*
X457557Y318760D01*
X457610Y318517D01*
X457740Y318328D01*
X459740Y316328D01*
X459740Y313592D01*
X457806Y311658D01*
X455070Y311658D01*
G37*
G36*
X213008Y318008D02*
X211074Y319942D01*
X211074Y322678D01*
X213008Y324612D01*
X215744Y324612D01*
X217678Y322678D01*
X217678Y319942D01*
X215744Y318008D01*
X213008Y318008D01*
G37*
G36*
X634490Y307239D02*
X631360Y308536D01*
X628965Y310931D01*
X627668Y314062D01*
X627668Y317449D01*
X628965Y320579D01*
X631360Y322975D01*
X634490Y324271D01*
X637878Y324271D01*
X641008Y322975D01*
X643404Y320579D01*
X644700Y317449D01*
X644700Y314062D01*
X643404Y310931D01*
X641008Y308536D01*
X637878Y307239D01*
X634490Y307239D01*
G37*
G36*
X439068Y311658D02*
X437134Y313592D01*
X437134Y316328D01*
X439068Y318262D01*
X441804Y318262D01*
X443738Y316328D01*
X443738Y313592D01*
X441804Y311658D01*
X439068Y311658D01*
G37*
G36*
X414684Y311658D02*
X412750Y313592D01*
X412750Y316328D01*
X414684Y318262D01*
X417420Y318262D01*
X419354Y316328D01*
X419354Y313592D01*
X417420Y311658D01*
X414684Y311658D01*
G37*
G36*
X423193Y311507D02*
X421259Y313441D01*
X421259Y316177D01*
X423193Y318111D01*
X425929Y318111D01*
X427863Y316177D01*
X427863Y313441D01*
X425929Y311507D01*
X423193Y311507D01*
G37*
G36*
X522888Y299593D02*
X520954Y301527D01*
X520954Y304263D01*
X522888Y306197D01*
X525131Y306197D01*
X525374Y306247D01*
X525580Y306387D01*
X525714Y306597D01*
X525756Y306822D01*
X525756Y307433D01*
X527690Y309368D01*
X528711Y309368D01*
X528955Y309417D01*
X529160Y309558D01*
X529294Y309767D01*
X529336Y309993D01*
X529336Y311756D01*
X531270Y313690D01*
X533537Y313690D01*
X533781Y313740D01*
X533986Y313880D01*
X534120Y314090D01*
X534162Y314315D01*
X534162Y316074D01*
X536096Y318008D01*
X538832Y318008D01*
X540766Y316074D01*
X540766Y313338D01*
X538832Y311404D01*
X536565Y311404D01*
X536321Y311355D01*
X536116Y311214D01*
X535982Y311004D01*
X535940Y310779D01*
X535940Y309020D01*
X534006Y307086D01*
X532985Y307086D01*
X532741Y307037D01*
X532536Y306896D01*
X532402Y306686D01*
X532360Y306461D01*
X532360Y304698D01*
X530425Y302764D01*
X528183Y302764D01*
X527939Y302714D01*
X527734Y302574D01*
X527600Y302364D01*
X527558Y302139D01*
X527558Y301527D01*
X525624Y299593D01*
X522888Y299593D01*
G37*
G36*
X763340Y297789D02*
X760210Y299086D01*
X757815Y301481D01*
X756518Y304612D01*
X756518Y307999D01*
X757815Y311129D01*
X760210Y313525D01*
X763340Y314821D01*
X766728Y314821D01*
X769858Y313525D01*
X772254Y311129D01*
X773550Y307999D01*
X773550Y304612D01*
X772254Y301481D01*
X769858Y299086D01*
X766728Y297789D01*
X763340Y297789D01*
G37*
G36*
X659890Y294539D02*
X656760Y295836D01*
X654365Y298231D01*
X653068Y301362D01*
X653068Y304749D01*
X654365Y307879D01*
X656760Y310275D01*
X659890Y311571D01*
X663278Y311571D01*
X666408Y310275D01*
X668804Y307879D01*
X670100Y304749D01*
X670100Y301362D01*
X668804Y298231D01*
X666408Y295836D01*
X663278Y294539D01*
X659890Y294539D01*
G37*
G36*
X503372Y303328D02*
X501438Y305262D01*
X501438Y307998D01*
X503372Y309932D01*
X506108Y309932D01*
X508042Y307998D01*
X508042Y305262D01*
X506108Y303328D01*
X503372Y303328D01*
G37*
G36*
X382680Y303276D02*
X380746Y305210D01*
X380746Y307946D01*
X382680Y309880D01*
X385416Y309880D01*
X387350Y307946D01*
X387350Y305210D01*
X385416Y303276D01*
X382680Y303276D01*
G37*
G36*
X423828Y303276D02*
X421894Y305210D01*
X421894Y307946D01*
X423828Y309880D01*
X426564Y309880D01*
X428498Y307946D01*
X428498Y305210D01*
X426564Y303276D01*
X423828Y303276D01*
G37*
G36*
X374298Y302514D02*
X372364Y304448D01*
X372364Y307184D01*
X374298Y309118D01*
X377034Y309118D01*
X378968Y307184D01*
X378968Y304448D01*
X377034Y302514D01*
X374298Y302514D01*
G37*
G36*
X721396Y271815D02*
X714582Y274638D01*
X709367Y279853D01*
X706544Y286668D01*
X706544Y294043D01*
X709367Y300857D01*
X714582Y306073D01*
X721396Y308895D01*
X728772Y308895D01*
X735586Y306073D01*
X740802Y300857D01*
X743624Y294043D01*
X743624Y286668D01*
X740802Y279853D01*
X735586Y274638D01*
X728772Y271815D01*
X721396Y271815D01*
G37*
G36*
X555228Y299085D02*
X553294Y301019D01*
X553294Y303755D01*
X555228Y305689D01*
X557964Y305689D01*
X559898Y303755D01*
X559898Y301019D01*
X557964Y299085D01*
X555228Y299085D01*
G37*
G36*
X454856Y296204D02*
X452922Y298138D01*
X452922Y300873D01*
X454856Y302808D01*
X457591Y302808D01*
X459526Y300873D01*
X459526Y298138D01*
X457591Y296204D01*
X454856Y296204D01*
G37*
G36*
X487059Y295641D02*
X485125Y297575D01*
X485125Y300311D01*
X487059Y302245D01*
X489795Y302245D01*
X491729Y300311D01*
X491729Y297575D01*
X489795Y295641D01*
X487059Y295641D01*
G37*
G36*
X479118Y295328D02*
X477184Y297262D01*
X477184Y299998D01*
X479118Y301932D01*
X481854Y301932D01*
X483788Y299998D01*
X483788Y297262D01*
X481854Y295328D01*
X479118Y295328D01*
G37*
G36*
X589634Y287886D02*
X587700Y289820D01*
X587700Y292556D01*
X589634Y294490D01*
X592370Y294490D01*
X594304Y292556D01*
X594304Y289820D01*
X592370Y287886D01*
X589634Y287886D01*
G37*
G36*
X503118Y287328D02*
X501184Y289262D01*
X501184Y291998D01*
X503118Y293932D01*
X505854Y293932D01*
X507788Y291998D01*
X507788Y289262D01*
X505854Y287328D01*
X503118Y287328D01*
G37*
G36*
X486368Y287328D02*
X484434Y289262D01*
X484434Y291998D01*
X486368Y293932D01*
X489104Y293932D01*
X491038Y291998D01*
X491038Y289262D01*
X489104Y287328D01*
X486368Y287328D01*
G37*
G36*
X487179Y279135D02*
X485245Y281069D01*
X485245Y283805D01*
X487179Y285739D01*
X489915Y285739D01*
X491748Y283905D01*
X491956Y283768D01*
X492200Y283722D01*
X492443Y283776D01*
X492646Y283920D01*
X492777Y284131D01*
X492782Y284164D01*
X494716Y286097D01*
X494853Y286305D01*
X494898Y286549D01*
X494845Y286792D01*
X494716Y286981D01*
X492624Y289072D01*
X492624Y291808D01*
X494558Y293742D01*
X497294Y293742D01*
X499228Y291808D01*
X499228Y289072D01*
X497328Y287172D01*
X497190Y286965D01*
X497145Y286720D01*
X497198Y286477D01*
X497328Y286288D01*
X499419Y284197D01*
X499419Y281461D01*
X497485Y279527D01*
X494749Y279527D01*
X492916Y281361D01*
X492708Y281498D01*
X492464Y281544D01*
X492221Y281490D01*
X492018Y281346D01*
X491887Y281135D01*
X491881Y281102D01*
X489915Y279135D01*
X487179Y279135D01*
G37*
G36*
X763340Y272789D02*
X760210Y274086D01*
X757815Y276481D01*
X756518Y279612D01*
X756518Y282999D01*
X757815Y286129D01*
X760210Y288525D01*
X763340Y289821D01*
X766728Y289821D01*
X769858Y288525D01*
X772254Y286129D01*
X773550Y282999D01*
X773550Y279612D01*
X772254Y276481D01*
X769858Y274086D01*
X766728Y272789D01*
X763340Y272789D01*
G37*
G36*
X559464Y281940D02*
X557530Y283874D01*
X557530Y286610D01*
X559464Y288544D01*
X562200Y288544D01*
X564134Y286610D01*
X564134Y283874D01*
X562200Y281940D01*
X559464Y281940D01*
G37*
G36*
X407056Y279012D02*
X405122Y280947D01*
X405122Y283682D01*
X407056Y285616D01*
X409792Y285616D01*
X411683Y283725D01*
X411890Y283588D01*
X412135Y283542D01*
X412378Y283595D01*
X412581Y283739D01*
X412712Y283951D01*
X412750Y284167D01*
X412750Y284324D01*
X414684Y286258D01*
X417420Y286258D01*
X419354Y284324D01*
X419354Y281588D01*
X417420Y279654D01*
X414684Y279654D01*
X412793Y281545D01*
X412586Y281683D01*
X412341Y281728D01*
X412098Y281675D01*
X411895Y281531D01*
X411765Y281319D01*
X411726Y281103D01*
X411726Y280947D01*
X409792Y279012D01*
X407056Y279012D01*
G37*
G36*
X462690Y279557D02*
X460756Y281491D01*
X460756Y284226D01*
X462690Y286161D01*
X465426Y286161D01*
X467360Y284226D01*
X467360Y281491D01*
X465426Y279557D01*
X462690Y279557D01*
G37*
G36*
X680494Y271686D02*
X680494Y274198D01*
X682708Y279542D01*
X686798Y283632D01*
X692142Y285845D01*
X694653Y285845D01*
X694653Y271686D01*
X680494Y271686D01*
G37*
G36*
X695415Y271686D02*
X695415Y285845D01*
X697926Y285845D01*
X703271Y283632D01*
X707361Y279542D01*
X709574Y274198D01*
X709574Y271686D01*
X695415Y271686D01*
G37*
G36*
X250854Y278892D02*
X248920Y280826D01*
X248920Y283562D01*
X250854Y285496D01*
X253590Y285496D01*
X255524Y283562D01*
X255524Y280826D01*
X253590Y278892D01*
X250854Y278892D01*
G37*
G36*
X619662Y278892D02*
X617728Y280826D01*
X617728Y283562D01*
X619662Y285496D01*
X622398Y285496D01*
X624332Y283562D01*
X624332Y280826D01*
X622398Y278892D01*
X619662Y278892D01*
G37*
G36*
X12878Y268223D02*
X12878Y270287D01*
X14749Y274804D01*
X18206Y278261D01*
X22723Y280132D01*
X24787Y280132D01*
X24787Y268223D01*
X12878Y268223D01*
G37*
G36*
X25549Y268223D02*
X25549Y280132D01*
X27613Y280132D01*
X32130Y278261D01*
X35587Y274804D01*
X37458Y270287D01*
X37458Y268223D01*
X25549Y268223D01*
G37*
G36*
X628044Y265430D02*
X626110Y267364D01*
X626110Y270100D01*
X627729Y271719D01*
X627867Y271926D01*
X627912Y272171D01*
X627859Y272414D01*
X627729Y272603D01*
X626618Y273714D01*
X626618Y276450D01*
X628552Y278384D01*
X631288Y278384D01*
X633222Y276450D01*
X633222Y273714D01*
X631603Y272095D01*
X631465Y271888D01*
X631420Y271643D01*
X631473Y271400D01*
X631603Y271211D01*
X632714Y270100D01*
X632714Y267364D01*
X630780Y265430D01*
X628044Y265430D01*
G37*
G36*
X486756Y263716D02*
X484822Y265650D01*
X484822Y268386D01*
X486903Y270467D01*
X486966Y270510D01*
X487100Y270720D01*
X487142Y270965D01*
X487085Y271207D01*
X486959Y271387D01*
X485140Y273206D01*
X485140Y275942D01*
X487074Y277876D01*
X489810Y277876D01*
X491744Y275942D01*
X491744Y275813D01*
X491794Y275569D01*
X491934Y275364D01*
X492144Y275230D01*
X492389Y275188D01*
X492631Y275245D01*
X492811Y275371D01*
X494878Y277438D01*
X497614Y277438D01*
X499367Y275685D01*
X499575Y275547D01*
X499819Y275502D01*
X500062Y275555D01*
X500265Y275699D01*
X500396Y275910D01*
X500406Y275970D01*
X502368Y277932D01*
X505104Y277932D01*
X507038Y275998D01*
X507038Y273262D01*
X505104Y271328D01*
X502368Y271328D01*
X500615Y273082D01*
X500407Y273219D01*
X500163Y273265D01*
X499920Y273211D01*
X499717Y273067D01*
X499586Y272856D01*
X499576Y272796D01*
X497614Y270834D01*
X494878Y270834D01*
X492944Y272768D01*
X492944Y272897D01*
X492894Y273141D01*
X492754Y273346D01*
X492544Y273480D01*
X492299Y273522D01*
X492057Y273465D01*
X491877Y273339D01*
X489663Y271125D01*
X489600Y271082D01*
X489466Y270872D01*
X489424Y270627D01*
X489481Y270385D01*
X489607Y270205D01*
X491426Y268386D01*
X491426Y265650D01*
X489492Y263716D01*
X486756Y263716D01*
G37*
G36*
X398682Y271145D02*
X396618Y273209D01*
X396411Y273346D01*
X396167Y273392D01*
X395924Y273338D01*
X395735Y273209D01*
X393798Y271272D01*
X391062Y271272D01*
X389128Y273206D01*
X389128Y275942D01*
X391062Y277876D01*
X393798Y277876D01*
X395862Y275812D01*
X396069Y275675D01*
X396313Y275629D01*
X396556Y275683D01*
X396745Y275812D01*
X398682Y277749D01*
X401418Y277749D01*
X403352Y275815D01*
X403352Y273079D01*
X401418Y271145D01*
X398682Y271145D01*
G37*
G36*
X140364Y269494D02*
X138430Y271428D01*
X138430Y274164D01*
X140364Y276098D01*
X143100Y276098D01*
X145034Y274164D01*
X145034Y271428D01*
X143100Y269494D01*
X140364Y269494D01*
G37*
G36*
X263046Y268224D02*
X261112Y270158D01*
X261112Y272894D01*
X263046Y274828D01*
X265782Y274828D01*
X267716Y272894D01*
X267716Y270158D01*
X265782Y268224D01*
X263046Y268224D01*
G37*
G36*
X592113Y268107D02*
X590179Y270041D01*
X590179Y272777D01*
X592113Y274711D01*
X594849Y274711D01*
X595960Y273600D01*
X596168Y273462D01*
X596412Y273417D01*
X596655Y273470D01*
X596844Y273600D01*
X598072Y274828D01*
X600808Y274828D01*
X602742Y272894D01*
X602742Y270158D01*
X600808Y268224D01*
X598072Y268224D01*
X596961Y269335D01*
X596754Y269473D01*
X596509Y269518D01*
X596266Y269465D01*
X596077Y269335D01*
X594849Y268107D01*
X592113Y268107D01*
G37*
G36*
X74549Y262223D02*
X74549Y274132D01*
X76613Y274132D01*
X81130Y272261D01*
X84587Y268804D01*
X86458Y264287D01*
X86458Y262223D01*
X74549Y262223D01*
G37*
G36*
X61878Y262223D02*
X61878Y264287D01*
X63749Y268804D01*
X67206Y272261D01*
X71723Y274132D01*
X73787Y274132D01*
X73787Y262223D01*
X61878Y262223D01*
G37*
G36*
X577498Y267208D02*
X575564Y269142D01*
X575564Y271878D01*
X577498Y273812D01*
X580234Y273812D01*
X582168Y271878D01*
X582168Y269142D01*
X580234Y267208D01*
X577498Y267208D01*
G37*
G36*
X533175Y254508D02*
X531241Y256442D01*
X531241Y258616D01*
X531192Y258860D01*
X531051Y259065D01*
X530841Y259199D01*
X530596Y259241D01*
X530354Y259184D01*
X530205Y259080D01*
X527460Y259080D01*
X525526Y261014D01*
X525526Y263750D01*
X526955Y265179D01*
X527092Y265386D01*
X527138Y265630D01*
X527084Y265873D01*
X526955Y266062D01*
X525399Y267618D01*
X525399Y270354D01*
X527333Y272288D01*
X530069Y272288D01*
X532003Y270354D01*
X532003Y267618D01*
X530574Y266189D01*
X530437Y265982D01*
X530391Y265738D01*
X530445Y265495D01*
X530574Y265306D01*
X532130Y263750D01*
X532130Y261576D01*
X532180Y261332D01*
X532320Y261127D01*
X532530Y260993D01*
X532775Y260951D01*
X533017Y261008D01*
X533166Y261112D01*
X535911Y261112D01*
X537845Y259178D01*
X537845Y256442D01*
X535911Y254508D01*
X533175Y254508D01*
G37*
G36*
X695415Y256765D02*
X695415Y270924D01*
X709574Y270924D01*
X709574Y268413D01*
X707361Y263069D01*
X703271Y258979D01*
X697926Y256765D01*
X695415Y256765D01*
G37*
G36*
X692142Y256765D02*
X686798Y258979D01*
X682708Y263069D01*
X680494Y268413D01*
X680494Y270924D01*
X694653Y270924D01*
X694653Y256765D01*
X692142Y256765D01*
G37*
G36*
X414557Y263652D02*
X412623Y265586D01*
X412623Y268322D01*
X414557Y270256D01*
X417293Y270256D01*
X419227Y268322D01*
X419227Y265586D01*
X417293Y263652D01*
X414557Y263652D01*
G37*
G36*
X462690Y263652D02*
X460756Y265586D01*
X460756Y268322D01*
X462690Y270256D01*
X465426Y270256D01*
X467360Y268322D01*
X467360Y265586D01*
X465426Y263652D01*
X462690Y263652D01*
G37*
G36*
X439068Y263652D02*
X437134Y265586D01*
X437134Y268322D01*
X439068Y270256D01*
X441804Y270256D01*
X443738Y268322D01*
X443738Y265586D01*
X441804Y263652D01*
X439068Y263652D01*
G37*
G36*
X423066Y263652D02*
X421132Y265586D01*
X421132Y268322D01*
X423066Y270256D01*
X425802Y270256D01*
X427736Y268322D01*
X427736Y265586D01*
X425802Y263652D01*
X423066Y263652D01*
G37*
G36*
X478368Y263328D02*
X476434Y265262D01*
X476434Y267998D01*
X478368Y269932D01*
X481104Y269932D01*
X483038Y267998D01*
X483038Y265262D01*
X481104Y263328D01*
X478368Y263328D01*
G37*
G36*
X503259Y263215D02*
X501325Y265149D01*
X501325Y267885D01*
X503259Y269819D01*
X505995Y269819D01*
X507929Y267885D01*
X507929Y265149D01*
X505995Y263215D01*
X503259Y263215D01*
G37*
G36*
X391062Y247650D02*
X389128Y249584D01*
X389128Y252320D01*
X391128Y254320D01*
X391266Y254527D01*
X391311Y254772D01*
X391258Y255015D01*
X391128Y255204D01*
X389128Y257204D01*
X389128Y259940D01*
X391202Y262014D01*
X391339Y262221D01*
X391385Y262465D01*
X391331Y262708D01*
X391202Y262897D01*
X389138Y264961D01*
X389138Y267697D01*
X391072Y269631D01*
X393808Y269631D01*
X395872Y267567D01*
X396079Y267430D01*
X396323Y267384D01*
X396566Y267438D01*
X396755Y267567D01*
X398682Y269494D01*
X401418Y269494D01*
X403352Y267560D01*
X403352Y264824D01*
X401352Y262824D01*
X401214Y262617D01*
X401169Y262372D01*
X401222Y262129D01*
X401352Y261940D01*
X403352Y259940D01*
X403352Y257204D01*
X401352Y255204D01*
X401214Y254997D01*
X401169Y254752D01*
X401222Y254509D01*
X401352Y254320D01*
X403352Y252320D01*
X403352Y249584D01*
X401418Y247650D01*
X398682Y247650D01*
X396682Y249650D01*
X396475Y249788D01*
X396230Y249833D01*
X395987Y249780D01*
X395798Y249650D01*
X393798Y247650D01*
X391062Y247650D01*
G37*
G36*
X731422Y262382D02*
X729488Y264316D01*
X729488Y267052D01*
X731422Y268986D01*
X734158Y268986D01*
X736092Y267052D01*
X736092Y264316D01*
X734158Y262382D01*
X731422Y262382D01*
G37*
G36*
X25549Y255552D02*
X25549Y267461D01*
X37458Y267461D01*
X37458Y265397D01*
X35587Y260880D01*
X32130Y257423D01*
X27613Y255552D01*
X25549Y255552D01*
G37*
G36*
X22723Y255552D02*
X18206Y257423D01*
X14749Y260880D01*
X12878Y265397D01*
X12878Y267461D01*
X24787Y267461D01*
X24787Y255552D01*
X22723Y255552D01*
G37*
G36*
X269142Y259842D02*
X267208Y261776D01*
X267208Y264512D01*
X269142Y266446D01*
X271878Y266446D01*
X273812Y264512D01*
X273812Y261776D01*
X271878Y259842D01*
X269142Y259842D01*
G37*
G36*
X754028Y259588D02*
X752094Y261522D01*
X752094Y264258D01*
X754028Y266192D01*
X756764Y266192D01*
X758698Y264258D01*
X758698Y261522D01*
X756764Y259588D01*
X754028Y259588D01*
G37*
G36*
X555146Y257810D02*
X553212Y259744D01*
X553212Y262480D01*
X555146Y264414D01*
X557882Y264414D01*
X559816Y262480D01*
X559816Y259744D01*
X557882Y257810D01*
X555146Y257810D01*
G37*
G36*
X626774Y257556D02*
X624840Y259490D01*
X624840Y262226D01*
X626774Y264160D01*
X629510Y264160D01*
X631444Y262226D01*
X631444Y259490D01*
X629510Y257556D01*
X626774Y257556D01*
G37*
G36*
X361344Y256032D02*
X359410Y257966D01*
X359410Y260702D01*
X361344Y262636D01*
X364080Y262636D01*
X366014Y260702D01*
X366014Y257966D01*
X364080Y256032D01*
X361344Y256032D01*
G37*
G36*
X486819Y255271D02*
X484885Y257205D01*
X484885Y259941D01*
X486819Y261875D01*
X489555Y261875D01*
X491489Y259941D01*
X491489Y257205D01*
X489555Y255271D01*
X486819Y255271D01*
G37*
G36*
X470564Y255270D02*
X468630Y257204D01*
X468630Y259940D01*
X470564Y261874D01*
X473300Y261874D01*
X475234Y259940D01*
X475234Y257204D01*
X473300Y255270D01*
X470564Y255270D01*
G37*
G36*
X74549Y249552D02*
X74549Y261461D01*
X86458Y261461D01*
X86458Y259397D01*
X84587Y254880D01*
X81130Y251423D01*
X76613Y249552D01*
X74549Y249552D01*
G37*
G36*
X71723Y249552D02*
X67206Y251423D01*
X63749Y254880D01*
X61878Y259397D01*
X61878Y261461D01*
X73787Y261461D01*
X73787Y249552D01*
X71723Y249552D01*
G37*
G36*
X218158Y254578D02*
X216224Y256512D01*
X216224Y259248D01*
X218158Y261182D01*
X220894Y261182D01*
X222828Y259248D01*
X222828Y256512D01*
X220894Y254578D01*
X218158Y254578D01*
G37*
G36*
X237138Y253746D02*
X235204Y255680D01*
X235204Y258416D01*
X237138Y260350D01*
X239874Y260350D01*
X241808Y258416D01*
X241808Y255680D01*
X239874Y253746D01*
X237138Y253746D01*
G37*
G36*
X372774Y249936D02*
X370840Y251870D01*
X370840Y254606D01*
X372774Y256540D01*
X375510Y256540D01*
X377444Y254606D01*
X377444Y251870D01*
X375510Y249936D01*
X372774Y249936D01*
G37*
G36*
X502822Y247396D02*
X500888Y249330D01*
X500888Y252066D01*
X502822Y254000D01*
X505558Y254000D01*
X507492Y252066D01*
X507492Y249330D01*
X505558Y247396D01*
X502822Y247396D01*
G37*
G36*
X446336Y247360D02*
X444402Y249295D01*
X444402Y252030D01*
X446336Y253964D01*
X449072Y253964D01*
X451006Y252030D01*
X451006Y249295D01*
X449072Y247360D01*
X446336Y247360D01*
G37*
G36*
X423418Y239374D02*
X421484Y241308D01*
X421484Y244043D01*
X423513Y246073D01*
X423651Y246281D01*
X423696Y246525D01*
X423643Y246768D01*
X423499Y246971D01*
X423287Y247102D01*
X423071Y247140D01*
X422556Y247140D01*
X420622Y249074D01*
X420622Y251810D01*
X422556Y253744D01*
X425292Y253744D01*
X427226Y251810D01*
X427226Y249074D01*
X425196Y247045D01*
X425059Y246837D01*
X425013Y246593D01*
X425067Y246350D01*
X425211Y246147D01*
X425422Y246016D01*
X425638Y245978D01*
X426153Y245978D01*
X428088Y244043D01*
X428088Y241308D01*
X426153Y239374D01*
X423418Y239374D01*
G37*
G36*
X232566Y246888D02*
X230632Y248822D01*
X230632Y251558D01*
X232566Y253492D01*
X235302Y253492D01*
X237236Y251558D01*
X237236Y248822D01*
X235302Y246888D01*
X232566Y246888D01*
G37*
G36*
X414163Y246869D02*
X412228Y248804D01*
X412228Y251539D01*
X414163Y253473D01*
X416898Y253473D01*
X418832Y251539D01*
X418832Y248804D01*
X416898Y246869D01*
X414163Y246869D01*
G37*
G36*
X133252Y244602D02*
X131318Y246536D01*
X131318Y249272D01*
X133252Y251206D01*
X135988Y251206D01*
X137922Y249272D01*
X137922Y246536D01*
X135988Y244602D01*
X133252Y244602D01*
G37*
G36*
X137824Y202438D02*
X135890Y204372D01*
X135890Y206286D01*
X135841Y206529D01*
X135707Y206728D01*
X131330Y211105D01*
X131330Y224562D01*
X131281Y224805D01*
X131147Y225004D01*
X112240Y243911D01*
X112032Y244048D01*
X111798Y244094D01*
X109884Y244094D01*
X107950Y246028D01*
X107950Y248764D01*
X109884Y250698D01*
X112620Y250698D01*
X114554Y248764D01*
X114554Y246850D01*
X114604Y246607D01*
X114737Y246408D01*
X134862Y226284D01*
X134862Y225720D01*
X134912Y225476D01*
X135052Y225271D01*
X135262Y225137D01*
X135507Y225095D01*
X135702Y225142D01*
X138528Y225142D01*
X140462Y223207D01*
X140462Y220472D01*
X138528Y218538D01*
X135723Y218538D01*
X135722Y218538D01*
X135477Y218584D01*
X135234Y218530D01*
X135031Y218387D01*
X134901Y218175D01*
X134862Y217959D01*
X134862Y212826D01*
X134912Y212583D01*
X135045Y212384D01*
X138204Y209225D01*
X138412Y209088D01*
X138646Y209042D01*
X140560Y209042D01*
X142494Y207108D01*
X142494Y204372D01*
X140560Y202438D01*
X137824Y202438D01*
G37*
G36*
X288573Y242697D02*
X286639Y244631D01*
X286639Y247367D01*
X288573Y249301D01*
X291309Y249301D01*
X292098Y248512D01*
X292305Y248375D01*
X292549Y248329D01*
X292792Y248383D01*
X292981Y248512D01*
X294288Y249819D01*
X297024Y249819D01*
X298262Y248581D01*
X298469Y248443D01*
X298714Y248398D01*
X298957Y248451D01*
X299146Y248581D01*
X300384Y249819D01*
X303120Y249819D01*
X305054Y247885D01*
X305054Y245149D01*
X303120Y243215D01*
X300384Y243215D01*
X299146Y244453D01*
X298939Y244591D01*
X298694Y244636D01*
X298451Y244583D01*
X298262Y244453D01*
X297024Y243215D01*
X294288Y243215D01*
X293499Y244004D01*
X293292Y244141D01*
X293048Y244187D01*
X292805Y244133D01*
X292616Y244004D01*
X291309Y242697D01*
X288573Y242697D01*
G37*
G36*
X151286Y243078D02*
X149352Y245012D01*
X149352Y247748D01*
X151286Y249682D01*
X154022Y249682D01*
X155956Y247748D01*
X155956Y245012D01*
X154022Y243078D01*
X151286Y243078D01*
G37*
G36*
X736756Y242570D02*
X734822Y244504D01*
X734822Y247240D01*
X736756Y249174D01*
X739492Y249174D01*
X741426Y247240D01*
X741426Y244504D01*
X739492Y242570D01*
X736756Y242570D01*
G37*
G36*
X125886Y240284D02*
X123952Y242218D01*
X123952Y244954D01*
X125886Y246888D01*
X128622Y246888D01*
X130556Y244954D01*
X130556Y242218D01*
X128622Y240284D01*
X125886Y240284D01*
G37*
G36*
X239424Y239522D02*
X237490Y241456D01*
X237490Y244192D01*
X239424Y246126D01*
X242160Y246126D01*
X244094Y244192D01*
X244094Y241456D01*
X242160Y239522D01*
X239424Y239522D01*
G37*
G36*
X487253Y239410D02*
X485319Y241344D01*
X485319Y244080D01*
X487253Y246014D01*
X489989Y246014D01*
X491923Y244080D01*
X491923Y241344D01*
X489989Y239410D01*
X487253Y239410D01*
G37*
G36*
X275238Y239395D02*
X273304Y241329D01*
X273304Y244065D01*
X275238Y245999D01*
X277974Y245999D01*
X279908Y244065D01*
X279908Y241329D01*
X277974Y239395D01*
X275238Y239395D01*
G37*
G36*
X391062Y239268D02*
X389128Y241202D01*
X389128Y243938D01*
X391062Y245872D01*
X393798Y245872D01*
X395798Y243872D01*
X396005Y243734D01*
X396250Y243689D01*
X396493Y243742D01*
X396682Y243872D01*
X398682Y245872D01*
X401418Y245872D01*
X403352Y243938D01*
X403352Y241202D01*
X401418Y239268D01*
X398682Y239268D01*
X396682Y241268D01*
X396475Y241406D01*
X396230Y241451D01*
X395987Y241398D01*
X395798Y241268D01*
X393798Y239268D01*
X391062Y239268D01*
G37*
G36*
X455070Y239268D02*
X453136Y241202D01*
X453136Y243938D01*
X455070Y245872D01*
X457806Y245872D01*
X459740Y243938D01*
X459740Y241202D01*
X457806Y239268D01*
X455070Y239268D01*
G37*
G36*
X447372Y231328D02*
X445438Y233262D01*
X445438Y235998D01*
X447514Y238074D01*
X447652Y238281D01*
X447697Y238526D01*
X447644Y238769D01*
X447500Y238972D01*
X447288Y239103D01*
X447072Y239141D01*
X446555Y239141D01*
X444621Y241075D01*
X444621Y243811D01*
X446555Y245745D01*
X449291Y245745D01*
X451225Y243811D01*
X451225Y241075D01*
X449149Y238999D01*
X449012Y238792D01*
X448966Y238547D01*
X449019Y238304D01*
X449163Y238101D01*
X449375Y237971D01*
X449591Y237932D01*
X450108Y237932D01*
X452114Y235926D01*
X452321Y235788D01*
X452566Y235743D01*
X452809Y235796D01*
X452998Y235926D01*
X455070Y237998D01*
X457806Y237998D01*
X459740Y236064D01*
X459740Y233328D01*
X457806Y231394D01*
X455070Y231394D01*
X453064Y233400D01*
X452856Y233538D01*
X452612Y233583D01*
X452369Y233530D01*
X452180Y233400D01*
X450108Y231328D01*
X447372Y231328D01*
G37*
G36*
X470818Y239141D02*
X468884Y241075D01*
X468884Y243811D01*
X470818Y245745D01*
X473554Y245745D01*
X475488Y243811D01*
X475488Y241075D01*
X473554Y239141D01*
X470818Y239141D01*
G37*
G36*
X354486Y229362D02*
X352552Y231296D01*
X352552Y234032D01*
X354486Y235966D01*
X355924Y235966D01*
X356168Y236016D01*
X356373Y236156D01*
X356507Y236366D01*
X356549Y236611D01*
X356492Y236853D01*
X356366Y237033D01*
X354330Y239069D01*
X354330Y241805D01*
X356264Y243739D01*
X359000Y243739D01*
X360934Y241805D01*
X360934Y239069D01*
X359000Y237135D01*
X357562Y237135D01*
X357318Y237086D01*
X357113Y236945D01*
X356979Y236735D01*
X356937Y236490D01*
X356994Y236248D01*
X357120Y236068D01*
X359156Y234032D01*
X359156Y231296D01*
X357222Y229362D01*
X354486Y229362D01*
G37*
G36*
X139094Y236220D02*
X137160Y238154D01*
X137160Y240890D01*
X139094Y242824D01*
X141830Y242824D01*
X143764Y240890D01*
X143764Y238154D01*
X141830Y236220D01*
X139094Y236220D01*
G37*
G36*
X217336Y231658D02*
X215402Y233592D01*
X215402Y236328D01*
X217336Y238262D01*
X218948Y238262D01*
X219192Y238312D01*
X219397Y238452D01*
X219531Y238662D01*
X219573Y238887D01*
X219573Y240255D01*
X221507Y242189D01*
X224243Y242189D01*
X226177Y240255D01*
X226177Y237519D01*
X224243Y235585D01*
X222631Y235585D01*
X222387Y235536D01*
X222182Y235395D01*
X222048Y235185D01*
X222006Y234960D01*
X222006Y233592D01*
X220072Y231658D01*
X217336Y231658D01*
G37*
G36*
X318672Y234696D02*
X316738Y236630D01*
X316738Y239366D01*
X318672Y241300D01*
X321408Y241300D01*
X323342Y239366D01*
X323342Y236630D01*
X321408Y234696D01*
X318672Y234696D01*
G37*
G36*
X556924Y232951D02*
X554990Y234885D01*
X554990Y237621D01*
X556924Y239555D01*
X559660Y239555D01*
X561594Y237621D01*
X561594Y235541D01*
X561644Y235297D01*
X561784Y235092D01*
X561918Y235006D01*
X561723Y234960D01*
X561543Y234834D01*
X559660Y232951D01*
X556924Y232951D01*
G37*
G36*
X363359Y232681D02*
X361425Y234615D01*
X361425Y237351D01*
X363359Y239285D01*
X366095Y239285D01*
X368029Y237351D01*
X368029Y234615D01*
X366095Y232681D01*
X363359Y232681D01*
G37*
G36*
X693002Y220218D02*
X693002Y223652D01*
X695922Y230700D01*
X701316Y236094D01*
X708365Y239014D01*
X711798Y239014D01*
X711798Y220218D01*
X693002Y220218D01*
G37*
G36*
X712560Y220218D02*
X712560Y239014D01*
X715994Y239014D01*
X723042Y236094D01*
X728436Y230700D01*
X731356Y223652D01*
X731356Y220218D01*
X712560Y220218D01*
G37*
G36*
X487074Y231394D02*
X485140Y233328D01*
X485140Y236064D01*
X487074Y237998D01*
X489810Y237998D01*
X491744Y236064D01*
X491744Y233328D01*
X489810Y231394D01*
X487074Y231394D01*
G37*
G36*
X495202Y231394D02*
X493268Y233328D01*
X493268Y236064D01*
X495202Y237998D01*
X497938Y237998D01*
X499872Y236064D01*
X499872Y233328D01*
X497938Y231394D01*
X495202Y231394D01*
G37*
G36*
X439372Y231328D02*
X437438Y233262D01*
X437438Y235998D01*
X439372Y237932D01*
X442108Y237932D01*
X444042Y235998D01*
X444042Y233262D01*
X442108Y231328D01*
X439372Y231328D01*
G37*
G36*
X406429Y223267D02*
X404495Y225201D01*
X404495Y227937D01*
X406458Y229900D01*
X406560Y229921D01*
X406765Y230061D01*
X406899Y230271D01*
X406941Y230516D01*
X406884Y230758D01*
X406758Y230938D01*
X404749Y232947D01*
X404749Y235683D01*
X406683Y237617D01*
X409419Y237617D01*
X411489Y235547D01*
X411696Y235410D01*
X411941Y235364D01*
X412184Y235417D01*
X412387Y235561D01*
X412518Y235773D01*
X412532Y235851D01*
X414490Y237810D01*
X417226Y237810D01*
X419160Y235876D01*
X419160Y233140D01*
X417226Y231206D01*
X414490Y231206D01*
X412420Y233276D01*
X412213Y233414D01*
X411968Y233459D01*
X411725Y233406D01*
X411522Y233262D01*
X411392Y233050D01*
X411378Y232972D01*
X409390Y230984D01*
X409288Y230964D01*
X409083Y230823D01*
X408949Y230613D01*
X408907Y230368D01*
X408964Y230126D01*
X409090Y229946D01*
X411099Y227937D01*
X411099Y225201D01*
X409165Y223267D01*
X406429Y223267D01*
G37*
G36*
X511194Y231150D02*
X509260Y233084D01*
X509260Y235820D01*
X511194Y237754D01*
X513930Y237754D01*
X515864Y235820D01*
X515864Y233084D01*
X513930Y231150D01*
X511194Y231150D01*
G37*
G36*
X390300Y223266D02*
X388366Y225200D01*
X388366Y227936D01*
X390300Y229870D01*
X390750Y229870D01*
X390994Y229920D01*
X391199Y230060D01*
X391333Y230270D01*
X391375Y230515D01*
X391318Y230757D01*
X391192Y230937D01*
X389128Y233001D01*
X389128Y235737D01*
X391062Y237671D01*
X393798Y237671D01*
X395697Y235771D01*
X395905Y235634D01*
X396149Y235588D01*
X396392Y235642D01*
X396581Y235771D01*
X398555Y237745D01*
X401291Y237745D01*
X403225Y235811D01*
X403225Y233075D01*
X401291Y231141D01*
X398555Y231141D01*
X396656Y233041D01*
X396448Y233178D01*
X396204Y233224D01*
X395961Y233171D01*
X395772Y233041D01*
X393798Y231067D01*
X393348Y231067D01*
X393104Y231018D01*
X392899Y230877D01*
X392765Y230667D01*
X392723Y230422D01*
X392780Y230180D01*
X392906Y230000D01*
X394970Y227936D01*
X394970Y225200D01*
X393036Y223266D01*
X390300Y223266D01*
G37*
G36*
X564544Y230378D02*
X562610Y232312D01*
X562610Y234392D01*
X562561Y234636D01*
X562420Y234841D01*
X562286Y234927D01*
X562481Y234973D01*
X562661Y235099D01*
X564544Y236982D01*
X567280Y236982D01*
X569214Y235048D01*
X569214Y232312D01*
X567280Y230378D01*
X564544Y230378D01*
G37*
G36*
X532779Y227286D02*
X530845Y229220D01*
X530845Y231956D01*
X532779Y233890D01*
X535515Y233890D01*
X537449Y231956D01*
X537449Y229220D01*
X535515Y227286D01*
X532779Y227286D01*
G37*
G36*
X64418Y227076D02*
X62484Y229010D01*
X62484Y231746D01*
X64418Y233680D01*
X67154Y233680D01*
X69088Y231746D01*
X69088Y229010D01*
X67154Y227076D01*
X64418Y227076D01*
G37*
G36*
X240752Y226478D02*
X238818Y228412D01*
X238818Y231148D01*
X240752Y233082D01*
X243487Y233082D01*
X245422Y231148D01*
X245422Y228412D01*
X243487Y226478D01*
X240752Y226478D01*
G37*
G36*
X447372Y223328D02*
X445438Y225262D01*
X445438Y227998D01*
X447372Y229932D01*
X450108Y229932D01*
X452042Y227998D01*
X452042Y225262D01*
X450108Y223328D01*
X447372Y223328D01*
G37*
G36*
X414368Y223328D02*
X412434Y225262D01*
X412434Y227998D01*
X414368Y229932D01*
X417104Y229932D01*
X419038Y227998D01*
X419038Y225262D01*
X417104Y223328D01*
X414368Y223328D01*
G37*
G36*
X648110Y223266D02*
X646176Y225200D01*
X646176Y227936D01*
X648110Y229870D01*
X650846Y229870D01*
X652780Y227936D01*
X652780Y225200D01*
X650846Y223266D01*
X648110Y223266D01*
G37*
G36*
X398555Y223266D02*
X396621Y225200D01*
X396621Y227936D01*
X398555Y229870D01*
X401291Y229870D01*
X403225Y227936D01*
X403225Y225200D01*
X401291Y223266D01*
X398555Y223266D01*
G37*
G36*
X511257Y223213D02*
X509323Y225147D01*
X509323Y227883D01*
X511257Y229817D01*
X513993Y229817D01*
X515927Y227883D01*
X515927Y225147D01*
X513993Y223213D01*
X511257Y223213D01*
G37*
G36*
X631346Y223012D02*
X629412Y224946D01*
X629412Y227682D01*
X631346Y229616D01*
X634082Y229616D01*
X636016Y227682D01*
X636016Y224946D01*
X634082Y223012D01*
X631346Y223012D01*
G37*
G36*
X422748Y222948D02*
X420814Y224882D01*
X420814Y227618D01*
X422748Y229552D01*
X425484Y229552D01*
X427418Y227618D01*
X427418Y224882D01*
X425484Y222948D01*
X422748Y222948D01*
G37*
G36*
X438870Y222826D02*
X436936Y224760D01*
X436936Y227496D01*
X438870Y229430D01*
X441606Y229430D01*
X443540Y227496D01*
X443540Y224760D01*
X441606Y222826D01*
X438870Y222826D01*
G37*
G36*
X114964Y221786D02*
X113030Y223720D01*
X113030Y226456D01*
X114964Y228390D01*
X117700Y228390D01*
X119634Y226456D01*
X119634Y223720D01*
X117700Y221786D01*
X114964Y221786D01*
G37*
G36*
X363492Y215322D02*
X361557Y217256D01*
X361557Y219991D01*
X363492Y221926D01*
X363574Y221926D01*
X363818Y221975D01*
X364023Y222116D01*
X364157Y222325D01*
X364199Y222551D01*
X364199Y225252D01*
X366133Y227186D01*
X368869Y227186D01*
X370803Y225252D01*
X370803Y222517D01*
X368869Y220582D01*
X368786Y220582D01*
X368543Y220533D01*
X368337Y220392D01*
X368203Y220183D01*
X368161Y219957D01*
X368161Y217256D01*
X366227Y215322D01*
X363492Y215322D01*
G37*
G36*
X643284Y216916D02*
X641350Y218850D01*
X641350Y221586D01*
X643284Y223520D01*
X646020Y223520D01*
X647954Y221586D01*
X647954Y218850D01*
X646020Y216916D01*
X643284Y216916D01*
G37*
G36*
X503256Y215519D02*
X501322Y217453D01*
X501322Y220189D01*
X503256Y222123D01*
X505992Y222123D01*
X507926Y220189D01*
X507926Y217453D01*
X505992Y215519D01*
X503256Y215519D01*
G37*
G36*
X390870Y215138D02*
X388936Y217072D01*
X388936Y219808D01*
X390870Y221742D01*
X393606Y221742D01*
X395702Y219646D01*
X395909Y219508D01*
X396154Y219463D01*
X396397Y219516D01*
X396586Y219646D01*
X398683Y221743D01*
X401419Y221743D01*
X403353Y219809D01*
X403353Y217073D01*
X401419Y215139D01*
X398683Y215139D01*
X396587Y217235D01*
X396380Y217373D01*
X396135Y217418D01*
X395892Y217365D01*
X395703Y217235D01*
X393606Y215138D01*
X390870Y215138D01*
G37*
G36*
X422870Y214826D02*
X420936Y216760D01*
X420936Y219496D01*
X422870Y221430D01*
X425606Y221430D01*
X427540Y219496D01*
X427540Y216760D01*
X425606Y214826D01*
X422870Y214826D01*
G37*
G36*
X204880Y214122D02*
X202946Y216056D01*
X202946Y218792D01*
X204880Y220726D01*
X207616Y220726D01*
X209550Y218792D01*
X209550Y216056D01*
X207616Y214122D01*
X204880Y214122D01*
G37*
G36*
X182502Y213106D02*
X180568Y215040D01*
X180568Y217776D01*
X182502Y219710D01*
X185238Y219710D01*
X187172Y217776D01*
X187172Y215040D01*
X185238Y213106D01*
X182502Y213106D01*
G37*
G36*
X712560Y200660D02*
X712560Y219456D01*
X731356Y219456D01*
X731356Y216023D01*
X728436Y208974D01*
X723042Y203580D01*
X715994Y200660D01*
X712560Y200660D01*
G37*
G36*
X708365Y200660D02*
X701316Y203580D01*
X695922Y208974D01*
X693002Y216023D01*
X693002Y219456D01*
X711798Y219456D01*
X711798Y200660D01*
X708365Y200660D01*
G37*
G36*
X68482Y211328D02*
X66548Y213262D01*
X66548Y215998D01*
X68482Y217932D01*
X71218Y217932D01*
X73152Y215998D01*
X73152Y213262D01*
X71218Y211328D01*
X68482Y211328D01*
G37*
G36*
X290224Y200914D02*
X288290Y202848D01*
X288290Y205584D01*
X290046Y207340D01*
X290184Y207547D01*
X290229Y207792D01*
X290176Y208035D01*
X290032Y208238D01*
X289820Y208369D01*
X289741Y208383D01*
X287782Y210341D01*
X287782Y213077D01*
X289716Y215011D01*
X292452Y215011D01*
X294386Y213077D01*
X294386Y210341D01*
X292630Y208585D01*
X292492Y208378D01*
X292447Y208133D01*
X292500Y207890D01*
X292644Y207687D01*
X292856Y207557D01*
X292935Y207542D01*
X294894Y205584D01*
X294894Y202848D01*
X292960Y200914D01*
X290224Y200914D01*
G37*
G36*
X199800Y192278D02*
X197866Y194212D01*
X197866Y196948D01*
X199612Y198694D01*
X199750Y198901D01*
X199795Y199146D01*
X199742Y199389D01*
X199612Y199578D01*
X197866Y201324D01*
X197866Y204060D01*
X199800Y205994D01*
X200323Y205994D01*
X200567Y206044D01*
X200772Y206184D01*
X200906Y206394D01*
X200948Y206639D01*
X200914Y206783D01*
X200914Y209648D01*
X202848Y211582D01*
X205584Y211582D01*
X207518Y209648D01*
X207518Y207127D01*
X207568Y206883D01*
X207708Y206678D01*
X207918Y206544D01*
X208143Y206502D01*
X208632Y206502D01*
X210566Y204568D01*
X210566Y201832D01*
X208632Y199898D01*
X205896Y199898D01*
X204912Y200882D01*
X204705Y201020D01*
X204460Y201065D01*
X204217Y201012D01*
X204028Y200882D01*
X202724Y199578D01*
X202586Y199371D01*
X202541Y199126D01*
X202594Y198883D01*
X202724Y198694D01*
X204470Y196948D01*
X204470Y194212D01*
X202536Y192278D01*
X199800Y192278D01*
G37*
G36*
X427829Y203174D02*
X425894Y205109D01*
X425894Y207844D01*
X427829Y209778D01*
X430564Y209778D01*
X432498Y207844D01*
X432498Y205109D01*
X430564Y203174D01*
X427829Y203174D01*
G37*
G36*
X445348Y201499D02*
X443739Y203109D01*
X443532Y203246D01*
X443287Y203291D01*
X443044Y203238D01*
X442855Y203109D01*
X442580Y202833D01*
X439844Y202833D01*
X437910Y204767D01*
X437910Y207503D01*
X439844Y209437D01*
X442580Y209437D01*
X444189Y207828D01*
X444397Y207691D01*
X444641Y207645D01*
X444884Y207698D01*
X445073Y207828D01*
X445348Y208103D01*
X448084Y208103D01*
X450018Y206169D01*
X450018Y203434D01*
X448084Y201499D01*
X445348Y201499D01*
G37*
G36*
X362790Y202184D02*
X360856Y204118D01*
X360856Y206854D01*
X362790Y208788D01*
X365526Y208788D01*
X366930Y207384D01*
X367138Y207246D01*
X367382Y207201D01*
X367625Y207254D01*
X367814Y207384D01*
X369218Y208788D01*
X371954Y208788D01*
X373888Y206854D01*
X373888Y204118D01*
X371954Y202184D01*
X369218Y202184D01*
X367814Y203588D01*
X367607Y203726D01*
X367362Y203771D01*
X367119Y203718D01*
X366930Y203588D01*
X365526Y202184D01*
X362790Y202184D01*
G37*
G36*
X676050Y197358D02*
X674116Y199292D01*
X674116Y202028D01*
X676050Y203962D01*
X678786Y203962D01*
X680720Y202028D01*
X680720Y199292D01*
X678786Y197358D01*
X676050Y197358D01*
G37*
G36*
X599342Y197358D02*
X597408Y199292D01*
X597408Y202028D01*
X599342Y203962D01*
X602078Y203962D01*
X604012Y202028D01*
X604012Y199292D01*
X602078Y197358D01*
X599342Y197358D01*
G37*
G36*
X591468Y196850D02*
X589595Y198723D01*
X589388Y198861D01*
X589143Y198906D01*
X588900Y198853D01*
X588711Y198723D01*
X587092Y197104D01*
X584356Y197104D01*
X582422Y199038D01*
X582422Y201774D01*
X584356Y203708D01*
X587092Y203708D01*
X588965Y201835D01*
X589172Y201697D01*
X589417Y201652D01*
X589660Y201705D01*
X589849Y201835D01*
X591468Y203454D01*
X594204Y203454D01*
X596138Y201520D01*
X596138Y198784D01*
X594204Y196850D01*
X591468Y196850D01*
G37*
G36*
X475644Y189230D02*
X473710Y191164D01*
X473710Y193542D01*
X473661Y193786D01*
X473520Y193991D01*
X473310Y194125D01*
X473085Y194167D01*
X472834Y194167D01*
X470900Y196101D01*
X470900Y196366D01*
X470850Y196610D01*
X470710Y196815D01*
X470500Y196949D01*
X470275Y196991D01*
X467756Y196991D01*
X465822Y198926D01*
X465822Y201661D01*
X467756Y203595D01*
X470491Y203595D01*
X472426Y201661D01*
X472426Y201396D01*
X472475Y201152D01*
X472616Y200947D01*
X472825Y200813D01*
X473051Y200771D01*
X475570Y200771D01*
X477504Y198837D01*
X477504Y196459D01*
X477553Y196215D01*
X477694Y196010D01*
X477903Y195876D01*
X478129Y195834D01*
X478380Y195834D01*
X480314Y193900D01*
X480314Y191164D01*
X478380Y189230D01*
X475644Y189230D01*
G37*
G36*
X485296Y196622D02*
X483362Y198556D01*
X483362Y201292D01*
X485296Y203226D01*
X488032Y203226D01*
X489966Y201292D01*
X489966Y198584D01*
X489971Y198561D01*
X488032Y196622D01*
X485296Y196622D01*
G37*
G36*
X402492Y196342D02*
X400558Y198276D01*
X400558Y201012D01*
X402492Y202946D01*
X405228Y202946D01*
X407162Y201012D01*
X407162Y198276D01*
X405228Y196342D01*
X402492Y196342D01*
G37*
G36*
X132516Y195072D02*
X130582Y197006D01*
X130582Y199742D01*
X132516Y201676D01*
X135251Y201676D01*
X137186Y199742D01*
X137186Y197006D01*
X135251Y195072D01*
X132516Y195072D01*
G37*
G36*
X390300Y193294D02*
X388744Y194850D01*
X388537Y194987D01*
X388293Y195033D01*
X388050Y194979D01*
X387861Y194850D01*
X387448Y194437D01*
X384712Y194437D01*
X382778Y196371D01*
X382778Y199107D01*
X384712Y201041D01*
X387448Y201041D01*
X389004Y199485D01*
X389211Y199348D01*
X389455Y199302D01*
X389698Y199356D01*
X389887Y199485D01*
X390300Y199898D01*
X393036Y199898D01*
X394970Y197964D01*
X394970Y195228D01*
X393036Y193294D01*
X390300Y193294D01*
G37*
G36*
X528847Y189093D02*
X526913Y191027D01*
X526913Y193763D01*
X528847Y195697D01*
X529851Y195697D01*
X530094Y195746D01*
X530299Y195887D01*
X530433Y196097D01*
X530476Y196322D01*
X530476Y198103D01*
X532410Y200037D01*
X535145Y200037D01*
X537080Y198103D01*
X537080Y195367D01*
X535145Y193433D01*
X534142Y193433D01*
X533898Y193384D01*
X533693Y193243D01*
X533559Y193033D01*
X533517Y192808D01*
X533517Y191027D01*
X531583Y189093D01*
X528847Y189093D01*
G37*
G36*
X290224Y190246D02*
X288290Y192180D01*
X288290Y194916D01*
X290224Y196850D01*
X292960Y196850D01*
X294894Y194916D01*
X294894Y192180D01*
X292960Y190246D01*
X290224Y190246D01*
G37*
G36*
X433480Y188722D02*
X431546Y190656D01*
X431546Y193392D01*
X433480Y195326D01*
X436216Y195326D01*
X438150Y193392D01*
X438150Y190656D01*
X436216Y188722D01*
X433480Y188722D01*
G37*
G36*
X117312Y188150D02*
X115378Y190084D01*
X115378Y192820D01*
X117312Y194754D01*
X120047Y194754D01*
X121982Y192820D01*
X121982Y190084D01*
X120047Y188150D01*
X117312Y188150D01*
G37*
G36*
X399486Y184109D02*
X397551Y186043D01*
X397551Y188778D01*
X399486Y190713D01*
X402221Y190713D01*
X404155Y188778D01*
X404155Y186043D01*
X402221Y184109D01*
X399486Y184109D01*
G37*
G36*
X483238Y183108D02*
X481304Y185042D01*
X481304Y187778D01*
X483238Y189712D01*
X485974Y189712D01*
X487908Y187778D01*
X487908Y185042D01*
X485974Y183108D01*
X483238Y183108D01*
G37*
G36*
X448730Y181854D02*
X446796Y183788D01*
X446796Y186524D01*
X448730Y188458D01*
X451466Y188458D01*
X453400Y186524D01*
X453400Y183788D01*
X451466Y181854D01*
X448730Y181854D01*
G37*
G36*
X413795Y170180D02*
X411861Y172114D01*
X411861Y174850D01*
X413795Y176784D01*
X416477Y176784D01*
X416721Y176834D01*
X416926Y176974D01*
X417060Y177184D01*
X417102Y177429D01*
X417045Y177671D01*
X416919Y177851D01*
X415798Y178972D01*
X415798Y181654D01*
X415749Y181898D01*
X415608Y182103D01*
X415398Y182237D01*
X415153Y182279D01*
X414911Y182222D01*
X414731Y182096D01*
X413991Y181356D01*
X411255Y181356D01*
X409321Y183290D01*
X409321Y186026D01*
X411255Y187960D01*
X413991Y187960D01*
X415925Y186026D01*
X415925Y183344D01*
X415975Y183100D01*
X416115Y182895D01*
X416325Y182761D01*
X416570Y182719D01*
X416812Y182776D01*
X416992Y182902D01*
X417732Y183642D01*
X420468Y183642D01*
X422402Y181708D01*
X422402Y178972D01*
X420468Y177038D01*
X417786Y177038D01*
X417542Y176989D01*
X417337Y176848D01*
X417203Y176638D01*
X417161Y176393D01*
X417218Y176151D01*
X417344Y175971D01*
X418465Y174850D01*
X418465Y172114D01*
X416531Y170180D01*
X413795Y170180D01*
G37*
G36*
X289716Y179578D02*
X287782Y181512D01*
X287782Y184248D01*
X289716Y186182D01*
X292452Y186182D01*
X294386Y184248D01*
X294386Y181512D01*
X292452Y179578D01*
X289716Y179578D01*
G37*
G36*
X569106Y179568D02*
X567172Y181502D01*
X567172Y184238D01*
X569106Y186172D01*
X571842Y186172D01*
X573776Y184238D01*
X573776Y181502D01*
X571842Y179568D01*
X569106Y179568D01*
G37*
G36*
X203356Y168910D02*
X201422Y170844D01*
X201422Y173580D01*
X202406Y174564D01*
X202544Y174771D01*
X202589Y175016D01*
X202536Y175259D01*
X202406Y175448D01*
X201422Y176432D01*
X201422Y179168D01*
X203356Y181102D01*
X206092Y181102D01*
X208026Y179168D01*
X208026Y176432D01*
X207042Y175448D01*
X206904Y175241D01*
X206859Y174996D01*
X206912Y174753D01*
X207042Y174564D01*
X208026Y173580D01*
X208026Y170844D01*
X206092Y168910D01*
X203356Y168910D01*
G37*
G36*
X376838Y171958D02*
X374904Y173892D01*
X374904Y176628D01*
X376838Y178562D01*
X379574Y178562D01*
X381508Y176628D01*
X381508Y173892D01*
X379574Y171958D01*
X376838Y171958D01*
G37*
G36*
X423320Y170434D02*
X421386Y172368D01*
X421386Y175104D01*
X423320Y177038D01*
X426056Y177038D01*
X427990Y175104D01*
X427990Y172368D01*
X426056Y170434D01*
X423320Y170434D01*
G37*
G36*
X289716Y168910D02*
X287782Y170844D01*
X287782Y173580D01*
X289716Y175514D01*
X292452Y175514D01*
X294386Y173580D01*
X294386Y170844D01*
X292452Y168910D01*
X289716Y168910D01*
G37*
G36*
X416208Y161961D02*
X414274Y163895D01*
X414274Y166631D01*
X416208Y168565D01*
X418944Y168565D01*
X420878Y166631D01*
X420878Y163895D01*
X418944Y161961D01*
X416208Y161961D01*
G37*
G36*
X427638Y160528D02*
X425704Y162462D01*
X425704Y165198D01*
X427638Y167132D01*
X430374Y167132D01*
X431749Y165757D01*
X431956Y165619D01*
X432201Y165574D01*
X432444Y165627D01*
X432647Y165771D01*
X432778Y165983D01*
X432816Y166199D01*
X432816Y166468D01*
X434750Y168402D01*
X437486Y168402D01*
X439420Y166468D01*
X439420Y163732D01*
X437486Y161798D01*
X434750Y161798D01*
X433375Y163173D01*
X433168Y163311D01*
X432923Y163356D01*
X432680Y163303D01*
X432477Y163159D01*
X432347Y162947D01*
X432308Y162731D01*
X432308Y162462D01*
X430374Y160528D01*
X427638Y160528D01*
G37*
G36*
X199149Y145506D02*
X197214Y147440D01*
X197214Y150176D01*
X199149Y152110D01*
X201103Y152110D01*
X201346Y152160D01*
X201551Y152300D01*
X201685Y152510D01*
X201728Y152735D01*
X201728Y153565D01*
X202305Y154143D01*
X202442Y154350D01*
X202488Y154595D01*
X202435Y154838D01*
X202305Y155027D01*
X200914Y156418D01*
X200914Y159153D01*
X201898Y160138D01*
X202036Y160345D01*
X202081Y160589D01*
X202028Y160832D01*
X201898Y161021D01*
X200914Y162006D01*
X200914Y164741D01*
X202848Y166676D01*
X205584Y166676D01*
X207518Y164741D01*
X207518Y162006D01*
X206534Y161021D01*
X206396Y160814D01*
X206351Y160570D01*
X206404Y160327D01*
X206534Y160138D01*
X207518Y159153D01*
X207518Y156418D01*
X206940Y155840D01*
X206803Y155633D01*
X206757Y155388D01*
X206811Y155145D01*
X206940Y154956D01*
X208332Y153565D01*
X208332Y150830D01*
X206397Y148896D01*
X204443Y148896D01*
X204199Y148846D01*
X203994Y148705D01*
X203860Y148496D01*
X203818Y148271D01*
X203818Y147440D01*
X201884Y145506D01*
X199149Y145506D01*
G37*
G36*
X266348Y156419D02*
X264414Y158353D01*
X264414Y161089D01*
X266348Y163023D01*
X269084Y163023D01*
X271018Y161089D01*
X271018Y158353D01*
X269084Y156419D01*
X266348Y156419D01*
G37*
G36*
X397666Y144018D02*
X395732Y145952D01*
X395732Y148688D01*
X397666Y150622D01*
X398409Y150622D01*
X398653Y150672D01*
X398858Y150812D01*
X398992Y151022D01*
X399034Y151247D01*
X399034Y153260D01*
X400272Y154498D01*
X400410Y154705D01*
X400455Y154950D01*
X400402Y155193D01*
X400272Y155382D01*
X399034Y156620D01*
X399034Y159356D01*
X400968Y161290D01*
X403704Y161290D01*
X405638Y159356D01*
X405638Y156620D01*
X404400Y155382D01*
X404262Y155175D01*
X404217Y154930D01*
X404270Y154687D01*
X404400Y154498D01*
X405638Y153260D01*
X405638Y150524D01*
X403704Y148590D01*
X402961Y148590D01*
X402717Y148541D01*
X402512Y148400D01*
X402378Y148190D01*
X402336Y147965D01*
X402336Y145952D01*
X400402Y144018D01*
X397666Y144018D01*
G37*
G36*
X113694Y154686D02*
X111760Y156620D01*
X111760Y159356D01*
X113694Y161290D01*
X116430Y161290D01*
X118364Y159356D01*
X118364Y156620D01*
X116430Y154686D01*
X113694Y154686D01*
G37*
G36*
X139586Y149876D02*
X137652Y151811D01*
X137652Y154546D01*
X139586Y156480D01*
X142321Y156480D01*
X144256Y154546D01*
X144256Y151811D01*
X142321Y149876D01*
X139586Y149876D01*
G37*
G36*
X516284Y149352D02*
X514350Y151286D01*
X514350Y154022D01*
X516284Y155956D01*
X519020Y155956D01*
X520954Y154022D01*
X520954Y151286D01*
X519020Y149352D01*
X516284Y149352D01*
G37*
G36*
X566576Y148590D02*
X564642Y150524D01*
X564642Y153260D01*
X566576Y155194D01*
X569312Y155194D01*
X571246Y153260D01*
X571246Y150524D01*
X569312Y148590D01*
X566576Y148590D01*
G37*
G36*
X155096Y147066D02*
X153162Y149000D01*
X153162Y151736D01*
X155096Y153670D01*
X157832Y153670D01*
X159766Y151736D01*
X159766Y149000D01*
X157832Y147066D01*
X155096Y147066D01*
G37*
G36*
X114710Y145796D02*
X112776Y147730D01*
X112776Y150466D01*
X114710Y152400D01*
X117446Y152400D01*
X119380Y150466D01*
X119380Y147730D01*
X117446Y145796D01*
X114710Y145796D01*
G37*
G36*
X175416Y145034D02*
X173477Y146974D01*
X173433Y147191D01*
X173292Y147396D01*
X173082Y147530D01*
X172837Y147572D01*
X172595Y147515D01*
X172415Y147389D01*
X170532Y145506D01*
X167796Y145506D01*
X165862Y147440D01*
X165862Y150176D01*
X167796Y152110D01*
X170532Y152110D01*
X172471Y150170D01*
X172516Y149953D01*
X172656Y149748D01*
X172866Y149614D01*
X173111Y149572D01*
X173353Y149629D01*
X173533Y149755D01*
X175416Y151638D01*
X178152Y151638D01*
X180086Y149704D01*
X180086Y146968D01*
X178152Y145034D01*
X175416Y145034D01*
G37*
G36*
X183544Y145262D02*
X181610Y147196D01*
X181610Y149932D01*
X183544Y151866D01*
X186280Y151866D01*
X188214Y149932D01*
X188214Y147196D01*
X186280Y145262D01*
X183544Y145262D01*
G37*
G36*
X413414Y139954D02*
X411480Y141888D01*
X411480Y144624D01*
X413414Y146558D01*
X416150Y146558D01*
X418084Y144624D01*
X418084Y141888D01*
X416150Y139954D01*
X413414Y139954D01*
G37*
G36*
X636934Y138176D02*
X635000Y140110D01*
X635000Y142846D01*
X636934Y144780D01*
X639670Y144780D01*
X641604Y142846D01*
X641604Y140110D01*
X639670Y138176D01*
X636934Y138176D01*
G37*
G36*
X428908Y136652D02*
X426974Y138586D01*
X426974Y141322D01*
X428908Y143256D01*
X431644Y143256D01*
X433578Y141322D01*
X433578Y138586D01*
X431644Y136652D01*
X428908Y136652D01*
G37*
G36*
X645306Y135372D02*
X643372Y137306D01*
X643372Y140042D01*
X645306Y141976D01*
X648042Y141976D01*
X649976Y140042D01*
X649976Y137306D01*
X648042Y135372D01*
X645306Y135372D01*
G37*
G36*
X122838Y135128D02*
X120904Y137062D01*
X120904Y139798D01*
X122838Y141732D01*
X125574Y141732D01*
X127508Y139798D01*
X127508Y137062D01*
X125574Y135128D01*
X122838Y135128D01*
G37*
G36*
X692814Y131826D02*
X690880Y133760D01*
X690880Y136496D01*
X692814Y138430D01*
X695550Y138430D01*
X697484Y136496D01*
X697484Y133760D01*
X695550Y131826D01*
X692814Y131826D01*
G37*
G36*
X198276Y130302D02*
X196342Y132236D01*
X196342Y134972D01*
X198276Y136906D01*
X201012Y136906D01*
X202946Y134972D01*
X202946Y132236D01*
X201012Y130302D01*
X198276Y130302D01*
G37*
G36*
X208436Y130302D02*
X206502Y132236D01*
X206502Y134972D01*
X208436Y136906D01*
X211172Y136906D01*
X213106Y134972D01*
X213106Y132236D01*
X211172Y130302D01*
X208436Y130302D01*
G37*
G36*
X162700Y130032D02*
X160766Y131966D01*
X160766Y134701D01*
X162700Y136636D01*
X165435Y136636D01*
X167370Y134701D01*
X167370Y131966D01*
X165435Y130032D01*
X162700Y130032D01*
G37*
G36*
X128172Y125730D02*
X126238Y127664D01*
X126238Y130400D01*
X128172Y132334D01*
X130908Y132334D01*
X132842Y130400D01*
X132842Y127664D01*
X130908Y125730D01*
X128172Y125730D01*
G37*
G36*
X74549Y117223D02*
X74549Y129132D01*
X76613Y129132D01*
X81130Y127261D01*
X84587Y123804D01*
X86458Y119287D01*
X86458Y117223D01*
X74549Y117223D01*
G37*
G36*
X61878Y117223D02*
X61878Y119287D01*
X63749Y123804D01*
X67206Y127261D01*
X71723Y129132D01*
X73787Y129132D01*
X73787Y117223D01*
X61878Y117223D01*
G37*
G36*
X424590Y120396D02*
X422656Y122330D01*
X422656Y125066D01*
X424590Y127000D01*
X427326Y127000D01*
X429260Y125066D01*
X429260Y122330D01*
X427326Y120396D01*
X424590Y120396D01*
G37*
G36*
X281080Y120142D02*
X279146Y122076D01*
X279146Y124812D01*
X281080Y126746D01*
X283816Y126746D01*
X285750Y124812D01*
X285750Y122076D01*
X283816Y120142D01*
X281080Y120142D01*
G37*
G36*
X316894Y104394D02*
X314960Y106328D01*
X314960Y109064D01*
X316894Y110998D01*
X319749Y110998D01*
X319933Y110964D01*
X320176Y111017D01*
X320379Y111161D01*
X320510Y111373D01*
X320548Y111589D01*
X320548Y113421D01*
X320499Y113665D01*
X320358Y113870D01*
X320148Y114004D01*
X319923Y114046D01*
X317148Y114046D01*
X315214Y115980D01*
X315214Y118501D01*
X315165Y118745D01*
X315024Y118950D01*
X314814Y119084D01*
X314589Y119126D01*
X312576Y119126D01*
X310642Y121060D01*
X310642Y123796D01*
X312576Y125730D01*
X315312Y125730D01*
X317246Y123796D01*
X317246Y121275D01*
X317296Y121031D01*
X317436Y120826D01*
X317646Y120692D01*
X317871Y120650D01*
X319884Y120650D01*
X321818Y118716D01*
X321818Y116195D01*
X321868Y115951D01*
X322008Y115746D01*
X322218Y115612D01*
X322443Y115570D01*
X325218Y115570D01*
X327152Y113636D01*
X327152Y110900D01*
X325218Y108966D01*
X322363Y108966D01*
X322179Y109000D01*
X321936Y108947D01*
X321733Y108803D01*
X321603Y108591D01*
X321564Y108375D01*
X321564Y106328D01*
X319630Y104394D01*
X316894Y104394D01*
G37*
G36*
X12878Y111223D02*
X12878Y113287D01*
X14749Y117804D01*
X18206Y121261D01*
X22723Y123132D01*
X24787Y123132D01*
X24787Y111223D01*
X12878Y111223D01*
G37*
G36*
X25549Y111223D02*
X25549Y123132D01*
X27613Y123132D01*
X32130Y121261D01*
X35587Y117804D01*
X37458Y113287D01*
X37458Y111223D01*
X25549Y111223D01*
G37*
G36*
X551336Y110490D02*
X549402Y112424D01*
X549402Y115160D01*
X551336Y117094D01*
X554072Y117094D01*
X556006Y115160D01*
X556006Y112424D01*
X554072Y110490D01*
X551336Y110490D01*
G37*
G36*
X74549Y104552D02*
X74549Y116461D01*
X86458Y116461D01*
X86458Y114397D01*
X84587Y109880D01*
X81130Y106423D01*
X76613Y104552D01*
X74549Y104552D01*
G37*
G36*
X71723Y104552D02*
X67206Y106423D01*
X63749Y109880D01*
X61878Y114397D01*
X61878Y116461D01*
X73787Y116461D01*
X73787Y104552D01*
X71723Y104552D01*
G37*
G36*
X421034Y107442D02*
X419100Y109376D01*
X419100Y112112D01*
X421034Y114046D01*
X423770Y114046D01*
X425704Y112112D01*
X425704Y109376D01*
X423770Y107442D01*
X421034Y107442D01*
G37*
G36*
X473104Y106045D02*
X471170Y107979D01*
X471170Y110715D01*
X473104Y112649D01*
X475840Y112649D01*
X477774Y110715D01*
X477774Y107979D01*
X475840Y106045D01*
X473104Y106045D01*
G37*
G36*
X433480Y105918D02*
X431546Y107852D01*
X431546Y110588D01*
X433480Y112522D01*
X436216Y112522D01*
X438150Y110588D01*
X438150Y107852D01*
X436216Y105918D01*
X433480Y105918D01*
G37*
G36*
X116488Y104140D02*
X114554Y106074D01*
X114554Y108810D01*
X116488Y110744D01*
X119224Y110744D01*
X121158Y108810D01*
X121158Y106074D01*
X119224Y104140D01*
X116488Y104140D01*
G37*
G36*
X25549Y98552D02*
X25549Y110461D01*
X37458Y110461D01*
X37458Y108397D01*
X35587Y103880D01*
X32130Y100423D01*
X27613Y98552D01*
X25549Y98552D01*
G37*
G36*
X22723Y98552D02*
X18206Y100423D01*
X14749Y103880D01*
X12878Y108397D01*
X12878Y110461D01*
X24787Y110461D01*
X24787Y98552D01*
X22723Y98552D01*
G37*
G36*
X620932Y101854D02*
X618998Y103788D01*
X618998Y106524D01*
X620932Y108458D01*
X623668Y108458D01*
X625602Y106524D01*
X625602Y103788D01*
X623668Y101854D01*
X620932Y101854D01*
G37*
G36*
X599596Y101854D02*
X597662Y103788D01*
X597662Y106524D01*
X599596Y108458D01*
X602332Y108458D01*
X604266Y106524D01*
X604266Y103788D01*
X602332Y101854D01*
X599596Y101854D01*
G37*
G36*
X693002Y88900D02*
X693002Y92334D01*
X695922Y99382D01*
X701316Y104776D01*
X708365Y107696D01*
X711798Y107696D01*
X711798Y88900D01*
X693002Y88900D01*
G37*
G36*
X712560Y88900D02*
X712560Y107696D01*
X715994Y107696D01*
X723042Y104776D01*
X728436Y99382D01*
X731356Y92334D01*
X731356Y88900D01*
X712560Y88900D01*
G37*
G36*
X569878Y81163D02*
X567944Y83097D01*
X567944Y85833D01*
X569055Y86944D01*
X569193Y87152D01*
X569238Y87396D01*
X569185Y87639D01*
X569055Y87828D01*
X568198Y88685D01*
X568198Y91421D01*
X569241Y92464D01*
X569378Y92671D01*
X569424Y92916D01*
X569370Y93158D01*
X569241Y93347D01*
X568315Y94273D01*
X568315Y97009D01*
X568791Y97485D01*
X568929Y97692D01*
X568974Y97937D01*
X568921Y98180D01*
X568777Y98383D01*
X568565Y98514D01*
X568349Y98552D01*
X567846Y98552D01*
X565912Y100486D01*
X565912Y100501D01*
X565863Y100745D01*
X565722Y100950D01*
X565512Y101084D01*
X565267Y101126D01*
X565025Y101069D01*
X564845Y100943D01*
X564740Y100838D01*
X562004Y100838D01*
X561137Y101705D01*
X560930Y101843D01*
X560685Y101888D01*
X560442Y101835D01*
X560239Y101691D01*
X560109Y101479D01*
X560070Y101263D01*
X560070Y99724D01*
X558136Y97790D01*
X555400Y97790D01*
X553466Y99724D01*
X553466Y102460D01*
X555400Y104394D01*
X558136Y104394D01*
X559003Y103527D01*
X559210Y103389D01*
X559455Y103344D01*
X559698Y103397D01*
X559901Y103541D01*
X560032Y103753D01*
X560070Y103969D01*
X560070Y105508D01*
X562004Y107442D01*
X564740Y107442D01*
X566674Y105508D01*
X566674Y105493D01*
X566724Y105249D01*
X566864Y105044D01*
X567074Y104910D01*
X567319Y104868D01*
X567561Y104925D01*
X567741Y105051D01*
X567846Y105156D01*
X570582Y105156D01*
X572516Y103222D01*
X572516Y100486D01*
X572040Y100010D01*
X571902Y99803D01*
X571857Y99558D01*
X571910Y99315D01*
X572054Y99112D01*
X572266Y98982D01*
X572482Y98943D01*
X572985Y98943D01*
X574919Y97009D01*
X574919Y94273D01*
X573876Y93231D01*
X573739Y93023D01*
X573693Y92779D01*
X573747Y92536D01*
X573876Y92347D01*
X574802Y91421D01*
X574802Y88685D01*
X573691Y87574D01*
X573553Y87367D01*
X573508Y87122D01*
X573561Y86879D01*
X573691Y86690D01*
X574548Y85833D01*
X574548Y83097D01*
X572614Y81163D01*
X569878Y81163D01*
G37*
G36*
X235614Y100330D02*
X233680Y102264D01*
X233680Y105000D01*
X235614Y106934D01*
X238350Y106934D01*
X240284Y105000D01*
X240284Y102264D01*
X238350Y100330D01*
X235614Y100330D01*
G37*
G36*
X659794Y96709D02*
X657860Y98643D01*
X657860Y101379D01*
X659794Y103313D01*
X662530Y103313D01*
X664464Y101379D01*
X664464Y98643D01*
X662530Y96709D01*
X659794Y96709D01*
G37*
G36*
X323752Y92456D02*
X321818Y94390D01*
X321818Y97126D01*
X323752Y99060D01*
X326488Y99060D01*
X328422Y97126D01*
X328422Y94390D01*
X326488Y92456D01*
X323752Y92456D01*
G37*
G36*
X215040Y89789D02*
X213106Y91723D01*
X213106Y94459D01*
X215040Y96393D01*
X217776Y96393D01*
X219710Y94459D01*
X219710Y91723D01*
X217776Y89789D01*
X215040Y89789D01*
G37*
G36*
X312830Y88138D02*
X310896Y90072D01*
X310896Y92808D01*
X312830Y94742D01*
X315566Y94742D01*
X317500Y92808D01*
X317500Y90072D01*
X315566Y88138D01*
X312830Y88138D01*
G37*
G36*
X712560Y69342D02*
X712560Y88138D01*
X731356Y88138D01*
X731356Y84705D01*
X728436Y77656D01*
X723042Y72262D01*
X715994Y69342D01*
X712560Y69342D01*
G37*
G36*
X708365Y69342D02*
X701316Y72262D01*
X695922Y77656D01*
X693002Y84705D01*
X693002Y88138D01*
X711798Y88138D01*
X711798Y69342D01*
X708365Y69342D01*
G37*
G36*
X611788Y77470D02*
X609854Y79404D01*
X609854Y82140D01*
X611788Y84074D01*
X614524Y84074D01*
X616458Y82140D01*
X616458Y79404D01*
X614524Y77470D01*
X611788Y77470D01*
G37*
G36*
X314354Y54864D02*
X312420Y56798D01*
X312420Y58557D01*
X312371Y58801D01*
X312230Y59006D01*
X312020Y59140D01*
X311795Y59182D01*
X310798Y59182D01*
X308864Y61116D01*
X308864Y63852D01*
X310798Y65786D01*
X312049Y65786D01*
X312293Y65836D01*
X312498Y65976D01*
X312632Y66186D01*
X312674Y66411D01*
X312674Y69186D01*
X314608Y71120D01*
X315385Y71120D01*
X315629Y71170D01*
X315834Y71310D01*
X315968Y71520D01*
X316010Y71765D01*
X315953Y72007D01*
X315827Y72187D01*
X314335Y73679D01*
X314335Y75833D01*
X314286Y76077D01*
X314145Y76282D01*
X313935Y76416D01*
X313710Y76458D01*
X313080Y76458D01*
X311146Y78393D01*
X311146Y81128D01*
X313080Y83062D01*
X315815Y83062D01*
X317750Y81128D01*
X317750Y78974D01*
X317799Y78730D01*
X317940Y78525D01*
X318149Y78391D01*
X318375Y78349D01*
X319005Y78349D01*
X320939Y76415D01*
X320939Y73679D01*
X319005Y71745D01*
X318228Y71745D01*
X317984Y71695D01*
X317779Y71555D01*
X317645Y71345D01*
X317603Y71100D01*
X317660Y70858D01*
X317786Y70678D01*
X319278Y69186D01*
X319278Y66450D01*
X317344Y64516D01*
X316093Y64516D01*
X315849Y64467D01*
X315644Y64326D01*
X315510Y64116D01*
X315468Y63891D01*
X315468Y62093D01*
X315518Y61849D01*
X315658Y61644D01*
X315868Y61510D01*
X316093Y61468D01*
X317090Y61468D01*
X319024Y59534D01*
X319024Y56798D01*
X317090Y54864D01*
X314354Y54864D01*
G37*
G36*
X340262Y68072D02*
X338328Y70006D01*
X338328Y72742D01*
X340262Y74676D01*
X342998Y74676D01*
X344932Y72742D01*
X344932Y70006D01*
X342998Y68072D01*
X340262Y68072D01*
G37*
G36*
X543716Y67818D02*
X541782Y69752D01*
X541782Y72488D01*
X543716Y74422D01*
X546452Y74422D01*
X548386Y72488D01*
X548386Y69752D01*
X546452Y67818D01*
X543716Y67818D01*
G37*
G36*
X281080Y63246D02*
X279146Y65180D01*
X279146Y67916D01*
X281080Y69850D01*
X283816Y69850D01*
X285750Y67916D01*
X285750Y65180D01*
X283816Y63246D01*
X281080Y63246D01*
G37*
G36*
X538890Y57404D02*
X536956Y59338D01*
X536956Y62074D01*
X538890Y64008D01*
X541626Y64008D01*
X543560Y62074D01*
X543560Y59338D01*
X541626Y57404D01*
X538890Y57404D01*
G37*
G36*
X526952Y55372D02*
X525018Y57306D01*
X525018Y60042D01*
X526952Y61976D01*
X529688Y61976D01*
X531622Y60042D01*
X531622Y57306D01*
X529688Y55372D01*
X526952Y55372D01*
G37*
G36*
X274984Y53848D02*
X273050Y55782D01*
X273050Y58518D01*
X274984Y60452D01*
X277720Y60452D01*
X279654Y58518D01*
X279654Y55782D01*
X277720Y53848D01*
X274984Y53848D01*
G37*
G36*
X768218Y23116D02*
X761404Y25939D01*
X756189Y31154D01*
X753366Y37968D01*
X753366Y45344D01*
X756189Y52158D01*
X761404Y57373D01*
X768218Y60196D01*
X775594Y60196D01*
X782408Y57373D01*
X787623Y52158D01*
X790446Y45344D01*
X790446Y37968D01*
X787623Y31154D01*
X782408Y25939D01*
X775594Y23116D01*
X768218Y23116D01*
G37*
G36*
X39746Y22100D02*
X32932Y24923D01*
X27717Y30138D01*
X24894Y36952D01*
X24894Y44328D01*
X27717Y51142D01*
X32932Y56357D01*
X39746Y59180D01*
X47122Y59180D01*
X53936Y56357D01*
X59151Y51142D01*
X61974Y44328D01*
X61974Y36952D01*
X59151Y30138D01*
X53936Y24923D01*
X47122Y22100D01*
X39746Y22100D01*
G37*
G36*
X334928Y51816D02*
X332994Y53750D01*
X332994Y56486D01*
X334928Y58420D01*
X337664Y58420D01*
X339598Y56486D01*
X339598Y53750D01*
X337664Y51816D01*
X334928Y51816D01*
G37*
G36*
X104550Y44958D02*
X102616Y46892D01*
X102616Y49628D01*
X104550Y51562D01*
X107286Y51562D01*
X109220Y49628D01*
X109220Y46892D01*
X107286Y44958D01*
X104550Y44958D01*
G37*
G36*
X594422Y44608D02*
X592488Y46542D01*
X592488Y49278D01*
X594422Y51212D01*
X597158Y51212D01*
X599092Y49278D01*
X599092Y46542D01*
X597158Y44608D01*
X594422Y44608D01*
G37*
G36*
X196752Y37338D02*
X194818Y39272D01*
X194818Y42008D01*
X196752Y43942D01*
X199488Y43942D01*
X201422Y42008D01*
X201422Y39272D01*
X199488Y37338D01*
X196752Y37338D01*
G37*
G36*
X108106Y37084D02*
X106172Y39018D01*
X106172Y41754D01*
X108106Y43688D01*
X110842Y43688D01*
X112776Y41754D01*
X112776Y39018D01*
X110842Y37084D01*
X108106Y37084D01*
G37*
G36*
X613918Y26416D02*
X613918Y28056D01*
X615465Y31790D01*
X618323Y34648D01*
X622057Y36195D01*
X623697Y36195D01*
X623697Y26416D01*
X613918Y26416D01*
G37*
G36*
X624459Y26416D02*
X624459Y36195D01*
X626099Y36195D01*
X629833Y34648D01*
X632691Y31790D01*
X634238Y28056D01*
X634238Y26416D01*
X624459Y26416D01*
G37*
G36*
X698560Y17399D02*
X695386Y18714D01*
X692957Y21143D01*
X691642Y24317D01*
X691642Y27753D01*
X692957Y30927D01*
X695386Y33356D01*
X698560Y34671D01*
X701996Y34671D01*
X705170Y33356D01*
X707599Y30927D01*
X708914Y27753D01*
X708914Y24317D01*
X707599Y21143D01*
X705170Y18714D01*
X701996Y17399D01*
X698560Y17399D01*
G37*
G36*
X673160Y17399D02*
X669986Y18714D01*
X667557Y21143D01*
X666242Y24317D01*
X666242Y27753D01*
X667557Y30927D01*
X669986Y33356D01*
X673160Y34671D01*
X676596Y34671D01*
X679770Y33356D01*
X682199Y30927D01*
X683514Y27753D01*
X683514Y24317D01*
X682199Y21143D01*
X679770Y18714D01*
X676596Y17399D01*
X673160Y17399D01*
G37*
G36*
X647760Y17399D02*
X644586Y18714D01*
X642157Y21143D01*
X640842Y24317D01*
X640842Y27753D01*
X642157Y30927D01*
X644586Y33356D01*
X647760Y34671D01*
X651196Y34671D01*
X654370Y33356D01*
X656799Y30927D01*
X658114Y27753D01*
X658114Y24317D01*
X656799Y21143D01*
X654370Y18714D01*
X651196Y17399D01*
X647760Y17399D01*
G37*
G36*
X528862Y27488D02*
X526928Y29422D01*
X526928Y32158D01*
X528862Y34092D01*
X531598Y34092D01*
X533532Y32158D01*
X533532Y29422D01*
X531598Y27488D01*
X528862Y27488D01*
G37*
G36*
X624459Y15875D02*
X624459Y25654D01*
X634238Y25654D01*
X634238Y24014D01*
X632691Y20280D01*
X629833Y17422D01*
X626099Y15875D01*
X624459Y15875D01*
G37*
G36*
X622057Y15875D02*
X618323Y17422D01*
X615465Y20280D01*
X613918Y24014D01*
X613918Y25654D01*
X623697Y25654D01*
X623697Y15875D01*
X622057Y15875D01*
G37*
G36*
X276000Y14986D02*
X274066Y16920D01*
X274066Y19656D01*
X276000Y21590D01*
X278736Y21590D01*
X280670Y19656D01*
X280670Y16920D01*
X278736Y14986D01*
X276000Y14986D01*
G37*
G36*
X211484Y14478D02*
X209550Y16412D01*
X209550Y19148D01*
X211484Y21082D01*
X214220Y21082D01*
X216154Y19148D01*
X216154Y16412D01*
X214220Y14478D01*
X211484Y14478D01*
G37*
%LPD*%
D10*
X530098Y426466D03*
X530098Y434340D03*
X530098Y442214D03*
X530098Y450088D03*
X530098Y457962D03*
X537972Y426466D03*
X537972Y434340D03*
X537972Y442214D03*
X537972Y450088D03*
X537972Y457962D03*
X545846Y426466D03*
X545846Y434340D03*
X545846Y442214D03*
X545846Y450088D03*
X545846Y457962D03*
X553720Y426466D03*
X553720Y434340D03*
X553720Y442214D03*
X553720Y450088D03*
X553720Y457962D03*
X561594Y426466D03*
X561594Y434340D03*
X561594Y442214D03*
X561594Y450088D03*
X561594Y457962D03*
D11*
X712179Y219837D03*
X712179Y88519D03*
D12*
X624078Y26035D03*
X649478Y26035D03*
X674878Y26035D03*
X700278Y26035D03*
D13*
X636184Y391955D03*
X661584Y379255D03*
X636184Y366555D03*
X636184Y341155D03*
X636184Y315755D03*
X661584Y353855D03*
X661584Y328455D03*
X661584Y303055D03*
D14*
X695034Y271305D03*
X695034Y423305D03*
D13*
X765034Y281305D03*
X765034Y413305D03*
X765034Y388305D03*
X765034Y306305D03*
D15*
X440152Y447150D03*
X350152Y447150D03*
D16*
X25908Y361442D03*
X25908Y396442D03*
D17*
X74168Y261842D03*
X74168Y116842D03*
X25168Y267842D03*
X25168Y110842D03*
D18*
X392430Y258572D03*
X183966Y373310D03*
X400050Y258572D03*
X191978Y413212D03*
X238506Y257048D03*
X183612Y365383D03*
X233934Y250190D03*
X191966Y421582D03*
X392430Y250952D03*
X374142Y253238D03*
X219526Y257880D03*
X182161Y395067D03*
X400050Y250952D03*
X215968Y413580D03*
X289941Y245999D03*
X357632Y240437D03*
X392430Y242570D03*
X355854Y232664D03*
X189748Y349622D03*
X276606Y242697D03*
X207777Y413771D03*
X400050Y242570D03*
X320040Y237998D03*
X364727Y235983D03*
X219456Y382780D03*
X214175Y351843D03*
X207518Y338074D03*
X209550Y393055D03*
X392430Y274574D03*
X214376Y321310D03*
X167894Y346202D03*
X167549Y373446D03*
X264414Y271526D03*
X400050Y274447D03*
X392440Y266329D03*
X252222Y282194D03*
X400050Y266192D03*
X270510Y263144D03*
X119634Y354584D03*
X160103Y373446D03*
X301752Y246517D03*
X199918Y373631D03*
X295656Y246517D03*
X200028Y382133D03*
X255973Y373575D03*
X392049Y314325D03*
X255646Y421903D03*
X242824Y341650D03*
X400050Y322580D03*
X239821Y382258D03*
X392430Y330962D03*
X256032Y355346D03*
X371856Y330957D03*
X367194Y347402D03*
X371856Y343154D03*
X263652Y365252D03*
X416791Y330939D03*
X366522Y361442D03*
X408432Y330962D03*
X371094Y356870D03*
X362458Y340614D03*
X329416Y343080D03*
X392430Y306578D03*
X232226Y403352D03*
X264414Y404876D03*
X384048Y306578D03*
X250698Y403352D03*
X238326Y403733D03*
X247646Y413903D03*
X392430Y322580D03*
X400929Y290459D03*
X276606Y383677D03*
X400050Y330962D03*
X247517Y365119D03*
X284029Y381819D03*
X269748Y400304D03*
X392430Y338582D03*
X247650Y373634D03*
X391686Y298940D03*
X231646Y421349D03*
X362712Y259334D03*
X216045Y400513D03*
X217334Y346650D03*
X211672Y383704D03*
X133350Y359156D03*
X175973Y404876D03*
X127762Y359156D03*
X168498Y405050D03*
X274574Y346456D03*
X280815Y362966D03*
D19*
X321310Y362966D02*
X324612Y359664D01*
X321310Y362966D02*
X280815Y362966D01*
D18*
X147828Y346964D03*
X159258Y353060D03*
X380666Y370332D03*
X440436Y298958D03*
X199644Y421640D03*
X432187Y315081D03*
X432562Y266700D03*
X424180Y290322D03*
X447925Y258441D03*
X464046Y275324D03*
X448051Y274315D03*
X439669Y282697D03*
X423795Y282571D03*
X472740Y298630D03*
X423987Y258379D03*
D19*
X426075Y362829D02*
X426720Y363474D01*
D18*
X597916Y437134D03*
X480343Y274234D03*
X595122Y80772D03*
X198882Y222348D03*
X155702Y218440D03*
X165100Y218186D03*
X143080Y214156D03*
X447548Y99314D03*
X306578Y98552D03*
X66040Y221742D03*
X549226Y483642D03*
X574548Y415036D03*
X257810Y73660D03*
X773430Y249174D03*
X766064Y355092D03*
X661416Y469900D03*
X635508Y476250D03*
X257556Y433578D03*
X146050Y440182D03*
X167386Y385064D03*
X221996Y396240D03*
X208026Y430784D03*
X235712Y434340D03*
X283210Y452628D03*
X183642Y356616D03*
X216916Y337820D03*
X175789Y413491D03*
X264922Y356108D03*
X247650Y349758D03*
X240030Y130556D03*
X263398Y144272D03*
X229108Y185166D03*
X138176Y191262D03*
X156972Y156718D03*
X101854Y124968D03*
X241842Y223768D03*
X136398Y108458D03*
X209804Y102362D03*
X380492Y205486D03*
X242824Y182626D03*
X242062Y193294D03*
X243078Y204978D03*
X242570Y214122D03*
X241554Y116840D03*
X245364Y102108D03*
X361696Y30734D03*
X454914Y25400D03*
X557276Y56896D03*
X677418Y73914D03*
X572008Y134620D03*
X656336Y248666D03*
X715010Y249174D03*
X623316Y185166D03*
X593344Y182372D03*
X516128Y196850D03*
X100584Y207264D03*
X108966Y274320D03*
X714756Y118110D03*
X173990Y218440D03*
X471170Y392684D03*
X390762Y379482D03*
X574294Y384166D03*
X546862Y323342D03*
X456451Y282259D03*
X456238Y219132D03*
X479933Y258630D03*
X464497Y258445D03*
X238806Y443192D03*
X561340Y151892D03*
X562864Y274066D03*
X610095Y220253D03*
X586612Y220212D03*
X610339Y244169D03*
X586623Y244181D03*
X66040Y176784D03*
X66040Y191770D03*
X66040Y162052D03*
X66040Y146812D03*
X121920Y14732D03*
X175514Y63500D03*
X150876Y63754D03*
X159258Y90297D03*
X518854Y372296D03*
X516114Y469392D03*
X437525Y382407D03*
X516890Y414655D03*
X464891Y418693D03*
X480238Y339132D03*
X451673Y475488D03*
X587526Y470834D03*
X626872Y204216D03*
X632460Y254254D03*
X533146Y279654D03*
X570992Y290322D03*
X605536Y324612D03*
X492633Y365760D03*
D19*
X426075Y362829D02*
X423905Y362829D01*
D18*
X362882Y441770D03*
X440175Y358648D03*
X279157Y434351D03*
X187446Y383034D03*
X584962Y63754D03*
X181136Y458609D03*
X330708Y439674D03*
X379512Y393178D03*
X474726Y451358D03*
X372618Y451358D03*
X412369Y361833D03*
X195056Y459139D03*
X524764Y290068D03*
X596900Y38100D03*
X596900Y19177D03*
D19*
X371403Y378677D02*
X373703Y380977D01*
X371403Y378677D02*
X371403Y375423D01*
X373703Y373123D01*
X377875Y373123D01*
X380666Y370332D01*
X373703Y380977D02*
X405757Y380977D01*
X423905Y362829D01*
D18*
X376055Y410005D03*
X74850Y87610D03*
D19*
X159258Y353060D02*
X187632Y353060D01*
X188121Y353549D01*
X201949Y353549D01*
X204978Y350520D01*
D18*
X164326Y446520D03*
X534888Y358295D03*
X399377Y298630D03*
X215786Y373589D03*
X464058Y282859D03*
X464058Y266954D03*
X456224Y299506D03*
X424434Y266954D03*
X440436Y266954D03*
X471932Y258572D03*
X585724Y435267D03*
X447704Y250662D03*
X487736Y290630D03*
X607283Y419608D03*
X425196Y306578D03*
X424561Y314809D03*
X607029Y406146D03*
X607060Y412750D03*
X456438Y314960D03*
X472440Y314960D03*
X580735Y408944D03*
X480486Y298630D03*
X496238Y338624D03*
X621030Y448056D03*
X621030Y440944D03*
X621030Y433070D03*
X416052Y314960D03*
X416052Y298958D03*
X416052Y282956D03*
X282772Y346272D03*
X153924Y343916D03*
X542838Y399288D03*
X284127Y355346D03*
X175514Y432308D03*
X199549Y413446D03*
X247646Y421349D03*
X263646Y421349D03*
X159658Y365360D03*
X201168Y388874D03*
X248158Y356870D03*
X143002Y417068D03*
X223549Y421446D03*
X415925Y266954D03*
X499110Y395478D03*
X499110Y387096D03*
X499364Y403352D03*
X175923Y421626D03*
X302514Y448818D03*
X210287Y442176D03*
X434419Y408511D03*
X400050Y282956D03*
D20*
X405440Y288346D01*
X405440Y293640D01*
X404150Y294930D01*
X404150Y313660D01*
X406330Y315840D01*
X406330Y324820D01*
X404150Y327000D01*
X404150Y358420D01*
X385520Y377050D01*
X375330Y377050D01*
D18*
X375330Y377050D03*
X277368Y400304D03*
X263652Y388112D03*
X375666Y305816D03*
X231646Y372989D03*
X239972Y413316D03*
X408424Y282314D03*
X225190Y433470D03*
X215553Y357636D03*
X205486Y326644D03*
X268986Y343590D03*
X271646Y364989D03*
X285496Y440944D03*
X408432Y298958D03*
X284226Y404114D03*
X206248Y217424D03*
X204216Y208280D03*
X392430Y234369D03*
X367501Y223884D03*
X207264Y203200D03*
X364859Y218624D03*
X201168Y202692D03*
X399923Y234443D03*
X201168Y195580D03*
X204724Y177800D03*
X391668Y226568D03*
X204724Y172212D03*
X364158Y205486D03*
X399923Y226568D03*
X204216Y163374D03*
X370586Y205486D03*
X204216Y157786D03*
X205030Y152198D03*
X386080Y197739D03*
X209804Y133604D03*
X392238Y218440D03*
X400051Y218441D03*
X391668Y196596D03*
X199644Y133604D03*
X184912Y148564D03*
X176784Y148336D03*
X169164Y148808D03*
X156464Y150368D03*
X400853Y187411D03*
X407797Y226569D03*
X695706Y485648D03*
X503936Y420370D03*
X510794Y193040D03*
X528320Y58674D03*
X585918Y463356D03*
X530230Y30790D03*
X595790Y47910D03*
X613156Y80772D03*
X26924Y331978D03*
X552704Y113792D03*
X505587Y458724D03*
X486918Y458263D03*
X559308Y399542D03*
X783336Y336804D03*
X109474Y40386D03*
X564642Y485140D03*
X567436Y383032D03*
X544148Y340948D03*
X591312Y459150D03*
X470488Y436104D03*
X418983Y379819D03*
X503130Y430784D03*
X474218Y440277D03*
D20*
X493638Y440277D02*
X503130Y430784D01*
X493638Y440277D02*
X474218Y440277D01*
D18*
X423238Y383690D03*
X504190Y356870D03*
X534888Y351681D03*
D21*
X533400Y473710D02*
X529844Y477266D01*
X529844Y482600D01*
D18*
X585321Y395736D03*
X530675Y484320D03*
D21*
X530675Y483431D02*
X529844Y482600D01*
X530675Y483431D02*
X530675Y484320D01*
X602996Y421068D02*
X602996Y413410D01*
X602996Y421068D02*
X603504Y421576D01*
X602996Y413410D02*
X585321Y395736D01*
X603504Y471837D02*
X587661Y487680D01*
X603504Y471837D02*
X603504Y421576D01*
X587661Y487680D02*
X572929Y487680D01*
X558959Y473710D01*
X533400Y473710D01*
D18*
X416238Y357292D03*
X486962Y480629D03*
X585216Y416814D03*
X642620Y479806D03*
X647337Y449620D03*
X314198Y91440D03*
X336296Y55118D03*
X638302Y141478D03*
X601519Y389431D03*
X504190Y338709D03*
X512130Y339024D03*
X325120Y95758D03*
X341630Y71374D03*
X646674Y138674D03*
X593910Y390086D03*
X456438Y322580D03*
X472440Y322580D03*
X456438Y242570D03*
X415530Y250171D03*
X488442Y274574D03*
X424786Y242676D03*
X291592Y204216D03*
X291592Y193548D03*
X291084Y182880D03*
X291084Y172212D03*
X488427Y298943D03*
X538480Y482981D03*
X488547Y282437D03*
X695198Y454660D03*
X236982Y103632D03*
X282448Y123444D03*
X430276Y139954D03*
X488187Y258573D03*
X694182Y135128D03*
X661162Y100011D03*
X488442Y234696D03*
X472186Y242443D03*
X447923Y242443D03*
X198120Y40640D03*
X399796Y32893D03*
X291084Y211709D03*
X242120Y229780D03*
X276352Y57150D03*
X276606Y44450D03*
X276606Y31496D03*
X277368Y18288D03*
X327660Y461010D03*
X448691Y489839D03*
X432054Y322580D03*
X495926Y290440D03*
X448437Y330933D03*
X447978Y338756D03*
X456438Y234696D03*
X496570Y234696D03*
X504190Y250698D03*
X555752Y485140D03*
X141732Y272796D03*
X440436Y314960D03*
X423924Y250442D03*
X488621Y242712D03*
X432061Y330955D03*
X488482Y330630D03*
D22*
X494538Y375666D03*
D18*
X541177Y404912D03*
X506509Y453136D03*
X479736Y266630D03*
D22*
X478959Y379137D03*
D18*
X599440Y453390D03*
X599440Y443484D03*
X573532Y404114D03*
X521208Y402082D03*
X520954Y394716D03*
X521462Y388366D03*
X551434Y399542D03*
X545084Y71120D03*
X521589Y234442D03*
X540258Y60706D03*
X512562Y234452D03*
X530215Y192395D03*
X512064Y250698D03*
X533778Y196735D03*
X512500Y258390D03*
X754380Y330962D03*
X496250Y322486D03*
X759714Y325882D03*
X504277Y323093D03*
X664972Y452120D03*
X452094Y358902D03*
D21*
X452120Y358902D01*
D18*
X592836Y200152D03*
X621030Y282194D03*
X526034Y358140D03*
X414608Y457026D03*
X429150Y453280D03*
X570474Y182870D03*
X494538Y418084D03*
X578866Y270510D03*
X586486Y323088D03*
X738124Y245872D03*
X282448Y66548D03*
X117856Y107442D03*
X499364Y446786D03*
X565912Y233680D03*
X212852Y17780D03*
X591002Y291188D03*
X474472Y109347D03*
X554697Y360600D03*
X534147Y230588D03*
X455168Y445262D03*
X434901Y459412D03*
X424238Y218128D03*
X429196Y206476D03*
X440740Y234630D03*
X440238Y226128D03*
X446716Y204801D03*
X441212Y206135D03*
X448740Y234630D03*
X448740Y226630D03*
X517652Y152654D03*
X318516Y117348D03*
X313944Y122428D03*
X412623Y184658D03*
X504624Y218821D03*
X450098Y185156D03*
X469124Y200293D03*
X403860Y199644D03*
X222875Y238887D03*
X408051Y234315D03*
X240792Y242824D03*
X415858Y234508D03*
X218704Y234960D03*
X267716Y159721D03*
X216408Y93091D03*
X580869Y350901D03*
X632714Y226314D03*
X628142Y260858D03*
X755396Y262890D03*
X754126Y321310D03*
X629920Y275082D03*
X649478Y226568D03*
X629412Y268732D03*
X644652Y220218D03*
X496117Y282829D03*
X534543Y257810D03*
X504486Y290630D03*
X585724Y200406D03*
X593481Y271409D03*
X512625Y226515D03*
X429006Y163830D03*
X402336Y151892D03*
X312166Y62484D03*
X474202Y197469D03*
X417576Y165263D03*
X419100Y180340D03*
X317637Y75047D03*
X424116Y226250D03*
X315976Y67818D03*
X402336Y157988D03*
X424688Y173736D03*
X434848Y192024D03*
X323850Y112268D03*
X415736Y226630D03*
X318262Y107696D03*
X415163Y173482D03*
X314448Y79760D03*
X477012Y192532D03*
X315722Y58166D03*
X399034Y147320D03*
X436118Y165100D03*
X486664Y199924D03*
X331724Y454152D03*
X478122Y359313D03*
D20*
X475886Y359313D01*
X441997Y393202D01*
X437282Y393202D02*
X411861Y418623D01*
X437282Y393202D02*
X441997Y393202D01*
X359678Y456057D02*
X357773Y454152D01*
X331724Y454152D01*
X359678Y456057D02*
X380091Y456057D01*
X411861Y424287D01*
X411861Y418623D01*
D18*
X474519Y371729D03*
X340868Y463423D03*
D20*
X469936Y371729D02*
X474519Y371729D01*
X469936Y371729D02*
X443891Y397774D01*
X439176Y397774D01*
X416433Y420517D01*
X416433Y426181D01*
X379191Y463423D01*
X340868Y463423D01*
D18*
X336042Y459486D03*
D20*
X477600Y365680D02*
X478282Y364998D01*
D18*
X478282Y364998D03*
X472364Y338963D03*
D20*
X472751Y365680D02*
X477600Y365680D01*
X472751Y365680D02*
X442944Y395488D01*
X438229Y395488D01*
X414147Y419570D01*
X414147Y425234D01*
X379895Y459486D01*
X336042Y459486D01*
D18*
X65786Y230378D03*
X137160Y221840D03*
X140462Y239522D03*
X69850Y214630D03*
X494411Y196850D03*
X484606Y186410D03*
X140954Y153178D03*
X111252Y247396D03*
D23*
X133096Y225552D01*
X133096Y211836D01*
X139192Y205740D01*
D18*
X139192Y205740D03*
X115062Y157988D03*
X124206Y138430D03*
X116078Y149098D03*
X152654Y246380D03*
X164068Y133334D03*
X200516Y148808D03*
X133884Y198374D03*
X129540Y129032D03*
X183870Y216408D03*
X118680Y191452D03*
X250582Y437051D03*
X239908Y429611D03*
X571246Y84465D03*
X532638Y310388D03*
X556768Y101092D03*
X496534Y306836D03*
X571500Y90053D03*
X529058Y306066D03*
X569214Y101854D03*
X556596Y302387D03*
X422402Y110744D03*
X382016Y38354D03*
X571617Y95641D03*
X524256Y302895D03*
X434848Y109220D03*
X407416Y32258D03*
X563372Y104140D03*
X504740Y306630D03*
X456740Y330630D03*
X431871Y338765D03*
X471785Y330581D03*
X440295Y330821D03*
X732790Y265684D03*
X419100Y452628D03*
X426212Y459740D03*
X462534Y443230D03*
X677418Y200660D03*
X537464Y314706D03*
X567944Y151892D03*
X600964Y105156D03*
X622300Y105156D03*
X490982Y472186D03*
X490982Y463804D03*
X498370Y427642D03*
X116332Y225088D03*
X134620Y247904D03*
X528828Y262382D03*
X504627Y266517D03*
X488124Y267018D03*
X528701Y268986D03*
X526034Y215646D03*
X503736Y274630D03*
X496246Y274136D03*
X517017Y202946D03*
X600710Y200660D03*
X558292Y236253D03*
X556514Y261112D03*
X378206Y175260D03*
X414782Y143256D03*
X561213Y324641D03*
X425958Y123698D03*
X432054Y381254D03*
X366643Y451358D03*
X462026Y436626D03*
X420126Y446034D03*
X456282Y436118D03*
X390191Y463423D03*
X512318Y322834D03*
D20*
X442468Y432054D02*
X435610Y432054D01*
D18*
X435610Y432054D03*
D20*
X466344Y408178D02*
X520680Y408178D01*
X466344Y408178D02*
X442468Y432054D01*
X512318Y322834D02*
X514602Y322834D01*
X530951Y397907D02*
X520680Y408178D01*
X530951Y339183D02*
X514602Y322834D01*
X530951Y339183D02*
X530951Y397907D01*
D18*
X530860Y325628D03*
D20*
X539520Y334288D02*
X539520Y344029D01*
X539520Y334288D02*
X530860Y325628D01*
X539520Y344029D02*
X542243Y346752D01*
X542243Y390191D01*
X521970Y410464D01*
D18*
X424698Y441462D03*
D20*
X435670Y441462D02*
X437173Y439959D01*
X435670Y441462D02*
X424698Y441462D01*
X437173Y439959D02*
X438058Y439959D01*
X467552Y410464D02*
X521970Y410464D01*
X467552Y410464D02*
X438058Y439959D01*
D18*
X492414Y359436D03*
D20*
X475422Y376428D01*
X469900Y376428D01*
D18*
X401574Y448310D03*
D20*
X440563Y405765D02*
X469900Y376428D01*
X420551Y426085D02*
X401574Y445062D01*
X401574Y448310D01*
X440563Y407935D02*
X440563Y405765D01*
X440563Y407935D02*
X422413Y426085D01*
X420551Y426085D01*
X487172Y369824D02*
X495808Y369824D01*
X487172Y369824D02*
X483616Y373380D01*
X483616Y375412D01*
X484886Y376682D01*
X484886Y380238D01*
X480822Y384302D01*
X477266Y384302D01*
X473710Y380746D01*
X469900Y380746D01*
X443484Y407162D01*
D18*
X500253Y364236D03*
D20*
X500253Y365379D01*
X495808Y369824D01*
D18*
X409783Y442422D03*
D20*
X443484Y408247D02*
X443484Y407162D01*
X411554Y440177D02*
X411554Y440650D01*
X409783Y442422D01*
X411554Y440177D02*
X443484Y408247D01*
D18*
X512826Y372618D03*
D20*
X505714Y372618D01*
X497586Y380746D01*
X488696Y380746D01*
X481584Y387858D01*
X476250Y387858D01*
X472948Y384556D01*
X470408Y384556D01*
X413840Y447220D02*
X405130Y455930D01*
X413840Y447220D02*
X413840Y441124D01*
X470408Y384556D01*
D18*
X397002Y456946D03*
D20*
X398018Y455930D02*
X405130Y455930D01*
X398018Y455930D02*
X397002Y456946D01*
D18*
X405384Y420624D03*
X504378Y346583D03*
D20*
X486145Y346583D01*
X406627Y420624D02*
X405384Y420624D01*
X436335Y390916D02*
X441050Y390916D01*
X436335Y390916D02*
X406627Y420624D01*
X474185Y357682D02*
X476491Y355376D01*
X474185Y357682D02*
X474185Y357781D01*
X441050Y390916D01*
X476491Y355376D02*
X477352Y355376D01*
X486145Y346583D01*
D18*
X512318Y346456D03*
D20*
X508508Y342646D01*
X399796Y418338D02*
X399796Y420624D01*
D18*
X399796Y420624D03*
D20*
X486341Y342646D02*
X508508Y342646D01*
X486341Y342646D02*
X475927Y353060D01*
X440103Y388630D02*
X429504Y388630D01*
X399796Y418338D01*
X471899Y356834D02*
X471899Y356735D01*
X471899Y356834D02*
X440103Y388630D01*
X475574Y353060D02*
X475927Y353060D01*
X475574Y353060D02*
X471899Y356735D01*
D18*
X524172Y346532D03*
D20*
X524172Y343832D01*
X514858Y334518D01*
X394208Y419862D02*
X394208Y420624D01*
D18*
X394208Y420624D03*
D20*
X491236Y334518D02*
X514858Y334518D01*
X491236Y334518D02*
X474980Y350774D01*
X427726Y386344D02*
X394208Y419862D01*
X427726Y386344D02*
X439156Y386344D01*
X469613Y355887D01*
X469613Y355788D01*
X474627Y350774D01*
X474980Y350774D01*
D18*
X386230Y441730D03*
X164380Y459867D03*
X496435Y314325D03*
D20*
X489839Y314325D01*
X477520Y326644D01*
X468122Y326644D01*
X444754Y350012D01*
X444754Y350266D01*
X441706Y353314D01*
X426466Y353314D01*
D18*
X390398Y411734D03*
X412329Y368502D03*
D20*
X412329Y367451D02*
X426466Y353314D01*
X412329Y367451D02*
X412329Y368502D01*
D18*
X521970Y321818D03*
D20*
X518414Y318262D01*
X490982Y318262D01*
X474726Y334518D01*
X466598Y334518D01*
X444754Y356362D01*
X444754Y362966D01*
X441345Y366375D02*
X423578Y366375D01*
X386668Y403285D01*
X441345Y366375D02*
X444754Y362966D01*
D18*
X385860Y403378D03*
D20*
X385953Y403285D02*
X386668Y403285D01*
X385953Y403285D02*
X385860Y403378D01*
D18*
X512572Y282702D03*
D20*
X512572Y266700D01*
X527558Y251714D01*
X527558Y225298D01*
X521970Y219710D01*
X521970Y195580D01*
X505714Y179324D01*
X505714Y93726D01*
X448818Y36830D01*
X222504Y36830D02*
X165100Y94234D01*
X66294Y94234D01*
X50546Y109982D01*
X50546Y391668D01*
X374904Y426720D02*
X381762Y419862D01*
D18*
X381762Y419862D03*
D20*
X380385Y34417D02*
X383647Y34417D01*
X386060Y36830D02*
X448818Y36830D01*
X377972Y36830D02*
X222504Y36830D01*
X383647Y34417D02*
X386060Y36830D01*
X380385Y34417D02*
X377972Y36830D01*
X50546Y391668D02*
X130255Y471377D01*
X308911Y471377D01*
X332105Y448183D01*
X334233Y448183D01*
X355696Y426720D02*
X374904Y426720D01*
X355696Y426720D02*
X334233Y448183D01*
D18*
X500634Y201422D03*
D20*
X500634Y96012D01*
X56388Y112776D02*
X56388Y389128D01*
D18*
X375666Y420370D03*
D20*
X168333Y99060D02*
X70104Y99060D01*
X56388Y112776D01*
X371201Y418719D02*
X372852Y420370D01*
X375666Y420370D01*
X500634Y96012D02*
X453009Y48387D01*
X219006Y48387D02*
X168333Y99060D01*
X219006Y48387D02*
X453009Y48387D01*
X56388Y389128D02*
X131064Y463804D01*
X308933Y463804D02*
X329126Y443611D01*
X332339Y443611D01*
X357231Y418719D02*
X371201Y418719D01*
X357231Y418719D02*
X332339Y443611D01*
X308933Y463804D02*
X131064Y463804D01*
D18*
X105918Y48260D03*
X19050Y332740D03*
X506222Y198120D03*
D20*
X506222Y196342D01*
X502920Y193040D01*
X502920Y94996D01*
X167386Y96774D02*
X67818Y96774D01*
X53340Y111252D01*
X53340Y389890D01*
D18*
X369570Y422656D03*
D20*
X502920Y94996D02*
X450215Y42291D01*
X280015Y42291D01*
X278237Y40513D01*
X223647Y40513D01*
X167386Y96774D01*
X53340Y389890D02*
X132541Y469091D01*
X306879Y469091D01*
X330073Y445897D01*
X333286Y445897D01*
X356527Y422656D02*
X369570Y422656D01*
X356527Y422656D02*
X333286Y445897D01*
D18*
X585978Y483616D03*
X599440Y271526D03*
X560832Y285242D03*
X425958Y371475D03*
X360547Y451358D03*
X127254Y243586D03*
M02*
