G04 EAGLE Gerber RS-274X export*
G75*
%MOMM*%
%FSLAX34Y34*%
%LPD*%
%IN*%
%IPPOS*%
%AMOC8*
5,1,8,0,0,1.08239X$1,22.5*%
G01*
G04 Define Apertures*
%ADD10C,0.254000*%
D10*
X0Y25400D02*
X97Y23186D01*
X386Y20989D01*
X865Y18826D01*
X1532Y16713D01*
X2380Y14666D01*
X3403Y12700D01*
X4594Y10831D01*
X5942Y9073D01*
X7440Y7440D01*
X9073Y5942D01*
X10831Y4594D01*
X12700Y3403D01*
X14666Y2380D01*
X16713Y1532D01*
X18826Y865D01*
X20989Y386D01*
X23186Y97D01*
X25400Y0D01*
X787400Y0D01*
X789614Y97D01*
X791811Y386D01*
X793974Y865D01*
X796087Y1532D01*
X798135Y2380D01*
X800100Y3403D01*
X801969Y4594D01*
X803727Y5942D01*
X805361Y7440D01*
X806858Y9073D01*
X808206Y10831D01*
X809397Y12700D01*
X810420Y14666D01*
X811268Y16713D01*
X811935Y18826D01*
X812414Y20989D01*
X812703Y23186D01*
X812800Y25400D01*
X812800Y469900D01*
X812703Y472114D01*
X812414Y474311D01*
X811935Y476474D01*
X811268Y478587D01*
X810420Y480635D01*
X809397Y482600D01*
X808206Y484469D01*
X806858Y486227D01*
X805361Y487861D01*
X803727Y489358D01*
X801969Y490706D01*
X800100Y491897D01*
X798135Y492920D01*
X796087Y493768D01*
X793974Y494435D01*
X791811Y494914D01*
X789614Y495203D01*
X787400Y495300D01*
X25400Y495300D01*
X23186Y495203D01*
X20989Y494914D01*
X18826Y494435D01*
X16713Y493768D01*
X14666Y492920D01*
X12700Y491897D01*
X10831Y490706D01*
X9073Y489358D01*
X7440Y487861D01*
X5942Y486227D01*
X4594Y484469D01*
X3403Y482600D01*
X2380Y480635D01*
X1532Y478587D01*
X865Y476474D01*
X386Y474311D01*
X97Y472114D01*
X0Y469900D01*
X0Y25400D01*
X725608Y306355D02*
X726653Y306287D01*
X727692Y306150D01*
X728719Y305946D01*
X729731Y305675D01*
X730723Y305338D01*
X731691Y304937D01*
X732631Y304474D01*
X733538Y303950D01*
X734409Y303368D01*
X735240Y302730D01*
X736028Y302039D01*
X736768Y301299D01*
X737459Y300511D01*
X738097Y299680D01*
X738679Y298809D01*
X739203Y297902D01*
X739666Y296962D01*
X740067Y295994D01*
X740404Y295002D01*
X740675Y293991D01*
X740879Y292963D01*
X741016Y291925D01*
X741084Y290879D01*
X741084Y289832D01*
X741016Y288786D01*
X740879Y287748D01*
X740675Y286720D01*
X740404Y285708D01*
X740067Y284716D01*
X739666Y283749D01*
X739203Y282809D01*
X738679Y281902D01*
X738097Y281031D01*
X737459Y280200D01*
X736768Y279412D01*
X736028Y278671D01*
X735240Y277981D01*
X734409Y277343D01*
X733538Y276761D01*
X732631Y276237D01*
X731691Y275774D01*
X730723Y275373D01*
X729731Y275036D01*
X728719Y274765D01*
X727692Y274561D01*
X726653Y274424D01*
X725608Y274355D01*
X724560Y274355D01*
X723515Y274424D01*
X722477Y274561D01*
X721449Y274765D01*
X720437Y275036D01*
X719445Y275373D01*
X718477Y275774D01*
X717538Y276237D01*
X716631Y276761D01*
X715760Y277343D01*
X714929Y277981D01*
X714141Y278671D01*
X713400Y279412D01*
X712709Y280200D01*
X712072Y281031D01*
X711490Y281902D01*
X710966Y282809D01*
X710503Y283749D01*
X710102Y284716D01*
X709765Y285708D01*
X709494Y286720D01*
X709290Y287748D01*
X709153Y288786D01*
X709084Y289832D01*
X709084Y290879D01*
X709153Y291925D01*
X709290Y292963D01*
X709494Y293991D01*
X709765Y295002D01*
X710102Y295994D01*
X710503Y296962D01*
X710966Y297902D01*
X711490Y298809D01*
X712072Y299680D01*
X712709Y300511D01*
X713400Y301299D01*
X714141Y302039D01*
X714929Y302730D01*
X715760Y303368D01*
X716631Y303950D01*
X717538Y304474D01*
X718477Y304937D01*
X719445Y305338D01*
X720437Y305675D01*
X721449Y305946D01*
X722477Y306150D01*
X723515Y306287D01*
X724560Y306355D01*
X725608Y306355D01*
X725608Y420655D02*
X726653Y420587D01*
X727692Y420450D01*
X728719Y420246D01*
X729731Y419975D01*
X730723Y419638D01*
X731691Y419237D01*
X732631Y418774D01*
X733538Y418250D01*
X734409Y417668D01*
X735240Y417030D01*
X736028Y416339D01*
X736768Y415599D01*
X737459Y414811D01*
X738097Y413980D01*
X738679Y413109D01*
X739203Y412202D01*
X739666Y411262D01*
X740067Y410294D01*
X740404Y409302D01*
X740675Y408291D01*
X740879Y407263D01*
X741016Y406225D01*
X741084Y405179D01*
X741084Y404132D01*
X741016Y403086D01*
X740879Y402048D01*
X740675Y401020D01*
X740404Y400008D01*
X740067Y399016D01*
X739666Y398049D01*
X739203Y397109D01*
X738679Y396202D01*
X738097Y395331D01*
X737459Y394500D01*
X736768Y393712D01*
X736028Y392971D01*
X735240Y392281D01*
X734409Y391643D01*
X733538Y391061D01*
X732631Y390537D01*
X731691Y390074D01*
X730723Y389673D01*
X729731Y389336D01*
X728719Y389065D01*
X727692Y388861D01*
X726653Y388724D01*
X725608Y388655D01*
X724560Y388655D01*
X723515Y388724D01*
X722477Y388861D01*
X721449Y389065D01*
X720437Y389336D01*
X719445Y389673D01*
X718477Y390074D01*
X717538Y390537D01*
X716631Y391061D01*
X715760Y391643D01*
X714929Y392281D01*
X714141Y392971D01*
X713400Y393712D01*
X712709Y394500D01*
X712072Y395331D01*
X711490Y396202D01*
X710966Y397109D01*
X710503Y398049D01*
X710102Y399016D01*
X709765Y400008D01*
X709494Y401020D01*
X709290Y402048D01*
X709153Y403086D01*
X709084Y404132D01*
X709084Y405179D01*
X709153Y406225D01*
X709290Y407263D01*
X709494Y408291D01*
X709765Y409302D01*
X710102Y410294D01*
X710503Y411262D01*
X710966Y412202D01*
X711490Y413109D01*
X712072Y413980D01*
X712709Y414811D01*
X713400Y415599D01*
X714141Y416339D01*
X714929Y417030D01*
X715760Y417668D01*
X716631Y418250D01*
X717538Y418774D01*
X718477Y419237D01*
X719445Y419638D01*
X720437Y419975D01*
X721449Y420246D01*
X722477Y420450D01*
X723515Y420587D01*
X724560Y420655D01*
X725608Y420655D01*
X787906Y41132D02*
X787838Y40087D01*
X787701Y39048D01*
X787496Y38021D01*
X787225Y37009D01*
X786889Y36017D01*
X786488Y35049D01*
X786024Y34110D01*
X785501Y33202D01*
X784919Y32331D01*
X784281Y31500D01*
X783590Y30713D01*
X782849Y29972D01*
X782062Y29281D01*
X781231Y28644D01*
X780360Y28062D01*
X779452Y27538D01*
X778513Y27074D01*
X777545Y26673D01*
X776553Y26337D01*
X775541Y26066D01*
X774514Y25861D01*
X773475Y25725D01*
X772430Y25656D01*
X771382Y25656D01*
X770337Y25725D01*
X769298Y25861D01*
X768271Y26066D01*
X767259Y26337D01*
X766267Y26673D01*
X765299Y27074D01*
X764360Y27538D01*
X763452Y28062D01*
X762581Y28644D01*
X761750Y29281D01*
X760963Y29972D01*
X760222Y30713D01*
X759531Y31500D01*
X758894Y32331D01*
X758312Y33202D01*
X757788Y34110D01*
X757324Y35049D01*
X756923Y36017D01*
X756587Y37009D01*
X756316Y38021D01*
X756111Y39048D01*
X755975Y40087D01*
X755906Y41132D01*
X755906Y42180D01*
X755975Y43225D01*
X756111Y44264D01*
X756316Y45291D01*
X756587Y46303D01*
X756923Y47295D01*
X757324Y48263D01*
X757788Y49202D01*
X758312Y50110D01*
X758894Y50981D01*
X759531Y51812D01*
X760222Y52599D01*
X760963Y53340D01*
X761750Y54031D01*
X762581Y54669D01*
X763452Y55251D01*
X764360Y55774D01*
X765299Y56238D01*
X766267Y56639D01*
X767259Y56975D01*
X768271Y57246D01*
X769298Y57451D01*
X770337Y57588D01*
X771382Y57656D01*
X772430Y57656D01*
X773475Y57588D01*
X774514Y57451D01*
X775541Y57246D01*
X776553Y56975D01*
X777545Y56639D01*
X778513Y56238D01*
X779452Y55774D01*
X780360Y55251D01*
X781231Y54669D01*
X782062Y54031D01*
X782849Y53340D01*
X783590Y52599D01*
X784281Y51812D01*
X784919Y50981D01*
X785501Y50110D01*
X786024Y49202D01*
X786488Y48263D01*
X786889Y47295D01*
X787225Y46303D01*
X787496Y45291D01*
X787701Y44264D01*
X787838Y43225D01*
X787906Y42180D01*
X787906Y41132D01*
X53592Y456422D02*
X53524Y455377D01*
X53387Y454338D01*
X53182Y453311D01*
X52911Y452299D01*
X52575Y451307D01*
X52174Y450339D01*
X51710Y449400D01*
X51187Y448492D01*
X50605Y447621D01*
X49967Y446790D01*
X49276Y446003D01*
X48535Y445262D01*
X47748Y444571D01*
X46917Y443934D01*
X46046Y443352D01*
X45138Y442828D01*
X44199Y442364D01*
X43231Y441963D01*
X42239Y441627D01*
X41227Y441356D01*
X40200Y441151D01*
X39161Y441015D01*
X38116Y440946D01*
X37068Y440946D01*
X36023Y441015D01*
X34984Y441151D01*
X33957Y441356D01*
X32945Y441627D01*
X31953Y441963D01*
X30985Y442364D01*
X30046Y442828D01*
X29138Y443352D01*
X28267Y443934D01*
X27436Y444571D01*
X26649Y445262D01*
X25908Y446003D01*
X25217Y446790D01*
X24580Y447621D01*
X23998Y448492D01*
X23474Y449400D01*
X23010Y450339D01*
X22609Y451307D01*
X22273Y452299D01*
X22002Y453311D01*
X21797Y454338D01*
X21661Y455377D01*
X21592Y456422D01*
X21592Y457470D01*
X21661Y458515D01*
X21797Y459554D01*
X22002Y460581D01*
X22273Y461593D01*
X22609Y462585D01*
X23010Y463553D01*
X23474Y464492D01*
X23998Y465400D01*
X24580Y466271D01*
X25217Y467102D01*
X25908Y467889D01*
X26649Y468630D01*
X27436Y469321D01*
X28267Y469959D01*
X29138Y470541D01*
X30046Y471064D01*
X30985Y471528D01*
X31953Y471929D01*
X32945Y472265D01*
X33957Y472536D01*
X34984Y472741D01*
X36023Y472878D01*
X37068Y472946D01*
X38116Y472946D01*
X39161Y472878D01*
X40200Y472741D01*
X41227Y472536D01*
X42239Y472265D01*
X43231Y471929D01*
X44199Y471528D01*
X45138Y471064D01*
X46046Y470541D01*
X46917Y469959D01*
X47748Y469321D01*
X48535Y468630D01*
X49276Y467889D01*
X49967Y467102D01*
X50605Y466271D01*
X51187Y465400D01*
X51710Y464492D01*
X52174Y463553D01*
X52575Y462585D01*
X52911Y461593D01*
X53182Y460581D01*
X53387Y459554D01*
X53524Y458515D01*
X53592Y457470D01*
X53592Y456422D01*
X789430Y456168D02*
X789362Y455123D01*
X789225Y454084D01*
X789020Y453057D01*
X788749Y452045D01*
X788413Y451053D01*
X788012Y450085D01*
X787548Y449146D01*
X787025Y448238D01*
X786443Y447367D01*
X785805Y446536D01*
X785114Y445749D01*
X784373Y445008D01*
X783586Y444317D01*
X782755Y443680D01*
X781884Y443098D01*
X780976Y442574D01*
X780037Y442110D01*
X779069Y441709D01*
X778077Y441373D01*
X777065Y441102D01*
X776038Y440897D01*
X774999Y440761D01*
X773954Y440692D01*
X772906Y440692D01*
X771861Y440761D01*
X770822Y440897D01*
X769795Y441102D01*
X768783Y441373D01*
X767791Y441709D01*
X766823Y442110D01*
X765884Y442574D01*
X764976Y443098D01*
X764105Y443680D01*
X763274Y444317D01*
X762487Y445008D01*
X761746Y445749D01*
X761055Y446536D01*
X760418Y447367D01*
X759836Y448238D01*
X759312Y449146D01*
X758848Y450085D01*
X758447Y451053D01*
X758111Y452045D01*
X757840Y453057D01*
X757635Y454084D01*
X757499Y455123D01*
X757430Y456168D01*
X757430Y457216D01*
X757499Y458261D01*
X757635Y459300D01*
X757840Y460327D01*
X758111Y461339D01*
X758447Y462331D01*
X758848Y463299D01*
X759312Y464238D01*
X759836Y465146D01*
X760418Y466017D01*
X761055Y466848D01*
X761746Y467635D01*
X762487Y468376D01*
X763274Y469067D01*
X764105Y469705D01*
X764976Y470287D01*
X765884Y470810D01*
X766823Y471274D01*
X767791Y471675D01*
X768783Y472011D01*
X769795Y472282D01*
X770822Y472487D01*
X771861Y472624D01*
X772906Y472692D01*
X773954Y472692D01*
X774999Y472624D01*
X776038Y472487D01*
X777065Y472282D01*
X778077Y472011D01*
X779069Y471675D01*
X780037Y471274D01*
X780976Y470810D01*
X781884Y470287D01*
X782755Y469705D01*
X783586Y469067D01*
X784373Y468376D01*
X785114Y467635D01*
X785805Y466848D01*
X786443Y466017D01*
X787025Y465146D01*
X787548Y464238D01*
X788012Y463299D01*
X788413Y462331D01*
X788749Y461339D01*
X789020Y460327D01*
X789225Y459300D01*
X789362Y458261D01*
X789430Y457216D01*
X789430Y456168D01*
X59434Y40116D02*
X59366Y39071D01*
X59229Y38032D01*
X59024Y37005D01*
X58753Y35993D01*
X58417Y35001D01*
X58016Y34033D01*
X57552Y33094D01*
X57029Y32186D01*
X56447Y31315D01*
X55809Y30484D01*
X55118Y29697D01*
X54377Y28956D01*
X53590Y28265D01*
X52759Y27628D01*
X51888Y27046D01*
X50980Y26522D01*
X50041Y26058D01*
X49073Y25657D01*
X48081Y25321D01*
X47069Y25050D01*
X46042Y24845D01*
X45003Y24709D01*
X43958Y24640D01*
X42910Y24640D01*
X41865Y24709D01*
X40826Y24845D01*
X39799Y25050D01*
X38787Y25321D01*
X37795Y25657D01*
X36827Y26058D01*
X35888Y26522D01*
X34980Y27046D01*
X34109Y27628D01*
X33278Y28265D01*
X32491Y28956D01*
X31750Y29697D01*
X31059Y30484D01*
X30422Y31315D01*
X29840Y32186D01*
X29316Y33094D01*
X28852Y34033D01*
X28451Y35001D01*
X28115Y35993D01*
X27844Y37005D01*
X27639Y38032D01*
X27503Y39071D01*
X27434Y40116D01*
X27434Y41164D01*
X27503Y42209D01*
X27639Y43248D01*
X27844Y44275D01*
X28115Y45287D01*
X28451Y46279D01*
X28852Y47247D01*
X29316Y48186D01*
X29840Y49094D01*
X30422Y49965D01*
X31059Y50796D01*
X31750Y51583D01*
X32491Y52324D01*
X33278Y53015D01*
X34109Y53653D01*
X34980Y54235D01*
X35888Y54758D01*
X36827Y55222D01*
X37795Y55623D01*
X38787Y55959D01*
X39799Y56230D01*
X40826Y56435D01*
X41865Y56572D01*
X42910Y56640D01*
X43958Y56640D01*
X45003Y56572D01*
X46042Y56435D01*
X47069Y56230D01*
X48081Y55959D01*
X49073Y55623D01*
X50041Y55222D01*
X50980Y54758D01*
X51888Y54235D01*
X52759Y53653D01*
X53590Y53015D01*
X54377Y52324D01*
X55118Y51583D01*
X55809Y50796D01*
X56447Y49965D01*
X57029Y49094D01*
X57552Y48186D01*
X58016Y47247D01*
X58417Y46279D01*
X58753Y45287D01*
X59024Y44275D01*
X59229Y43248D01*
X59366Y42209D01*
X59434Y41164D01*
X59434Y40116D01*
M02*
