G04 EAGLE Gerber RS-274X export*
G75*
%MOMM*%
%FSLAX34Y34*%
%LPD*%
%INSolderpaste Bottom*%
%IPPOS*%
%AMOC8*
5,1,8,0,0,1.08239X$1,22.5*%
G01*
G04 Define Apertures*
%ADD10R,0.560000X0.629100*%
%ADD11R,0.629100X0.560000*%
%ADD12R,0.900000X0.300000*%
%ADD13R,0.535100X0.644000*%
%ADD14R,0.644000X0.535100*%
%ADD15R,1.079100X2.129100*%
%ADD16R,1.465300X1.164600*%
%ADD17R,1.164600X1.465300*%
%ADD18R,0.920900X0.970200*%
%ADD19R,1.204800X0.749200*%
D10*
X441726Y308356D03*
X432034Y308356D03*
D11*
X488188Y340594D03*
X488188Y350286D03*
X479806Y239288D03*
X479806Y229596D03*
D10*
X416834Y258318D03*
X407142Y258318D03*
X461284Y307340D03*
X451592Y307340D03*
X481858Y307340D03*
X472166Y307340D03*
X510012Y313944D03*
X519704Y313944D03*
X481122Y290322D03*
X471430Y290322D03*
X424668Y298196D03*
X434360Y298196D03*
X427970Y273812D03*
X437662Y273812D03*
D11*
X456184Y258592D03*
X456184Y248900D03*
D10*
X453624Y290322D03*
X463316Y290322D03*
X581680Y454406D03*
X571988Y454406D03*
X444468Y288798D03*
X434776Y288798D03*
D11*
X455676Y275916D03*
X455676Y266224D03*
D10*
X441472Y258318D03*
X431780Y258318D03*
D11*
X472440Y274594D03*
X472440Y264902D03*
X464312Y241574D03*
X464312Y231882D03*
D10*
X408920Y308356D03*
X418612Y308356D03*
X407396Y274320D03*
X417088Y274320D03*
X407396Y290068D03*
X417088Y290068D03*
X572343Y442214D03*
X582035Y442214D03*
D11*
X560578Y415564D03*
X560578Y405872D03*
X547624Y416554D03*
X547624Y406862D03*
D10*
X481858Y251206D03*
X472166Y251206D03*
D11*
X480060Y322306D03*
X480060Y331998D03*
D10*
X440710Y245618D03*
X431018Y245618D03*
D11*
X463804Y327934D03*
X463804Y318242D03*
D10*
X496042Y297688D03*
X505734Y297688D03*
X432160Y233875D03*
X422468Y233875D03*
X407396Y242824D03*
X417088Y242824D03*
D11*
X480822Y212122D03*
X480822Y221814D03*
D10*
X499638Y225552D03*
X489946Y225552D03*
X448330Y322326D03*
X438638Y322326D03*
D11*
X447294Y383814D03*
X447294Y374122D03*
X458978Y383814D03*
X458978Y374122D03*
X468122Y221814D03*
X468122Y212122D03*
D10*
X521228Y477266D03*
X511536Y477266D03*
D12*
X290250Y32327D03*
X290250Y37327D03*
X290250Y42327D03*
X290250Y47327D03*
X290250Y52327D03*
X290250Y57327D03*
X290250Y62327D03*
X290250Y67327D03*
X290250Y72327D03*
X290250Y77327D03*
X290250Y82327D03*
X290250Y87327D03*
X290250Y92327D03*
X290250Y97327D03*
X290250Y102327D03*
X290250Y107327D03*
X290250Y112327D03*
X290250Y117327D03*
X290250Y122327D03*
X290250Y127327D03*
X290250Y132327D03*
X290250Y137327D03*
X290250Y142327D03*
X290250Y147327D03*
X485250Y147327D03*
X485250Y142327D03*
X485250Y137327D03*
X485250Y132327D03*
X485250Y127327D03*
X485250Y122327D03*
X485250Y117327D03*
X485250Y112327D03*
X485250Y107327D03*
X485250Y102327D03*
X485250Y97327D03*
X485250Y92327D03*
X485250Y87327D03*
X485250Y82327D03*
X485250Y77327D03*
X485250Y72327D03*
X485250Y67327D03*
X485250Y62327D03*
X485250Y57327D03*
X485250Y52327D03*
X485250Y47327D03*
X485250Y42327D03*
X485250Y37327D03*
X485250Y32327D03*
D13*
X713735Y151638D03*
X703585Y151638D03*
X713735Y137160D03*
X703585Y137160D03*
D14*
X195580Y164587D03*
X195580Y154437D03*
X146304Y117861D03*
X146304Y128011D03*
X172466Y117861D03*
X172466Y128011D03*
X212344Y117099D03*
X212344Y127249D03*
D13*
X236469Y137414D03*
X226319Y137414D03*
X246131Y150368D03*
X256281Y150368D03*
D14*
X159766Y206497D03*
X159766Y196347D03*
D13*
X246131Y162560D03*
X256281Y162560D03*
D10*
X785388Y257302D03*
X775696Y257302D03*
D14*
X586232Y183853D03*
X586232Y194003D03*
D10*
X574822Y214630D03*
X565130Y214630D03*
X573298Y250190D03*
X563606Y250190D03*
D14*
X138684Y137419D03*
X138684Y147569D03*
D11*
X147574Y154666D03*
X147574Y164358D03*
X165100Y154666D03*
X165100Y164358D03*
X182626Y154666D03*
X182626Y164358D03*
X159004Y127782D03*
X159004Y118090D03*
X186436Y127020D03*
X186436Y117328D03*
X199390Y127020D03*
X199390Y117328D03*
D10*
X256052Y137414D03*
X246360Y137414D03*
X226548Y150368D03*
X236240Y150368D03*
X226548Y163322D03*
X236240Y163322D03*
X226548Y175866D03*
X236240Y175866D03*
X189250Y177800D03*
X179558Y177800D03*
X189250Y190246D03*
X179558Y190246D03*
X188996Y202946D03*
X179304Y202946D03*
X225778Y212902D03*
X235470Y212902D03*
X225828Y225044D03*
X235520Y225044D03*
X199664Y215900D03*
X189972Y215900D03*
X458196Y362204D03*
X467888Y362204D03*
D11*
X424688Y343896D03*
X424688Y353588D03*
D10*
X464292Y348742D03*
X473984Y348742D03*
D11*
X439928Y339070D03*
X439928Y348762D03*
D13*
X760930Y361247D03*
X771080Y361247D03*
D10*
X520948Y422656D03*
X511256Y422656D03*
X520948Y434848D03*
X511256Y434848D03*
D14*
X531622Y477766D03*
X531622Y467616D03*
D11*
X148082Y229890D03*
X148082Y220198D03*
D10*
X125964Y213106D03*
X135656Y213106D03*
X125964Y183388D03*
X135656Y183388D03*
X125710Y170434D03*
X135402Y170434D03*
X125456Y157988D03*
X135148Y157988D03*
X108478Y158750D03*
X98786Y158750D03*
X108224Y146050D03*
X98532Y146050D03*
D11*
X165847Y109188D03*
X165847Y99496D03*
D10*
X117114Y213106D03*
X107422Y213106D03*
X108732Y133858D03*
X99040Y133858D03*
D15*
X609894Y440804D03*
X632394Y440804D03*
X598077Y413266D03*
X620577Y413266D03*
X511376Y395029D03*
X488876Y395029D03*
D16*
X535940Y388484D03*
X535940Y370976D03*
X556768Y388738D03*
X556768Y371230D03*
D17*
X621166Y464566D03*
X638674Y464566D03*
D11*
X547116Y467086D03*
X547116Y476778D03*
X561340Y466985D03*
X561340Y476677D03*
D10*
X521228Y447548D03*
X511536Y447548D03*
X521381Y461264D03*
X511689Y461264D03*
D14*
X600710Y194051D03*
X600710Y183901D03*
D13*
X574749Y227292D03*
X564599Y227292D03*
D14*
X563880Y201163D03*
X563880Y191013D03*
D18*
X659258Y117602D03*
X674750Y117602D03*
D15*
X597228Y477416D03*
X574728Y477416D03*
D13*
X785363Y269748D03*
X775213Y269748D03*
D11*
X615442Y268498D03*
X615442Y258806D03*
D10*
X624058Y214884D03*
X633750Y214884D03*
X552978Y253746D03*
X543286Y253746D03*
X552724Y241300D03*
X543032Y241300D03*
D19*
X84710Y76368D03*
X84710Y97368D03*
X103758Y97368D03*
X103758Y76368D03*
D14*
X138176Y76459D03*
X138176Y86609D03*
X125476Y75951D03*
X125476Y86101D03*
X368750Y394455D03*
X368750Y384305D03*
M02*
