G04 EAGLE Gerber RS-274X export*
G75*
%MOMM*%
%FSLAX34Y34*%
%LPD*%
%INSoldermask Bottom*%
%IPPOS*%
%AMOC8*
5,1,8,0,0,1.08239X$1,22.5*%
G01*
G04 Define Apertures*
%ADD10C,3.429000*%
%ADD11R,0.661600X0.730700*%
%ADD12R,0.730700X0.661600*%
%ADD13C,1.981200*%
%ADD14C,2.501600*%
%ADD15C,1.601600*%
%ADD16C,3.301600*%
%ADD17R,1.001600X0.401600*%
%ADD18C,1.001600*%
%ADD19R,0.636700X0.745600*%
%ADD20R,0.745600X0.636700*%
%ADD21R,2.133600X2.133600*%
%ADD22C,2.133600*%
%ADD23C,2.051600*%
%ADD24R,1.180700X2.230700*%
%ADD25R,1.566900X1.266200*%
%ADD26R,1.266200X1.566900*%
%ADD27R,1.022500X1.071800*%
%ADD28R,1.306400X0.850800*%
%ADD29C,0.508000*%
D10*
X712179Y219837D03*
X712179Y88519D03*
D11*
X441726Y308356D03*
X432034Y308356D03*
D12*
X488188Y340594D03*
X488188Y350286D03*
X479806Y239288D03*
X479806Y229596D03*
D11*
X416834Y258318D03*
X407142Y258318D03*
X461284Y307340D03*
X451592Y307340D03*
X481858Y307340D03*
X472166Y307340D03*
X510012Y313944D03*
X519704Y313944D03*
X481122Y290322D03*
X471430Y290322D03*
X424668Y298196D03*
X434360Y298196D03*
X427970Y273812D03*
X437662Y273812D03*
D12*
X456184Y258592D03*
X456184Y248900D03*
D11*
X453624Y290322D03*
X463316Y290322D03*
X581680Y454406D03*
X571988Y454406D03*
X444468Y288798D03*
X434776Y288798D03*
D12*
X455676Y275916D03*
X455676Y266224D03*
D11*
X441472Y258318D03*
X431780Y258318D03*
D12*
X472440Y274594D03*
X472440Y264902D03*
X464312Y241574D03*
X464312Y231882D03*
D11*
X408920Y308356D03*
X418612Y308356D03*
X407396Y274320D03*
X417088Y274320D03*
X407396Y290068D03*
X417088Y290068D03*
X572343Y442214D03*
X582035Y442214D03*
D12*
X560578Y415564D03*
X560578Y405872D03*
X547624Y416554D03*
X547624Y406862D03*
D13*
X624078Y26035D03*
X649478Y26035D03*
X674878Y26035D03*
X700278Y26035D03*
D11*
X481858Y251206D03*
X472166Y251206D03*
D12*
X480060Y322306D03*
X480060Y331998D03*
D11*
X440710Y245618D03*
X431018Y245618D03*
D12*
X463804Y327934D03*
X463804Y318242D03*
D11*
X496042Y297688D03*
X505734Y297688D03*
X432160Y233875D03*
X422468Y233875D03*
X407396Y242824D03*
X417088Y242824D03*
D12*
X480822Y212122D03*
X480822Y221814D03*
D11*
X499638Y225552D03*
X489946Y225552D03*
X448330Y322326D03*
X438638Y322326D03*
D12*
X447294Y383814D03*
X447294Y374122D03*
X458978Y383814D03*
X458978Y374122D03*
X468122Y221814D03*
X468122Y212122D03*
D11*
X521228Y477266D03*
X511536Y477266D03*
D13*
X636184Y391955D03*
X661584Y379255D03*
X636184Y366555D03*
X636184Y341155D03*
X636184Y315755D03*
X661584Y353855D03*
X661584Y328455D03*
X661584Y303055D03*
D14*
X695034Y271305D03*
X695034Y423305D03*
D15*
X765034Y281305D03*
X765034Y413305D03*
X765034Y388305D03*
X765034Y306305D03*
D16*
X725084Y290355D03*
X725084Y404655D03*
D17*
X290250Y32327D03*
X290250Y37327D03*
X290250Y42327D03*
X290250Y47327D03*
X290250Y52327D03*
X290250Y57327D03*
X290250Y62327D03*
X290250Y67327D03*
X290250Y72327D03*
X290250Y77327D03*
X290250Y82327D03*
X290250Y87327D03*
X290250Y92327D03*
X290250Y97327D03*
X290250Y102327D03*
X290250Y107327D03*
X290250Y112327D03*
X290250Y117327D03*
X290250Y122327D03*
X290250Y127327D03*
X290250Y132327D03*
X290250Y137327D03*
X290250Y142327D03*
X290250Y147327D03*
X485250Y147327D03*
X485250Y142327D03*
X485250Y137327D03*
X485250Y132327D03*
X485250Y127327D03*
X485250Y122327D03*
X485250Y117327D03*
X485250Y112327D03*
X485250Y107327D03*
X485250Y102327D03*
X485250Y97327D03*
X485250Y92327D03*
X485250Y87327D03*
X485250Y82327D03*
X485250Y77327D03*
X485250Y72327D03*
X485250Y67327D03*
X485250Y62327D03*
X485250Y57327D03*
X485250Y52327D03*
X485250Y47327D03*
X485250Y42327D03*
X485250Y37327D03*
X485250Y32327D03*
D18*
X440152Y447150D03*
X350152Y447150D03*
D19*
X713735Y151638D03*
X703585Y151638D03*
X713735Y137160D03*
X703585Y137160D03*
D20*
X195580Y164587D03*
X195580Y154437D03*
X146304Y117861D03*
X146304Y128011D03*
X172466Y117861D03*
X172466Y128011D03*
X212344Y117099D03*
X212344Y127249D03*
D19*
X236469Y137414D03*
X226319Y137414D03*
X246131Y150368D03*
X256281Y150368D03*
D20*
X159766Y206497D03*
X159766Y196347D03*
D19*
X246131Y162560D03*
X256281Y162560D03*
D11*
X785388Y257302D03*
X775696Y257302D03*
D20*
X586232Y183853D03*
X586232Y194003D03*
D11*
X574822Y214630D03*
X565130Y214630D03*
X573298Y250190D03*
X563606Y250190D03*
D20*
X138684Y137419D03*
X138684Y147569D03*
D12*
X147574Y154666D03*
X147574Y164358D03*
X165100Y154666D03*
X165100Y164358D03*
X182626Y154666D03*
X182626Y164358D03*
X159004Y127782D03*
X159004Y118090D03*
X186436Y127020D03*
X186436Y117328D03*
X199390Y127020D03*
X199390Y117328D03*
D11*
X256052Y137414D03*
X246360Y137414D03*
X226548Y150368D03*
X236240Y150368D03*
X226548Y163322D03*
X236240Y163322D03*
X226548Y175866D03*
X236240Y175866D03*
X189250Y177800D03*
X179558Y177800D03*
X189250Y190246D03*
X179558Y190246D03*
X188996Y202946D03*
X179304Y202946D03*
X225778Y212902D03*
X235470Y212902D03*
X225828Y225044D03*
X235520Y225044D03*
X199664Y215900D03*
X189972Y215900D03*
D16*
X771906Y41656D03*
X37592Y456946D03*
X773430Y456692D03*
X43434Y40640D03*
D11*
X458196Y362204D03*
X467888Y362204D03*
D12*
X424688Y343896D03*
X424688Y353588D03*
D11*
X464292Y348742D03*
X473984Y348742D03*
D12*
X439928Y339070D03*
X439928Y348762D03*
D19*
X760930Y361247D03*
X771080Y361247D03*
D11*
X520948Y422656D03*
X511256Y422656D03*
X520948Y434848D03*
X511256Y434848D03*
D20*
X531622Y477766D03*
X531622Y467616D03*
D21*
X25908Y361442D03*
D22*
X25908Y396442D03*
D12*
X148082Y229890D03*
X148082Y220198D03*
D11*
X125964Y213106D03*
X135656Y213106D03*
X125964Y183388D03*
X135656Y183388D03*
X125710Y170434D03*
X135402Y170434D03*
X125456Y157988D03*
X135148Y157988D03*
X108478Y158750D03*
X98786Y158750D03*
X108224Y146050D03*
X98532Y146050D03*
D12*
X165847Y109188D03*
X165847Y99496D03*
D11*
X117114Y213106D03*
X107422Y213106D03*
X108732Y133858D03*
X99040Y133858D03*
D23*
X74168Y261842D03*
X74168Y116842D03*
X25168Y267842D03*
X25168Y110842D03*
D24*
X609894Y440804D03*
X632394Y440804D03*
X598077Y413266D03*
X620577Y413266D03*
X511376Y395029D03*
X488876Y395029D03*
D25*
X535940Y388484D03*
X535940Y370976D03*
X556768Y388738D03*
X556768Y371230D03*
D26*
X621166Y464566D03*
X638674Y464566D03*
D12*
X547116Y467086D03*
X547116Y476778D03*
X561340Y466985D03*
X561340Y476677D03*
D11*
X521228Y447548D03*
X511536Y447548D03*
X521381Y461264D03*
X511689Y461264D03*
D20*
X600710Y194051D03*
X600710Y183901D03*
D19*
X574749Y227292D03*
X564599Y227292D03*
D20*
X563880Y201163D03*
X563880Y191013D03*
D27*
X659258Y117602D03*
X674750Y117602D03*
D24*
X597228Y477416D03*
X574728Y477416D03*
D19*
X785363Y269748D03*
X775213Y269748D03*
D12*
X615442Y268498D03*
X615442Y258806D03*
D11*
X624058Y214884D03*
X633750Y214884D03*
X552978Y253746D03*
X543286Y253746D03*
X552724Y241300D03*
X543032Y241300D03*
D28*
X84710Y76368D03*
X84710Y97368D03*
X103758Y97368D03*
X103758Y76368D03*
D20*
X138176Y76459D03*
X138176Y86609D03*
X125476Y75951D03*
X125476Y86101D03*
X368750Y394455D03*
X368750Y384305D03*
D29*
X601519Y389431D03*
X593910Y390086D03*
M02*
