G04 EAGLE Gerber RS-274X export*
G75*
%MOMM*%
%FSLAX34Y34*%
%LPD*%
%INSoldermask Top*%
%IPPOS*%
%AMOC8*
5,1,8,0,0,1.08239X$1,22.5*%
G01*
G04 Define Apertures*
%ADD10R,0.951600X0.301600*%
%ADD11R,0.301600X0.951600*%
%ADD12C,0.102544*%
%ADD13R,4.151600X4.151600*%
%ADD14C,0.501600*%
%ADD15C,0.166334*%
%ADD16R,5.201600X5.201600*%
%ADD17C,3.429000*%
%ADD18R,3.101600X1.001600*%
%ADD19R,0.355600X0.914400*%
%ADD20R,0.914400X0.355600*%
%ADD21R,3.505200X3.505200*%
%ADD22R,0.730700X0.661600*%
%ADD23R,0.661600X0.730700*%
%ADD24C,0.558800*%
%ADD25R,1.501600X2.001600*%
%ADD26R,1.901600X1.501600*%
%ADD27R,0.801600X1.601600*%
%ADD28C,1.981200*%
%ADD29R,1.001600X1.101600*%
%ADD30C,2.501600*%
%ADD31C,1.601600*%
%ADD32C,3.301600*%
%ADD33R,0.351600X1.251600*%
%ADD34C,1.001600*%
%ADD35R,0.636700X0.745600*%
%ADD36R,1.501600X1.301600*%
%ADD37R,1.001600X1.071800*%
%ADD38R,1.034200X1.071800*%
%ADD39R,1.701600X1.904600*%
%ADD40R,0.745600X0.636700*%
%ADD41R,0.660400X1.562100*%
%ADD42R,2.133600X2.133600*%
%ADD43C,2.133600*%
%ADD44R,2.001600X0.401600*%
%ADD45C,2.051600*%
%ADD46R,1.022500X1.071800*%
%ADD47R,0.901600X0.901600*%
%ADD48R,1.075500X0.900300*%
%ADD49R,0.939800X0.762000*%
%ADD50R,0.651600X1.301600*%
%ADD51R,1.071800X1.022500*%
%ADD52R,1.306400X0.850800*%
%ADD53R,0.900300X1.075500*%
%ADD54R,1.016000X0.406400*%
%ADD55R,0.406400X1.016000*%
%ADD56R,1.901600X2.001600*%
%ADD57R,2.001600X2.001600*%
%ADD58R,2.201600X1.701600*%
%ADD59R,0.501600X1.451600*%
%ADD60R,1.101600X1.901600*%
%ADD61C,0.508000*%
D10*
X516096Y464214D03*
X516096Y460214D03*
X516096Y456214D03*
X516096Y452214D03*
X516096Y448214D03*
X516096Y444214D03*
X516096Y440214D03*
X516096Y436214D03*
X516096Y432214D03*
X516096Y428214D03*
X516096Y424214D03*
X516096Y420214D03*
D11*
X523846Y412464D03*
X527846Y412464D03*
X531846Y412464D03*
X535846Y412464D03*
X539846Y412464D03*
X543846Y412464D03*
X547846Y412464D03*
X551846Y412464D03*
X555846Y412464D03*
X559846Y412464D03*
X563846Y412464D03*
X567846Y412464D03*
D12*
X571350Y419218D02*
X571350Y421210D01*
X579842Y421210D01*
X579842Y419218D01*
X571350Y419218D01*
X571350Y420192D02*
X579842Y420192D01*
X579842Y421166D02*
X571350Y421166D01*
X571350Y423218D02*
X571350Y425210D01*
X579842Y425210D01*
X579842Y423218D01*
X571350Y423218D01*
X571350Y424192D02*
X579842Y424192D01*
X579842Y425166D02*
X571350Y425166D01*
X571350Y427218D02*
X571350Y429210D01*
X579842Y429210D01*
X579842Y427218D01*
X571350Y427218D01*
X571350Y428192D02*
X579842Y428192D01*
X579842Y429166D02*
X571350Y429166D01*
X571350Y431218D02*
X571350Y433210D01*
X579842Y433210D01*
X579842Y431218D01*
X571350Y431218D01*
X571350Y432192D02*
X579842Y432192D01*
X579842Y433166D02*
X571350Y433166D01*
X571350Y435218D02*
X571350Y437210D01*
X579842Y437210D01*
X579842Y435218D01*
X571350Y435218D01*
X571350Y436192D02*
X579842Y436192D01*
X579842Y437166D02*
X571350Y437166D01*
X571350Y439218D02*
X571350Y441210D01*
X579842Y441210D01*
X579842Y439218D01*
X571350Y439218D01*
X571350Y440192D02*
X579842Y440192D01*
X579842Y441166D02*
X571350Y441166D01*
X571350Y443218D02*
X571350Y445210D01*
X579842Y445210D01*
X579842Y443218D01*
X571350Y443218D01*
X571350Y444192D02*
X579842Y444192D01*
X579842Y445166D02*
X571350Y445166D01*
X571350Y447218D02*
X571350Y449210D01*
X579842Y449210D01*
X579842Y447218D01*
X571350Y447218D01*
X571350Y448192D02*
X579842Y448192D01*
X579842Y449166D02*
X571350Y449166D01*
X571350Y451218D02*
X571350Y453210D01*
X579842Y453210D01*
X579842Y451218D01*
X571350Y451218D01*
X571350Y452192D02*
X579842Y452192D01*
X579842Y453166D02*
X571350Y453166D01*
X571350Y455218D02*
X571350Y457210D01*
X579842Y457210D01*
X579842Y455218D01*
X571350Y455218D01*
X571350Y456192D02*
X579842Y456192D01*
X579842Y457166D02*
X571350Y457166D01*
X571350Y459218D02*
X571350Y461210D01*
X579842Y461210D01*
X579842Y459218D01*
X571350Y459218D01*
X571350Y460192D02*
X579842Y460192D01*
X579842Y461166D02*
X571350Y461166D01*
X571350Y463218D02*
X571350Y465210D01*
X579842Y465210D01*
X579842Y463218D01*
X571350Y463218D01*
X571350Y464192D02*
X579842Y464192D01*
X579842Y465166D02*
X571350Y465166D01*
D11*
X567846Y471964D03*
X563846Y471964D03*
X559846Y471964D03*
X555846Y471964D03*
X551846Y471964D03*
X547846Y471964D03*
X543846Y471964D03*
X539846Y471964D03*
X535846Y471964D03*
X531846Y471964D03*
X527846Y471964D03*
X523846Y471964D03*
D13*
X545846Y442214D03*
D14*
X380238Y238630D03*
X388238Y238630D03*
X396238Y238630D03*
X404238Y238630D03*
X412238Y238630D03*
X420238Y238630D03*
X428238Y238630D03*
X436238Y238630D03*
X444238Y238630D03*
X452238Y238630D03*
X460238Y238630D03*
X468238Y238630D03*
X476238Y238630D03*
X484238Y238630D03*
X492238Y238630D03*
X500238Y238630D03*
X508238Y238630D03*
X516238Y238630D03*
X380238Y246630D03*
X388238Y246630D03*
X396238Y246630D03*
X404238Y246630D03*
X412238Y246630D03*
X420238Y246630D03*
X428238Y246630D03*
X436238Y246630D03*
X444238Y246630D03*
X452238Y246630D03*
X460238Y246630D03*
X468238Y246630D03*
X476238Y246630D03*
X484238Y246630D03*
X492238Y246630D03*
X500238Y246630D03*
X508238Y246630D03*
X516238Y246630D03*
X380238Y254630D03*
X388238Y254630D03*
X396238Y254630D03*
X404238Y254630D03*
X412238Y254630D03*
X420238Y254630D03*
X428238Y254630D03*
X436238Y254630D03*
X444238Y254630D03*
X452238Y254630D03*
X460238Y254630D03*
X468238Y254630D03*
X476238Y254630D03*
X484238Y254630D03*
X492238Y254630D03*
X500238Y254630D03*
X508238Y254630D03*
X516238Y254630D03*
X380238Y262630D03*
X388238Y262630D03*
X396238Y262630D03*
X404238Y262630D03*
X412238Y262630D03*
X420238Y262630D03*
X428238Y262630D03*
X436238Y262630D03*
X444238Y262630D03*
X452238Y262630D03*
X460238Y262630D03*
X468238Y262630D03*
X476238Y262630D03*
X484238Y262630D03*
X492238Y262630D03*
X500238Y262630D03*
X508238Y262630D03*
X516238Y262630D03*
X516238Y270630D03*
X508238Y270630D03*
X500238Y270630D03*
X492238Y270630D03*
X484238Y270630D03*
X476238Y270630D03*
X468238Y270630D03*
X460238Y270630D03*
X452238Y270630D03*
X444238Y270630D03*
X436238Y270630D03*
X428238Y270630D03*
X420238Y270630D03*
X412238Y270630D03*
X404238Y270630D03*
X396238Y270630D03*
X388238Y270630D03*
X380238Y270630D03*
X380238Y278630D03*
X388238Y278630D03*
X396238Y278630D03*
X404238Y278630D03*
X412238Y278630D03*
X420238Y278630D03*
X428238Y278630D03*
X436238Y278630D03*
X444238Y278630D03*
X452238Y278630D03*
X460238Y278630D03*
X468238Y278630D03*
X476238Y278630D03*
X484238Y278630D03*
X492238Y278630D03*
X500238Y278630D03*
X508238Y278630D03*
X516238Y278630D03*
X380238Y286630D03*
X388238Y286630D03*
X396238Y286630D03*
X404238Y286630D03*
X412238Y286630D03*
X420238Y286630D03*
X428238Y286630D03*
X436238Y286630D03*
X444238Y286630D03*
X452238Y286630D03*
X460238Y286630D03*
X468238Y286630D03*
X476238Y286630D03*
X484238Y286630D03*
X492238Y286630D03*
X500238Y286630D03*
X508238Y286630D03*
X516238Y286630D03*
X380238Y294630D03*
X388238Y294630D03*
X396238Y294630D03*
X404238Y294630D03*
X412238Y294630D03*
X420238Y294630D03*
X428238Y294630D03*
X436238Y294630D03*
X444238Y294630D03*
X452238Y294630D03*
X460238Y294630D03*
X468238Y294630D03*
X476238Y294630D03*
X484238Y294630D03*
X492238Y294630D03*
X500238Y294630D03*
X508238Y294630D03*
X516238Y294630D03*
X380238Y302630D03*
X388238Y302630D03*
X396238Y302630D03*
X404238Y302630D03*
X412238Y302630D03*
X420238Y302630D03*
X428238Y302630D03*
X436238Y302630D03*
X444238Y302630D03*
X452238Y302630D03*
X460238Y302630D03*
X468238Y302630D03*
X476238Y302630D03*
X484238Y302630D03*
X492238Y302630D03*
X500238Y302630D03*
X508238Y302630D03*
X516238Y302630D03*
X380238Y310630D03*
X388238Y310630D03*
X396238Y310630D03*
X404238Y310630D03*
X412238Y310630D03*
X420238Y310630D03*
X428238Y310630D03*
X436238Y310630D03*
X444238Y310630D03*
X452238Y310630D03*
X460238Y310630D03*
X468238Y310630D03*
X476238Y310630D03*
X484238Y310630D03*
X492238Y310630D03*
X500238Y310630D03*
X508238Y310630D03*
X516238Y310630D03*
X380238Y318630D03*
X388238Y318630D03*
X396238Y318630D03*
X404238Y318630D03*
X412238Y318630D03*
X420238Y318630D03*
X428238Y318630D03*
X436238Y318630D03*
X444238Y318630D03*
X452238Y318630D03*
X460238Y318630D03*
X468238Y318630D03*
X476238Y318630D03*
X484238Y318630D03*
X492238Y318630D03*
X500238Y318630D03*
X508238Y318630D03*
X516238Y318630D03*
X380238Y326630D03*
X388238Y326630D03*
X396238Y326630D03*
X404238Y326630D03*
X412238Y326630D03*
X420238Y326630D03*
X428238Y326630D03*
X436238Y326630D03*
X444238Y326630D03*
X452238Y326630D03*
X460238Y326630D03*
X468238Y326630D03*
X476238Y326630D03*
X484238Y326630D03*
X492238Y326630D03*
X500238Y326630D03*
X508238Y326630D03*
X516238Y326630D03*
X380238Y334630D03*
X388238Y334630D03*
X396238Y334630D03*
X404238Y334630D03*
X412238Y334630D03*
X420238Y334630D03*
X428238Y334630D03*
X436238Y334630D03*
X444238Y334630D03*
X452238Y334630D03*
X460238Y334630D03*
X468238Y334630D03*
X476238Y334630D03*
X484238Y334630D03*
X492238Y334630D03*
X500238Y334630D03*
X508238Y334630D03*
X516238Y334630D03*
X380238Y342630D03*
X388238Y342630D03*
X396238Y342630D03*
X404238Y342630D03*
X412238Y342630D03*
X420238Y342630D03*
X428238Y342630D03*
X436238Y342630D03*
X444238Y342630D03*
X452238Y342630D03*
X460238Y342630D03*
X468238Y342630D03*
X476238Y342630D03*
X484238Y342630D03*
X492238Y342630D03*
X500238Y342630D03*
X508238Y342630D03*
X516238Y342630D03*
X380238Y350630D03*
X388238Y350630D03*
X396238Y350630D03*
X404238Y350630D03*
X412238Y350630D03*
X420238Y350630D03*
X428238Y350630D03*
X436238Y350630D03*
X444238Y350630D03*
X452238Y350630D03*
X460238Y350630D03*
X468238Y350630D03*
X476238Y350630D03*
X484238Y350630D03*
X492238Y350630D03*
X500238Y350630D03*
X508238Y350630D03*
X516238Y350630D03*
X380238Y222630D03*
X388238Y222630D03*
X396238Y222630D03*
X404238Y222630D03*
X412238Y222630D03*
X420238Y222630D03*
X428238Y222630D03*
X436238Y222630D03*
X444238Y222630D03*
X452238Y222630D03*
X460238Y222630D03*
X468238Y222630D03*
X476238Y222630D03*
X484238Y222630D03*
X492238Y222630D03*
X500238Y222630D03*
X508238Y222630D03*
X516238Y222630D03*
X380238Y230630D03*
X388238Y230630D03*
X396238Y230630D03*
X404238Y230630D03*
X412238Y230630D03*
X420238Y230630D03*
X428238Y230630D03*
X436238Y230630D03*
X444238Y230630D03*
X452238Y230630D03*
X460238Y230630D03*
X468238Y230630D03*
X476238Y230630D03*
X484238Y230630D03*
X492238Y230630D03*
X500238Y230630D03*
X508238Y230630D03*
X516238Y230630D03*
X380238Y214630D03*
X388238Y214630D03*
X396238Y214630D03*
X404238Y214630D03*
X412238Y214630D03*
X420238Y214630D03*
X428238Y214630D03*
X436238Y214630D03*
X444238Y214630D03*
X452238Y214630D03*
X460238Y214630D03*
X468238Y214630D03*
X476238Y214630D03*
X484238Y214630D03*
X492238Y214630D03*
X500238Y214630D03*
X508238Y214630D03*
X516238Y214630D03*
D15*
X207155Y225929D02*
X207155Y233883D01*
X209109Y233883D01*
X209109Y225929D01*
X207155Y225929D01*
X207155Y227509D02*
X209109Y227509D01*
X209109Y229089D02*
X207155Y229089D01*
X207155Y230669D02*
X209109Y230669D01*
X209109Y232249D02*
X207155Y232249D01*
X207155Y233829D02*
X209109Y233829D01*
X202155Y233883D02*
X202155Y225929D01*
X202155Y233883D02*
X204109Y233883D01*
X204109Y225929D01*
X202155Y225929D01*
X202155Y227509D02*
X204109Y227509D01*
X204109Y229089D02*
X202155Y229089D01*
X202155Y230669D02*
X204109Y230669D01*
X204109Y232249D02*
X202155Y232249D01*
X202155Y233829D02*
X204109Y233829D01*
X197155Y233883D02*
X197155Y225929D01*
X197155Y233883D02*
X199109Y233883D01*
X199109Y225929D01*
X197155Y225929D01*
X197155Y227509D02*
X199109Y227509D01*
X199109Y229089D02*
X197155Y229089D01*
X197155Y230669D02*
X199109Y230669D01*
X199109Y232249D02*
X197155Y232249D01*
X197155Y233829D02*
X199109Y233829D01*
X192155Y233883D02*
X192155Y225929D01*
X192155Y233883D02*
X194109Y233883D01*
X194109Y225929D01*
X192155Y225929D01*
X192155Y227509D02*
X194109Y227509D01*
X194109Y229089D02*
X192155Y229089D01*
X192155Y230669D02*
X194109Y230669D01*
X194109Y232249D02*
X192155Y232249D01*
X192155Y233829D02*
X194109Y233829D01*
X187155Y233883D02*
X187155Y225929D01*
X187155Y233883D02*
X189109Y233883D01*
X189109Y225929D01*
X187155Y225929D01*
X187155Y227509D02*
X189109Y227509D01*
X189109Y229089D02*
X187155Y229089D01*
X187155Y230669D02*
X189109Y230669D01*
X189109Y232249D02*
X187155Y232249D01*
X187155Y233829D02*
X189109Y233829D01*
X182155Y233883D02*
X182155Y225929D01*
X182155Y233883D02*
X184109Y233883D01*
X184109Y225929D01*
X182155Y225929D01*
X182155Y227509D02*
X184109Y227509D01*
X184109Y229089D02*
X182155Y229089D01*
X182155Y230669D02*
X184109Y230669D01*
X184109Y232249D02*
X182155Y232249D01*
X182155Y233829D02*
X184109Y233829D01*
X177155Y233883D02*
X177155Y225929D01*
X177155Y233883D02*
X179109Y233883D01*
X179109Y225929D01*
X177155Y225929D01*
X177155Y227509D02*
X179109Y227509D01*
X179109Y229089D02*
X177155Y229089D01*
X177155Y230669D02*
X179109Y230669D01*
X179109Y232249D02*
X177155Y232249D01*
X177155Y233829D02*
X179109Y233829D01*
X172155Y233883D02*
X172155Y225929D01*
X172155Y233883D02*
X174109Y233883D01*
X174109Y225929D01*
X172155Y225929D01*
X172155Y227509D02*
X174109Y227509D01*
X174109Y229089D02*
X172155Y229089D01*
X172155Y230669D02*
X174109Y230669D01*
X174109Y232249D02*
X172155Y232249D01*
X172155Y233829D02*
X174109Y233829D01*
X167155Y233883D02*
X167155Y225929D01*
X167155Y233883D02*
X169109Y233883D01*
X169109Y225929D01*
X167155Y225929D01*
X167155Y227509D02*
X169109Y227509D01*
X169109Y229089D02*
X167155Y229089D01*
X167155Y230669D02*
X169109Y230669D01*
X169109Y232249D02*
X167155Y232249D01*
X167155Y233829D02*
X169109Y233829D01*
X162155Y233883D02*
X162155Y225929D01*
X162155Y233883D02*
X164109Y233883D01*
X164109Y225929D01*
X162155Y225929D01*
X162155Y227509D02*
X164109Y227509D01*
X164109Y229089D02*
X162155Y229089D01*
X162155Y230669D02*
X164109Y230669D01*
X164109Y232249D02*
X162155Y232249D01*
X162155Y233829D02*
X164109Y233829D01*
X157155Y233883D02*
X157155Y225929D01*
X157155Y233883D02*
X159109Y233883D01*
X159109Y225929D01*
X157155Y225929D01*
X157155Y227509D02*
X159109Y227509D01*
X159109Y229089D02*
X157155Y229089D01*
X157155Y230669D02*
X159109Y230669D01*
X159109Y232249D02*
X157155Y232249D01*
X157155Y233829D02*
X159109Y233829D01*
X152155Y233883D02*
X152155Y225929D01*
X152155Y233883D02*
X154109Y233883D01*
X154109Y225929D01*
X152155Y225929D01*
X152155Y227509D02*
X154109Y227509D01*
X154109Y229089D02*
X152155Y229089D01*
X152155Y230669D02*
X154109Y230669D01*
X154109Y232249D02*
X152155Y232249D01*
X152155Y233829D02*
X154109Y233829D01*
X147155Y233883D02*
X147155Y225929D01*
X147155Y233883D02*
X149109Y233883D01*
X149109Y225929D01*
X147155Y225929D01*
X147155Y227509D02*
X149109Y227509D01*
X149109Y229089D02*
X147155Y229089D01*
X147155Y230669D02*
X149109Y230669D01*
X149109Y232249D02*
X147155Y232249D01*
X147155Y233829D02*
X149109Y233829D01*
X142155Y233883D02*
X142155Y225929D01*
X142155Y233883D02*
X144109Y233883D01*
X144109Y225929D01*
X142155Y225929D01*
X142155Y227509D02*
X144109Y227509D01*
X144109Y229089D02*
X142155Y229089D01*
X142155Y230669D02*
X144109Y230669D01*
X144109Y232249D02*
X142155Y232249D01*
X142155Y233829D02*
X144109Y233829D01*
X137155Y233883D02*
X137155Y225929D01*
X137155Y233883D02*
X139109Y233883D01*
X139109Y225929D01*
X137155Y225929D01*
X137155Y227509D02*
X139109Y227509D01*
X139109Y229089D02*
X137155Y229089D01*
X137155Y230669D02*
X139109Y230669D01*
X139109Y232249D02*
X137155Y232249D01*
X137155Y233829D02*
X139109Y233829D01*
X132155Y233883D02*
X132155Y225929D01*
X132155Y233883D02*
X134109Y233883D01*
X134109Y225929D01*
X132155Y225929D01*
X132155Y227509D02*
X134109Y227509D01*
X134109Y229089D02*
X132155Y229089D01*
X132155Y230669D02*
X134109Y230669D01*
X134109Y232249D02*
X132155Y232249D01*
X132155Y233829D02*
X134109Y233829D01*
X132155Y145183D02*
X132155Y137229D01*
X132155Y145183D02*
X134109Y145183D01*
X134109Y137229D01*
X132155Y137229D01*
X132155Y138809D02*
X134109Y138809D01*
X134109Y140389D02*
X132155Y140389D01*
X132155Y141969D02*
X134109Y141969D01*
X134109Y143549D02*
X132155Y143549D01*
X132155Y145129D02*
X134109Y145129D01*
X137155Y145183D02*
X137155Y137229D01*
X137155Y145183D02*
X139109Y145183D01*
X139109Y137229D01*
X137155Y137229D01*
X137155Y138809D02*
X139109Y138809D01*
X139109Y140389D02*
X137155Y140389D01*
X137155Y141969D02*
X139109Y141969D01*
X139109Y143549D02*
X137155Y143549D01*
X137155Y145129D02*
X139109Y145129D01*
X142155Y145183D02*
X142155Y137229D01*
X142155Y145183D02*
X144109Y145183D01*
X144109Y137229D01*
X142155Y137229D01*
X142155Y138809D02*
X144109Y138809D01*
X144109Y140389D02*
X142155Y140389D01*
X142155Y141969D02*
X144109Y141969D01*
X144109Y143549D02*
X142155Y143549D01*
X142155Y145129D02*
X144109Y145129D01*
X147155Y145183D02*
X147155Y137229D01*
X147155Y145183D02*
X149109Y145183D01*
X149109Y137229D01*
X147155Y137229D01*
X147155Y138809D02*
X149109Y138809D01*
X149109Y140389D02*
X147155Y140389D01*
X147155Y141969D02*
X149109Y141969D01*
X149109Y143549D02*
X147155Y143549D01*
X147155Y145129D02*
X149109Y145129D01*
X152155Y145183D02*
X152155Y137229D01*
X152155Y145183D02*
X154109Y145183D01*
X154109Y137229D01*
X152155Y137229D01*
X152155Y138809D02*
X154109Y138809D01*
X154109Y140389D02*
X152155Y140389D01*
X152155Y141969D02*
X154109Y141969D01*
X154109Y143549D02*
X152155Y143549D01*
X152155Y145129D02*
X154109Y145129D01*
X157155Y145183D02*
X157155Y137229D01*
X157155Y145183D02*
X159109Y145183D01*
X159109Y137229D01*
X157155Y137229D01*
X157155Y138809D02*
X159109Y138809D01*
X159109Y140389D02*
X157155Y140389D01*
X157155Y141969D02*
X159109Y141969D01*
X159109Y143549D02*
X157155Y143549D01*
X157155Y145129D02*
X159109Y145129D01*
X162155Y145183D02*
X162155Y137229D01*
X162155Y145183D02*
X164109Y145183D01*
X164109Y137229D01*
X162155Y137229D01*
X162155Y138809D02*
X164109Y138809D01*
X164109Y140389D02*
X162155Y140389D01*
X162155Y141969D02*
X164109Y141969D01*
X164109Y143549D02*
X162155Y143549D01*
X162155Y145129D02*
X164109Y145129D01*
X167155Y145183D02*
X167155Y137229D01*
X167155Y145183D02*
X169109Y145183D01*
X169109Y137229D01*
X167155Y137229D01*
X167155Y138809D02*
X169109Y138809D01*
X169109Y140389D02*
X167155Y140389D01*
X167155Y141969D02*
X169109Y141969D01*
X169109Y143549D02*
X167155Y143549D01*
X167155Y145129D02*
X169109Y145129D01*
X172155Y145183D02*
X172155Y137229D01*
X172155Y145183D02*
X174109Y145183D01*
X174109Y137229D01*
X172155Y137229D01*
X172155Y138809D02*
X174109Y138809D01*
X174109Y140389D02*
X172155Y140389D01*
X172155Y141969D02*
X174109Y141969D01*
X174109Y143549D02*
X172155Y143549D01*
X172155Y145129D02*
X174109Y145129D01*
X177155Y145183D02*
X177155Y137229D01*
X177155Y145183D02*
X179109Y145183D01*
X179109Y137229D01*
X177155Y137229D01*
X177155Y138809D02*
X179109Y138809D01*
X179109Y140389D02*
X177155Y140389D01*
X177155Y141969D02*
X179109Y141969D01*
X179109Y143549D02*
X177155Y143549D01*
X177155Y145129D02*
X179109Y145129D01*
X182155Y145183D02*
X182155Y137229D01*
X182155Y145183D02*
X184109Y145183D01*
X184109Y137229D01*
X182155Y137229D01*
X182155Y138809D02*
X184109Y138809D01*
X184109Y140389D02*
X182155Y140389D01*
X182155Y141969D02*
X184109Y141969D01*
X184109Y143549D02*
X182155Y143549D01*
X182155Y145129D02*
X184109Y145129D01*
X187155Y145183D02*
X187155Y137229D01*
X187155Y145183D02*
X189109Y145183D01*
X189109Y137229D01*
X187155Y137229D01*
X187155Y138809D02*
X189109Y138809D01*
X189109Y140389D02*
X187155Y140389D01*
X187155Y141969D02*
X189109Y141969D01*
X189109Y143549D02*
X187155Y143549D01*
X187155Y145129D02*
X189109Y145129D01*
X192155Y145183D02*
X192155Y137229D01*
X192155Y145183D02*
X194109Y145183D01*
X194109Y137229D01*
X192155Y137229D01*
X192155Y138809D02*
X194109Y138809D01*
X194109Y140389D02*
X192155Y140389D01*
X192155Y141969D02*
X194109Y141969D01*
X194109Y143549D02*
X192155Y143549D01*
X192155Y145129D02*
X194109Y145129D01*
X197155Y145183D02*
X197155Y137229D01*
X197155Y145183D02*
X199109Y145183D01*
X199109Y137229D01*
X197155Y137229D01*
X197155Y138809D02*
X199109Y138809D01*
X199109Y140389D02*
X197155Y140389D01*
X197155Y141969D02*
X199109Y141969D01*
X199109Y143549D02*
X197155Y143549D01*
X197155Y145129D02*
X199109Y145129D01*
X202155Y145183D02*
X202155Y137229D01*
X202155Y145183D02*
X204109Y145183D01*
X204109Y137229D01*
X202155Y137229D01*
X202155Y138809D02*
X204109Y138809D01*
X204109Y140389D02*
X202155Y140389D01*
X202155Y141969D02*
X204109Y141969D01*
X204109Y143549D02*
X202155Y143549D01*
X202155Y145129D02*
X204109Y145129D01*
X207155Y145183D02*
X207155Y137229D01*
X207155Y145183D02*
X209109Y145183D01*
X209109Y137229D01*
X207155Y137229D01*
X207155Y138809D02*
X209109Y138809D01*
X209109Y140389D02*
X207155Y140389D01*
X207155Y141969D02*
X209109Y141969D01*
X209109Y143549D02*
X207155Y143549D01*
X207155Y145129D02*
X209109Y145129D01*
X211005Y149033D02*
X218959Y149033D01*
X218959Y147079D01*
X211005Y147079D01*
X211005Y149033D01*
X211005Y148659D02*
X218959Y148659D01*
X218959Y154033D02*
X211005Y154033D01*
X218959Y154033D02*
X218959Y152079D01*
X211005Y152079D01*
X211005Y154033D01*
X211005Y153659D02*
X218959Y153659D01*
X218959Y159033D02*
X211005Y159033D01*
X218959Y159033D02*
X218959Y157079D01*
X211005Y157079D01*
X211005Y159033D01*
X211005Y158659D02*
X218959Y158659D01*
X218959Y164033D02*
X211005Y164033D01*
X218959Y164033D02*
X218959Y162079D01*
X211005Y162079D01*
X211005Y164033D01*
X211005Y163659D02*
X218959Y163659D01*
X218959Y169033D02*
X211005Y169033D01*
X218959Y169033D02*
X218959Y167079D01*
X211005Y167079D01*
X211005Y169033D01*
X211005Y168659D02*
X218959Y168659D01*
X218959Y174033D02*
X211005Y174033D01*
X218959Y174033D02*
X218959Y172079D01*
X211005Y172079D01*
X211005Y174033D01*
X211005Y173659D02*
X218959Y173659D01*
X218959Y179033D02*
X211005Y179033D01*
X218959Y179033D02*
X218959Y177079D01*
X211005Y177079D01*
X211005Y179033D01*
X211005Y178659D02*
X218959Y178659D01*
X218959Y184033D02*
X211005Y184033D01*
X218959Y184033D02*
X218959Y182079D01*
X211005Y182079D01*
X211005Y184033D01*
X211005Y183659D02*
X218959Y183659D01*
X218959Y189033D02*
X211005Y189033D01*
X218959Y189033D02*
X218959Y187079D01*
X211005Y187079D01*
X211005Y189033D01*
X211005Y188659D02*
X218959Y188659D01*
X218959Y194033D02*
X211005Y194033D01*
X218959Y194033D02*
X218959Y192079D01*
X211005Y192079D01*
X211005Y194033D01*
X211005Y193659D02*
X218959Y193659D01*
X218959Y199033D02*
X211005Y199033D01*
X218959Y199033D02*
X218959Y197079D01*
X211005Y197079D01*
X211005Y199033D01*
X211005Y198659D02*
X218959Y198659D01*
X218959Y204033D02*
X211005Y204033D01*
X218959Y204033D02*
X218959Y202079D01*
X211005Y202079D01*
X211005Y204033D01*
X211005Y203659D02*
X218959Y203659D01*
X218959Y209033D02*
X211005Y209033D01*
X218959Y209033D02*
X218959Y207079D01*
X211005Y207079D01*
X211005Y209033D01*
X211005Y208659D02*
X218959Y208659D01*
X218959Y214033D02*
X211005Y214033D01*
X218959Y214033D02*
X218959Y212079D01*
X211005Y212079D01*
X211005Y214033D01*
X211005Y213659D02*
X218959Y213659D01*
X218959Y219033D02*
X211005Y219033D01*
X218959Y219033D02*
X218959Y217079D01*
X211005Y217079D01*
X211005Y219033D01*
X211005Y218659D02*
X218959Y218659D01*
X218959Y224033D02*
X211005Y224033D01*
X218959Y224033D02*
X218959Y222079D01*
X211005Y222079D01*
X211005Y224033D01*
X211005Y223659D02*
X218959Y223659D01*
X130259Y224033D02*
X122305Y224033D01*
X130259Y224033D02*
X130259Y222079D01*
X122305Y222079D01*
X122305Y224033D01*
X122305Y223659D02*
X130259Y223659D01*
X130259Y219033D02*
X122305Y219033D01*
X130259Y219033D02*
X130259Y217079D01*
X122305Y217079D01*
X122305Y219033D01*
X122305Y218659D02*
X130259Y218659D01*
X130259Y214033D02*
X122305Y214033D01*
X130259Y214033D02*
X130259Y212079D01*
X122305Y212079D01*
X122305Y214033D01*
X122305Y213659D02*
X130259Y213659D01*
X130259Y209033D02*
X122305Y209033D01*
X130259Y209033D02*
X130259Y207079D01*
X122305Y207079D01*
X122305Y209033D01*
X122305Y208659D02*
X130259Y208659D01*
X130259Y204033D02*
X122305Y204033D01*
X130259Y204033D02*
X130259Y202079D01*
X122305Y202079D01*
X122305Y204033D01*
X122305Y203659D02*
X130259Y203659D01*
X130259Y199033D02*
X122305Y199033D01*
X130259Y199033D02*
X130259Y197079D01*
X122305Y197079D01*
X122305Y199033D01*
X122305Y198659D02*
X130259Y198659D01*
X130259Y194033D02*
X122305Y194033D01*
X130259Y194033D02*
X130259Y192079D01*
X122305Y192079D01*
X122305Y194033D01*
X122305Y193659D02*
X130259Y193659D01*
X130259Y189033D02*
X122305Y189033D01*
X130259Y189033D02*
X130259Y187079D01*
X122305Y187079D01*
X122305Y189033D01*
X122305Y188659D02*
X130259Y188659D01*
X130259Y184033D02*
X122305Y184033D01*
X130259Y184033D02*
X130259Y182079D01*
X122305Y182079D01*
X122305Y184033D01*
X122305Y183659D02*
X130259Y183659D01*
X130259Y179033D02*
X122305Y179033D01*
X130259Y179033D02*
X130259Y177079D01*
X122305Y177079D01*
X122305Y179033D01*
X122305Y178659D02*
X130259Y178659D01*
X130259Y174033D02*
X122305Y174033D01*
X130259Y174033D02*
X130259Y172079D01*
X122305Y172079D01*
X122305Y174033D01*
X122305Y173659D02*
X130259Y173659D01*
X130259Y169033D02*
X122305Y169033D01*
X130259Y169033D02*
X130259Y167079D01*
X122305Y167079D01*
X122305Y169033D01*
X122305Y168659D02*
X130259Y168659D01*
X130259Y164033D02*
X122305Y164033D01*
X130259Y164033D02*
X130259Y162079D01*
X122305Y162079D01*
X122305Y164033D01*
X122305Y163659D02*
X130259Y163659D01*
X130259Y159033D02*
X122305Y159033D01*
X130259Y159033D02*
X130259Y157079D01*
X122305Y157079D01*
X122305Y159033D01*
X122305Y158659D02*
X130259Y158659D01*
X130259Y154033D02*
X122305Y154033D01*
X130259Y154033D02*
X130259Y152079D01*
X122305Y152079D01*
X122305Y154033D01*
X122305Y153659D02*
X130259Y153659D01*
X130259Y149033D02*
X122305Y149033D01*
X130259Y149033D02*
X130259Y147079D01*
X122305Y147079D01*
X122305Y149033D01*
X122305Y148659D02*
X130259Y148659D01*
D16*
X170632Y185556D03*
D17*
X712179Y219837D03*
X712179Y88519D03*
D18*
X670059Y144178D03*
X670059Y119178D03*
X670059Y164178D03*
X670059Y189178D03*
D19*
X616255Y256702D03*
X611175Y256702D03*
X606095Y256702D03*
X601015Y256702D03*
X595935Y256702D03*
X590855Y256702D03*
X585775Y256702D03*
X580695Y256702D03*
D20*
X573964Y249971D03*
X573964Y244891D03*
X573964Y239811D03*
X573964Y234731D03*
X573964Y229651D03*
X573964Y224571D03*
X573964Y219491D03*
X573964Y214411D03*
D19*
X580695Y207680D03*
X585775Y207680D03*
X590855Y207680D03*
X595935Y207680D03*
X601015Y207680D03*
X606095Y207680D03*
X611175Y207680D03*
X616255Y207680D03*
D20*
X622986Y214411D03*
X622986Y219491D03*
X622986Y224571D03*
X622986Y229651D03*
X622986Y234731D03*
X622986Y239811D03*
X622986Y244891D03*
X622986Y249971D03*
D21*
X598475Y232191D03*
D22*
X174298Y445255D03*
X174298Y454947D03*
X245118Y449229D03*
X245118Y458921D03*
X154508Y449171D03*
X154508Y458863D03*
X273566Y449489D03*
X273566Y459181D03*
D23*
X285262Y337820D03*
X275570Y337820D03*
X223794Y331216D03*
X214102Y331216D03*
X158008Y337058D03*
X148316Y337058D03*
D24*
X155646Y361446D03*
X155646Y369446D03*
X155646Y377446D03*
X155646Y409446D03*
X155646Y417446D03*
X155646Y425446D03*
X163646Y361446D03*
X163646Y369446D03*
X163646Y377446D03*
X163646Y409446D03*
X163646Y417446D03*
X163646Y425446D03*
X171646Y361446D03*
X171646Y369446D03*
X171646Y377446D03*
X171646Y409446D03*
X171646Y417446D03*
X171646Y425446D03*
X179646Y361446D03*
X179646Y369446D03*
X179646Y377446D03*
X179646Y409446D03*
X179646Y417446D03*
X179646Y425446D03*
X187646Y361446D03*
X187646Y369446D03*
X187646Y377446D03*
X187646Y409446D03*
X187646Y417446D03*
X187646Y425446D03*
X195646Y361446D03*
X195646Y369446D03*
X195646Y377446D03*
X195646Y409446D03*
X195646Y417446D03*
X195646Y425446D03*
X203646Y361446D03*
X203646Y369446D03*
X203646Y377446D03*
X203646Y409446D03*
X203646Y417446D03*
X203646Y425446D03*
X211646Y361446D03*
X211646Y369446D03*
X211646Y377446D03*
X211646Y409446D03*
X211646Y417446D03*
X211646Y425446D03*
X219646Y361446D03*
X219646Y369446D03*
X219646Y377446D03*
X219646Y409446D03*
X219646Y417446D03*
X219646Y425446D03*
X227646Y361446D03*
X227646Y369446D03*
X227646Y377446D03*
X227646Y409446D03*
X227646Y417446D03*
X227646Y425446D03*
X235646Y361446D03*
X235646Y369446D03*
X235646Y377446D03*
X235646Y409446D03*
X235646Y417446D03*
X235646Y425446D03*
X243646Y361446D03*
X243646Y369446D03*
X243646Y377446D03*
X243646Y409446D03*
X243646Y417446D03*
X243646Y425446D03*
X251646Y361446D03*
X251646Y369446D03*
X251646Y377446D03*
X251646Y409446D03*
X251646Y417446D03*
X251646Y425446D03*
X259646Y361446D03*
X259646Y369446D03*
X259646Y377446D03*
X259646Y409446D03*
X259646Y417446D03*
X259646Y425446D03*
X267646Y361446D03*
X267646Y369446D03*
X267646Y377446D03*
X267646Y409446D03*
X267646Y417446D03*
X267646Y425446D03*
X275646Y361446D03*
X275646Y369446D03*
X275646Y377446D03*
X275646Y409446D03*
X275646Y417446D03*
X275646Y425446D03*
D25*
X339260Y23961D03*
X471260Y14961D03*
D26*
X355260Y154961D03*
X415260Y154961D03*
D27*
X348260Y52961D03*
X359260Y52961D03*
X370260Y48961D03*
X381260Y52961D03*
X392260Y48961D03*
X403260Y52961D03*
X414260Y56961D03*
X425260Y52961D03*
D28*
X624078Y26035D03*
X649478Y26035D03*
X674878Y26035D03*
X700278Y26035D03*
D29*
X652852Y479678D03*
X652852Y463678D03*
X611852Y463678D03*
X611852Y479678D03*
D28*
X636184Y391955D03*
X661584Y379255D03*
X636184Y366555D03*
X636184Y341155D03*
X636184Y315755D03*
X661584Y353855D03*
X661584Y328455D03*
X661584Y303055D03*
D30*
X695034Y271305D03*
X695034Y423305D03*
D31*
X765034Y281305D03*
X765034Y413305D03*
X765034Y388305D03*
X765034Y306305D03*
D32*
X725084Y290355D03*
X725084Y404655D03*
D33*
X430152Y432150D03*
X425152Y432150D03*
X420152Y432150D03*
X415152Y432150D03*
X410152Y432150D03*
X405152Y432150D03*
X400152Y432150D03*
X395152Y432150D03*
X390152Y432150D03*
X385152Y432150D03*
X380152Y432150D03*
X375152Y432150D03*
X370152Y432150D03*
X365152Y432150D03*
X360152Y432150D03*
X430152Y482150D03*
X425152Y482150D03*
X420152Y482150D03*
X415152Y482150D03*
X410152Y482150D03*
X405152Y482150D03*
X400152Y482150D03*
X395152Y482150D03*
X390152Y482150D03*
X385152Y482150D03*
X380152Y482150D03*
X375152Y482150D03*
X370152Y482150D03*
X365152Y482150D03*
X360152Y482150D03*
D34*
X440152Y447150D03*
X350152Y447150D03*
D35*
X470667Y429122D03*
X480817Y429122D03*
D23*
X508020Y482346D03*
X498328Y482346D03*
X507886Y472414D03*
X498194Y472414D03*
D36*
X506652Y160400D03*
X506652Y144400D03*
X528652Y144400D03*
X528652Y160400D03*
D35*
X529585Y175260D03*
X519435Y175260D03*
D23*
X543794Y159004D03*
X553486Y159004D03*
D35*
X496575Y175260D03*
X506725Y175260D03*
D23*
X544048Y146050D03*
X553740Y146050D03*
D35*
X251465Y103378D03*
X261615Y103378D03*
X251211Y116078D03*
X261361Y116078D03*
X249433Y171778D03*
X259583Y171778D03*
X249433Y183134D03*
X259583Y183134D03*
X249433Y193204D03*
X259583Y193204D03*
X249433Y204470D03*
X259583Y204470D03*
X249433Y214630D03*
X259583Y214630D03*
X249433Y225552D03*
X259583Y225552D03*
X273817Y225044D03*
X283967Y225044D03*
X273817Y214376D03*
X283967Y214376D03*
X273817Y203708D03*
X283967Y203708D03*
X273817Y193294D03*
X283967Y193294D03*
X273817Y182372D03*
X283967Y182372D03*
X273817Y171196D03*
X283967Y171196D03*
X277627Y116840D03*
X287777Y116840D03*
X276357Y103378D03*
X286507Y103378D03*
D37*
X579097Y370332D03*
D38*
X563558Y370332D03*
D35*
X600439Y340936D03*
X590289Y340936D03*
X601069Y354768D03*
X590919Y354768D03*
X601329Y367678D03*
X591179Y367678D03*
X601339Y380206D03*
X591189Y380206D03*
X738939Y256135D03*
X749089Y256135D03*
X649219Y249779D03*
X639069Y249779D03*
D39*
X22610Y299875D03*
X51050Y299875D03*
D40*
X134620Y255783D03*
X134620Y265933D03*
X122174Y255787D03*
X122174Y265937D03*
X109474Y255783D03*
X109474Y265933D03*
D32*
X771906Y41656D03*
X37592Y456946D03*
X773430Y456692D03*
X43434Y40640D03*
D40*
X231914Y448895D03*
X231914Y459045D03*
X216526Y449281D03*
X216526Y459431D03*
X187450Y455541D03*
X187450Y445391D03*
X257922Y448585D03*
X257922Y458735D03*
D35*
X717555Y256032D03*
X727705Y256032D03*
D29*
X672412Y463424D03*
X672412Y479424D03*
X713412Y479424D03*
X713412Y463424D03*
D35*
X717301Y442722D03*
X727451Y442722D03*
X393533Y372106D03*
X403683Y372106D03*
D41*
X594614Y63705D03*
X607314Y63705D03*
X620014Y63705D03*
X632714Y63705D03*
X632714Y118188D03*
X620014Y118188D03*
X607314Y118188D03*
X594614Y118188D03*
D40*
X651382Y103373D03*
X651382Y93223D03*
D35*
X659643Y64008D03*
X669793Y64008D03*
D40*
X121920Y125471D03*
X121920Y115321D03*
X147320Y255783D03*
X147320Y265933D03*
D42*
X25908Y361442D03*
D43*
X25908Y396442D03*
D35*
X539755Y227330D03*
X549905Y227330D03*
X539755Y240030D03*
X549905Y240030D03*
D44*
X84168Y141842D03*
X84168Y146842D03*
X84168Y151842D03*
X84168Y156842D03*
X84168Y161842D03*
X84168Y166842D03*
X84168Y171842D03*
X84168Y176842D03*
X84168Y181842D03*
X84168Y186842D03*
X84168Y191842D03*
X84168Y196842D03*
X84168Y201842D03*
X84168Y206842D03*
X84168Y211842D03*
X84168Y216842D03*
X84168Y221842D03*
X84168Y226842D03*
X84168Y231842D03*
D45*
X74168Y261842D03*
X74168Y116842D03*
X25168Y267842D03*
X25168Y110842D03*
D35*
X539755Y265176D03*
X549905Y265176D03*
X539755Y278130D03*
X549905Y278130D03*
X539755Y214122D03*
X549905Y214122D03*
X539755Y201168D03*
X549905Y201168D03*
X539755Y252222D03*
X549905Y252222D03*
D40*
X579882Y320553D03*
X579882Y330703D03*
X567436Y320299D03*
X567436Y330449D03*
X554990Y320299D03*
X554990Y330449D03*
X585470Y266451D03*
X585470Y276601D03*
X571754Y265689D03*
X571754Y275839D03*
D46*
X556896Y124460D03*
X572388Y124460D03*
D23*
X495320Y99568D03*
X485628Y99568D03*
X278404Y73914D03*
X268712Y73914D03*
D35*
X550159Y302260D03*
X540009Y302260D03*
X609605Y49022D03*
X619755Y49022D03*
D47*
X302152Y473180D03*
X287152Y473180D03*
D48*
X318008Y445746D03*
X318008Y462050D03*
D22*
X385572Y387584D03*
X385572Y397276D03*
X437134Y400324D03*
X437134Y390632D03*
D49*
X463423Y405003D03*
X463423Y388493D03*
X478917Y388493D03*
X478917Y405003D03*
D23*
X480334Y419100D03*
X470642Y419100D03*
D35*
X539755Y290322D03*
X549905Y290322D03*
D50*
X116992Y27893D03*
X126492Y27893D03*
X135992Y27893D03*
X135992Y53895D03*
X116992Y53895D03*
D48*
X191008Y49808D03*
X191008Y33504D03*
X208534Y49808D03*
X208534Y33504D03*
D51*
X173482Y33910D03*
X173482Y49402D03*
X153162Y34164D03*
X153162Y49656D03*
X573024Y73278D03*
X573024Y57786D03*
D46*
X474852Y483108D03*
X459360Y483108D03*
D52*
X581280Y308950D03*
X581280Y287950D03*
X600328Y287950D03*
X600328Y308950D03*
D22*
X594868Y320274D03*
X594868Y329966D03*
D40*
X614172Y296667D03*
X614172Y286517D03*
X294138Y449151D03*
X294138Y459301D03*
D22*
X200660Y333990D03*
X200660Y343682D03*
X203598Y459202D03*
X203598Y449510D03*
D47*
X252464Y472856D03*
X267464Y472856D03*
D53*
X220956Y472694D03*
X237260Y472694D03*
D35*
X259593Y44196D03*
X269743Y44196D03*
X259593Y57150D03*
X269743Y57150D03*
X260101Y31242D03*
X270251Y31242D03*
X260101Y18288D03*
X270251Y18288D03*
D40*
X489458Y118115D03*
X489458Y128265D03*
X502666Y118115D03*
X502666Y128265D03*
X516128Y118115D03*
X516128Y128265D03*
D54*
X178853Y479474D03*
X178853Y474474D03*
X178853Y469474D03*
X191807Y469474D03*
X191807Y479474D03*
D55*
X549322Y358013D03*
X544322Y358013D03*
X539322Y358013D03*
X539322Y345059D03*
X549322Y345059D03*
D40*
X473202Y469387D03*
X473202Y459237D03*
D56*
X503782Y14379D03*
D57*
X529782Y14379D03*
X553782Y14379D03*
D56*
X579782Y14379D03*
D58*
X572782Y39879D03*
X510782Y39879D03*
D59*
X541782Y41129D03*
X535282Y41129D03*
X554782Y41129D03*
X548282Y41129D03*
X528782Y41129D03*
D60*
X424417Y396240D03*
X399417Y396240D03*
D61*
X601519Y389431D03*
X593910Y390086D03*
M02*
